<?xml version="1.0" encoding="UTF-8"?>
<svg width="30px" height="30px" viewBox="0 0 30 30" version="1.1" xmlns="http://www.w3.org/2000/svg" xmlns:xlink="http://www.w3.org/1999/xlink">
    <!-- Generator: Sketch 53.2 (72643) - https://sketchapp.com -->
    <title>home_logo3</title>
    <desc>Created with Sketch.</desc>
    <g id="Page-1" stroke="none" stroke-width="1" fill="none" fill-rule="evenodd">
        <g id="00-梅花网首页" transform="translate(-1500.000000, -430.000000)">
            <g id="侧边栏-copy-2" transform="translate(1470.000000, 88.000000)">
                <g id="分组-24" transform="translate(0.000000, 30.000000)">
                    <g id="Group-29-Copy-2" transform="translate(30.000000, 262.000000)">
                        <g id="Group-33-Copy" transform="translate(0.000000, 50.000000)">
                            <g id="Group-30">
                                <path d="M15,30 C6.71583333,30 0,23.2841667 0,15 C0,6.71583333 6.71583333,0 15,0 C23.2841667,0 30,6.71583333 30,15 C30,23.2841667 23.2841667,30 15,30 Z" id="Fill-41-Copy-3" fill="#000000"></path>
                                <path d="M5.25,11.2851562 L6.515625,11.2851562 L8.6953125,16.7695312 C8.76562535,17.0039074 8.80078125,17.2031242 8.80078125,17.3671875 L8.8359375,17.3671875 C8.85937512,17.1328113 8.90624965,16.9218759 8.9765625,16.734375 L11.0859375,11.2851562 L12.3867188,11.2851562 L9.36328125,18.5625 L8.2734375,18.5625 L5.25,11.2851562 Z M14.4960938,11.2851562 L15.6914062,11.2851562 L15.6914062,18.5625 L14.4960938,18.5625 L14.4960938,11.2851562 Z M21.703125,15.75 L19.734375,15.75 L19.734375,18.5625 L18.5039062,18.5625 L18.5039062,11.25 L21.7734375,11.25 C23.3671955,11.3203129 24.2226557,12.0585867 24.3398438,13.4648438 C24.3164061,14.9648512 23.4375087,15.7265624 21.703125,15.75 Z M21.5976562,12.3398438 L19.734375,12.3398438 L19.734375,14.6953125 L21.5976562,14.6953125 C22.6054738,14.6953125 23.109375,14.2851604 23.109375,13.4648438 C23.0624998,12.7382776 22.5585986,12.3632814 21.5976562,12.3398438 Z" id="Combined-Shape" fill="#FFFFFF"></path>
                            </g>
                        </g>
                    </g>
                </g>
            </g>
        </g>
    </g>
</svg>