<?xml version="1.0" encoding="UTF-8"?>
<svg width="31px" height="30px" viewBox="0 0 31 30" version="1.1" xmlns="http://www.w3.org/2000/svg" xmlns:xlink="http://www.w3.org/1999/xlink">
    <!-- Generator: Sketch 53.2 (72643) - https://sketchapp.com -->
    <title>home_logo5</title>
    <desc>Created with Sketch.</desc>
    <g id="Page-1" stroke="none" stroke-width="1" fill="none" fill-rule="evenodd">
        <g id="00-梅花网首页" transform="translate(-1500.000000, -480.000000)">
            <g id="侧边栏-copy-2" transform="translate(1470.000000, 88.000000)">
                <g id="分组-24" transform="translate(0.000000, 30.000000)">
                    <g id="Group-29-Copy-2" transform="translate(30.000000, 262.000000)">
                        <g id="Group-31-Copy" transform="translate(0.000000, 100.000000)">
                            <g id="Group-27" transform="translate(0.294118, 0.000000)">
                                <path d="M14.275287,14.2050654 C14.029372,12.8864379 13.531823,12.5 13.531823,12.5 C13.531823,12.5 13.6314962,13.8946078 13.5596007,14.3316993 C13.4885223,14.7679739 13.0694047,14.9403595 13.3079668,15.2295752 C13.5465288,15.5187908 15.2989798,15.9174837 15.4795354,15.7042484 C14.9811694,15.5318627 14.4795354,14.8455882 14.275287,14.2050654" id="Fill-25" fill="#FA4601"></path>
                                <path d="M15.4411765,16.2091503 C15.4436275,16.2189542 15.4485294,16.2336601 15.4509804,16.2434641 C15.4477124,16.2214052 15.4468954,16.1985294 15.4460784,16.1764706 C15.4444444,16.1879085 15.4419935,16.1977124 15.4411765,16.2091503" id="Fill-27" fill="#FA4601"></path>
                                <path d="M16.9452614,17.6642157 C16.9338235,17.6593137 16.9232026,17.6527778 16.9117647,17.6470588 C16.9174837,17.6503268 16.9207516,17.6535948 16.9264706,17.6568627 C16.9321895,17.6593137 16.9395425,17.6617647 16.9452614,17.6642157" id="Fill-31" fill="#FA4601"></path>
                                <path d="M14.2189542,10.1162031 C14.4240196,10.4258436 14.9191176,11.0361377 15.5204248,10.8081966 C16.0130719,10.6382619 16.2410131,10.3686541 16.2941176,10.3302554 L16.3325163,10.2436541 C16.3897059,10.2796018 16.4468954,10.3163665 16.5073529,10.3498632 C16.6021242,10.4021508 16.7091503,10.4560724 16.8202614,10.4544384 C16.620098,10.3711051 16.4910131,10.1921835 16.3284314,10.0516606 L16.3357843,10.0581966 C16.1527778,9.84169329 15.8962418,9.65705276 15.6004902,9.59496126 C15.3071895,9.53695472 15.000817,9.54675865 14.7287582,9.63907891 C14.4558824,9.72077825 14.1960784,9.84332727 13.9607843,9.96424231 C13.7230392,10.0786214 13.4836601,10.2093403 13.2352941,10.3384253 C13.5138889,10.3269874 13.7785948,10.249373 14.0498366,10.1725756 C14.1102941,10.1586868 14.1650327,10.1374449 14.2189542,10.1162031" id="Fill-33" fill="#FA4601"></path>
                                <path d="M11.9031241,14.9566993 C12.2119476,15.2434641 12.537111,15.3194444 12.537111,15.3194444 C12.537111,15.3194444 12.0134182,14.6642157 12.4439738,14.2009804 C12.7764901,13.8431373 13.2086796,13.2034314 13.0493659,12.7785948 C12.8590064,12.2704248 12.3590064,11.7696078 11.913745,11.7647059 C11.913745,11.7647059 12.7258365,12.5955882 12.3018169,13.4493464 C12.0559019,13.9436275 11.5093332,14.4419935 11.9031241,14.9566993" id="Fill-35" fill="#FA4601"></path>
                                <path d="M10.0194974,17.1462418 C10.0595301,17.2638889 10.1028308,17.379085 10.1502164,17.494281 L10.2980922,17.9550654 C10.4059354,18.2908497 10.5881249,18.6584967 10.8691707,18.9387255 C11.1469484,19.2197712 11.4574059,19.370098 11.7229288,19.4844771 L11.9214582,19.5702614 C12.0219484,19.6111111 12.0570791,19.6184641 12.1289746,19.6405229 C12.2539746,19.6764706 12.3748896,19.7116013 12.4909027,19.745098 C12.9590399,19.875817 13.3430269,19.9836601 13.6428635,20.0155229 C13.9328961,20.0555556 14.0962948,20.0661765 14.0962948,20.0661765 C14.0962948,20.0661765 13.9598569,19.9656863 13.7261968,19.8112745 C13.4925367,19.6723856 13.1657393,19.4133987 12.7547916,19.1650327 C12.6526674,19.1004902 12.5456412,19.0334967 12.4353471,18.9640523 C12.3895955,18.9321895 12.3038112,18.8888889 12.2850203,18.870915 L12.1281576,18.7614379 C11.9141053,18.6143791 11.7270138,18.4485294 11.6044648,18.2826797 C11.4835497,18.119281 11.4026674,17.9101307 11.330772,17.6454248 C11.2899223,17.5138889 11.2613275,17.3431373 11.2106739,17.1968954 L11.0121445,16.6470588 C10.9222752,16.4763072 10.8038112,16.3218954 10.698419,16.1617647 C10.6060988,16.0359477 10.5154125,15.9338235 10.4247262,15.8194444 C10.2441707,15.5882353 10.070968,15.3129085 9.89368045,15.0767974 C9.7752164,14.9060458 9.68371313,14.7328431 9.65838634,14.5277778 C9.64286346,14.3251634 9.66492228,14.1062092 9.71475889,13.8995098 C9.82750398,13.4861111 10.0080595,13.129085 10.1428635,12.8856209 C10.2768504,12.6397059 10.3683537,12.5 10.3683537,12.5 C10.3683537,12.5 10.2163929,12.5686275 9.97864777,12.7393791 C9.74417065,12.9117647 9.4132883,13.1830065 9.13305954,13.6462418 C8.99743862,13.879085 8.86835366,14.1642157 8.83240594,14.5114379 C8.79564124,14.8594771 8.87325562,15.2573529 9.06198111,15.5996732 C9.20903993,15.8660131 9.33649091,16.1331699 9.52439941,16.4109477 L9.82015104,16.8267974 C9.88305954,16.9354575 9.9631249,17.0351307 10.0194974,17.1462418" id="Fill-37" fill="#FA4601"></path>
                                <path d="M10.9721718,9.06862745 C9.45583193,9.37663399 8.9852437,7.35294118 8.9852437,7.35294118 C8.63311951,8.2377451 8.93132213,8.96486928 9.16825023,9.40277778 C10.1004398,10.4828431 11.2597535,9.04248366 10.9721718,9.06862745" id="Fill-39" fill="#FA4601"></path>
                                <path d="M14.7058824,29.4117647 C6.58415033,29.4117647 0,22.8276144 0,14.7058824 C0,6.58415033 6.58415033,0 14.7058824,0 C22.8276144,0 29.4117647,6.58415033 29.4117647,14.7058824 C29.4117647,22.8276144 22.8276144,29.4117647 14.7058824,29.4117647 Z" id="Fill-41" fill="#000000"></path>
                                <path d="M9.80800654,16.3818359 C9.62091503,16.1048752 9.49264706,15.8369013 9.34558824,15.5705614 C9.15767974,15.2290582 9.08006536,14.8303654 9.11601307,14.4831431 C9.15196078,14.1351039 9.28104575,13.8499732 9.41666667,13.6171301 C9.69689542,13.1547118 10.0277778,12.8834699 10.2622549,12.7102673 C10.5,12.5403327 10.6519608,12.4717052 10.6519608,12.4717052 C10.6519608,12.4717052 10.5612745,12.6114111 10.4264706,12.8573261 C10.2916667,13.0999732 10.1111111,13.4569993 9.99918301,13.870398 C9.94934641,14.0779144 9.92647059,14.2968686 9.94199346,14.499483 C9.96732026,14.7037314 10.0588235,14.876934 10.1772876,15.0476856 C10.3545752,15.2837967 10.5277778,15.5591235 10.7083333,15.7911497 C10.7998366,15.9047118 10.8897059,16.0076529 10.9820261,16.1326529 C11.0882353,16.2927837 11.2066993,16.4480124 11.2965686,16.6179471 L11.494281,17.1677837 C11.5457516,17.3140255 11.5735294,17.4847771 11.6143791,17.6171301 C11.6862745,17.8810189 11.7671569,18.0901693 11.8888889,18.254385 C12.0106209,18.4202346 12.1977124,18.5852673 12.4117647,18.7323261 L12.5686275,18.8426203 C12.5874183,18.8597771 12.6732026,18.9030778 12.7189542,18.9349405 C12.8292484,19.004385 12.9362745,19.0713784 13.0383987,19.1359209 C13.4493464,19.3842869 13.7769608,19.6432738 14.0106209,19.7829797 C14.2434641,19.9365745 14.379902,20.0370647 14.379902,20.0370647 C14.379902,20.0370647 14.2165033,20.0264438 13.9264706,19.9872281 C13.627451,19.9545484 13.2426471,19.8467052 12.7753268,19.7159863 C12.6584967,19.6824895 12.5375817,19.6481758 12.4125817,19.6114111 C12.3415033,19.5901693 12.3055556,19.5828163 12.2050654,19.5411497 L12.0065359,19.4553654 C11.7410131,19.3409863 11.4313725,19.1906595 11.1535948,18.9104307 C10.871732,18.629385 10.6895425,18.2617379 10.5816993,17.9259536 L10.4338235,17.4659863 C10.3872549,17.3507902 10.3431373,17.2355941 10.3031046,17.1171301 C10.247549,17.0068359 10.1674837,16.9063457 10.1037582,16.7976856 L9.80800654,16.3818359 Z M8.93545752,7.39327385 C8.93545752,7.39327385 9.40604575,9.41696666 10.9223856,9.10896012 C11.2099673,9.08281633 10.0498366,10.5231758 9.11846405,9.44311045 C8.88153595,9.00520195 8.58333333,8.27807777 8.93545752,7.39327385 L8.93545752,7.39327385 Z M11.8259804,11.6784046 C12.2712418,11.6833065 12.7712418,12.1841235 12.9616013,12.6914765 C13.120915,13.1163131 12.6887255,13.7568359 12.3562092,14.1138621 C11.9256536,14.5779144 12.4493464,15.2331431 12.4493464,15.2331431 C12.4493464,15.2331431 12.124183,15.1563457 11.8153595,14.870398 C11.4215686,14.3556921 11.9681373,13.8573261 12.2132353,13.3622281 C12.6372549,12.5084699 11.8259804,11.6784046 11.8259804,11.6784046 L11.8259804,11.6784046 Z M13.9517974,10.2217052 C14.1879085,10.1007902 14.4477124,9.97824117 14.7205882,9.89654182 C14.9926471,9.80503856 15.2990196,9.79523463 15.5915033,9.85242418 C15.8880719,9.91451568 16.1437908,10.0991562 16.3267974,10.3156595 L16.3202614,10.3091235 C16.4828431,10.4496464 16.6119281,10.628568 16.8120915,10.7127183 C16.7001634,10.7143523 16.5939542,10.6604307 16.499183,10.6073261 C16.4379085,10.5738294 16.3815359,10.5370647 16.3235294,10.501117 L16.2859477,10.5877183 C16.2320261,10.626934 16.004902,10.8965418 15.5122549,11.0656595 C14.9101307,11.2944176 14.4150327,10.6833065 14.2099673,10.374483 C14.1568627,10.3957248 14.1021242,10.4169667 14.0408497,10.4300386 C13.7704248,10.5076529 13.505719,10.5844503 13.2271242,10.5958882 C13.4746732,10.4676203 13.7140523,10.3369013 13.9517974,10.2217052 L13.9517974,10.2217052 Z M15.8300654,16.3467052 C15.8308824,16.3352673 15.8333333,16.3254634 15.8341503,16.3140255 C15.8357843,16.3369013 15.8366013,16.3589601 15.8390523,16.3818359 C15.8366013,16.371215 15.8316993,16.3565091 15.8300654,16.3467052 L15.8300654,16.3467052 Z M13.3880719,15.3287314 C13.1495098,15.0395157 13.5686275,14.8671301 13.6397059,14.4300386 C13.7107843,13.993764 13.6119281,12.5983392 13.6119281,12.5983392 C13.6119281,12.5983392 14.1094771,12.9855941 14.3553922,14.3042216 C14.5596405,14.9447444 15.0612745,15.6310189 15.5596405,15.8025876 C15.379085,16.0158229 13.626634,15.6171301 13.3880719,15.3287314 L13.3880719,15.3287314 Z M17.0686275,17.8989928 C17.0629085,17.8957248 17.0555556,17.8940908 17.0498366,17.8908229 C17.0441176,17.8883719 17.0408497,17.8851039 17.0351307,17.8818359 C17.0465686,17.8867379 17.0571895,17.8932738 17.0686275,17.8989928 L17.0686275,17.8989928 Z M9.13153595,28.2601039 C8.95996732,27.9463784 8.79248366,27.622849 8.6380719,27.2895157 C8.55228758,27.122032 8.49673203,26.9668033 8.43137255,26.8034046 L8.24019608,26.3311823 C8.12009804,26.0337967 7.98856209,25.752751 7.85784314,25.4815091 C7.58006536,24.9504634 7.26715686,24.495398 6.93464052,24.1522608 C6.76960784,23.9790582 6.59803922,23.8418033 6.43872549,23.7208882 C6.27614379,23.6065091 6.12254902,23.5166399 5.98937908,23.4512804 C5.72140523,23.3213784 5.54084967,23.2821627 5.54084967,23.2821627 C5.54084967,23.2821627 5.7124183,23.2119013 6.04166667,23.2110843 C6.36764706,23.2061823 6.85375817,23.2985026 7.35620915,23.5885353 C7.86356209,23.8679471 8.375,24.3401693 8.76797386,24.9284046 C8.96650327,25.2200712 9.15686275,25.5346137 9.29820261,25.870398 L9.51552288,26.3499732 L9.71895425,26.8230124 C9.75571895,26.9096137 9.79575163,26.996215 9.83415033,27.0828163 C9.91584967,26.4104307 10.0236928,25.7837967 10.1740196,25.2601039 C10.1789216,25.2429471 10.1838235,25.2274242 10.1887255,25.2110843 C10.1593137,25.1465418 10.1315359,25.0795484 10.1004902,25.0166399 C9.96486928,24.7249732 9.79738562,24.4529144 9.6127451,24.1996464 C9.44117647,23.9382085 9.23447712,23.7012804 9.01388889,23.4806921 C8.79166667,23.2609209 8.55882353,23.0476856 8.30964052,22.8483392 C7.7998366,22.4594503 7.23937908,22.1016072 6.65604575,21.7004634 L6.63316993,21.6849405 L6.62336601,21.6767706 C6.15686275,21.3091235 5.77042484,20.8369013 5.4877451,20.3213784 C5.19199346,19.8107575 5.03921569,19.2396791 4.94852941,18.6849405 C4.87336601,18.123666 4.87173203,17.5648425 4.95506536,17.0231758 C5.03104575,16.4823261 5.17238562,15.9537314 5.39869281,15.4668033 C5.36437908,16.5297118 5.45343137,17.5689274 5.75735294,18.502751 C5.89787582,18.9708882 6.11764706,19.3989928 6.37336601,19.7846137 C6.62418301,20.1686006 6.95833333,20.4766072 7.31045752,20.7568359 L8.16830065,21.3001366 C8.46650327,21.4921301 8.75408497,21.7184372 9.04003268,21.9488294 C9.31781046,22.1931105 9.60130719,22.4398425 9.83578431,22.7380451 C10.0759804,23.0280778 10.2973856,23.3385353 10.4738562,23.6718686 C10.5359477,23.7756268 10.5866013,23.8842869 10.6348039,23.995398 C11.994281,20.9668033 14.3856209,20.4431105 15.4035948,20.3213784 C15.4346405,20.3172935 15.4616013,20.3156595 15.4918301,20.3115745 C15.7810458,20.2878817 16.3153595,20.2985026 16.9387255,20.504385 C17.0792484,20.5517706 17.2565359,20.6457248 17.4705882,20.7731758 C17.6854575,20.9006268 17.9330065,21.0501366 18.1944444,21.1914765 C18.1993464,21.1955614 18.2042484,21.1980124 18.2083333,21.2012804 C18.4289216,21.4087967 19.4779412,21.8516072 19.995915,21.6547118 C20.0065359,21.6506268 20.0122549,21.6432738 20.0228758,21.6383719 C20.0915033,21.624483 20.1609477,21.6163131 20.2279412,21.5909863 C21.5302288,21.1007902 21.75,19.5231758 21.6772876,19.3140255 C21.6045752,19.1048752 20.9599673,18.8442542 20.8880719,18.7257902 C20.8161765,18.6065091 20.5343137,18.379385 20.5343137,18.379385 C20.5849673,18.1547118 20.4714052,17.7315091 20.4436275,17.3221954 L20.3513072,17.3148425 C20.1895425,17.7503 19.7205882,18.127751 19.6348039,18.1473588 C19.4436275,18.1898425 18.3218954,18.0378817 17.8235294,17.870398 C17.3243464,17.7029144 17.0416667,17.3859209 17.1919935,17.0958882 C17.3398693,16.8099405 19.1086601,16.9006268 19.9150327,16.9284046 C19.9207516,16.9275876 20.5302288,16.9079797 20.878268,16.8418033 C20.879902,16.8426203 20.880719,16.8442542 20.8831699,16.8458882 C21.5179739,16.7347771 22.1486928,16.5215418 22.3341503,16.2788948 C22.6160131,15.9096137 22.995098,15.1922935 22.7753268,14.4398425 C22.5547386,13.6882085 22.7156863,13.4463784 22.9468954,13.0534046 C23.1789216,12.6596137 23.3161765,11.7821627 22.7148693,11.2061823 C22.1135621,10.6310189 18.4795752,9.34343725 17.5906863,8.76990784 C16.7017974,8.19719542 15.1732026,7.55095359 14.2655229,7.39490784 C13.8839869,7.32954836 13.122549,7.31075751 12.3602941,7.28461372 C11.9689542,7.27072483 11.5808824,7.25520195 11.2410131,7.22987516 C11.0400327,7.21435228 10.871732,7.19311045 10.7197712,7.16941764 C10.7197712,7.16941764 10.3848039,7.11059411 10.2647059,7.0615745 C10.0833333,6.98804509 9.9125817,6.85814313 9.49836601,6.63428692 C8.59068627,6.14327385 7.43055556,5.72579019 7.00816993,5.93984248 C6.52859477,6.14327385 6.24673203,7.22252222 6.9125817,8.45536535 C6.99591503,8.60896012 7.05800654,8.7372281 7.13480392,8.85732614 C7.13480392,8.85732614 7.13398693,8.85814313 7.13398693,8.85896012 C7.13398693,8.85977712 7.13480392,8.86059411 7.13562092,8.8622281 C7.14869281,8.88428692 7.16339869,8.90634574 7.17565359,8.92922156 C7.52614379,9.79033267 7.21160131,10.6971954 7.21160131,10.6971954 L6.9869281,9.79114967 C6.93218954,9.56811045 6.83905229,9.37938496 6.73202614,9.22170522 C6.7001634,9.17513659 6.66584967,9.13346993 6.63235294,9.09180326 C6.38643791,9.20209738 6.14460784,9.31974444 5.90522876,9.43984248 C5.90441176,9.47987516 5.90359477,9.51990784 5.90359477,9.56075751 C5.90277778,9.88346993 5.91584967,10.2323261 5.95669935,10.5877183 C5.98611111,10.9439274 6.05310458,11.3115745 6.17892157,11.6375549 C6.2377451,11.8181105 6.2998366,11.9218686 6.40441176,12.1122281 C6.51388889,12.2960516 6.625,12.4823261 6.7369281,12.6694176 C6.95833333,13.0509536 7.16993464,13.4488294 7.3619281,13.8867379 C7.55637255,14.3189274 7.70098039,14.8034046 7.75898693,15.2870647 C7.80228758,15.5288948 7.80147059,15.7666399 7.81372549,16.001117 L7.81862745,16.2968686 L7.84150327,16.5329797 C7.95751634,17.2372281 8.26797386,17.9145157 8.57026144,18.4610843 C8.88888889,19.002751 9.21568627,19.4292216 9.48120915,19.7029144 C9.74673203,19.9749732 9.93055556,20.1130451 9.93055556,20.1130451 C9.93055556,20.1130451 9.87663399,20.0975222 9.7745098,20.0697444 C9.66911765,20.0436006 9.52124183,19.9913131 9.33660131,19.9055288 C8.97058824,19.7339601 8.47875817,19.4022608 7.99918301,18.8842869 C7.53104575,18.3630451 7.03676471,17.6759536 6.79493464,16.754385 C6.76797386,16.6310189 6.7377451,16.4904961 6.71895425,16.372032 L6.68055556,16.0346137 C6.66176471,15.8442542 6.65931373,15.6481758 6.61683007,15.4627183 C6.5620915,15.0828163 6.42401961,14.7217052 6.28104575,14.3393523 C6.1372549,13.9602673 5.92973856,13.5787314 5.75163399,13.1882085 C5.65931373,12.9913131 5.56862745,12.7960516 5.47794118,12.6032412 C5.39542484,12.4128817 5.26470588,12.1367379 5.22875817,11.9145157 C5.05473856,11.1097771 5.125,10.4047118 5.22875817,9.79686862 C4.58823529,10.1514438 3.96977124,10.5403327 3.37826797,10.9643523 C3.40849673,11.0256268 3.43872549,11.0877183 3.46568627,11.1530778 C3.61519608,11.493764 3.70833333,11.8753 3.77614379,12.2707248 C3.8374183,12.6702346 3.86437908,13.0689274 3.8251634,13.5264438 C3.79738562,13.9373915 3.71405229,14.3172935 3.66584967,14.6996464 C3.62009804,15.0803654 3.54248366,15.4496464 3.51062092,15.8140255 C3.48284314,16.1767706 3.42810458,16.5305288 3.43218954,16.868764 C3.4370915,17.2045484 3.42647059,17.5354307 3.48366013,17.8352673 C3.52696078,18.1457248 3.61928105,18.4079797 3.72957516,18.6628817 C3.94607843,19.1751366 4.21813725,19.5844503 4.40931373,19.8671301 C4.60212418,20.1522608 4.73039216,20.3074895 4.73039216,20.3074895 C4.73039216,20.3074895 4.55147059,20.2168033 4.2622549,20.0117379 C3.97794118,19.8025876 3.58088235,19.4782412 3.20098039,18.9717052 C3.01633987,18.7184372 2.83251634,18.3989928 2.69771242,18.0574895 C2.55882353,17.7102673 2.45833333,17.3303654 2.40604575,16.9324895 C2.35947712,16.5362477 2.33496732,16.126934 2.36601307,15.7192542 C2.39460784,15.3123915 2.42728758,14.9030778 2.50898693,14.5092869 C2.58660131,14.1163131 2.65359477,13.7249732 2.73937908,13.371215 C2.82434641,13.0632085 2.8120915,12.6947444 2.81862745,12.3622281 C2.8129085,12.0468686 2.78186275,11.7429471 2.71568627,11.4619013 C2.2246732,11.8467052 1.75326797,12.254385 1.30310458,12.6841235 C1.4624183,12.9210516 1.60130719,13.2159863 1.66748366,13.5591235 C1.70588235,13.7837967 1.71977124,14.0239928 1.69444444,14.2641889 C1.67565359,14.3834699 1.66584967,14.5076529 1.62581699,14.621215 L1.57271242,14.7952346 L1.54575163,14.8826529 C1.5620915,14.8352673 1.53921569,14.9136987 1.5375817,14.9235026 C1.4877451,15.1334699 1.42320261,15.3385353 1.39787582,15.5125549 C1.35539216,15.6906595 1.34885621,15.8867379 1.31617647,16.0672935 C1.31454248,16.2503 1.29084967,16.4300386 1.30147059,16.5991562 C1.2998366,16.7707248 1.31372549,16.9316725 1.33251634,17.0828163 C1.36846405,17.3834699 1.41584967,17.6449078 1.46813725,17.8238294 C1.51388889,18.0101039 1.53921569,18.1171301 1.53921569,18.1171301 C1.53921569,18.1171301 1.45996732,18.0427837 1.33006536,17.8957248 C1.26062092,17.8238294 1.18627451,17.7298752 1.11928105,17.6114111 C1.04411765,17.495398 0.960784314,17.3614111 0.902777778,17.2004634 C0.826797386,17.0444176 0.77124183,16.8671301 0.73120915,16.6726856 C0.670751634,16.4806921 0.668300654,16.2715418 0.645424837,16.0542216 C0.647875817,15.8377183 0.638071895,15.6163131 0.68627451,15.3834699 C0.717320261,15.1408229 0.767156863,14.9341235 0.831699346,14.7331431 L0.933823529,14.4251366 C0.972222222,14.3393523 0.972222222,14.249483 0.999183007,14.1628817 C1.03921569,13.9888621 1.04901961,13.8123915 1.04084967,13.6400059 C1.03267974,13.4676203 1.00653595,13.2993196 0.965686275,13.1391889 C0.955065359,13.1065091 0.945261438,13.0754634 0.935457516,13.0436006 C0.630718954,13.3507902 0.339052288,13.6710516 0.0555555556,13.997849 C0.0212418301,14.4047118 0,14.8156595 0,15.2315091 C0,16.3426203 0.12745098,17.4235026 0.360294118,18.4643523 C0.504084967,18.626934 0.637254902,18.8001366 0.754084967,18.9798752 C0.870915033,19.1653327 0.989379085,19.3540582 1.10866013,19.5444176 C1.22222222,19.7331431 1.30065359,19.8262804 1.45261438,19.9708882 C1.65849673,20.1751366 2.03349673,20.3810189 2.45179739,20.6163131 C2.87826797,20.8475222 3.32271242,21.2159863 3.6372549,21.6481758 C3.95915033,22.0681105 4.15604575,22.5762804 4.27696078,22.9790582 C4.5,23.7208882 4.88970588,24.2878817 5.35457516,24.752751 C5.80882353,25.2110843 6.26552288,25.5534046 6.58415033,25.7944176 C6.90931373,26.0362477 7.09558824,26.1735026 7.09558824,26.1735026 C7.09558824,26.1735026 6.86519608,26.1351039 6.47058824,26.0215418 C6.07761438,25.9071627 5.51633987,25.7119013 4.9003268,25.3156595 C4.5874183,25.1253 4.2753268,24.8605941 3.98120915,24.5329797 C3.68464052,24.2086333 3.44199346,23.7837967 3.26388889,23.3589601 C3.08905229,22.9619013 2.94689542,22.6408229 2.71568627,22.3475222 C2.49183007,22.0574895 2.20751634,21.8499732 1.84640523,21.622032 C1.68218954,21.5166399 1.49836601,21.4136987 1.30718954,21.2919667 C2.92973856,24.872849 5.94117647,27.6898425 9.65849673,29.0476856 L9.65849673,29.0444176 C9.47385621,28.7944176 9.29575163,28.5337967 9.13153595,28.2601039 L9.13153595,28.2601039 Z" id="Fill-43" fill="#FFFFFF"></path>
                            </g>
                        </g>
                    </g>
                </g>
            </g>
        </g>
    </g>
</svg>