<?xml version="1.0" encoding="UTF-8"?>
<svg width="30px" height="30px" viewBox="0 0 30 30" version="1.1" xmlns="http://www.w3.org/2000/svg" xmlns:xlink="http://www.w3.org/1999/xlink">
    <!-- Generator: Sketch 53.2 (72643) - https://sketchapp.com -->
    <title>home_logo2</title>
    <desc>Created with Sketch.</desc>
    <g id="Page-1" stroke="none" stroke-width="1" fill="none" fill-rule="evenodd">
        <g id="00-梅花网首页" transform="translate(-1656.000000, -380.000000)">
            <g id="侧边栏-copy-2" transform="translate(1470.000000, 88.000000)">
                <g id="分组-24" transform="translate(0.000000, 30.000000)">
                    <g id="Group-29-Copy-2" transform="translate(30.000000, 262.000000)">
                        <g id="Group-34-Copy" transform="translate(156.000000, 0.000000)">
                            <circle id="Oval-10" fill="#000000" cx="15" cy="15" r="15"></circle>
                            <g id="Group-28" transform="translate(7.500000, 5.250000)" fill="#FFFFFF">
                                <path d="M13.8951,4.58158223 C14.568,4.33531571 14.9106,3.56335907 14.673,2.90624643 C14.4354,2.24943522 13.6188,0.00018085669 13.6188,0.00018085669 L8.4216,1.90279323 L9.921,6.03567002 C9.921,6.03567002 13.2228,4.82754733 13.8951,4.58158223" id="Fill-1"></path>
                                <path d="M3.78942,5.36957483 C4.09512,6.21507985 4.72122,7.93894553 4.72122,7.93894553 L9.91842,6.03633316 L8.41962,1.90315494 C8.41962,1.90315494 5.64072,2.9201724 4.78062,3.23456161 C3.91962,3.5498551 3.48312,4.52467266 3.78942,5.36957483" id="Fill-3"></path>
                                <path d="M10.20339,10.6174934 C10.87629,10.3709254 11.21919,9.5989688 10.98129,8.94245902 C10.74339,8.28564781 9.92739,6.03609201 9.92739,6.03609201 L4.72959,7.93900582 L6.22929,12.0712797 C6.22929,12.0712797 9.53079,10.8634585 10.20339,10.6174934" id="Fill-5"></path>
                                <path d="M6.51813,16.653706 C7.19133,16.4074395 7.53393,15.6351814 7.29543,14.9780687 C7.05843,14.3212575 6.24183,12.0720032 6.24183,12.0720032 L1.04433,13.9740127 L2.54343,18.1074923 C2.54343,18.1074923 5.84553,16.8990682 6.51813,16.653706" id="Fill-7"></path>
                                <path d="M0.09774,11.405486 C0.40374,12.2506896 1.03014,13.9748567 1.03014,13.9748567 L6.22674,12.0722443 L4.72794,7.93876467 C4.72794,7.93876467 1.94964,8.95578213 1.08864,9.27077419 C0.22824,9.58546483 -0.20856,10.559981 0.09774,11.405486" id="Fill-9"></path>
                            </g>
                        </g>
                    </g>
                </g>
            </g>
        </g>
    </g>
</svg>