<?xml version="1.0" encoding="UTF-8"?>
<svg width="30px" height="30px" viewBox="0 0 30 30" version="1.1" xmlns="http://www.w3.org/2000/svg" xmlns:xlink="http://www.w3.org/1999/xlink">
    <!-- Generator: Sketch 53.2 (72643) - https://sketchapp.com -->
    <title>home_logo6</title>
    <desc>Created with Sketch.</desc>
    <g id="Page-1" stroke="none" stroke-width="1" fill="none" fill-rule="evenodd">
        <g id="00-梅花网首页" transform="translate(-1655.000000, -480.000000)">
            <g id="侧边栏-copy-2" transform="translate(1470.000000, 88.000000)">
                <g id="分组-24" transform="translate(0.000000, 30.000000)">
                    <g id="Group-29-Copy-2" transform="translate(30.000000, 262.000000)">
                        <g id="Group-32-Copy" transform="translate(155.000000, 100.000000)">
                            <path d="M15,30 C6.71583333,30 0,23.2841667 0,15 C0,6.71583333 6.71583333,0 15,0 C23.2841667,0 30,6.71583333 30,15 C30,23.2841667 23.2841667,30 15,30 Z" id="Fill-41-Copy" fill="#000000"></path>
                            <g id="Group-30-Copy" transform="translate(6.750000, 7.500000)" fill="#FFFFFF">
                                <path d="M2,0 L14.5,0 C15.6045695,-2.02906125e-16 16.5,0.8954305 16.5,2 L16.5,9 C16.5,10.1045695 15.6045695,11 14.5,11 L2,11 C0.8954305,11 1.3527075e-16,10.1045695 0,9 L0,2 C-1.3527075e-16,0.8954305 0.8954305,2.02906125e-16 2,0 Z M6.84963461,8.24904824 L7.44958113,8.24904824 L5.37476606,3.3 L4.77481953,3.3 L2.75,8.24904824 L3.34994653,8.24904824 L3.94989306,6.73958853 L6.22469031,6.73958853 L6.84963461,8.24904824 Z M4.14987523,6.26942894 L4.97480171,4.16608344 C5.00813224,4.08359889 5.04979477,3.96812225 5.09979057,3.81965007 C5.14978636,3.96812225 5.18311639,4.08359889 5.19978166,4.16608344 L6.02470813,6.26942894 L4.14987523,6.26942894 Z M11.299238,8.24904824 C12.9657645,8.28204206 13.7823502,7.45720894 13.7490197,5.77452412 C13.6990239,4.17432386 12.8991032,3.34949073 11.3492336,3.3 L9.59938953,3.3 L9.59938953,8.24904824 L11.299238,8.24904824 Z M11.3242358,3.79490482 C12.5074696,3.84439555 13.1240751,4.51251039 13.1740709,5.79926936 C13.1907362,7.13551907 12.5657981,7.81188223 11.299238,7.82837914 L10.1493405,7.82837914 L10.1493405,3.79490482 L11.3242358,3.79490482 Z" id="Combined-Shape"></path>
                                <rect id="Rectangle-11-Copy" x="0" y="12.375" width="16.5" height="1.375" rx="0.6875"></rect>
                            </g>
                        </g>
                    </g>
                </g>
            </g>
        </g>
    </g>
</svg>