<?xml version="1.0" encoding="UTF-8"?>
<svg width="30px" height="30px" viewBox="0 0 30 30" version="1.1" xmlns="http://www.w3.org/2000/svg" xmlns:xlink="http://www.w3.org/1999/xlink">
    <!-- Generator: Sketch 53.2 (72643) - https://sketchapp.com -->
    <title>home_logo4</title>
    <desc>Created with Sketch.</desc>
    <g id="Page-1" stroke="none" stroke-width="1" fill="none" fill-rule="evenodd">
        <g id="00-梅花网首页" transform="translate(-1656.000000, -430.000000)">
            <g id="侧边栏-copy-2" transform="translate(1470.000000, 88.000000)">
                <g id="分组-24" transform="translate(0.000000, 30.000000)">
                    <g id="Group-29-Copy-2" transform="translate(30.000000, 262.000000)">
                        <g id="Group-26-Copy-2" transform="translate(156.000000, 50.000000)">
                            <path d="M15,30 C6.71583333,30 0,23.2841667 0,15 C0,6.71583333 6.71583333,0 15,0 C23.2841667,0 30,6.71583333 30,15 C30,23.2841667 23.2841667,30 15,30 Z" id="Fill-41-Copy-2" fill="#000000"></path>
                            <path d="M19.95,10.5 L22.95,10.5 C23.9441125,10.5 24.75,11.3058875 24.75,12.3 L24.75,14.7 L16.35,14.7 L16.35,13.5 L15.15,13.5 L15.15,14.7 L6.75,14.7 L6.75,12.3 C6.75,11.3058875 7.55588745,10.5 8.55,10.5 L11.55,10.5 L11.55,9.3 C11.55,8.30588745 12.3558875,7.5 13.35,7.5 L18.15,7.5 C19.1441125,7.5 19.95,8.30588745 19.95,9.3 L19.95,10.5 Z M18.75,10.5 L18.75,9.3 C18.75,8.96862915 18.4813708,8.7 18.15,8.7 L13.35,8.7 C13.0186292,8.7 12.75,8.96862915 12.75,9.3 L12.75,10.5 L18.75,10.5 Z M15.15,15.9 L15.15,17.1 L16.35,17.1 L16.35,15.9 L24.75,15.9 L24.75,20.7 C24.75,21.6941125 23.9441125,22.5 22.95,22.5 L8.55,22.5 C7.55588745,22.5 6.75,21.6941125 6.75,20.7 L6.75,15.9 L15.15,15.9 Z" id="Combined-Shape" fill="#FFFFFF" fill-rule="nonzero"></path>
                        </g>
                    </g>
                </g>
            </g>
        </g>
    </g>
</svg>