<?xml version="1.0" encoding="UTF-8"?>
<svg width="12px" height="14px" viewBox="0 0 12 14" version="1.1" xmlns="http://www.w3.org/2000/svg" xmlns:xlink="http://www.w3.org/1999/xlink">
    <!-- Generator: Sketch 53.2 (72643) - https://sketchapp.com -->
    <title>资料</title>
    <desc>Created with Sketch.</desc>
    <g id="Page-1" stroke="none" stroke-width="1" fill="none" fill-rule="evenodd">
        <g id="06个人创作者--账户中心-创作者-" transform="translate(-126.000000, -1176.000000)" fill="#A4A4A4" fill-rule="nonzero">
            <g id="分组-5-copy-14" transform="translate(72.000000, 234.000000)">
                <g id="分组-8-copy" transform="translate(0.000000, 434.000000)">
                    <g id="资料" transform="translate(54.000000, 508.000000)">
                        <path d="M10.4573272,0.0218408457 L4.62580088,0.0218408457 C4.25450514,0.0218408457 3.92689245,0.327614053 3.92689245,0.720749276 L3.92689245,3.0577266 C3.92689245,3.4508632 3.62111924,3.75663504 3.22798402,3.75663504 L0.912854375,3.75663504 C0.519717784,3.75663504 0.213945944,4.06240824 0.213945944,4.45554347 L0.213945944,12.6021994 C0.213945944,13.3666304 0.847331837,14.0000136 1.61176007,14.0000136 L10.4573231,14.0000136 C11.2217541,14.0000136 11.8551372,13.3666277 11.8551372,12.6021994 L11.8551372,1.41965907 C11.8551372,0.63338726 11.2217513,0.0218449473 10.4573231,0.0218449473 L10.4573272,0.0218408457 Z M8.95030201,10.5054741 L3.11877569,10.5054741 C2.92220808,10.5054741 2.76932079,10.3525882 2.76932079,10.1560192 C2.76932079,9.95945163 2.92220671,9.80656434 3.11877569,9.80656434 L8.95030201,9.80656434 C9.14686962,9.80656434 9.29975691,9.95945026 9.29975691,10.1560192 C9.29975691,10.330746 9.12503014,10.5054741 8.95030201,10.5054741 Z M8.95030201,8.16849681 L3.11877569,8.16849681 C2.92220808,8.16849681 2.76932079,8.01561089 2.76932079,7.81904191 C2.76932079,7.6224743 2.92220671,7.46958701 3.11877569,7.46958701 L8.95030201,7.46958701 C9.14686962,7.46958701 9.29975691,7.62247293 9.29975691,7.81904191 C9.29975691,7.99376868 9.12503014,8.16849681 8.95030201,8.16849681 Z M8.95030201,5.83151948 L5.21551055,5.83151948 C5.01894294,5.83151948 4.86605565,5.67863356 4.86605565,5.48206458 C4.86605565,5.28549697 5.01894157,5.13260968 5.21551055,5.13260968 L8.95030201,5.13260968 C9.14686962,5.13260968 9.29975691,5.2854956 9.29975691,5.48206458 C9.29975691,5.67863219 9.12503014,5.83151948 8.95030201,5.83151948 Z M0.716282662,3.05772524 L2.50723201,3.05772524 C2.9003686,3.05772524 3.20614044,2.75195203 3.20614044,2.35881681 L3.20614044,0.458656393 C3.20614044,0.196566244 3.07509509,0.13104234 2.87852639,0.327611045 L0.54154906,2.73010408 C0.38866314,2.90483084 0.454185403,3.05771813 0.716275826,3.05771813 L0.716282662,3.05772524 Z" id="形状"></path>
                    </g>
                </g>
            </g>
        </g>
    </g>
</svg>