<?xml version="1.0" encoding="UTF-8"?>
<svg width="12px" height="14px" viewBox="0 0 12 14" version="1.1" xmlns="http://www.w3.org/2000/svg" xmlns:xlink="http://www.w3.org/1999/xlink">
    <!-- Generator: Sketch 53.2 (72643) - https://sketchapp.com -->
    <title>灯泡</title>
    <desc>Created with Sketch.</desc>
    <g id="Page-1" stroke="none" stroke-width="1" fill="none" fill-rule="evenodd">
        <g id="06个人创作者--账户中心-创作者-" transform="translate(-127.000000, -753.000000)" fill="#888888">
            <g id="分组-5-copy-14" transform="translate(72.000000, 234.000000)">
                <g id="分组-8-copy" transform="translate(0.000000, 434.000000)">
                    <g id="灯泡" transform="translate(55.000000, 85.000000)">
                        <g id="分组-4">
                            <path d="M10.9798783,2.64401317 C9.86356291,0.997740821 7.99748344,0 5.99811258,0 C2.68248924,-7.2116851e-17 0,2.6772712 0,5.98644492 C0,7.98192657 0.99968543,9.8443761 2.64916639,10.95852 C2.73247351,11.0250361 2.7991192,11.1248102 2.7991192,11.2245842 L2.7991192,12.0227769 C2.7991192,12.205696 2.94907202,12.3387281 3.11568626,12.3387281 L8.86387748,12.3387281 C9.04715314,12.3387281 9.18044453,12.189067 9.18044453,12.0227769 L9.18044453,11.2245842 C9.18044453,11.1248102 9.2304288,11.0250361 9.33039735,10.95852 C12.0961937,9.1126995 12.8292964,5.40442945 10.9798783,2.64401317 Z" id="形状" fill-rule="nonzero"></path>
                            <rect id="矩形" x="2.57142857" y="13.1764706" width="6.85714286" height="1"></rect>
                        </g>
                    </g>
                </g>
            </g>
        </g>
    </g>
</svg>