<?xml version="1.0" encoding="UTF-8"?>
<svg width="14px" height="14px" viewBox="0 0 14 14" version="1.1" xmlns="http://www.w3.org/2000/svg" xmlns:xlink="http://www.w3.org/1999/xlink">
    <!-- Generator: Sketch 53.2 (72643) - https://sketchapp.com -->
    <title>关注</title>
    <desc>Created with Sketch.</desc>
    <g id="Page-1" stroke="none" stroke-width="1" fill="none" fill-rule="evenodd">
        <g id="06个人创作者--账户中心-创作者-" transform="translate(-126.000000, -813.000000)" fill="#008CD6" fill-rule="nonzero">
            <g id="分组-5-copy-14" transform="translate(72.000000, 234.000000)">
                <g id="分组-8-copy" transform="translate(0.000000, 434.000000)">
                    <g id="关注" transform="translate(54.000000, 145.000000)">
                        <path d="M13.73825,6.15347153 C12.7522736,7.3522409 11.008972,9.33111455 11.008972,9.33111455 C11.008972,9.33111455 11.2941603,11.5041184 11.4539426,12.9883037 C11.5233901,13.7442996 10.9773771,14.0712621 10.3590804,13.7765348 C9.18264479,13.1864959 7.392228,12.2723547 6.98938117,12.0664052 C6.5796221,12.2702979 4.7712601,13.1693055 3.58247096,13.7579293 C2.95705435,14.052045 2.40458873,13.7251386 2.47484272,12.9705891 C2.63676634,11.4884376 2.92484637,9.3177398 2.92484637,9.3177398 C2.92484637,9.3177398 1.16159301,7.3428651 0.164244195,6.14571137 C-0.188250355,5.71089289 0.0381150121,5.09284543 0.733062305,4.97914855 C2.15032515,4.71167636 4.34708214,4.28534136 4.34708214,4.28534136 C4.34708214,4.28534138 5.54866023,2.07451067 6.30885135,0.720549454 C6.72720561,-0.103364395 7.01662053,-0.00821858114 7.06615496,0.0160344419 C7.19506537,0.0603951445 7.39862462,0.220594576 7.66428782,0.721245549 C8.41594533,2.07721054 9.6038708,4.29107913 9.6038708,4.29107913 C9.6038708,4.29107913 11.7747978,4.71741556 13.1755091,4.98555377 C13.8620574,5.09991824 14.0864476,5.71868743 13.7382371,6.15347869 L13.73825,6.15347153 Z" id="路径"></path>
                    </g>
                </g>
            </g>
        </g>
    </g>
</svg>