<?xml version="1.0" encoding="UTF-8"?>
<svg width="14px" height="14px" viewBox="0 0 14 14" version="1.1" xmlns="http://www.w3.org/2000/svg" xmlns:xlink="http://www.w3.org/1999/xlink">
    <!-- Generator: Sketch 53.2 (72643) - https://sketchapp.com -->
    <title>评论</title>
    <desc>Created with Sketch.</desc>
    <g id="Page-1" stroke="none" stroke-width="1" fill="none" fill-rule="evenodd">
        <g id="06个人创作者--账户中心-创作者-" transform="translate(-126.000000, -935.000000)" fill="#008CD6">
            <g id="分组-5-copy-14" transform="translate(72.000000, 234.000000)">
                <g id="评论" transform="translate(54.000000, 701.000000)">
                    <path d="M7,13.6349206 C6.08727625,13.6349206 5.21535244,13.4647906 4.41583763,13.1553153 C4.29460703,13.1083895 1.51799638,14.2491517 1.1841644,13.9498843 C0.778127164,13.5858877 1.49283148,11.0605473 1.1841644,10.6127892 C0.436312756,9.52794188 0,8.22232554 0,6.81746032 C0,3.05228095 3.13400675,0 7,0 C10.8659932,0 14,3.05228095 14,6.81746032 C14,10.5826397 10.8659932,13.6349206 7,13.6349206 Z M4.27777778,7.77398044 C4.92210999,7.77398044 5.44444444,7.251901 5.44444444,6.60788337 C5.44444444,5.96386575 4.92210999,5.44178631 4.27777778,5.44178631 C3.63344557,5.44178631 3.11111111,5.96386575 3.11111111,6.60788337 C3.11111111,7.251901 3.63344557,7.77398044 4.27777778,7.77398044 Z M9.72222222,7.77398044 C10.3665544,7.77398044 10.8888889,7.251901 10.8888889,6.60788337 C10.8888889,5.96386575 10.3665544,5.44178631 9.72222222,5.44178631 C9.07789001,5.44178631 8.55555556,5.96386575 8.55555556,6.60788337 C8.55555556,7.251901 9.07789001,7.77398044 9.72222222,7.77398044 Z" id="Combined-Shape-Copy-2"></path>
                </g>
            </g>
        </g>
    </g>
</svg>