<?xml version="1.0" encoding="UTF-8"?>
<svg width="21px" height="15px" viewBox="0 0 21 15" version="1.1" xmlns="http://www.w3.org/2000/svg" xmlns:xlink="http://www.w3.org/1999/xlink">
    <!-- Generator: Sketch 53.2 (72643) - https://sketchapp.com -->
    <title>机构</title>
    <desc>Created with Sketch.</desc>
    <g id="Page-1" stroke="none" stroke-width="1" fill="none" fill-rule="evenodd">
        <g id="06个人创作者--账户中心-创作者-" transform="translate(-122.000000, -1054.000000)" fill="#8A8A8A" fill-rule="nonzero" stroke="#FFFFFF">
            <g id="分组-5-copy-14" transform="translate(72.000000, 234.000000)">
                <g id="分组-8-copy" transform="translate(0.000000, 434.000000)">
                    <g id="机构" transform="translate(50.000000, 386.000000)">
                        <g id="用户-copy-3" transform="translate(1.000000, 1.958042)">
                            <path d="M10.3735445,2.88402189 C10.3735445,4.74739998 8.86290611,6.25785584 6.9997399,6.25785584 C5.1365737,6.25785584 3.62591905,4.74739998 3.62591905,2.88402189 C3.62591905,1.02123187 5.1365737,-0.48951049 6.9997399,-0.48951049 C8.86290611,-0.48951049 10.3735445,1.02123187 10.3735445,2.88402189 Z M0,11.3566434 C0,11.3566434 0.80972806,8.42730594 4.42431667,6.87438782 L9.67500755,6.90970266 C9.67500755,6.90970266 13.061313,8.18026792 14,11.3566434 L0,11.3566434 Z" id="形状"></path>
                        </g>
                        <g id="用户-copy" transform="translate(4.230769, 0.000000)" stroke-width="0.5">
                            <path d="M11.9694744,4.37851029 C11.9694744,6.5806844 10.2264301,8.3657686 8.07662297,8.3657686 C5.92681581,8.3657686 4.18375274,6.5806844 4.18375274,4.37851029 C4.18375274,2.17703118 5.92681581,0.391608392 8.07662297,0.391608392 C10.2264301,0.391608392 11.9694744,2.17703118 11.9694744,4.37851029 Z M0,14.3916084 C0,14.3916084 0.934301608,10.9296642 5.10498077,9.09439731 L11.1634702,9.13613303 C11.1634702,9.13613303 15.0707458,10.6377101 16.1538462,14.3916084 L0,14.3916084 Z" id="形状"></path>
                        </g>
                    </g>
                </g>
            </g>
        </g>
    </g>
</svg>