<?xml version="1.0" encoding="UTF-8"?>
<svg width="14px" height="14px" viewBox="0 0 14 14" version="1.1" xmlns="http://www.w3.org/2000/svg" xmlns:xlink="http://www.w3.org/1999/xlink">
    <!-- Generator: Sketch 53.2 (72643) - https://sketchapp.com -->
    <title>消息</title>
    <desc>Created with Sketch.</desc>
    <g id="Page-1" stroke="none" stroke-width="1" fill="none" fill-rule="evenodd">
        <g id="06个人创作者--账户中心-创作者-" transform="translate(-127.000000, -1115.000000)" fill="#A4A4A4">
            <g id="分组-5-copy-14" transform="translate(72.000000, 234.000000)">
                <g id="分组-8-copy" transform="translate(0.000000, 434.000000)">
                    <g id="消息" transform="translate(55.000000, 447.000000)">
                        <g id="Group-3" transform="translate(7.000000, 7.000000) scale(-1, 1) translate(-7.000000, -7.000000) ">
                            <path d="M7,14 C3.13400675,14 0,10.8659932 0,7 C0,3.13400675 3.13400675,0 7,0 C10.8659932,0 14,3.13400675 14,7 C14,10.8659932 10.8659932,14 7,14 Z M9.52,8.4 C10.1385589,8.4 10.64,7.89855892 10.64,7.28 C10.64,6.66144108 10.1385589,6.16 9.52,6.16 C8.90144108,6.16 8.4,6.66144108 8.4,7.28 C8.4,7.89855892 8.90144108,8.4 9.52,8.4 Z M4.48,8.4 C5.09855892,8.4 5.6,7.89855892 5.6,7.28 C5.6,6.66144108 5.09855892,6.16 4.48,6.16 C3.86144108,6.16 3.36,6.66144108 3.36,7.28 C3.36,7.89855892 3.86144108,8.4 4.48,8.4 Z" id="合并形状"></path>
                            <polygon id="Rectangle-4" points="10.36 10.36 14 6.72 14 14 6.72 14"></polygon>
                        </g>
                    </g>
                </g>
            </g>
        </g>
    </g>
</svg>