<?xml version="1.0" encoding="UTF-8"?>
<svg width="41px" height="38px" viewBox="0 0 41 38" version="1.1" xmlns="http://www.w3.org/2000/svg" xmlns:xlink="http://www.w3.org/1999/xlink">
    <!-- Generator: Sketch 53.2 (72643) - https://sketchapp.com -->
    <title>分组</title>
    <desc>Created with Sketch.</desc>
    <g id="Page-1" stroke="none" stroke-width="1" fill="none" fill-rule="evenodd">
        <g id="06个人创作者--账户中心-个人资料-" transform="translate(-704.000000, -721.000000)" fill="#BBBBBB" fill-rule="nonzero">
            <g id="上传-copy-2" transform="translate(704.000000, 721.000000)">
                <g id="上传">
                    <g id="分组" transform="translate(0.761721, 0.222660)">
                        <path d="M40.2013085,24.2670165 L40.2013085,35.3798224 L40.2013085,35.3797984 C40.1992811,36.3868367 39.3834361,37.2027025 38.3763978,37.2047564 L1.8442811,37.2047564 L1.84428107,37.2047564 C0.83724279,37.2027158 0.0213855903,36.3868582 0.0193445723,35.3798199 L0.0193445723,24.267014 L0.0193445723,24.2670143 C0.0193444201,23.2591295 0.836396304,22.4420778 1.84428107,22.4420778 C2.85216584,22.4420777 3.66921757,23.2591295 3.66921757,24.2670143 C3.66921757,24.2670143 3.66921757,24.2670143 3.66921757,24.2670143 L3.66921757,33.5548923 L36.5514355,33.5548923 L36.5514355,24.2670143 L36.5514355,24.2670146 C36.5514354,23.2591298 37.3684873,22.4420781 38.376372,22.4420781 C39.3842568,22.4420779 40.2013085,23.2591298 40.2013085,24.2670146 C40.2013085,24.2670146 40.2013085,24.2670146 40.2013085,24.2670146 L40.2013085,24.2670165 Z M11.4214938,11.199431 C10.9467143,11.199431 10.809472,10.8989846 11.1099197,10.5391896 L19.5706483,0.298048784 L19.5706482,0.29804887 C19.7987068,-0.00206284609 20.226872,-0.0604733437 20.5269833,0.167585281 C20.5761761,0.204967364 20.6200649,0.24885604 20.6574469,0.29804887 L29.1107419,10.5391897 C29.4111883,10.9026929 29.2702382,11.1994311 28.7991678,11.1994311 L11.4214679,11.1994311 L11.4214938,11.199431 Z" id="形状"></path>
                        <path d="M21.8777794,26.0362998 L21.8777794,26.0362998 C21.8777794,27.0134533 21.0856366,27.805596 20.1084832,27.805596 C19.1313297,27.805596 18.339187,27.0134533 18.339187,26.0362998 L18.339187,8.96277605 L18.339187,8.96277632 C18.3391868,7.98562284 19.1313297,7.19348012 20.1084832,7.19348012 C21.0856366,7.19347997 21.8777794,7.98562284 21.8777794,8.96277632 C21.8777794,8.96277632 21.8777794,8.96277632 21.8777794,8.96277632 L21.8777794,26.0363001 L21.8777794,26.0362998 Z" id="路径"></path>
                    </g>
                </g>
            </g>
        </g>
    </g>
</svg>