<?xml version="1.0" encoding="UTF-8"?>
<svg width="30px" height="30px" viewBox="0 0 30 30" version="1.1" xmlns="http://www.w3.org/2000/svg" xmlns:xlink="http://www.w3.org/1999/xlink">
    <!-- Generator: Sketch 53.2 (72643) - https://sketchapp.com -->
    <title>home_logo1 copy</title>
    <desc>Created with Sketch.</desc>
    <defs>
        <polygon id="path-1" points="1.94360526 4.034121 1.94360526 7.901712 0.0746052632 7.901712 0.0746052632 0.193557"></polygon>
        <polygon id="path-3" points="0.0748815789 0.193557 1.94360526 4.034121 1.94360526 0.193557"></polygon>
        <polygon id="path-5" points="1.94360526 4.034121 3.15580263 6.525519 4.10632895 4.638816 1.94360526 0.193557"></polygon>
        <polygon id="path-7" points="3.15580263 6.525519 5.02452632 6.525519 4.10632895 4.638816"></polygon>
        <polygon id="path-9" points="4.10632895 4.638816 5.02452632 6.525519 6.34669737 3.901443 6.34669737 0.193557"></polygon>
        <polygon id="path-11" points="6.34669737 0.193557 6.34669737 3.901443 8.21569737 0.193557"></polygon>
    </defs>
    <g id="Page-1" stroke="none" stroke-width="1" fill="none" fill-rule="evenodd">
        <g id="00-梅花网首页" transform="translate(-1500.000000, -380.000000)">
            <g id="侧边栏" transform="translate(1470.000000, 88.000000)">
                <g id="分组-24" transform="translate(0.000000, 30.000000)">
                    <g id="Group-29-Copy-2" transform="translate(30.000000, 262.000000)">
                        <g id="home_logo1">
                            <g id="Group-26-Copy">
                                <circle id="Oval-10" fill="#000000" cx="15" cy="15" r="15"></circle>
                                <g id="Group-25" transform="translate(4.500000, 9.750000)">
                                    <mask id="mask-2" fill="white">
                                        <use xlink:href="#path-1"></use>
                                    </mask>
                                    <g id="Clip-5"></g>
                                    <polygon id="Fill-4" fill="#FFFFFF" points="1.94360526 4.034121 1.94360526 7.901712 0.0746052632 7.901712 0.0746052632 0.193557"></polygon>
                                    <mask id="mask-4" fill="white">
                                        <use xlink:href="#path-3"></use>
                                    </mask>
                                    <g id="Clip-9"></g>
                                    <polygon id="Fill-8" fill="#FFFFFF" mask="url(#mask-4)" points="0.0748815789 0.193557 1.94360526 4.034121 1.94360526 0.193557"></polygon>
                                    <mask id="mask-6" fill="white">
                                        <use xlink:href="#path-5"></use>
                                    </mask>
                                    <g id="Clip-12"></g>
                                    <polygon id="Fill-11" fill="#FFFFFF" mask="url(#mask-6)" points="1.94360526 4.034121 3.15580263 6.525519 4.10632895 4.638816 1.94360526 0.193557"></polygon>
                                    <mask id="mask-8" fill="white">
                                        <use xlink:href="#path-7"></use>
                                    </mask>
                                    <g id="Clip-15"></g>
                                    <polygon id="Fill-14" fill="#FFFFFF" mask="url(#mask-8)" points="3.15580263 6.525519 5.02452632 6.525519 4.10632895 4.638816"></polygon>
                                    <mask id="mask-10" fill="white">
                                        <use xlink:href="#path-9"></use>
                                    </mask>
                                    <g id="Clip-18"></g>
                                    <polygon id="Fill-17" fill="#FFFFFF" mask="url(#mask-10)" points="4.10632895 4.638816 5.02452632 6.525519 6.34669737 3.901443 6.34669737 0.193557"></polygon>
                                    <mask id="mask-12" fill="white">
                                        <use xlink:href="#path-11"></use>
                                    </mask>
                                    <g id="Clip-21"></g>
                                    <polygon id="Fill-20" fill="#FFFFFF" mask="url(#mask-12)" points="6.34669737 0.193557 6.34669737 3.901443 8.21569737 0.193557"></polygon>
                                    <polygon id="Fill-23" fill="#FFFFFF" points="8.21561447 0.1934751 8.21561447 7.9016301 6.34661447 7.9016301 6.34661447 3.9013611"></polygon>
                                    <path d="M10.0950316,0.6781593 L10.1878737,0.6260163 C10.24065,0.6871683 10.2848605,0.7436793 10.3205053,0.7963683 L10.2210316,0.8550633 C10.2033474,0.8247603 10.1679789,0.7748013 10.1149263,0.7046403 C10.1060842,0.6915363 10.0994526,0.6825273 10.0950316,0.6781593 L10.0950316,0.6781593 Z M10.0751368,1.0584483 L10.1679789,0.9992073 C10.1812421,1.0166793 10.1989263,1.0407033 10.2210316,1.0712793 C10.2608211,1.1196003 10.2876237,1.1567283 10.3006105,1.1829363 L10.2077684,1.2419043 C10.1724,1.1848473 10.1281895,1.1236953 10.0751368,1.0584483 L10.0751368,1.0584483 Z M9.95576842,0.5995353 L9.92924211,0.8747193 L10.4929263,0.8747193 C10.4929263,0.8397753 10.4951368,0.7920003 10.4995579,0.7305753 L10.4995579,0.5995353 L9.95576842,0.5995353 Z M10.4796632,1.2612873 C10.4838079,1.2307113 10.4862947,1.1848473 10.4862947,1.1236953 C10.4904395,1.0625433 10.4929263,1.0166793 10.4929263,0.9861033 L9.92288684,0.9861033 L9.89636053,1.2612873 L10.4796632,1.2612873 Z M9.66397895,0.9861033 L9.66397895,0.8747193 L9.81678158,0.8747193 L9.84993947,0.5080803 C9.84109737,0.5252793 9.82534737,0.5493033 9.80296579,0.5801523 C9.79467632,0.6022653 9.78555789,0.6194643 9.77671579,0.6325683 C9.73250526,0.5888883 9.70183421,0.5602233 9.68415,0.5473923 C9.78997895,0.3988803 9.87812368,0.2397213 9.94941316,0.0693693 L10.0618737,0.1084083 C10.0441895,0.1564563 10.0242947,0.2001363 10.0021895,0.2397213 L10.7316632,0.2397213 L10.7316632,0.3442803 L9.94941316,0.3442803 C9.91376842,0.4054323 9.88282105,0.4575753 9.85657105,0.5018013 L10.6189263,0.5018013 C10.6189263,0.5452083 10.6167158,0.6129123 10.6120184,0.7046403 L10.6120184,0.8747193 L10.7648211,0.8747193 L10.7648211,0.9861033 L10.6056632,0.9861033 C10.6056632,1.0166793 10.6031763,1.0671843 10.5990316,1.1367993 L10.5990316,1.2612873 L10.7316632,1.2612873 L10.7316632,1.3663923 L10.5921237,1.3663923 L10.5921237,1.3789503 C10.5921237,1.5321033 10.5128211,1.6058133 10.3536632,1.6017183 C10.2914921,1.6058133 10.2166105,1.6085433 10.1281895,1.6085433 C10.1281895,1.5995343 10.1259789,1.5888873 10.1215579,1.5757833 C10.1127158,1.5274623 10.1060842,1.4949753 10.1016632,1.4775033 C10.1591368,1.4815983 10.2387158,1.4840553 10.3404,1.4840553 C10.4288211,1.4840553 10.4730316,1.4447433 10.4730316,1.3663923 L9.77036053,1.3663923 L9.80296579,0.9861033 L9.66397895,0.9861033 Z M9.16025526,1.0778313 C9.26636053,0.9074793 9.34593947,0.7109193 9.39871579,0.4884243 L9.19341316,0.4884243 L9.19341316,0.3770403 L9.39871579,0.3770403 L9.39871579,0.0822003 L9.51836053,0.0822003 L9.51836053,0.3770403 L9.7104,0.3770403 L9.7104,0.4884243 L9.51836053,0.4884243 L9.51836053,0.6650553 L9.57141316,0.6129123 C9.63330789,0.6650553 9.68857105,0.7177443 9.73692632,0.7698873 L9.65762368,0.8419593 C9.63109737,0.8113833 9.58467632,0.7633353 9.51836053,0.6978153 L9.51836053,1.6279263 L9.39871579,1.6279263 L9.39871579,0.7832643 C9.35478158,0.9358713 9.29288684,1.0802883 9.21330789,1.2154233 C9.19562368,1.1720163 9.17821579,1.1258793 9.16025526,1.0778313 L9.16025526,1.0778313 Z" id="Fill-25" fill="#FFFFFF"></path>
                                    <path d="M11.341575,1.2153414 C11.4739303,1.1631984 11.5999303,1.1042304 11.7192987,1.0387104 L11.7192987,0.5800704 L11.8452987,0.5800704 L11.8452987,0.9598134 C12.0088776,0.8596224 12.1503513,0.7482384 12.2694434,0.6259344 L12.3691934,0.7242144 C12.2100355,0.8683584 12.0354039,0.9991254 11.8452987,1.1170614 L11.8452987,1.3663104 C11.8408776,1.4402934 11.8828776,1.4752374 11.9712987,1.4711424 L12.1434434,1.4711424 C12.2362855,1.4752374 12.2871276,1.4465724 12.2962461,1.3856934 C12.3050882,1.3507494 12.3136539,1.2740364 12.3227724,1.1566464 L12.3227724,1.1170614 C12.3799697,1.1345334 12.4244566,1.1498214 12.4554039,1.1631984 C12.4465618,1.2592944 12.4355092,1.3422864 12.4222461,1.4119014 C12.4045618,1.5254694 12.3183513,1.5822534 12.1636145,1.5822534 L11.9580355,1.5822534 C11.7900355,1.5866214 11.7104566,1.5186444 11.7192987,1.3791414 L11.7192987,1.1891334 C11.6795092,1.2109734 11.6178908,1.2420954 11.5336145,1.2808614 C11.4761408,1.3070694 11.4341408,1.3267254 11.4076145,1.3398294 C11.3902066,1.2961494 11.3681013,1.2549264 11.341575,1.2153414 L11.341575,1.2153414 Z M11.8787329,0.0823914 L12.0044566,0.0823914 L12.0044566,0.2786784 L12.4484961,0.2786784 L12.4484961,0.3900624 L12.0044566,0.3900624 L12.0044566,0.5473104 L11.8787329,0.5473104 L11.8787329,0.3900624 L11.4410487,0.3900624 L11.4410487,0.5211024 L11.3150487,0.5211024 L11.3150487,0.3900624 L10.8773645,0.3900624 L10.8773645,0.2786784 L11.3150487,0.2786784 L11.3150487,0.0823914 L11.4410487,0.0823914 L11.4410487,0.2786784 L11.8787329,0.2786784 L11.8787329,0.0823914 Z M10.8577461,1.0974054 C11.0431539,0.9445254 11.1934697,0.7588854 11.3084171,0.5404854 L11.4277855,0.5994534 C11.4012592,0.6521424 11.3567724,0.7201194 11.2951539,0.8025654 C11.2904566,0.8115744 11.2863118,0.8181264 11.2818908,0.8224944 L11.2818908,1.6281174 L11.1558908,1.6281174 L11.1558908,0.9794694 C11.0807329,1.0624614 11.0033645,1.1413584 10.9237855,1.2153414 C10.9105224,1.1891334 10.8928382,1.1566464 10.8707329,1.1170614 C10.8618908,1.1083254 10.8577461,1.1020464 10.8577461,1.0974054 L10.8577461,1.0974054 Z" id="Fill-27" fill="#FFFFFF"></path>
                                    <path d="M13.3304132,0.5603052 L13.4232553,0.5081622 C13.4500579,0.5472012 13.4939921,0.6195462 13.5558868,0.7243782 C13.5779921,0.7590492 13.5934658,0.7852572 13.6020316,0.8027292 C13.6686237,0.6760572 13.7216763,0.5581212 13.7617421,0.4491942 L13.8742026,0.4882332 C13.7946237,0.6719622 13.7283079,0.8161062 13.6749789,0.9206652 C13.7506895,1.0476102 13.8189395,1.1671842 13.8808342,1.2810252 L13.7747289,1.3397202 C13.7567684,1.3094172 13.7283079,1.2594582 13.6885184,1.1892972 C13.6528737,1.1235042 13.6266237,1.0735452 13.6089395,1.0386012 C13.6045184,1.0476102 13.5954,1.0601682 13.5824132,1.0779132 C13.5028342,1.2217842 13.4406632,1.3200642 13.3967289,1.3727532 L13.2975316,1.3069602 C13.3900974,1.1802882 13.4718868,1.0519782 13.5426237,0.9206652 C13.4674658,0.7939932 13.3967289,0.6738732 13.3304132,0.5603052 L13.3304132,0.5603052 Z M12.7935316,1.6149042 L12.6741632,1.6149042 L12.6741632,0.1740102 L14.0399921,0.1740102 L14.0399921,1.4117922 C14.0485579,1.5384642 13.9822421,1.6039842 13.8410447,1.6086252 L13.6089395,1.6086252 C13.6045184,1.5559362 13.5954,1.5144402 13.5824132,1.4841372 L13.6553605,1.4841372 C13.7172553,1.4882322 13.7656105,1.4906892 13.8012553,1.4906892 C13.8849789,1.4950572 13.9247684,1.4642082 13.9203474,1.3989612 L13.9203474,0.2919462 L12.7935316,0.2919462 L12.7935316,1.2810252 C12.8863737,1.1456172 12.9659526,1.0123932 13.0322684,0.8816262 C13.0010447,0.8248422 12.9524132,0.7415772 12.8863737,0.6326502 C12.8554263,0.5755932 12.8311105,0.5340972 12.8134263,0.5081622 L12.9059921,0.4554732 C12.9151105,0.4685772 12.9261632,0.4882332 12.9394263,0.5144412 C12.9792158,0.5712252 13.0297816,0.6566742 13.0919526,0.7699692 C13.1273211,0.7000812 13.1690447,0.6020742 13.2179526,0.4751292 C13.2220974,0.4576572 13.2267947,0.4448262 13.2312158,0.4360902 L13.3370447,0.4751292 C13.2842684,0.6195462 13.2267947,0.7549542 13.1649,0.8816262 C13.1781632,0.9031932 13.1977816,0.9381372 13.2243079,0.9861852 C13.2820579,1.0779132 13.3215711,1.1475282 13.3436763,1.1958492 L13.2375711,1.2548172 C13.1933605,1.1671842 13.1469395,1.0822812 13.0983079,0.9990162 C13.0322684,1.1303292 12.9615316,1.2460812 12.8863737,1.3468182 L12.7935316,1.2873042 L12.7935316,1.6149042 Z" id="Fill-29" fill="#FFFFFF"></path>
                                    <polygon id="Fill-31" fill="#FFFFFF" points="11.1542882 8.163246 9.75226184 8.163246 9.75226184 10.236135 11.3446697 10.236135 11.3446697 10.785138 9.11341974 10.785138 9.11341974 5.262075 11.2457487 5.262075 11.2457487 5.811624 9.75226184 5.811624 9.75226184 7.63035 11.1542882 7.63035"></polygon>
                                    <path d="M13.8168118,10.7850288 L13.3108776,9.4574298 C13.194825,9.1546728 13.0870618,8.8680228 12.9624434,8.4907368 L12.937575,8.4907368 C12.8132329,8.8592868 12.7054697,9.1786968 12.6059961,9.4740828 L12.1246539,10.7850288 L11.4695092,10.7850288 L12.6140092,7.9665768 L11.5026671,5.2622388 L12.165825,5.2622388 L12.6720355,6.5404248 C12.7717855,6.7945878 12.8715355,7.0566678 12.9956013,7.4173008 L13.0121803,7.4173008 C13.1450882,7.0323708 13.2277066,6.7861248 13.3191671,6.5155818 L13.7753645,5.2622388 L14.4222197,5.2622388 L13.3271803,7.9496508 L14.4805224,10.7850288 L13.8168118,10.7850288 Z" id="Fill-33" fill="#FFFFFF"></path>
                                    <path d="M15.5253,7.9984905 C15.6001816,8.0069535 15.6750632,8.0154165 15.7828263,8.0154165 C16.4048132,8.0154165 16.8278526,7.6138335 16.8278526,6.8273205 C16.8278526,6.2616645 16.5960237,5.7530655 15.8823,5.7530655 C15.7330895,5.7530655 15.6081947,5.7702645 15.5253,5.7942885 L15.5253,7.9984905 Z M14.8953,5.3435655 C15.15255,5.2785915 15.4509711,5.2376415 15.8159842,5.2376415 C16.3304842,5.2376415 16.7698263,5.3602185 17.0602342,5.6389515 C17.3252211,5.9013045 17.4664184,6.3028875 17.4664184,6.7860975 C17.4664184,7.2944235 17.3418,7.6384035 17.1262737,7.9168635 C16.8278526,8.3266365 16.3053395,8.5316595 15.8079711,8.5316595 C15.6993789,8.5316595 15.6167605,8.5316595 15.5253,8.5234695 L15.5253,10.7850015 L14.8953,10.7850015 L14.8953,5.3435655 Z" id="Fill-35" fill="#FFFFFF"></path>
                                    <path d="M18.4205368,8.0238249 C18.4205368,9.1625079 18.6446289,10.2935469 19.3580763,10.2935469 C20.0712474,10.2935469 20.2621816,9.0885249 20.2621816,8.0068989 C20.2621816,6.9749589 20.0712474,5.7532839 19.3489579,5.7532839 C18.6446289,5.7532839 18.4205368,6.9012489 18.4205368,8.0238249 M20.9253395,7.9828749 C20.9253395,10.0557639 20.2121684,10.8507399 19.3080632,10.8507399 C18.3790895,10.8507399 17.7568263,9.8747649 17.7568263,8.0156349 C17.7568263,6.1878999 18.4288263,5.1963639 19.3992474,5.1963639 C20.3530895,5.1963639 20.9253395,6.2206599 20.9253395,7.9828749" id="Fill-37" fill="#FFFFFF"></path>
                                    <path d="M10.9054934,4.1922153 L10.7629145,4.3502823 C10.6742171,4.2391713 10.3067171,3.9658983 10.1425855,3.9104793 L10.2658224,3.7671543 C10.3174934,3.7971843 10.3954145,3.8460513 10.4819013,3.9017433 C10.5985066,3.7843533 10.6720066,3.7029993 10.7477171,3.5943453 L10.0494671,3.5943453 C10.0994803,3.5067123 10.1489408,3.3912333 10.1901118,3.2309823 C10.0583092,3.2331663 9.89390132,3.2375343 9.81819079,3.2503653 L9.81819079,3.0644523 C9.90053289,3.0710043 10.0884276,3.0797403 10.2224408,3.0838353 C10.2420592,2.9877393 10.2569803,2.9044743 10.2699671,2.8318563 C10.1597171,2.8318563 9.99779605,2.8337673 9.93065132,2.8425033 L9.93065132,2.6587743 C10.0063618,2.6696943 10.1879013,2.6803413 10.2959408,2.6844363 C10.3197039,2.5392003 10.3285461,2.4471993 10.3285461,2.3598393 C10.3780066,2.3748543 10.5250066,2.4024273 10.581375,2.4067953 C10.6159145,2.4089793 10.6159145,2.4174423 10.5725329,2.4515673 C10.5531908,2.4687663 10.5294276,2.5244583 10.4860461,2.6844363 L10.7781118,2.6844363 C10.8773092,2.6844363 10.9767829,2.6803413 11.0654803,2.6696943 L11.0632697,2.8531503 C10.9767829,2.8381353 10.8773092,2.8318563 10.7781118,2.8318563 L10.4495724,2.8318563 C10.4321645,2.9020173 10.4128224,2.9877393 10.3890592,3.0860193 L10.8364145,3.0860193 C10.9552303,3.0838353 11.0740461,3.0772833 11.1779408,3.0644523 L11.1779408,3.2481813 C11.0721118,3.2331663 10.9530197,3.2268873 10.8364145,3.2309823 L10.3564539,3.2309823 C10.3412566,3.2992323 10.324125,3.3743073 10.3045066,3.4553883 L10.7024013,3.4553883 C10.8190066,3.4553883 10.9248355,3.4469253 11.0135329,3.4360053 L11.0135329,3.6006243 C10.9422434,3.6369333 10.7952434,3.7608753 10.6114934,3.9850083 C10.7325197,4.0660893 10.8494013,4.1452593 10.9054934,4.1922153 M9.33408553,3.3934173 C9.31032237,3.3445503 9.25395395,3.2738433 9.20228289,3.2397183 C9.35121711,3.1135923 9.58691447,2.6844363 9.67561184,2.3576553 C9.72313816,2.3895963 9.80741447,2.4302733 9.87649342,2.4452883 C9.91766447,2.4537513 9.91351974,2.4687663 9.883125,2.4794133 C9.85936184,2.4881493 9.82896711,2.5392003 9.72534868,2.7335763 L9.72534868,3.9743613 C9.72534868,4.1023983 9.72534868,4.2028623 9.73170395,4.3502823 L9.52640132,4.3502823 C9.54380921,4.2091413 9.54795395,4.1111343 9.54795395,3.9765453 L9.54795395,3.0559893 C9.46395395,3.1990413 9.38824342,3.3210723 9.33408553,3.3934173" id="Fill-39" fill="#FFFFFF"></path>
                                    <path d="M12.6668684,4.061967 L12.9478816,4.061967 L12.9478816,3.865407 L12.6668684,3.865407 L12.6668684,4.061967 Z M12.6668684,3.752385 L12.9478816,3.752385 L12.9478816,3.566472 L12.6668684,3.566472 L12.6668684,3.752385 Z M12.2344342,4.061967 L12.5220789,4.061967 L12.5220789,3.865407 L12.2344342,3.865407 L12.2344342,4.061967 Z M12.2344342,3.752385 L12.5220789,3.752385 L12.5220789,3.566472 L12.2344342,3.566472 L12.2344342,3.752385 Z M13.0211053,3.446898 C12.8591842,3.333876 12.7768421,3.22686 12.684,3.049683 L12.6602368,3.049683 C12.6602368,3.147963 12.6646579,3.267264 12.6710132,3.380559 L12.4958289,3.380559 C12.5024605,3.267264 12.5068816,3.147963 12.5068816,3.049683 L12.4786974,3.049683 C12.4115526,3.20775 12.3209211,3.329508 12.1935395,3.446898 L13.0211053,3.446898 Z M12.2280789,2.921646 C12.2040395,2.865954 12.1780658,2.821182 12.1415921,2.767674 L12.2930132,2.69724 C12.3123553,2.748564 12.3339079,2.79552 12.3684474,2.853123 L12.2280789,2.921646 Z M12.2344342,4.29702 L12.0766579,4.29702 C12.0830132,4.222218 12.0855,4.166526 12.0855,4.046952 L12.0855,3.536715 C12.0443289,3.568656 12.0009474,3.600597 11.9556316,3.632538 C11.9296579,3.596502 11.8799211,3.560193 11.8323947,3.536715 C12.0506842,3.416868 12.2518421,3.222492 12.3491053,3.049683 C12.2128816,3.051594 12.0918553,3.055962 12.0053684,3.066609 L12.0053684,2.92383 C12.1241842,2.934477 12.3101447,2.938572 12.5068816,2.938572 L12.5068816,2.639637 C12.3253421,2.658747 12.1545789,2.674035 12.0570395,2.677857 C12.0506842,2.626806 12.0335526,2.569203 12.0031579,2.522247 C12.2173026,2.53071 12.4527237,2.513784 12.6688026,2.479386 C12.8006053,2.458092 12.9672237,2.408952 13.0277368,2.374827 C13.0600658,2.436525 13.1120132,2.509416 13.1399211,2.53071 C13.1681053,2.552004 13.1639605,2.57985 13.1379868,2.577666 C13.0904605,2.573298 13.0363026,2.575482 12.9843553,2.582034 C12.8915132,2.594865 12.7768421,2.607423 12.6602368,2.622438 L12.6602368,2.938572 L12.7986711,2.938572 C12.8547632,2.801799 12.8807368,2.72727 12.8915132,2.660931 C12.9324079,2.686593 13.0125395,2.714439 13.0666974,2.720718 C13.0860395,2.722902 13.08825,2.735733 13.0666974,2.752932 C13.0407237,2.769858 12.9865658,2.842476 12.9304737,2.938572 C13.0622763,2.936661 13.1681053,2.932293 13.2526579,2.92383 L13.2526579,3.066609 C13.1399211,3.055962 12.9909868,3.049683 12.79425,3.049683 C12.9478816,3.239691 13.1205789,3.340155 13.3128947,3.384927 C13.2697895,3.42342 13.2311053,3.497949 13.2114868,3.564288 C13.1703158,3.542994 13.1316316,3.519516 13.0968158,3.496038 L13.0968158,4.02129 C13.0968158,4.141137 13.0990263,4.19874 13.1053816,4.271085 L12.9478816,4.271085 L12.9478816,4.175262 L12.2344342,4.175262 L12.2344342,4.29702 Z M11.5989079,3.002727 C11.5057895,3.004911 11.4325658,3.01119 11.3784079,3.021837 L11.3784079,2.840292 C11.4325658,2.850939 11.5057895,2.855307 11.5989079,2.857218 C11.5989079,2.618343 11.5881316,2.496585 11.5751447,2.43243 C11.6530658,2.447445 11.6961711,2.449356 11.7566842,2.447445 C11.8238289,2.445261 11.8346053,2.464644 11.7890132,2.500953 C11.7588947,2.524431 11.7503289,2.541357 11.7503289,2.577666 L11.7503289,2.855307 C11.8152632,2.853123 11.8669342,2.848755 11.9103158,2.840292 L11.9103158,3.021837 C11.8669342,3.013374 11.8152632,3.006822 11.7503289,3.004911 L11.7503289,3.263169 C11.8216184,3.233139 11.8843421,3.203382 11.9340789,3.175809 C11.9274474,3.239691 11.9362895,3.286647 11.9578421,3.337971 C11.8973289,3.361449 11.8238289,3.391479 11.7503289,3.425604 L11.7503289,4.081077 C11.7503289,4.209387 11.7287763,4.249791 11.4629605,4.277637 C11.4585395,4.200651 11.4474868,4.166526 11.3913947,4.074525 C11.5859211,4.098276 11.5989079,4.081077 11.5989079,4.015011 L11.5989079,3.494127 C11.5187763,3.532347 11.4474868,3.57084 11.4021711,3.604965 C11.3958158,3.542994 11.3784079,3.459729 11.3568553,3.399942 C11.4325658,3.376464 11.5168421,3.348618 11.5989079,3.321045 L11.5989079,3.002727 Z" id="Fill-41" fill="#FFFFFF"></path>
                                    <path d="M15.2904039,3.1007613 C15.221325,3.3423663 15.1541803,3.5301903 15.1088645,3.6453963 C15.0439303,3.6090873 15.000825,3.5984403 14.9229039,3.6049923 C15.0312197,3.3912333 15.1177066,3.0644523 15.1671671,2.7636063 C15.2340355,2.7955473 15.3357197,2.8231203 15.4092197,2.8296723 C15.4415487,2.8318563 15.4415487,2.8487823 15.4092197,2.8678923 C15.3813118,2.8853643 15.3185882,3.0027543 15.2904039,3.1007613 L15.2904039,3.1007613 Z M13.9091013,3.6645063 C13.8659961,3.3999693 13.7621013,3.0903873 13.6477066,2.8981953 L13.8463776,2.8146573 C13.9201539,3.0475263 14.0259829,3.3401823 14.1318118,3.5921613 L13.9091013,3.6645063 Z M14.2205092,2.6994513 C14.2205092,2.6011713 14.2138776,2.4837813 14.2031013,2.3961483 C14.2680355,2.4089793 14.3523118,2.4152583 14.4258118,2.4130743 C14.4581408,2.4130743 14.4647724,2.4280893 14.4387987,2.4493833 C14.4106145,2.4709503 14.4020487,2.4881493 14.4020487,2.5179063 L14.4020487,4.0000233 L14.6485224,4.0000233 L14.6485224,2.7035463 C14.6485224,2.6140023 14.6418908,2.5048023 14.6311145,2.4005163 C14.6938382,2.4130743 14.780325,2.4174423 14.853825,2.4152583 C14.8861539,2.4152583 14.8927855,2.4302733 14.8668118,2.4515673 C14.8386276,2.4753183 14.8300618,2.4922443 14.8300618,2.5222743 L14.8300618,4.0000233 C15.1541803,4.0000233 15.3876671,3.9915603 15.478575,3.9809133 L15.478575,4.1837523 C15.3768908,4.1709213 15.1519697,4.1643693 14.5252855,4.1643693 C13.9546934,4.1643693 13.7361276,4.1709213 13.6087461,4.1837523 L13.6087461,3.9809133 C13.7341934,3.9937443 13.9566276,4.0000233 14.2205092,4.0000233 L14.2205092,2.6994513 Z" id="Fill-43" fill="#FFFFFF"></path>
                                    <path d="M16.5523105,3.7310091 C16.4486921,3.9207441 16.2237711,4.1112981 15.9104289,4.2625401 C15.8626263,4.1901951 15.8109553,4.1454231 15.7266789,4.0984671 C16.0032711,4.0171131 16.1632579,3.9232011 16.3340211,3.7353771 C16.4528368,3.6070671 16.5351789,3.3976761 16.5586658,3.0902781 C16.2389684,3.0924621 15.9944289,3.0990141 15.8128895,3.1096611 L15.8128895,2.9046381 C15.9991263,2.9174691 16.2431132,2.9237481 16.5675079,2.9259321 C16.5804947,2.6608491 16.5782842,2.5008711 16.5652974,2.3791131 C16.6473632,2.3897601 16.7404816,2.3960391 16.8114947,2.3919441 C16.8463105,2.3897601 16.8504553,2.4025911 16.8203368,2.4238851 C16.7943632,2.4429951 16.7857974,2.4855831 16.7813763,2.5500111 C16.7728105,2.6906061 16.7642447,2.8254681 16.7554026,2.9259321 C17.1035605,2.9259321 17.3605342,2.9193801 17.5531263,2.9046381 L17.5531263,3.1096611 C17.3586,3.0968301 17.0972053,3.0902781 16.7446263,3.0902781 C16.8029289,3.3466251 16.9325211,3.5835891 17.1229026,3.7673181 C17.2547053,3.8953551 17.4495079,3.9958191 17.6288368,4.0212081 C17.54235,4.0809951 17.4881921,4.1538861 17.4470211,4.2497091 C17.2547053,4.1560701 17.0449816,3.9808041 16.9350079,3.8312001 C16.8289026,3.6903321 16.7642447,3.5388171 16.7056658,3.3316101 C16.6711263,3.4978671 16.6236,3.6026991 16.5523105,3.7310091" id="Fill-44" fill="#FFFFFF"></path>
                                    <path d="M18.81075,3.453177 L19.1263026,3.453177 L19.1263026,3.241875 L18.81075,3.241875 L18.81075,3.453177 Z M18.81075,3.107013 L19.1263026,3.107013 L19.1263026,2.925741 L18.81075,2.925741 L18.81075,3.107013 Z M18.2724868,2.788968 L19.4570526,2.788968 L19.4570526,2.601144 L18.2724868,2.601144 L18.2724868,2.788968 Z M18.4001447,3.258801 L18.4001447,3.09036 C18.4714342,3.098823 18.5512895,3.103191 18.6466184,3.105375 L18.6466184,2.925741 L18.2724868,2.925741 C18.2746974,3.167073 18.2746974,3.308214 18.2683421,3.453177 L18.6466184,3.453177 L18.6466184,3.244059 C18.5512895,3.24597 18.4736447,3.252522 18.4001447,3.258801 L18.4001447,3.258801 Z M18.6767368,4.059783 C18.8021842,3.993717 18.8778947,3.946761 18.9489079,3.891069 C18.9489079,3.957408 18.95775,3.999996 18.9815132,4.059783 C18.7264737,4.183725 18.6162237,4.258254 18.5686974,4.326777 C18.5385789,4.26699 18.4777895,4.185909 18.4324737,4.1496 C18.4951974,4.117659 18.5145395,4.085445 18.5145395,3.991533 L18.5145395,3.585582 L18.2595,3.585582 C18.2423684,3.852576 18.1945658,4.046952 18.0782368,4.283916 C18.0304342,4.228497 17.9677105,4.188093 17.8964211,4.166526 C18.0519868,3.929562 18.0801711,3.797157 18.0953684,3.448809 C18.1017237,3.291015 18.0931579,2.865954 18.0782368,2.438709 C18.2445789,2.453724 18.4020789,2.460003 18.8604868,2.460003 C19.3186184,2.460003 19.5067895,2.453724 19.6493684,2.438709 C19.6363816,2.509416 19.6322368,2.584218 19.6341711,2.669667 C19.6341711,2.754843 19.6385921,2.846571 19.6493684,2.932293 C19.5847105,2.92383 19.4766711,2.921646 19.2907105,2.925741 L19.2907105,3.107286 C19.4247237,3.105375 19.5606711,3.098823 19.6385921,3.09036 L19.6385921,3.258801 C19.5543158,3.248154 19.4332895,3.241875 19.2907105,3.241875 L19.2907105,3.453177 C19.5584605,3.450993 19.7272895,3.444714 19.7985789,3.431883 L19.7985789,3.60906 C19.7187237,3.596502 19.5521053,3.585582 19.0376053,3.585582 C19.068,3.67731 19.1481316,3.788694 19.2235658,3.852576 C19.3230395,3.767127 19.4225132,3.651921 19.4462763,3.604965 C19.4786053,3.632538 19.5802895,3.692325 19.6148289,3.702972 C19.6493684,3.713892 19.6471579,3.741738 19.6084737,3.741738 C19.5866447,3.741738 19.4938026,3.788694 19.3426579,3.920826 C19.509,4.00218 19.6775526,4.044768 19.8438947,4.046952 C19.7811711,4.113018 19.7576842,4.179357 19.7532632,4.256343 C19.2473289,4.145232 19.0356711,3.965871 18.8928158,3.585582 L18.6767368,3.585582 L18.6767368,4.059783 Z" id="Fill-45" fill="#FFFFFF"></path>
                                </g>
                            </g>
                        </g>
                    </g>
                </g>
            </g>
        </g>
    </g>
</svg>