<?xml version="1.0" encoding="UTF-8"?>
<svg width="88px" height="28px" viewBox="0 0 88 28" version="1.1" xmlns="http://www.w3.org/2000/svg" xmlns:xlink="http://www.w3.org/1999/xlink">
    <!-- Generator: Sketch 53.2 (72643) - https://sketchapp.com -->
    <title>Group 2 Copy</title>
    <desc>Created with Sketch.</desc>
    <g id="Page-1" stroke="none" stroke-width="1" fill="none" fill-rule="evenodd">
        <g id="07机构创作者账户中心---成员管理-" transform="translate(-30.000000, -15.000000)" fill="#FFFFFF">
            <g id="Group-6-Copy-7">
                <g id="Group-2-Copy" transform="translate(30.000000, 15.000000)">
                    <path d="M84.0641705,1.37695738 L71.421023,1.37695738 L71.421023,17.3897443 L73.0863344,17.3897443 L73.0863344,2.97020328 C73.0863344,2.97020328 82.9469246,2.98994098 83.6808918,2.98994098 C85.0056131,2.98994098 85.5757115,3.61099016 85.5757115,4.90312131 C85.5784656,7.69669508 85.5835148,13.9627279 85.5835148,14.6131541 C85.5835148,15.4761049 85.2351213,15.8043016 84.5456787,15.8043016 L83.5014164,15.8043016 L83.5014164,17.3897443 L84.973023,17.3897443 C86.5736131,17.3897443 87.2841705,16.7062689 87.2841705,14.9721049 L87.2841705,4.31144918 C87.2841705,2.41892459 86.2830557,1.37695738 84.0641705,1.37695738" id="Fill-1"></path>
                    <path d="M78.9123541,4.39751475 L77.4044852,4.39751475 C77.2750426,6.15417049 77.0749115,7.54958033 76.6567475,8.78708852 C76.2303213,7.56335082 75.9769443,6.16472787 75.772223,4.39751475 L74.2652721,4.39751475 C74.512223,6.87344918 75.044223,8.92020328 75.8222557,10.591023 C75.4050098,11.2827607 74.878518,11.9543016 74.206977,12.6524656 L74.206977,14.6115475 C75.1502557,13.8064328 75.9530754,12.9687279 76.6158951,12.0383016 C77.2837639,13.0765967 78.0728131,13.9285311 78.9697311,14.6115475 L78.9697311,12.5767279 C78.3670426,11.9143672 77.8827803,11.2694492 77.4880262,10.5965311 C78.3289443,8.93443279 78.8072393,6.95377705 78.9123541,4.39751475" id="Fill-3"></path>
                    <path d="M84.4972066,12.6526492 C83.8972721,11.9944197 83.4217311,11.3472066 83.0370754,10.6701574 C83.9014033,8.99291148 84.3916328,6.9916 84.4976656,4.39769836 L82.9907148,4.39769836 C82.8598951,6.17546885 82.6556328,7.58281311 82.2269115,8.8313377 C81.8156328,7.58740328 81.5774033,6.16950164 81.3717639,4.39769836 L79.8643541,4.39769836 C80.112682,6.88327213 80.6299934,8.93737049 81.3951738,10.6118623 C80.980223,11.2957967 80.4574033,11.9613705 79.7927475,12.6526492 L79.7927475,14.6117311 C80.7259279,13.8144197 81.5223213,12.9858951 82.1814689,12.0664852 C82.8337311,13.0919279 83.6080918,13.934682 84.4972066,14.6117311 L84.4972066,12.6526492 Z" id="Fill-5"></path>
                    <polygon id="Fill-7" points="56.0951082 5.52398689 57.7897967 5.52398689 57.7897967 4.36588852 64.6406164 4.36588852 64.6406164 5.52398689 66.3348459 5.52398689 66.3348459 4.36588852 69.278977 4.36588852 69.278977 2.70608525 66.3348459 2.70608525 66.3348459 1.37677377 64.6406164 1.37677377 64.6406164 2.70608525 57.7897967 2.70608525 57.7897967 1.37677377 56.0951082 1.37677377 56.0951082 2.70608525 53.1477639 2.70608525 53.1477639 4.36588852 56.0951082 4.36588852"></polygon>
                    <path d="M53.1478098,10.2844918 L53.1478098,11.7602295 C53.8097115,11.6206885 54.4280066,11.3980656 54.9930557,11.1056721 L54.9930557,17.3914426 L56.7414492,17.3914426 L56.7414492,9.79885246 C57.5979738,8.90055738 58.1864328,7.76678689 58.4186951,6.48842623 L56.5996131,6.48842623 C56.2861049,8.22029508 54.9517443,9.63590164 53.1478098,10.2844918" id="Fill-9"></path>
                    <path d="M64.8737967,15.7055213 C63.7547148,15.7055213 63.3012066,15.2786361 63.3012066,14.2564066 C63.3012066,14.1489967 63.3021246,13.8299803 63.3030426,13.3796852 C66.6116328,11.9760131 68.5858623,9.73234098 69.2275672,6.96493115 L67.4392393,6.96263607 C66.8452721,8.90381639 65.4769443,10.4832918 63.3067148,11.6349639 C63.312223,9.37247213 63.3186492,6.48847213 63.3186492,6.48847213 L61.5307803,6.48847213 L61.5307803,12.4157508 C60.6233049,12.7453246 59.6153049,13.0193574 58.5049443,13.2350951 L58.5049443,14.6699803 C59.5960262,14.5088656 60.6031082,14.2867016 61.5307803,14.0117508 L61.5307803,14.6066361 C61.5307803,16.509259 62.5116984,17.3171279 64.6732066,17.3171279 L69.278977,17.3171279 L69.278977,15.7009311 L64.8737967,15.7055213 Z" id="Fill-11"></path>
                    <path d="M43.535823,4.39751475 L51.124282,4.39751475 L51.124282,2.79508852 L44.6328721,2.79508852 C44.2147082,2.79508852 44.0747082,2.60459672 44.2179213,2.1979082 C44.4120852,1.66682623 44.5291344,1.37672787 44.5291344,1.37672787 L42.7885443,1.37672787 C42.7885443,1.37672787 42.724741,1.63469508 42.3506426,2.60735082 C42.026118,3.50380984 42.4621836,4.39751475 43.535823,4.39751475" id="Fill-13"></path>
                    <path d="M49.2085311,10.4225639 L47.4371869,10.4225639 L47.4371869,8.05312131 L45.9141705,8.05312131 L45.9141705,10.4225639 L44.1446623,10.4225639 L44.1520066,6.96433443 L48.1927279,6.9606623 C48.925318,6.9606623 49.2122033,7.3246623 49.2122033,7.97600656 L49.2085311,10.4225639 Z M47.4371869,15.857777 L47.4371869,13.1789574 L45.9141705,13.1789574 L45.9141705,15.8614492 L45.1788262,15.8632852 C44.528859,15.8632852 44.135023,15.5598754 44.135023,14.821777 L44.1409902,12.020859 L49.2062361,12.020859 L49.2066951,15.8591541 L47.4371869,15.857777 Z M50.8068262,10.4225639 L50.8068262,7.56885902 C50.8068262,6.21980984 50.0613836,5.44820328 48.5273508,5.44820328 L42.5624328,5.45187541 L42.5624328,10.4225639 L41.8858426,10.4225639 L41.8858426,12.020859 L42.5624328,12.020859 L42.5624328,15.127482 C42.5624328,16.5931213 43.4249246,17.3771213 44.9144328,17.3771213 L50.8068262,17.3913508 L50.8068262,12.020859 L51.4352197,12.020859 L51.4352197,10.4225639 L50.8068262,10.4225639 Z" id="Fill-15"></path>
                    <polygon id="Fill-17" points="41.4886098 2.79366557 39.2761508 2.79366557 39.2761508 1.39687869 37.7012656 1.39687869 37.7012656 2.79366557 35.3630361 2.79366557 35.3630361 4.39746885 37.7012656 4.39746885 37.7012656 17.3968131 39.2761508 17.3968131 39.2761508 4.39746885 41.4886098 4.39746885"></polygon>
                    <path d="M35.1573967,16.3743082 L36.4444787,16.3761443 C36.8222492,13.5242754 36.9443475,10.6866361 36.9443475,5.44834098 L35.6453311,5.44834098 C35.6453311,8.72571803 35.6999541,12.4400787 35.1573967,16.3743082" id="Fill-19"></path>
                    <path d="M41.2353705,5.44824918 L39.9827148,5.44824918 C39.9827148,10.6865443 40.100223,13.5241836 40.465141,16.3760525 L41.7058623,16.3742164 C41.1830426,12.4399869 41.2353705,8.72562623 41.2353705,5.44824918" id="Fill-21"></path>
                    <path d="M53.1679607,22.1936262 L51.7587803,22.1936262 L51.7587803,20.5237246 L50.8168787,20.5237246 L50.8168787,26.162282 L51.7638295,26.163659 L51.7629115,23.0579541 L52.9044852,23.0579541 C53.4557639,23.0579541 53.7013377,23.3544787 53.7013377,23.8630689 L53.7013377,26.163659 L54.6496656,26.163659 L54.6496656,23.7239869 C54.6496656,22.6971672 54.1837639,22.1936262 53.1679607,22.1936262" id="Fill-23"></path>
                    <polygon id="Fill-25" points="48.2311475 21.4622295 49.1790164 21.4622295 49.1790164 20.5194098 48.2311475 20.5194098"></polygon>
                    <polygon id="Fill-27" points="48.2306885 26.1639344 49.1863607 26.1639344 49.1863607 22.1939016 48.2306885 22.1939016"></polygon>
                    <path d="M39.8462033,22.1978492 C39.5042361,22.1978492 35.1573508,22.1909639 35.1573508,22.1909639 L35.1573508,26.1637508 L36.1047607,26.1637508 C36.1070557,23.845259 36.1061377,23.0562098 36.1061377,23.0562098 C36.1061377,23.0562098 37.0030557,23.0571279 37.149023,23.0571279 C37.5671869,23.0571279 37.7618098,23.2779148 37.7618098,23.6960787 C37.7618098,24.6026361 37.767318,26.1637508 37.767318,26.1637508 L38.6986623,26.1637508 C38.6986623,23.872341 38.6995803,23.0585049 38.6995803,23.0585049 L39.6015475,23.0571279 C40.091777,23.0571279 40.3483672,23.3743082 40.3483672,23.8264393 L40.3483672,26.1637508 L41.3026623,26.1637508 L41.3026623,23.566177 C41.3026623,22.7064393 40.8284984,22.1978492 39.8462033,22.1978492" id="Fill-28"></path>
                    <path d="M44.5026951,22.9516 L45.0838098,22.9516 C45.5304328,22.9516 45.7158754,23.1719279 45.7158754,23.5850426 L45.7158754,23.8875344 L43.8238098,23.8884525 L43.8238098,23.5758623 C43.8238098,23.1627475 44.0638754,22.9516 44.5026951,22.9516 M42.875482,23.5157311 C42.8718098,24.128518 42.8713508,24.4723213 42.8713508,24.5549443 C42.8713508,25.6299607 43.3854492,26.1628787 44.4118098,26.1628787 C44.4852525,26.1628787 46.5687279,26.1637967 46.5687279,26.1637967 L46.571023,25.3807148 C46.571023,25.3807148 44.7078754,25.3820918 44.6890557,25.3816328 C44.1543016,25.3816328 43.827023,25.1580918 43.827023,24.6375672 L46.6651213,24.6343541 L46.6743016,23.5487803 C46.6743016,22.7487148 46.2308918,22.2001902 45.3050557,22.2001902 C45.3050557,22.2001902 45.3844656,22.1956 44.2708918,22.1992721 C43.3941705,22.1992721 42.875482,22.7647803 42.875482,23.5157311" id="Fill-29"></path>
                    <path d="M57.7034557,26.1546623 C58.0288984,26.1546623 60.0462754,26.1638426 60.0462754,26.1638426 C60.0462754,26.1638426 60.0504066,24.2033836 60.0540787,22.1910557 L59.1080459,22.1864656 L59.0997836,25.2967607 C59.0997836,25.2967607 57.8888984,25.2907934 57.8879803,25.2907934 C57.4119803,25.2907934 57.1645705,25.0631213 57.1645705,24.579318 C57.1650295,24.2263344 57.1659475,23.9417443 57.1700787,22.1823344 L56.2222098,22.1804984 C56.2222098,22.1804984 56.2203738,23.1462689 56.2167016,24.7041705 C56.2148656,25.6612197 56.6582754,26.1546623 57.7034557,26.1546623" id="Fill-30"></path>
                    <polygon id="Fill-31" points="67.6310164 26.1639344 68.852 26.1639344 68.852 24.9429508 67.6310164 24.9429508"></polygon>
                    <polygon id="Fill-32" points="71.0438033 21.4622295 71.9921311 21.4622295 71.9921311 20.5194098 71.0438033 20.5194098"></polygon>
                    <polygon id="Fill-33" points="71.0451803 26.1639344 71.9999344 26.1639344 71.9999344 22.1939016 71.0451803 22.1939016"></polygon>
                    <path d="M86.3072459,24.6469311 C86.3072459,25.0880459 86.0231148,25.2946033 85.6274426,25.2946033 C85.5852131,25.2946033 85.0715738,25.2982754 85.0320984,25.2959803 C84.6084262,25.2959803 84.3293443,25.0687672 84.3293443,24.5987344 L84.3293443,23.7275213 C84.3293443,23.3102754 84.5781311,23.0596525 85.0284262,23.0596525 C85.1748525,23.0541443 85.666459,23.0614885 85.5888852,23.0614885 C86.0814098,23.0614885 86.3072459,23.3653574 86.3072459,23.803718 L86.3072459,24.6469311 Z M85.7311803,22.1957836 C85.6756393,22.1957836 84.9559016,22.1962426 84.9031148,22.1980787 C83.8946557,22.1980787 83.3498033,22.7420131 83.3498033,23.6517836 C83.3498033,24.5220787 83.3479672,23.4534885 83.3479672,24.5073902 C83.3479672,25.6526361 83.8528852,26.1612262 84.9237705,26.1612262 C84.9747213,26.1630623 85.6274426,26.1639803 85.6806885,26.1639803 C86.6886885,26.1639803 87.2799016,25.7582098 87.2799016,24.6584066 C87.2799016,24.6584066 87.2840328,23.745423 87.2840328,23.6687672 C87.2840328,22.8007672 86.7685574,22.1957836 85.7311803,22.1957836 L85.7311803,22.1957836 Z" id="Fill-34"></path>
                    <path d="M75.9260393,22.1936262 C75.6001377,22.1936262 73.6011213,22.1894951 73.6011213,22.1894951 L73.6011213,26.162282 L74.5485311,26.163659 L74.5494492,23.054282 L75.7506951,23.054282 C76.2505639,23.054282 76.4864984,23.3494295 76.4864984,23.7928393 L76.4864984,26.163659 L77.4343672,26.163659 L77.4343672,23.6404459 C77.4343672,22.7058885 76.9693836,22.1936262 75.9260393,22.1936262" id="Fill-35"></path>
                    <path d="M79.547082,21.7489311 C79.547541,21.8090623 79.547541,21.968341 79.547541,22.192341 L78.6359344,22.192341 L78.6359344,23.0534557 L79.548,23.0534557 C79.548459,24.1004721 79.548918,25.4899148 79.5502951,26.1619148 L80.5100984,26.1637508 C80.5100984,26.1637508 80.5087213,24.2648 80.5078033,23.0534557 L82.1850492,23.0534557 L82.1850492,22.192341 L80.5068852,22.192341 L80.5068852,22.0693246 C80.5068852,21.5956197 80.7079344,21.3785049 81.2321311,21.3785049 L82.2125902,21.3826361 L82.2144262,20.5196852 C82.1822951,20.5206033 81.9706885,20.5228984 80.8309508,20.5261115 C79.9271475,20.5261115 79.547082,20.9764066 79.547082,21.7489311 M82.2144262,20.5192262 L82.2144262,20.5196852 C82.2263607,20.5192262 82.2144262,20.5192262 82.2144262,20.5192262" id="Fill-36"></path>
                    <path d="M63.1349967,25.4129836 C62.7452918,25.4129836 62.583259,25.2624262 62.583259,24.9066885 C62.583259,24.5670164 62.7328984,24.3999344 63.1299475,24.3999344 C63.1483082,24.3999344 64.4868,24.4022295 64.4868,24.4022295 L64.4817508,25.4102295 C64.4817508,25.4102295 63.2020131,25.4129836 63.1349967,25.4129836 M63.8873246,22.2003279 C63.813882,22.2003279 61.8763738,22.2007869 61.8763738,22.2007869 L61.8745377,22.9838689 C61.8745377,22.9838689 63.8363738,22.9815738 63.8551934,22.9815738 C64.318341,22.9815738 64.4923082,23.1862951 64.4923082,23.6815738 L62.8104721,23.6788197 C62.0462098,23.6788197 61.6147344,24.0552131 61.6147344,24.7419016 L61.6147344,25.0186885 C61.6147344,25.7838689 62.0549311,26.1639344 62.8981443,26.1639344 L65.4305377,26.1630164 C65.4305377,26.1630164 65.4406361,23.9037377 65.4406361,23.7472131 C65.4406361,22.6671475 65.0660787,22.2003279 63.8873246,22.2003279" id="Fill-37"></path>
                    <path d="M12.2496328,26.6268984 L14.3652393,23.7144393 L16.4817639,26.6268984 C17.2010426,27.6174557 18.5877311,27.8373246 19.5782885,27.1175869 C20.5688459,26.3973902 20.7887148,25.0111607 20.068977,24.0206033 L16.1595344,18.6395541 C16.1361246,18.607882 16.1067475,18.5840131 16.0828787,18.553718 C16.034223,18.4935869 15.9837311,18.4357508 15.9281902,18.3802098 C15.8726492,18.3246689 15.8148131,18.274177 15.754682,18.2255213 C15.7243869,18.2011934 15.700518,18.1718164 15.6688459,18.1488656 C15.644518,18.131423 15.6174361,18.1208656 15.5921902,18.104341 C15.5251738,18.0593574 15.4558623,18.020341 15.3851738,17.9836197 C15.3241246,17.9519475 15.2630754,17.9211934 15.2006492,17.8954885 C15.1331738,17.8679475 15.0652393,17.8463738 14.9954689,17.825718 C14.9256984,17.8050623 14.8568459,17.7853246 14.7861574,17.7715541 C14.7177639,17.7587016 14.6493705,17.7513574 14.5796,17.7444721 C14.5079934,17.7375869 14.4373049,17.7316197 14.3652393,17.7316197 C14.2936328,17.7316197 14.2229443,17.7375869 14.1513377,17.7444721 C14.0820262,17.7513574 14.0136328,17.7587016 13.9447803,17.7715541 C13.8740918,17.7853246 13.8056984,17.8050623 13.7354689,17.825718 C13.6661574,17.8463738 13.598223,17.8679475 13.5307475,17.8954885 C13.4678623,17.9211934 13.4068131,17.9519475 13.346223,17.9836197 C13.2746164,18.020341 13.2057639,18.0593574 13.1387475,18.104341 C13.1139607,18.1208656 13.0864197,18.131423 13.0625508,18.1488656 C13.0304197,18.1718164 13.0065508,18.2011934 12.9767148,18.2255213 C12.9165836,18.274177 12.8587475,18.3246689 12.8032066,18.3802098 C12.7476656,18.4357508 12.6971738,18.4935869 12.648518,18.553718 C12.6237311,18.5840131 12.5948131,18.607882 12.5718623,18.6395541 L8.66241967,24.0206033 C7.94268197,25.0111607 8.1620918,26.3973902 9.15264918,27.1175869 C10.1432066,27.8373246 11.5298951,27.6174557 12.2496328,26.6268984" id="Fill-38"></path>
                    <path d="M25.400177,22.8875213 L25.400177,22.8875213 C26.3907344,22.1677836 26.6106033,20.7810951 25.8908656,19.7905377 L23.7748,16.8785377 L27.1986033,15.765882 C28.3631279,15.3876525 29.0007016,14.1368328 28.6224721,12.9718492 C28.2433246,11.8077836 26.9929639,11.1702098 25.8284393,11.5484393 L19.5022754,13.6039148 C19.4256197,13.6291607 19.351718,13.6580787 19.2801115,13.6902098 C19.2718492,13.693882 19.2649639,13.6980131 19.2567016,13.7016852 C19.125423,13.7627344 19.0024066,13.834341 18.8876525,13.9169639 C18.8871934,13.917423 18.8858164,13.917882 18.8844393,13.9188 C18.8821443,13.9206361 18.8803082,13.9233902 18.8775541,13.9252262 C18.761423,14.0101443 18.6553902,14.1051607 18.5594557,14.2088984 C18.5502754,14.2185377 18.5429311,14.2286361 18.5342098,14.2387344 C18.4474557,14.3360459 18.3689639,14.4402426 18.3005705,14.5508656 C18.2913902,14.5664721 18.2831279,14.5820787 18.2744066,14.5972262 C18.2110623,14.7060131 18.1564393,14.8193902 18.1119148,14.9373574 C18.1064066,14.9520459 18.1022754,14.9667344 18.0967672,14.981882 C18.0545377,15.1021443 18.0219475,15.2260787 18.0012918,15.3527672 C17.9989967,15.3642426 17.9980787,15.375718 17.9962426,15.3871934 C17.977423,15.515259 17.9687016,15.6460787 17.9723738,15.7778164 C17.9723738,15.7897508 17.9737508,15.8012262 17.9746689,15.8131607 C17.9806361,15.9416852 17.9962426,16.0711279 18.0256197,16.2001115 C18.0288328,16.215259 18.033882,16.2304066 18.0380131,16.2455541 C18.0504066,16.2965049 18.0628,16.3469967 18.0788656,16.3979475 C18.1036525,16.4741443 18.1330295,16.5480459 18.1647016,16.6201115 C18.1683738,16.6279148 18.173423,16.635718 18.1770951,16.6435213 C18.2376852,16.775259 18.3092918,16.8982754 18.3914557,17.0121115 C18.3923738,17.0134885 18.3928328,17.0148656 18.3937508,17.0157836 L22.3036525,22.3968328 C23.0229311,23.3873902 24.4096197,23.607259 25.400177,22.8875213" id="Fill-39"></path>
                    <path d="M17.0715541,10.8954885 C17.0876197,10.9028328 17.1032262,10.9106361 17.1197508,10.9175213 C17.2400131,10.9670951 17.3648656,11.0051934 17.4924721,11.0331934 C17.5053246,11.0359475 17.517718,11.0391607 17.5305705,11.0419148 C17.6691934,11.0699148 17.8110295,11.0841443 17.9547016,11.0850623 C17.9579148,11.0850623 17.9606689,11.0859803 17.963423,11.0859803 C17.965259,11.0859803 17.9666361,11.0855213 17.9680131,11.0855213 C18.1084721,11.0850623 18.2503082,11.0703738 18.3921443,11.0423738 C18.4008656,11.0405377 18.4100459,11.0400787 18.4187672,11.0382426 C18.495882,11.021718 18.5725377,11.0019803 18.6491934,10.9771934 L24.9748984,8.92171803 C26.139423,8.54348852 26.7769967,7.29266885 26.3983082,6.12814426 C26.0196197,4.96361967 24.769259,4.3260459 23.6042754,4.70473443 L20.1809311,5.81693115 L20.1809311,2.21732459 C20.1809311,0.992668852 19.1880787,-0.000183606557 17.963423,-0.000183606557 C16.7392262,-0.000183606557 15.7463738,0.992668852 15.7463738,2.21732459 L15.7463738,8.86847213 C15.7463738,8.86984918 15.7468328,8.87122623 15.7468328,8.87260328 C15.7472918,9.0130623 15.7615213,9.15489836 15.7899803,9.29719344 C15.7918164,9.30591475 15.7922754,9.31463607 15.7941115,9.32335738 C15.8106361,9.40047213 15.8303738,9.47712787 15.8551607,9.55378361 C15.8716852,9.60427541 15.891882,9.65247213 15.9116197,9.70112787 C15.9171279,9.71581639 15.921718,9.73050492 15.9281443,9.74473443 C15.9804721,9.86637377 16.0438164,9.98020984 16.1140459,10.0876197 C16.1209311,10.097718 16.1264393,10.1082754 16.1333246,10.1179148 C16.2076852,10.2271607 16.2916852,10.3272262 16.3825705,10.4199475 C16.3908328,10.4282098 16.398177,10.4364721 16.4064393,10.4447344 C16.4977836,10.5351607 16.5973902,10.6164066 16.7020459,10.6889311 C16.7153574,10.6976525 16.7272918,10.7068328 16.7401443,10.7155541 C16.845259,10.7853246 16.956341,10.8449967 17.0715541,10.8954885" id="Fill-40"></path>
                    <path d="M10.3391607,11.0425115 C10.4809967,11.0705115 10.6223738,11.084741 10.7632918,11.0852 C10.7646689,11.0852 10.7660459,11.085659 10.767423,11.085659 C10.770177,11.085659 10.7729311,11.084741 10.7761443,11.084741 C10.9202754,11.084282 11.0621115,11.0700525 11.2007344,11.0420525 C11.2135869,11.0392984 11.2259803,11.0356262 11.2388328,11.0328721 C11.3664393,11.0048721 11.4912918,10.9667738 11.6110951,10.917659 C11.6280787,10.9103148 11.6436852,10.9025115 11.6597508,10.8956262 C11.7749639,10.8446754 11.8860459,10.7850033 11.9911607,10.7156918 C12.0040131,10.7069705 12.0159475,10.6977902 12.029259,10.6886098 C12.1339148,10.6160852 12.2330623,10.5352984 12.3248656,10.4448721 C12.3331279,10.4366098 12.3404721,10.4278885 12.3487344,10.4200852 C12.4396197,10.3273639 12.5236197,10.2272984 12.5975213,10.1180525 C12.6048656,10.1079541 12.6103738,10.0973967 12.617259,10.0872984 C12.6874885,9.98034754 12.7508328,9.86651148 12.8027016,9.74487213 C12.8091279,9.73064262 12.814177,9.71549508 12.8196852,9.70080656 C12.839423,9.65260984 12.8596197,9.60441311 12.8756852,9.5534623 C12.9009311,9.47726557 12.9206689,9.40015082 12.9367344,9.32349508 C12.9385705,9.31477377 12.9394885,9.30559344 12.9413246,9.29687213 C12.9693246,9.15503607 12.9840131,9.0132 12.9840131,8.87274098 C12.9840131,8.87136393 12.9844721,8.86998689 12.9844721,8.86860984 L12.9844721,2.21700328 C12.9844721,0.992347541 11.9920787,-4.59016393e-05 10.767423,-4.59016393e-05 C9.54322623,-4.59016393e-05 8.55037377,0.992347541 8.55037377,2.21700328 L8.55037377,5.81706885 L5.12702951,4.70441311 C3.9620459,4.32618361 2.71122623,4.96329836 2.33299672,6.12782295 C1.9543082,7.29280656 2.59188197,8.54362623 3.75640656,8.92185574 L10.0821115,10.9768721 C10.1587672,11.002118 10.235423,11.0218557 10.3125377,11.0379213 C10.321259,11.0402164 10.3299803,11.0406754 10.3391607,11.0425115" id="Fill-41"></path>
                    <path d="M6.42765246,22.3968787 L10.3375541,17.0158295 C10.3384721,17.0144525 10.3389311,17.0130754 10.3393902,17.0121574 C10.4215541,16.8983213 10.4936197,16.7748459 10.5542098,16.6435672 C10.557882,16.6357639 10.5624721,16.6279607 10.5661443,16.6201574 C10.5982754,16.5480918 10.6271934,16.4741902 10.6519803,16.3979934 C10.6685049,16.3470426 10.6808984,16.2960918 10.6932918,16.2456 C10.6969639,16.2299934 10.7024721,16.2153049 10.7052262,16.2001574 C10.7350623,16.0711738 10.7506689,15.9417311 10.7566361,15.8136656 C10.7570951,15.8017311 10.7584721,15.7893377 10.7589311,15.7774033 C10.7626033,15.6456656 10.753882,15.5153049 10.7350623,15.3872393 C10.7332262,15.3757639 10.7318492,15.3642885 10.7300131,15.3528131 C10.7088984,15.2256656 10.6767672,15.1017311 10.6340787,14.9814689 C10.6290295,14.9667803 10.6248984,14.9520918 10.6193902,14.9374033 C10.5748656,14.8194361 10.5202426,14.706518 10.4568984,14.5977311 C10.448177,14.5821246 10.4399148,14.566059 10.4307344,14.5509115 C10.362341,14.4402885 10.2838492,14.3360918 10.1970951,14.2383213 C10.1883738,14.228682 10.1805705,14.2185836 10.1718492,14.2089443 C10.0759148,14.1052066 9.96942295,14.0101902 9.8532918,13.9248131 C9.85099672,13.922977 9.84916066,13.920682 9.84686557,13.9188459 C9.84548852,13.9179279 9.84411148,13.9174689 9.84319344,13.9170098 C9.72889836,13.8343869 9.60588197,13.7623213 9.47414426,13.7017311 C9.46634098,13.698059 9.45899672,13.6939279 9.45119344,13.6902557 C9.37958689,13.6581246 9.30568525,13.6287475 9.22902951,13.6039607 L2.90286557,11.5484852 C1.73834098,11.1702557 0.487521311,11.8078295 0.108832787,12.9718951 C-0.269396721,14.1364197 0.368177049,15.3872393 1.53270164,15.7659279 L4.9560459,16.8785836 L2.84043934,19.7905836 C2.12024262,20.781141 2.34011148,22.1678295 3.33066885,22.8875672 C4.32122623,23.6073049 5.70791475,23.3874361 6.42765246,22.3968787" id="Fill-42"></path>
                    <path d="M14.365423,15.542341 C13.415259,15.542341 12.6441115,14.7716525 12.6441115,13.8210295 C12.6441115,12.8704066 13.415259,12.099718 14.365423,12.099718 C15.3160459,12.099718 16.0867344,12.8704066 16.0867344,13.8210295 C16.0867344,14.7716525 15.3160459,15.542341 14.365423,15.542341" id="Fill-43"></path>
                </g>
            </g>
        </g>
    </g>
</svg>