<?xml version="1.0" encoding="UTF-8"?>
<svg width="73px" height="18px" viewBox="0 0 73 18" version="1.1" xmlns="http://www.w3.org/2000/svg" xmlns:xlink="http://www.w3.org/1999/xlink">
    <!-- Generator: Sketch 59.1 (86144) - https://sketch.com -->
    <title>logo</title>
    <desc>Created with Sketch.</desc>
    <g id="页面-1" stroke="none" stroke-width="1" fill="none" fill-rule="evenodd">
        <g id="1首页" transform="translate(-151.000000, -86.000000)" fill="#333333">
            <g id="编组-4" transform="translate(0.000000, 70.000000)">
                <g id="编组-3">
                    <g id="logo" transform="translate(151.000000, 16.000000)">
                        <path d="M27.1064908,1.51886771 L27.1064908,2.82671364 L29.1780706,2.82671364 L29.1780706,4.32839411 L27.1064908,4.32839411 L27.1064908,16.5 L25.631887,16.5 L25.631887,4.32839411 L23.4425452,4.32839411 L23.4425452,2.82671364 L25.631887,2.82671364 L25.631887,1.51886771 L27.1064908,1.51886771 Z M45.030126,6.28620895 C44.8126531,7.48316949 44.2616645,8.5447467 43.4596794,9.38584249 L43.4596794,9.38584249 L43.4596794,16.4949715 L41.8226156,16.4949715 L41.8226156,10.6094499 C41.2935462,10.8832251 40.7146213,11.0916724 40.0948665,11.2223281 L40.0948665,11.2223281 L40.0948665,9.84055855 C41.7839347,9.23326762 43.0333294,7.90780037 43.3268748,6.28620895 L43.3268748,6.28620895 Z M35.768617,5.31222261 C37.2049696,5.31222261 37.9029459,6.03469681 37.9029459,7.29784475 L37.9029459,7.29784475 L37.9029459,9.96983889 L38.4913262,9.96983889 L38.4913262,11.4663619 L37.9029459,11.4663619 L37.9029459,16.4948855 L32.3857529,16.4815621 C30.9910898,16.4815621 30.1835175,15.7474836 30.1835175,14.3751694 L30.1835175,14.3751694 L30.1835175,11.4663619 L29.5500095,11.4663619 L29.5500095,9.96983889 L30.1835175,9.96983889 L30.1835175,5.31566091 Z M69.0426157,1.50021489 C71.1202125,1.50021489 72.0575809,2.47583443 72.0575809,4.24785177 L72.0575809,4.24785177 L72.0575809,14.2296861 C72.0575809,15.8534264 71.3922685,16.4933813 69.8935966,16.4933813 L69.8935966,16.4933813 L68.5156952,16.4933813 L68.5156952,15.0088923 L69.4934636,15.0088923 C70.1390057,15.0088923 70.4652151,14.7015937 70.4652151,13.8935916 C70.4652151,13.2845815 70.4604874,7.41754081 70.4579087,4.80184895 C70.4579087,3.59199476 69.9241116,3.01049113 68.6837424,3.01049113 C68.0824148,3.01049113 60.9384528,2.9963417 59.161858,2.99280434 L58.7637976,2.99201023 L58.7637976,16.4933813 L57.2045255,16.4933813 L57.2045255,1.50021489 Z M49.6180736,6.28625193 C49.6180736,6.28625193 49.6120566,8.98661209 49.6068991,11.1050388 C51.6389384,10.0266999 52.9201374,8.54779819 53.4762836,6.73022329 L53.4762836,6.73022329 L55.1507389,6.73237223 C54.5498948,9.32356615 52.7013752,11.4243716 49.6034608,12.7386643 C49.6028161,13.0548811 49.6021714,13.3019557 49.6018894,13.4481576 L49.6017416,13.5595601 C49.6017416,14.5166987 50.0263725,14.9164019 51.0741965,14.9164019 L51.0741965,14.9164019 L55.1988752,14.912104 L55.1988752,16.4253887 L50.886379,16.4253887 C48.8625057,16.4253887 47.944048,15.6689613 47.944048,13.8874886 L47.944048,13.8874886 L47.944048,13.3304829 C47.0754458,13.5879261 46.1324901,13.7959437 45.1108832,13.9467994 L45.1108832,13.9467994 L45.1108832,12.603281 C46.1505412,12.4012805 47.0943564,12.1446968 47.944048,11.8361088 L47.944048,11.8361088 L47.944048,6.28625193 Z M24.923166,5.31235154 C24.923166,10.2170961 24.8088423,12.8740477 24.4551265,15.5443226 L24.4551265,15.5443226 L23.25,15.5426035 C23.7580098,11.8588876 23.706865,8.38104032 23.706865,5.31235154 L23.706865,5.31235154 Z M28.9409564,5.31226559 C28.9409564,8.38095436 28.8919605,11.8588016 29.3814894,15.5425175 L29.3814894,15.5425175 L28.2197716,15.5442367 C27.8780898,12.8739617 27.768064,10.2170102 27.768064,5.31226559 L27.768064,5.31226559 Z M36.404274,11.4663619 L31.6615596,11.4663619 L31.6559723,14.0889304 C31.6559723,14.78003 32.0247307,15.0641201 32.633311,15.0641201 L32.633311,15.0641201 L33.321832,15.062401 L33.321832,12.5507179 L34.7478697,12.5507179 L34.7478697,15.0589627 L36.4047037,15.060252 L36.404274,11.4663619 Z M61.2786612,4.32843709 C61.4703468,5.98312221 61.7075899,7.29268729 62.1068633,8.43850302 C62.4984005,7.27979364 62.6857882,5.97323708 62.8069885,4.32843709 L62.8069885,4.32843709 L64.2188432,4.32843709 C64.1204217,6.72192837 63.6725822,8.57646508 62.88521,10.1327287 C63.254828,10.7627984 63.7082547,11.366651 64.2725668,11.9868356 L64.2725668,11.9868356 L64.2725668,13.8920873 C63.4327603,13.2525623 62.6939542,12.4548751 62.0686121,11.4826939 C61.4479978,12.3538748 60.6962979,13.1382386 59.8130829,13.8920873 L59.8130829,13.8920873 L59.8130829,12.0577507 C60.4418632,11.4040426 60.9348305,10.7752622 61.3255081,10.1275712 C60.5970168,8.56314164 60.0988921,6.64671541 59.867666,4.32843709 L59.867666,4.32843709 Z M66.5216492,4.328609 C66.7141943,5.98759201 66.9372545,7.3152082 67.3223448,8.47993461 C67.7237672,7.31091032 67.915023,5.99317926 68.0375126,4.328609 L68.0375126,4.328609 L69.4485078,4.328609 C69.3492267,6.75734293 68.8902127,8.63122011 68.0809213,10.2016667 C68.4410839,10.8356045 68.8863446,11.4416061 69.448078,12.0579226 L69.448078,12.0579226 L69.448078,13.8922592 C68.615578,13.2583214 67.890525,12.46923 67.2797958,11.5090829 C66.6626197,12.3699489 65.916937,13.1457169 65.0431773,13.8922592 L65.0431773,13.8922592 L65.0431773,12.0579226 C65.6655108,11.4106613 66.1550397,10.7874682 66.5435684,10.1470836 C65.8271112,8.57921572 65.3427397,6.65591288 65.1102242,4.328609 L65.1102242,4.328609 Z M35.4553013,6.7283752 L31.6718745,6.73181351 L31.6649979,9.96983889 L33.321832,9.96983889 L33.321832,7.75127146 L34.7478697,7.75127146 L34.7478697,9.96983889 L36.4064229,9.96983889 L36.4098612,7.67906702 C36.4098612,7.06919736 36.1412435,6.7283752 35.4553013,6.7283752 L35.4553013,6.7283752 Z M44.441273,1.50004298 L44.441273,2.74471002 L50.855864,2.74471002 L50.855864,1.50004298 L52.4422128,1.50004298 L52.4422128,2.74471002 L55.1988752,2.74471002 L55.1988752,4.29882467 L52.4422128,4.29882467 L52.4422128,5.38318066 L50.855864,5.38318066 L50.855864,4.29882467 L44.441273,4.29882467 L44.441273,5.38318066 L42.8544944,5.38318066 L42.8544944,4.29882467 L40.0948235,4.29882467 L40.0948235,2.74471002 L42.8544944,2.74471002 L42.8544944,1.50004298 L44.441273,1.50004298 Z M32.0249886,1.5 C32.0249886,1.5 31.9153926,1.77162623 31.7335921,2.26889135 C31.5994982,2.64968382 31.7305836,2.82804598 32.1221208,2.82804598 L32.1221208,2.82804598 L38.2001875,2.82804598 L38.2001875,4.32843709 L31.0949266,4.32843709 C30.0896517,4.32843709 29.6813528,3.49163918 29.9852131,2.65226255 C30.3354906,1.74154105 30.3952312,1.5 30.3952312,1.5 L30.3952312,1.5 Z" id="形状结合"></path>
                        <path d="M9.38872716,11.5888769 C9.43582665,11.5888769 9.48202616,11.5927769 9.52882567,11.5972768 C9.57442518,11.6017768 9.61912471,11.6065767 9.66382423,11.6149766 C9.71002374,11.6239765 9.75502326,11.6368764 9.80062278,11.6503762 C9.8462223,11.6638761 9.89062182,11.6779759 9.93472136,11.6959758 C9.97552092,11.7127756 10.0154205,11.7328754 10.0553201,11.7535751 C10.1015196,11.7775749 10.1468191,11.8030746 10.1906186,11.8324743 C10.2071185,11.8432742 10.2248183,11.8501741 10.2407181,11.861574 C10.2614179,11.8765738 10.2770177,11.8957736 10.2968175,11.9116735 C10.3361171,11.9434731 10.3739167,11.9764728 10.4102163,12.0127724 C10.4465159,12.049072 10.4795156,12.0868716 10.5113152,12.1261712 C10.5269151,12.145971 10.5461149,12.1615708 10.5614147,12.1822706 L10.5614147,12.1822706 L13.1164876,15.6991332 C13.5868826,16.3465264 13.4431841,17.2525167 12.795791,17.7232117 C12.1483978,18.1936067 11.2421075,18.0499083 10.7720125,17.4025151 L10.7720125,17.4025151 L9.38872716,15.4990354 L8.00604184,17.4025151 C7.53564684,18.0499083 6.62935647,18.1936067 5.98196334,17.7232117 C5.33457022,17.2525167 5.19117174,16.3465264 5.66156675,15.6991332 L5.66156675,15.6991332 L8.21663961,12.1822706 C8.23163945,12.1615708 8.25053925,12.145971 8.26673907,12.1261712 C8.29853874,12.0868716 8.33153839,12.049072 8.367838,12.0127724 C8.40413761,11.9764728 8.44193721,11.9434731 8.4812368,11.9116735 C8.50073659,11.8957736 8.51633642,11.8765738 8.5373362,11.861574 C8.55293603,11.8501741 8.57093584,11.8432742 8.58713567,11.8324743 C8.63093521,11.8030746 8.67593473,11.7775749 8.72273423,11.7535751 C8.76233381,11.7328754 8.80223339,11.7127756 8.84333295,11.6959758 C8.88743248,11.6779759 8.93183201,11.6638761 8.97713153,11.6503762 C9.02303104,11.6368764 9.06773057,11.6239765 9.11393007,11.6149766 C9.1589296,11.6065767 9.20362912,11.6017768 9.24892864,11.5972768 C9.29572814,11.5927769 9.34192765,11.5888769 9.38872716,11.5888769 Z M16.8806676,7.54776982 C17.6417595,7.30057245 18.4589508,7.71726802 18.7067482,8.47805994 C18.9539455,9.23945185 18.53725,10.0569432 17.7761581,10.3041405 L17.7761581,10.3041405 L15.5384818,11.0313328 L16.9214671,12.9345126 C17.3918621,13.5819057 17.2481637,14.4881961 16.6007705,14.9585911 L16.6007705,14.9585911 L16.4765201,15.0396207 C15.841795,15.4090562 15.0177061,15.2448256 14.576992,14.6378945 L14.576992,14.6378945 L12.0216192,11.1210319 C12.0210192,11.1204319 12.0207192,11.1195319 12.0201192,11.1186319 C11.9664198,11.0442327 11.9196203,10.9638335 11.8800207,10.8777344 C11.8776207,10.8726345 11.8743208,10.8675346 11.8719208,10.8624346 C11.851221,10.8153351 11.8320212,10.7670356 11.8158214,10.7172362 C11.8053215,10.6839365 11.7972216,10.6509369 11.7891217,10.6176372 C11.7864217,10.6077373 11.7831217,10.5978374 11.7810217,10.5879375 C11.7618219,10.5036384 11.7516221,10.4190393 11.7477221,10.3350402 C11.7471221,10.3272403 11.7462221,10.3197404 11.7462221,10.3119405 C11.7438221,10.2258414 11.7495221,10.1403423 11.7618219,10.0566432 L11.7618219,10.0566432 L11.7651219,10.0341434 C11.7786218,9.95134429 11.7999215,9.87034515 11.8275212,9.79174599 C11.8311212,9.78184609 11.8338212,9.77224619 11.8374211,9.76264629 C11.8665208,9.68554711 11.9022205,9.6114479 11.94362,9.54034866 C11.94932,9.53044876 11.9547199,9.52024887 11.9607198,9.51004898 C12.0054194,9.43774975 12.0567188,9.36965047 12.1134182,9.30605115 L12.1134182,9.30605115 L12.129918,9.28655135 C12.1926174,9.21875207 12.2619166,9.15665273 12.3378158,9.10115332 C12.3396158,9.09995333 12.3408158,9.09815335 12.3423158,9.09695337 C12.3432158,9.09635337 12.3441158,9.09605338 12.3444158,9.09575338 C12.419415,9.04175395 12.4998141,8.99495445 12.5856132,8.95505487 C12.5910131,8.9526549 12.5955131,8.94995493 12.600913,8.94755495 C12.6477125,8.92655518 12.696012,8.90765538 12.7461115,8.89115555 L12.7461115,8.89115555 Z M0.0712461316,8.47808994 C0.318743503,7.71729802 1.13623482,7.30060245 1.89732673,7.54779982 L1.89732673,7.54779982 L6.03188281,8.89118555 C6.08198228,8.90738538 6.13028177,8.92658518 6.17708127,8.94758495 C6.18218122,8.94998493 6.18698117,8.9526849 6.19208111,8.95508487 C6.2781802,8.99468445 6.35857934,9.04178395 6.43327855,9.09578338 C6.43387854,9.09608338 6.43477853,9.09638337 6.43567852,9.09698337 L6.43567852,9.09698337 C6.51577767,9.15668273 6.58537693,9.21878207 6.64807627,9.28658135 C6.65377621,9.29288128 6.65887615,9.29948121 6.66457609,9.30578115 C6.72127549,9.36968047 6.77257495,9.43777975 6.81727447,9.51007898 C6.82327441,9.51997887 6.82867435,9.53047876 6.83437429,9.54067865 C6.87577385,9.6117779 6.91147347,9.68557711 6.94057316,9.76267629 C6.94417312,9.77227619 6.94687309,9.78187609 6.95017306,9.79147599 C6.97807276,9.87007515 6.99907254,9.95107429 7.01287239,10.0341734 L7.01287239,10.0341734 L7.01617236,10.0566732 C7.02847223,10.1403723 7.03417217,10.2255714 7.03177219,10.3116705 C7.0314722,10.3194704 7.03057221,10.3275703 7.03027221,10.3353702 C7.02637225,10.4190693 7.01617236,10.5036684 6.99667257,10.5879675 L6.99667257,10.5879675 L6.98887265,10.6176672 C6.98077273,10.6506669 6.97267282,10.6839665 6.96187293,10.7172662 C6.94567311,10.7670656 6.92677331,10.8153651 6.90577353,10.8624646 C6.90337356,10.8675646 6.90037359,10.8726645 6.89797361,10.8777644 C6.85837403,10.9635635 6.81127453,11.0442627 6.75757511,11.1186619 C6.75727511,11.1192619 6.75697511,11.1201619 6.75637512,11.1210619 L6.75637512,11.1210619 L4.20100226,14.6379245 C3.73060726,15.2853176 2.82431689,15.4290161 2.17692376,14.9586211 C1.52953064,14.4882261 1.38583217,13.5819357 1.85652717,12.9345426 L1.85652717,12.9345426 L3.23921248,11.0313628 L1.00183625,10.3041705 C0.240744331,10.0566732 -0.175951242,9.23918186 0.0712461316,8.47808994 Z M9.38884715,7.908066 C10.0101406,7.908066 10.5138352,8.41176064 10.5138352,9.03305405 C10.5138352,9.65434745 10.0101406,10.1580421 9.38884715,10.1580421 C8.76785375,10.1580421 8.2638591,9.65434745 8.2638591,9.03305405 C8.2638591,8.41176064 8.76785375,7.908066 9.38884715,7.908066 Z M11.7403722,-5.94191363e-13 C12.5407637,-5.94191363e-13 13.1896568,0.648893107 13.1896568,1.4492846 L13.1896568,1.4492846 L13.1896568,3.80185961 L15.427033,3.07496734 C16.1884249,2.82746996 17.0056162,3.24416554 17.2531136,4.00525745 C17.500611,4.76634937 17.0839154,5.58384068 16.3228235,5.83103806 L16.3228235,5.83103806 L12.1885674,7.17442379 C12.1384679,7.19062362 12.0883685,7.20352348 12.037969,7.21432336 C12.0322691,7.21552335 12.0262691,7.21582335 12.0205692,7.21702334 C11.9278702,7.23532314 11.8351712,7.24492304 11.7433721,7.24522304 L11.7433721,7.24522304 L11.7376347,7.24522304 C11.6407732,7.24432305 11.5480742,7.23502314 11.4574752,7.21672334 C11.4490753,7.21492336 11.4409754,7.21282338 11.4325754,7.2110234 C11.3491763,7.19272359 11.2675772,7.16782386 11.188978,7.1354242 C11.1781781,7.13092425 11.1679783,7.1258243 11.1574784,7.12102436 C11.0821792,7.08802471 11.0095799,7.04902512 10.9408807,7.00342561 C10.9324808,6.99772567 10.9246808,6.99172573 10.9159809,6.98602579 C10.8475817,6.93862629 10.7824823,6.88552686 10.722783,6.82642749 C10.717383,6.82102754 10.7125831,6.8156276 10.7071831,6.81022766 C10.6477838,6.7496283 10.5928844,6.684229 10.5442849,6.61282975 C10.5397849,6.60652982 10.536185,6.59962989 10.531685,6.59302996 C10.4857855,6.52283071 10.4443859,6.4484315 10.4101863,6.36893235 C10.4059863,6.35963244 10.4029864,6.35003255 10.3993864,6.34043265 C10.3864866,6.30863299 10.3732867,6.27713332 10.3624868,6.24413367 C10.346287,6.1940342 10.3333871,6.14393474 10.3225872,6.09353527 C10.3213872,6.08783533 10.3210873,6.08213539 10.3198873,6.07643545 C10.3012875,5.98343644 10.2919876,5.89073742 10.2916876,5.7989384 L10.2916876,5.7989384 L10.2913876,1.4492846 C10.2913876,0.648893107 10.9402807,-5.94191363e-13 11.7403722,-5.94191363e-13 Z M7.03732213,8.99990448e-05 C7.83771363,8.99990448e-05 8.48630674,0.648683109 8.48630674,1.44907461 L8.48630674,1.44907461 L8.48600674,5.7990284 C8.48600674,5.89082742 8.47640685,5.98352644 8.45810704,6.07622545 C8.45690705,6.08192539 8.45630706,6.08792533 8.45510707,6.09362527 C8.44460718,6.14372474 8.43170732,6.1941242 8.4152075,6.24392367 C8.40470761,6.27722332 8.39150775,6.30872298 8.37860789,6.34022265 C8.37500792,6.34982255 8.37170796,6.35972244 8.367508,6.36902234 C8.33360836,6.4485215 8.2922088,6.52292071 8.24630929,6.59281997 C8.24180934,6.5994199 8.23820938,6.60631982 8.23340943,6.61291975 C8.18510994,6.68431899 8.13021052,6.7497183 8.07081116,6.81031766 C8.06541121,6.8154176 8.06061126,6.82111754 8.05521132,6.82651748 C7.99521196,6.88561686 7.93041265,6.9384163 7.86201337,6.98581579 C7.85331347,6.99181573 7.84551355,6.99781566 7.83711364,7.0035156 C7.76841437,7.04881512 7.69581514,7.08781471 7.62051594,7.12111435 L7.62051594,7.12111435 L7.58871628,7.1355142 C7.51041711,7.16761386 7.42881797,7.1925136 7.34541886,7.2108134 C7.33701895,7.21261338 7.32891904,7.21501336 7.32051913,7.21681334 C7.22992009,7.23511314 7.13722107,7.24441305 7.04302207,7.24471304 C7.0409221,7.24471304 7.03912211,7.24531304 7.03732213,7.24531304 C6.94252314,7.24471304 6.85012412,7.23541314 6.75742511,7.21711334 C6.75142517,7.21591335 6.74572523,7.21561335 6.74002529,7.21411337 C6.68962583,7.20361348 6.63952636,7.19071362 6.58942689,7.17421379 L6.58942689,7.17421379 L2.45517081,5.83112806 C1.69407889,5.58393068 1.27738332,4.76643937 1.52488069,4.00504746 C1.77207806,3.24395554 2.58956938,2.82755996 3.35096129,3.07475734 L3.35096129,3.07475734 L5.58833753,3.80194961 L5.58833753,1.44907461 C5.58833753,0.648683109 6.23723063,8.99990448e-05 7.03732213,8.99990448e-05 Z" id="形状结合"></path>
                    </g>
                </g>
            </g>
        </g>
    </g>
</svg>