<?xml version="1.0" encoding="UTF-8"?>
<svg width="25px" height="24px" viewBox="0 0 25 24" version="1.1" xmlns="http://www.w3.org/2000/svg" xmlns:xlink="http://www.w3.org/1999/xlink">
    <!-- Generator: Sketch 59.1 (86144) - https://sketch.com -->
    <title>Group 2 Copy备份</title>
    <desc>Created with Sketch.</desc>
    <g id="页面-1" stroke="none" stroke-width="1" fill="none" fill-rule="evenodd">
        <g id="1首页" transform="translate(-15.000000, -84.000000)" fill="#168DD7">
            <g id="编组-3" transform="translate(0.000000, 70.000000)">
                <g id="Group-2-Copy备份" transform="translate(15.000000, 14.000000)">
                    <path d="M10.4996852,22.8230557 L12.3130623,20.3266623 L14.1272262,22.8230557 C14.7437508,23.6721049 15.932341,23.8605639 16.7813902,23.2436459 C17.6304393,22.6263344 17.8188984,21.4381377 17.2019803,20.5890885 L13.8510295,15.9767607 C13.8309639,15.9496131 13.8057836,15.9291541 13.7853246,15.9031869 C13.7436197,15.8516459 13.700341,15.8020721 13.6527344,15.7544656 C13.6051279,15.706859 13.5555541,15.6635803 13.5040131,15.6218754 C13.4780459,15.601023 13.4575869,15.5758426 13.4304393,15.5561705 C13.4095869,15.5412197 13.3863738,15.5321705 13.3647344,15.5180066 C13.3072918,15.4794492 13.247882,15.4460066 13.1872918,15.4145311 C13.1349639,15.3873836 13.0826361,15.361023 13.0291279,15.3389902 C12.9712918,15.3153836 12.9130623,15.2968918 12.853259,15.2791869 C12.7934557,15.261482 12.7344393,15.2445639 12.6738492,15.2327607 C12.6152262,15.2217443 12.5566033,15.2154492 12.4968,15.2095475 C12.435423,15.2036459 12.3748328,15.1985311 12.3130623,15.1985311 C12.2516852,15.1985311 12.1910951,15.2036459 12.129718,15.2095475 C12.0703082,15.2154492 12.0116852,15.2217443 11.9526689,15.2327607 C11.8920787,15.2445639 11.8334557,15.261482 11.773259,15.2791869 C11.7138492,15.2968918 11.6556197,15.3153836 11.5977836,15.3389902 C11.543882,15.361023 11.4915541,15.3873836 11.4396197,15.4145311 C11.3782426,15.4460066 11.3192262,15.4794492 11.2617836,15.5180066 C11.2405377,15.5321705 11.2169311,15.5412197 11.1964721,15.5561705 C11.1689311,15.5758426 11.1484721,15.601023 11.1228984,15.6218754 C11.0713574,15.6635803 11.0217836,15.706859 10.974177,15.7544656 C10.9265705,15.8020721 10.8832918,15.8516459 10.8415869,15.9031869 C10.820341,15.9291541 10.7955541,15.9496131 10.775882,15.9767607 L7.42493115,20.5890885 C6.80801311,21.4381377 6.99607869,22.6263344 7.84512787,23.2436459 C8.69417705,23.8605639 9.88276721,23.6721049 10.4996852,22.8230557" id="Fill-38"></path>
                    <path d="M21.7715803,19.6178754 L21.7715803,19.6178754 C22.6206295,19.0009574 22.8090885,17.8123672 22.1921705,16.963318 L20.3784,14.467318 L23.3130885,13.5136131 C24.3112525,13.1894164 24.8577443,12.1172852 24.5335475,11.1187279 C24.2085639,10.1209574 23.1368262,9.57446557 22.1386623,9.8986623 L16.7162361,11.6604984 C16.6505311,11.6821377 16.5871869,11.7069246 16.5258098,11.7344656 C16.5187279,11.7376131 16.5128262,11.7411541 16.5057443,11.7443016 C16.3932197,11.7966295 16.287777,11.8580066 16.1894164,11.9288262 C16.189023,11.9292197 16.1878426,11.9296131 16.1866623,11.9304 C16.1846951,11.9319738 16.1831213,11.9343344 16.1807607,11.9359082 C16.0812197,12.0086951 15.9903344,12.0901377 15.9081049,12.1790557 C15.9002361,12.187318 15.893941,12.1959738 15.8864656,12.2046295 C15.8121049,12.2880393 15.7448262,12.3773508 15.6862033,12.4721705 C15.6783344,12.4855475 15.6712525,12.4989246 15.663777,12.5119082 C15.609482,12.6051541 15.5626623,12.7023344 15.5244984,12.8034492 C15.519777,12.8160393 15.5162361,12.8286295 15.5115148,12.8416131 C15.475318,12.9446951 15.4473836,13.0509246 15.4296787,13.1595148 C15.4277115,13.1693508 15.4269246,13.1791869 15.4253508,13.189023 C15.4092197,13.2987934 15.4017443,13.4109246 15.4048918,13.5238426 C15.4048918,13.5340721 15.4060721,13.5439082 15.406859,13.5541377 C15.4119738,13.6643016 15.4253508,13.7752525 15.4505311,13.8858098 C15.4532852,13.8987934 15.4576131,13.911777 15.4611541,13.9247607 C15.471777,13.9684328 15.4824,14.0117115 15.4961705,14.0553836 C15.5174164,14.1206951 15.5425967,14.1840393 15.5697443,14.2458098 C15.5728918,14.2524984 15.5772197,14.2591869 15.5803672,14.2658754 C15.6323016,14.3787934 15.6936787,14.4842361 15.7641049,14.5818098 C15.7648918,14.5829902 15.7652852,14.5841705 15.7660721,14.5849574 L19.1174164,19.1972852 C19.733941,20.0463344 20.9225311,20.2347934 21.7715803,19.6178754" id="Fill-39"></path>
                    <path d="M14.6327607,9.33899016 C14.6465311,9.34528525 14.6599082,9.35197377 14.6740721,9.35787541 C14.7771541,9.40036721 14.8841705,9.43302295 14.9935475,9.45702295 C15.0045639,9.45938361 15.0151869,9.4621377 15.0262033,9.46449836 C15.145023,9.48849836 15.2665967,9.50069508 15.3897443,9.50148197 C15.3924984,9.50148197 15.394859,9.50226885 15.3972197,9.50226885 C15.3987934,9.50226885 15.3999738,9.50187541 15.4011541,9.50187541 C15.5215475,9.50148197 15.6431213,9.4888918 15.7646951,9.4648918 C15.7721705,9.46331803 15.7800393,9.46292459 15.7875148,9.46135082 C15.8536131,9.44718689 15.919318,9.43026885 15.985023,9.40902295 L21.4070557,7.64718689 C22.4052197,7.32299016 22.9517115,6.25085902 22.6271213,5.25269508 C22.3025311,4.25453115 21.2307934,3.70803934 20.2322361,4.03262951 L17.297941,4.98594098 L17.297941,1.90056393 C17.297941,0.850859016 16.4469246,-0.000157377049 15.3972197,-0.000157377049 C14.3479082,-0.000157377049 13.4968918,0.850859016 13.4968918,1.90056393 L13.4968918,7.60154754 C13.4968918,7.60272787 13.4972852,7.6039082 13.4972852,7.60508852 C13.4976787,7.72548197 13.5098754,7.84705574 13.5342689,7.96902295 C13.5358426,7.97649836 13.5362361,7.98397377 13.5378098,7.99144918 C13.5519738,8.05754754 13.5688918,8.12325246 13.5901377,8.18895738 C13.6043016,8.23223607 13.6216131,8.27354754 13.6385311,8.31525246 C13.6432525,8.32784262 13.6471869,8.34043279 13.6526951,8.35262951 C13.6975475,8.4568918 13.7518426,8.55446557 13.8120393,8.64653115 C13.817941,8.65518689 13.8226623,8.66423607 13.8285639,8.67249836 C13.8923016,8.7661377 13.9643016,8.8519082 14.0422033,8.93138361 C14.0492852,8.93846557 14.0555803,8.94554754 14.0626623,8.95262951 C14.1409574,9.0301377 14.2263344,9.09977705 14.3160393,9.16194098 C14.3274492,9.16941639 14.3376787,9.17728525 14.3486951,9.18476066 C14.4387934,9.24456393 14.5340066,9.29571148 14.6327607,9.33899016" id="Fill-40"></path>
                    <path d="M8.8621377,9.46500984 C8.98371148,9.48900984 9.1048918,9.50120656 9.22567869,9.5016 C9.22685902,9.5016 9.22803934,9.50199344 9.22921967,9.50199344 C9.23158033,9.50199344 9.23394098,9.50120656 9.23669508,9.50120656 C9.36023607,9.50081311 9.48180984,9.48861639 9.60062951,9.46461639 C9.6116459,9.46225574 9.62226885,9.4591082 9.63328525,9.45674754 C9.7426623,9.43274754 9.84967869,9.4000918 9.95236721,9.35799344 C9.96692459,9.35169836 9.98030164,9.34500984 9.99407213,9.3391082 C10.0928262,9.29543607 10.1880393,9.24428852 10.2781377,9.18487869 C10.2891541,9.17740328 10.2993836,9.16953443 10.3107934,9.16166557 C10.4004984,9.09950164 10.485482,9.03025574 10.5641705,8.95274754 C10.5712525,8.94566557 10.5775475,8.93819016 10.5846295,8.93150164 C10.6625311,8.85202623 10.7345311,8.76625574 10.7978754,8.67261639 C10.8041705,8.66396066 10.8088918,8.65491148 10.8147934,8.64625574 C10.8749902,8.55458361 10.9292852,8.45700984 10.9737443,8.35274754 C10.9792525,8.34055082 10.9835803,8.32756721 10.9883016,8.31497705 C11.0052197,8.27366557 11.0225311,8.2323541 11.0363016,8.18868197 C11.057941,8.12337049 11.074859,8.05727213 11.0886295,7.99156721 C11.0902033,7.9840918 11.0909902,7.97622295 11.0925639,7.96874754 C11.1165639,7.84717377 11.1291541,7.7256 11.1291541,7.60520656 C11.1291541,7.60402623 11.1295475,7.6028459 11.1295475,7.60166557 L11.1295475,1.90028852 C11.1295475,0.850583607 10.2789246,-3.93442623e-05 9.22921967,-3.93442623e-05 C8.1799082,-3.93442623e-05 7.3288918,0.850583607 7.3288918,1.90028852 L7.3288918,4.98605902 L4.39459672,4.0323541 C3.39603934,3.70815738 2.3239082,4.25425574 1.99971148,5.25241967 C1.67512131,6.25097705 2.22161311,7.3231082 3.21977705,7.64730492 L8.64180984,9.40874754 C8.70751475,9.43038689 8.77321967,9.44730492 8.83931803,9.46107541 C8.84679344,9.46304262 8.85426885,9.46343607 8.8621377,9.46500984" id="Fill-41"></path>
                    <path d="M5.50941639,19.1973246 L8.86076066,14.5849967 C8.86154754,14.5838164 8.86194098,14.5826361 8.86233443,14.5818492 C8.93276066,14.4842754 8.99453115,14.3784393 9.04646557,14.2659148 C9.04961311,14.2592262 9.05354754,14.2525377 9.05669508,14.2458492 C9.08423607,14.1840787 9.10902295,14.1207344 9.13026885,14.055423 C9.14443279,14.0117508 9.15505574,13.9680787 9.16567869,13.9248 C9.16882623,13.911423 9.17354754,13.8988328 9.1759082,13.8858492 C9.20148197,13.7752918 9.21485902,13.664341 9.21997377,13.5545705 C9.22036721,13.544341 9.22154754,13.533718 9.22194098,13.5234885 C9.22508852,13.4105705 9.21761311,13.2988328 9.20148197,13.1890623 C9.1999082,13.1792262 9.19872787,13.1693902 9.1971541,13.1595541 C9.17905574,13.0505705 9.15151475,12.944341 9.11492459,12.841259 C9.11059672,12.8286689 9.10705574,12.8160787 9.10233443,12.8034885 C9.06417049,12.7023738 9.01735082,12.6055869 8.96305574,12.512341 C8.95558033,12.4989639 8.94849836,12.4851934 8.94062951,12.4722098 C8.88200656,12.3773902 8.81472787,12.2880787 8.74036721,12.2042754 C8.7328918,12.1960131 8.72620328,12.1873574 8.71872787,12.1790951 C8.63649836,12.090177 8.54521967,12.0087344 8.44567869,11.9355541 C8.44371148,11.9339803 8.4421377,11.9320131 8.44017049,11.9304393 C8.43899016,11.9296525 8.43780984,11.929259 8.43702295,11.9288656 C8.33905574,11.8580459 8.23361311,11.7962754 8.12069508,11.744341 C8.11400656,11.7411934 8.10771148,11.7376525 8.10102295,11.7345049 C8.0396459,11.7069639 7.97630164,11.6817836 7.91059672,11.6605377 L2.48817049,9.89870164 C1.49000656,9.57450492 0.41787541,10.1209967 0.0932852459,11.1187672 C-0.230911475,12.1169311 0.315580328,13.1890623 1.31374426,13.5136525 L4.24803934,14.4673574 L2.4346623,16.9633574 C1.81735082,17.8124066 2.00580984,19.0009967 2.85485902,19.6179148 C3.7039082,20.2348328 4.89249836,20.0463738 5.50941639,19.1973246" id="Fill-42"></path>
                    <path d="M12.3132197,13.3220066 C11.4987934,13.3220066 10.8378098,12.6614164 10.8378098,11.8465967 C10.8378098,11.031777 11.4987934,10.3711869 12.3132197,10.3711869 C13.1280393,10.3711869 13.7886295,11.031777 13.7886295,11.8465967 C13.7886295,12.6614164 13.1280393,13.3220066 12.3132197,13.3220066" id="Fill-43"></path>
                </g>
            </g>
        </g>
    </g>
</svg>