<?xml version="1.0" encoding="UTF-8"?>
<svg width="20px" height="20px" viewBox="0 0 20 20" version="1.1" xmlns="http://www.w3.org/2000/svg" xmlns:xlink="http://www.w3.org/1999/xlink">
    <!-- Generator: Sketch 57.1 (83088) - https://sketch.com -->
    <title>支付宝</title>
    <desc>Created with Sketch.</desc>
    <g id="价格" stroke="none" stroke-width="1" fill="none" fill-rule="evenodd">
        <g id="定价-银行付款样式" transform="translate(-415.000000, -1549.000000)" fill="#1296DB" fill-rule="nonzero">
            <g id="编组-17" transform="translate(415.000000, 1546.000000)">
                <g id="支付宝" transform="translate(-0.000000, 3.000000)">
                    <path d="M20.0007945,13.6914438 L20.0007945,3.84544536 C20.0007945,1.72313236 18.2776434,0 16.1537344,0 L3.84544534,0 C1.72313234,0 -1.26121336e-13,1.72233081 -1.26121336e-13,3.84544534 L-1.26121336e-13,16.1545547 C-1.26121336e-13,18.2768677 1.72152928,20 3.84544534,20 L16.1545547,20 C18.046477,20 19.6200232,18.6320556 19.9407993,16.8337224 C18.9208407,16.3921403 14.5010125,14.4834116 12.1979029,13.384261 C10.4451749,15.5073755 8.61004865,16.7809198 5.8437626,16.7809198 C3.07747654,16.7809198 1.2311453,15.0769891 1.45273786,12.9922847 C1.59913191,11.6235411 2.53749379,9.38523591 6.61573905,9.76922031 C8.76445098,9.97081212 9.74840866,10.372395 11.5003375,10.9507715 C11.9539191,10.1204053 12.3307038,9.20444169 12.6162922,8.23168668 L4.84541253,8.2316867 L4.84541253,7.461318 L8.69006103,7.461318 L8.69006103,6.07897416 L4.00064216,6.07897416 L4.00064216,5.23100939 L8.69085787,5.23100939 L8.69085787,3.23429051 C8.69085787,3.23429051 8.73325623,2.92230318 9.07804136,2.92230318 L11.0011625,2.92230318 L11.0011625,5.2302102 L16.0009515,5.2302102 L16.0009515,6.07817497 L11.0011625,6.07817497 L11.0011625,7.46051882 L15.0801999,7.46051882 C14.7050159,8.98685681 14.136239,10.3891967 13.423468,11.6139438 C14.6082206,12.0427272 20.0007945,13.6914602 20.0007945,13.6914602 L20.0007945,13.6914602 L20.0007945,13.6914602 L20.0007945,13.6914602 L20.0007945,13.6914438 Z M5.53735317,15.460186 C2.61427661,15.460186 2.15189695,13.6146469 2.30709377,12.8434814 C2.46068753,12.0763118 3.30705393,11.0739541 4.93259649,11.0739541 C6.79972064,11.0739541 8.47245268,11.5531354 10.4803789,12.5290942 C9.07003544,14.3666203 7.33730348,15.460186 5.53737661,15.460186 L5.53737661,15.460186 L5.53737661,15.460186 L5.53735317,15.460186 Z" id="形状"></path>
                </g>
            </g>
        </g>
    </g>
</svg>