<?xml version="1.0" encoding="UTF-8"?>
<svg width="115px" height="45px" viewBox="0 0 115 45" version="1.1" xmlns="http://www.w3.org/2000/svg" xmlns:xlink="http://www.w3.org/1999/xlink">
    <!-- Generator: Sketch 57.1 (83088) - https://sketch.com -->
    <title>推荐标签</title>
    <desc>Created with Sketch.</desc>
    <defs>
        <linearGradient x1="50%" y1="99.0818742%" x2="50%" y2="-12.9413975%" id="linearGradient-1">
            <stop stop-color="#5CA9FF" offset="0%"></stop>
            <stop stop-color="#2C66FF" offset="100%"></stop>
        </linearGradient>
        <path d="M5,2 L109,2 C108.597607,2.53199443 108.157586,3.76163589 107.679937,5.68892438 C107.233229,7.49136817 106.620174,17.3198737 105.840774,35.174441 C105.747393,37.3137022 103.985878,39 101.844579,39 L13.3110756,39 C11.1809603,39.0000039 9.42451931,37.3306871 9.31624267,35.2033256 C8.42049027,17.6040613 7.81653895,7.86961939 7.5043887,6 C7.17047021,4 6.33567398,2.66666667 5,2 Z" id="path-2"></path>
        <filter x="-6.7%" y="-13.5%" width="113.5%" height="137.8%" filterUnits="objectBoundingBox" id="filter-3">
            <feOffset dx="0" dy="2" in="SourceAlpha" result="shadowOffsetOuter1"></feOffset>
            <feGaussianBlur stdDeviation="2" in="shadowOffsetOuter1" result="shadowBlurOuter1"></feGaussianBlur>
            <feColorMatrix values="0 0 0 0 0.164705882   0 0 0 0 0.431372549   0 0 0 0 0.992156863  0 0 0 0.4 0" type="matrix" in="shadowBlurOuter1"></feColorMatrix>
        </filter>
    </defs>
    <g id="价格" stroke="none" stroke-width="1" fill="none" fill-rule="evenodd">
        <g id="定价-默认" transform="translate(-1312.000000, -262.000000)">
            <g id="推荐标签" transform="translate(1312.000000, 262.000000)">
                <path d="M6,2 C9.3137085,2 12,4.68606121 12,7.99948563 C12,8.70083463 11.8796441,9.37407541 11.6584578,9.99968419 L0.341542222,9.99968419 C0.120355893,9.37407541 0,8.70083463 0,7.99948563 C0,4.68606121 2.6862915,2 6,2 Z M109,2 C112.313708,2 115,4.68606121 115,7.99948563 C115,8.70083463 114.879644,9.37407541 114.658458,9.99968419 L103.341542,9.99968419 C103.120356,9.37407541 103,8.70083463 103,7.99948563 C103,4.68606121 105.686292,2 109,2 Z" id="形状" fill="#1257F2"></path>
                <g id="矩形备份-26">
                    <use fill="black" fill-opacity="1" filter="url(#filter-3)" xlink:href="#path-2"></use>
                    <use fill="url(#linearGradient-1)" fill-rule="evenodd" xlink:href="#path-2"></use>
                </g>
            </g>
        </g>
    </g>
</svg>