<?xml version="1.0" encoding="UTF-8"?>
<svg width="20px" height="20px" viewBox="0 0 20 20" version="1.1" xmlns="http://www.w3.org/2000/svg" xmlns:xlink="http://www.w3.org/1999/xlink">
    <!-- Generator: Sketch 57.1 (83088) - https://sketch.com -->
    <title>银联</title>
    <desc>Created with Sketch.</desc>
    <g id="价格" stroke="none" stroke-width="1" fill="none" fill-rule="evenodd">
        <g id="定价-银行付款样式" transform="translate(-603.000000, -1548.000000)" fill-rule="nonzero">
            <g id="银联" transform="translate(603.000000, 1548.000000)">
                <path d="M19.8906481,16.6093943 L19.8906481,16.7343945 C19.8906481,18.4843965 18.4687715,19.9062732 16.7187695,19.9062732 L3.2656288,19.9062732 C1.53125178,19.9062732 0.0937501091,18.4687715 0.0937501091,16.7343945 L0.0937501091,3.28125382 C0.0937501091,1.53125178 1.53125178,0.0937501091 3.2656288,0.0937501091 L16.7343945,0.0937501091 C18.4843965,0.0937501091 19.9062732,1.51562676 19.9062732,3.2656288 L19.9062732,13.5000157 L19.8906481,16.6093943 L19.8906481,16.6093943 Z" id="路径" fill="#117C83"></path>
                <path d="M16.7343945,19.9062732 L3.28125382,19.9062732 C1.5468768,19.9062732 0.109248939,18.4687715 0.109248939,16.7343945 L0.109248939,3.28125382 C0.0937501091,1.53125178 1.53125178,0.0937501091 3.2656288,0.0937501091 L16.7343945,0.0937501091" id="路径" fill="#D23431"></path>
                <path d="M5.18750604,5.57813149 C5.18750604,6.23438225 4.89063069,6.54688262 4.28125498,6.54688262 C3.70312931,6.54688262 3.40625396,6.23438225 3.40625396,5.59375651 L3.40625396,4.32813004 L3.87500451,4.32813004 L3.87500451,5.59375651 C3.87500451,5.95313193 4.01562967,6.14063215 4.29688,6.14063215 C4.57813033,6.14063215 4.71875549,5.96875695 4.71875549,5.60938153 L4.71875549,4.32813004 L5.18750604,4.32813004 L5.18750604,5.57813149 Z M7.09375825,6.51563258 L6.64063273,6.51563258 L6.64063273,5.65625658 C6.64063273,5.40625629 6.54688262,5.28125615 6.37500742,5.28125615 C6.28125731,5.28125615 6.21875724,5.31250618 6.15625716,5.37500625 C6.09375709,5.43750575 6.07813207,5.53125644 6.07813207,5.62500655 L6.07813207,6.51563258 L5.62500655,6.51563258 L5.62500655,4.96875578 L6.07813207,4.96875578 L6.07813207,5.21875607 C6.1875072,5.03125585 6.3593824,4.93750575 6.57813265,4.93750575 C6.92188305,4.93750575 7.09375825,5.156256 7.09375825,5.57813149 L7.09375825,6.51563258 L7.09375825,6.51563258 Z M7.43750865,4.45313018 C7.43750865,4.39063011 7.46875869,4.32813004 7.51563375,4.28125498 C7.5625088,4.23437993 7.62500887,4.21875491 7.70313396,4.21875491 C7.78125905,4.21875491 7.84375913,4.23437993 7.89063418,4.28125498 C7.93750865,4.32813004 7.96875927,4.39063011 7.96875927,4.45313018 C7.96875927,4.51563025 7.93750865,4.57813033 7.89063418,4.62500538 C7.84375913,4.67188044 7.78125905,4.68750545 7.70313396,4.68750545 C7.64063389,4.68750545 7.5625088,4.67188044 7.51563375,4.62500538 C7.46875869,4.57813033 7.43750865,4.51563025 7.43750865,4.45313018 Z M7.46875869,6.51563258 L7.46875869,4.96875578 L7.92188422,4.96875578 L7.92188422,6.51563258 L7.46875869,6.51563258 Z M8.23438458,5.73438167 C8.23438458,5.48438138 8.31250967,5.28125615 8.46875985,5.12500596 C8.62501004,4.9843808 8.82813527,4.90625571 9.09376058,4.90625571 C9.34376087,4.90625571 9.54688611,4.9843808 9.68751127,5.12500596 C9.82813644,5.26563113 9.90626153,5.46875636 9.90626153,5.70313164 C9.90626153,5.95313193 9.82813644,6.15625716 9.68751127,6.31250735 C9.53126109,6.46875753 9.32813585,6.5312576 9.07813556,6.5312576 C8.82813527,6.5312576 8.62501004,6.45313251 8.46875985,6.31250735 C8.31250967,6.1875072 8.23438458,5.98438196 8.23438458,5.73438167 Z M8.70313513,5.73438167 C8.70313513,6.04688204 8.82813527,6.20313222 9.07813556,6.20313222 C9.32813585,6.20313222 9.43751098,6.04688204 9.43751098,5.71875665 C9.43751098,5.42188131 9.31251084,5.26563113 9.07813556,5.26563113 C8.95313542,5.26563113 8.85938531,5.31250618 8.79688524,5.39063127 C8.73438516,5.46875636 8.70313513,5.57813149 8.70313513,5.73438167 Z M11.7031386,6.51563258 L11.2500131,6.51563258 L11.2500131,5.65625658 C11.2500131,5.40625629 11.156263,5.28125615 10.9843878,5.28125615 C10.8906377,5.28125615 10.8281376,5.31250618 10.7656375,5.37500625 C10.7031375,5.43750575 10.6875124,5.53125644 10.6875124,5.62500655 L10.6875124,6.51563258 L10.2343869,6.51563258 L10.2343869,4.96875578 L10.6875124,4.96875578 L10.6875124,5.21875607 C10.7968876,5.03125585 10.9687628,4.93750575 11.187513,4.93750575 C11.5312634,4.93750575 11.7031386,5.156256 11.7031386,5.57813149 L11.7031386,6.51563258 L11.7031386,6.51563258 Z M12.5937647,5.75000669 L12.5937647,6.51563258 L12.1250141,6.51563258 L12.1250141,4.32813004 L12.875015,4.32813004 C13.4218906,4.32813004 13.6875159,4.56250531 13.6875159,5.01563084 C13.6875159,5.23438109 13.6093908,5.42188131 13.4375156,5.54688145 C13.2812655,5.68750662 13.0625152,5.75000669 12.8281399,5.73438167 L12.5937647,5.75000669 Z M12.5937647,4.68750545 L12.5937647,5.39063127 L12.7968899,5.39063127 C13.0625152,5.39063127 13.2031404,5.26563113 13.2031404,5.03125585 C13.2031404,4.79688058 13.0625152,4.68750545 12.7968899,4.68750545 L12.5937647,4.68750545 Z M13.9375162,5.04688087 C14.0000163,5.00000582 14.1093914,4.96875578 14.2187665,4.95313076 C14.3437667,4.92188073 14.4375168,4.92188073 14.5156419,4.92188073 C14.9531424,4.92188073 15.1718927,5.14063098 15.1718927,5.57813149 L15.1718927,6.51563258 L14.7343921,6.51563258 L14.7343921,6.29688233 C14.625017,6.46875753 14.4687668,6.56250764 14.265641,6.56250764 C14.1250164,6.56250764 14.0000163,6.51563258 13.9062662,6.43750749 C13.8125161,6.3593824 13.765641,6.23438225 13.765641,6.09375709 C13.765641,5.79688175 13.9375162,5.62500655 14.2968916,5.57813149 L14.7187671,5.51563142 C14.7187671,5.3281312 14.625017,5.25000611 14.4375168,5.25000611 C14.2500166,5.25000611 14.0781414,5.31250618 13.9062662,5.42188073 L13.9375162,5.04688087 L13.9375162,5.04688087 Z M14.4531418,5.81250676 C14.2968916,5.82813178 14.2031415,5.90625687 14.2031415,6.03125702 C14.2031415,6.09375709 14.2187665,6.14063215 14.2656416,6.17188218 C14.3125167,6.20313222 14.3593917,6.21875724 14.4218918,6.21875724 C14.5156419,6.21875724 14.593767,6.1875072 14.6562671,6.12500713 C14.7187671,6.06250705 14.7500172,5.98438196 14.7500172,5.87500684 L14.7500172,5.76563171 L14.4531418,5.81250676 L14.4531418,5.81250676 Z M17.0156448,4.95313076 L16.3750191,6.64063273 C16.2187689,7.03125818 16.0000186,7.23438342 15.7031433,7.23438342 C15.5781431,7.23438342 15.500018,7.2187584 15.437518,7.20313338 L15.437518,6.84375796 C15.500018,6.875008 15.5625181,6.89063302 15.6406432,6.89063302 C15.7656433,6.89063302 15.8437684,6.82813295 15.9062685,6.7031328 L15.9843936,6.50000756 L15.3593929,4.95313076 L15.8593929,4.95313076 L16.1562688,5.92188189 C16.1718938,5.98438196 16.1875188,6.04688204 16.2031439,6.12500713 L16.2187689,6.12500713 C16.2187689,6.07813207 16.2343939,6.015632 16.2656439,5.93750691 L16.5781443,4.96875578 L17.0156448,4.95313076 L17.0156448,4.95313076 Z M5.31250618,9.71876131 L3.98437964,9.71876131 C3.90625455,9.90626153 3.82812945,10.0781367 3.7500032,10.2343869 L5.07813091,10.2343869 L5.07813091,11.0312628 L4.50000524,11.0312628 L4.50000524,11.7500137 L5.26563113,11.7500137 L5.26563113,12.5468844 L4.50000524,12.5468844 L4.50000524,13.5937658 C4.70313047,13.4687657 4.92188073,13.3437655 5.12500596,13.2031404 C5.14063098,13.5000157 5.156256,13.8125161 5.20313105,14.1406415 C4.40625513,14.640642 3.96875462,14.9531424 3.87500451,15.0781425 L3.37500393,14.3750167 C3.51562909,14.1875165 3.59375418,13.9843913 3.59375418,13.718766 L3.59375418,12.5625146 L2.79687825,12.5625146 L2.79687825,11.7656387 L3.59375418,11.7656387 L3.59375418,11.0468844 L3.32812887,11.0468844 C3.23437876,11.203138 3.12500364,11.3593882 3.03125353,11.5000134 C2.95312844,11.1250129 2.85937833,10.7343875 2.7500032,10.3593871 C3.15625367,9.60938618 3.45312902,8.84376029 3.6093792,8.04688436 L4.50000524,8.23438458 C4.43750516,8.46875985 4.35938007,8.70313513 4.28125498,8.9375104 L5.31250618,8.9375104 L5.31250618,9.71876131 L5.31250618,9.71876131 Z M9.18751069,12.046889 L9.73438633,12.8281399 L8.53125993,13.4375156 C8.89063535,13.718766 9.3281312,13.9218912 9.87501149,14.0312663 C9.68751127,14.3281417 9.50001105,14.640642 9.31251084,14.9531424 C8.60938502,14.7187671 8.0781344,14.3906417 7.68750895,13.9375162 L7.68750895,14.3906417 C6.78125789,14.6718921 6.14063215,14.9375174 5.76563171,15.1562676 L5.3281312,14.4062668 C5.46875636,14.2187665 5.53125644,13.9687663 5.53125644,13.6718909 L5.53125644,8.34375971 L9.40626095,8.34375971 L9.40626095,12.046889 L9.18751069,12.046889 L9.18751069,12.046889 Z M8.46875753,9.21876073 L6.46875753,9.21876073 L6.46875753,9.7968864 L8.46875753,9.7968864 L8.46875753,9.21876073 L8.46875753,9.21876073 Z M8.46875753,11.171888 L8.46875753,10.5937623 L6.46875753,10.5937623 L6.46875753,11.171888 L8.46875753,11.171888 L8.46875753,11.171888 Z M6.71875782,12.046889 L6.46875753,12.046889 L6.46875753,13.8906412 C6.76563287,13.781266 7.07813324,13.6562659 7.37500858,13.546889 C7.09375825,13.1250153 6.875008,12.6250147 6.71875782,12.046889 L6.71875782,12.046889 Z M9.14063564,12.046889 L7.65625891,12.046889 C7.75000902,12.3437644 7.87500916,12.5937647 8.00000931,12.8125149 C8.39063476,12.5781396 8.7656352,12.3125143 9.14063564,12.046889 Z M10.1562618,14.2500166 L10.0000116,13.2968905 C10.1250118,13.2812655 10.2343869,13.2656404 10.3750121,13.2500154 L10.3750121,9.29688582 L10.0781367,9.29688582 L10.0781367,8.45313484 L13.1093903,8.45313484 L13.1093903,9.29688582 L12.8125149,9.29688582 L12.8125149,12.875015 C12.9531401,12.8437649 13.0937652,12.8281399 13.2343904,12.7968899 C13.2031404,13.0937652 13.1718903,13.4062656 13.1562653,13.7031409 C13.0468902,13.718766 12.9375151,13.734391 12.8125149,13.765641 L12.8125149,15.0468925 L11.9531389,15.0468925 L11.9531389,13.9062662 C11.9531389,13.9218912 10.1562618,14.2500166 10.1562618,14.2500166 L10.1562618,14.2500166 Z M11.2187631,10.0312617 L11.9531389,10.0312617 L11.9531389,9.29688582 L11.2187631,9.29688582 L11.2187631,10.0312617 Z M11.2187631,11.5312634 L11.9531389,11.5312634 L11.9531389,10.7968876 L11.2187631,10.7968876 L11.2187631,11.5312634 Z M11.9531389,13.0312652 L11.9531389,12.3125143 L11.2187631,12.3125143 L11.2187631,13.1562653 L11.9531389,13.0312652 L11.9531389,13.0312652 Z M14.0937664,8.06250938 C14.3437667,8.39063476 14.578142,8.73438516 14.7812672,9.09376058 L14.1250164,9.42188596 L15.0781425,9.42188596 C15.3437679,8.96876044 15.5781431,8.50000989 15.7812684,8.01563433 L16.7031444,8.40625978 L16.0781437,9.42188596 L16.8125196,9.42188596 L16.8125196,10.2656369 L15.4062679,10.2656369 L15.4062679,11.2656381 L17.0312698,11.2656381 L17.0312698,12.1093891 L15.5625181,12.1093891 C15.8281434,13.0312652 16.328144,13.6875159 17.0781449,14.1093914 C16.8750196,14.4218918 16.6875194,14.7343921 16.5156442,15.0625175 C15.8125184,14.5156343 15.3125178,13.718766 15.0156425,12.6718897 C14.8281423,13.6718909 14.3437667,14.5000169 13.5625158,15.1093926 C13.3437655,14.8125172 13.1093903,14.5468919 12.85939,14.2656416 C13.6250159,13.7968911 14.1250164,13.0625152 14.3437667,12.0937641 L13.0625152,12.0937641 L13.0625152,11.2500131 L14.4531418,11.2500131 C14.4531418,11.1250129 14.4687668,10.7968876 14.4687668,10.2500119 L13.2343904,10.2500119 L13.2343904,9.40626095 L13.9218912,9.40626095 C13.750016,9.06251055 13.5625158,8.73438516 13.3437655,8.40625978 C13.35939,8.43750982 14.0937664,8.06250938 14.0937664,8.06250938 L14.0937664,8.06250938 Z" id="形状" fill="#FFFFFF"></path>
                <path d="M16.296894,0.0937501091 L3.70312931,0.0937501091 C1.718752,0.0937501091 0.109375127,1.70312698 0.109375127,3.68750429 L0.109375127,16.2812689 C0.109375127,18.2656463 1.718752,19.8750231 3.70312931,19.8750231 L16.296894,19.8750231 C18.078146,19.8750231 19.5468977,18.5781466 19.8437731,16.8906447 L19.8437731,16.7968945 L19.9062732,16.7968945 L19.9062732,3.67187927 C19.9062732,1.70312698 18.2968963,0.0937501091 16.296894,0.0937501091 Z" id="路径" fill="#034480"></path>
                <path d="M15.1406426,0.0937501091 L10.8281376,19.9062732 L16.312519,19.9062732 C18.0937711,19.9062732 19.5625228,18.6093967 19.8593981,16.9218947 L19.8593981,16.8281446 L19.9218982,16.8281446 L19.9218982,3.70312931 C19.9218982,1.718752 18.3125213,0.109375127 16.3281376,0.109375127 C16.296894,0.0937501091 15.1406426,0.0937501091 15.1406426,0.0937501091 L15.1406426,0.0937501091 Z" id="路径" fill="#117C83"></path>
                <path d="M8.32813469,0.0937501091 L3.70312931,0.0937501091 C1.718752,0.0937501091 0.109375127,1.70312698 0.109375127,3.68750429 L0.109375127,16.2812689 C0.109375127,18.2187712 1.62500189,19.781273 3.54687913,19.8750231 L8.32813469,0.0937501091 Z" id="路径" fill="#D23431"></path>
                <path d="M8.81251025,10.6093873 L8.64063447,10.9375127 C8.60938502,11.0156378 8.56250996,11.0625129 8.53125993,11.0625129 C8.50000989,11.0781379 8.45313484,11.0937623 8.37500975,11.0937623 L8.28125964,11.0937623 L8.14063447,11.5156384 L8.46875985,11.5156384 C8.60938502,11.5156384 8.73438516,11.4531383 8.79688524,11.4218883 C8.85938531,11.3906383 8.87501033,11.4062633 8.92188538,11.3593882 L9.03126051,11.2656381 L10.0000116,11.2656381 L10.1406345,10.8281376 L9.42188596,10.8281376 L9.56251113,10.5937623 C9.54688611,10.6093873 8.81251025,10.6093873 8.81251025,10.6093873 L8.81251025,10.6093873 Z M15.1562676,11.9218889 L15.9062685,11.9218889 L15.7812684,12.2812643 L15.0156425,12.2812643 L14.8906394,12.6718897 L15.5625181,12.6718897 L15.0468925,13.3593905 C15.0312675,13.4062656 14.9843924,13.4375156 14.9375174,13.4531407 C14.9062673,13.4843907 14.8593923,13.5000157 14.8125172,13.5000157 L14.625017,13.5000157 L14.6875171,13.3281405 L14.5156419,13.3281405 L15.1875177,11.0781379 L15.3906394,11.0625129 L15.468768,10.7968876 L15.484393,11.0781379 C15.468768,11.2343881 15.5937681,11.3906383 15.9218935,11.3593882 L16.312519,11.3593882 L16.4375191,10.9375127 L16.296894,10.9375127 C16.2031439,10.9375127 16.1718938,10.9218877 16.1718938,10.8750127 L16.1562688,10.6093873 L15.468768,10.6093873 C15.2343927,10.6093873 14.5625169,10.6250124 14.4218918,10.6718874 C14.2656416,10.7187625 14.0781414,10.8437626 14.0781414,10.8437626 L14.1562665,10.6093873 L13.4843907,10.6093873 L13.3437655,11.0625129 L12.6562647,13.3437655 L12.5156396,13.3437655 L12.3906394,13.765641 L13.7031409,13.765641 L13.6562659,13.9062662 L14.3125167,13.9062662 L14.3593917,13.765641 L14.5312669,13.765641 L14.5468919,13.718766 L14.4843919,13.9218912 L14.9687674,13.9218912 C15.2187677,13.9218912 15.3750179,13.7968911 15.484393,13.6562659 L15.8437684,13.1875153 L15.9218935,13.6718909 C15.9375185,13.765641 16.0000186,13.8125161 16.0468937,13.8281411 C16.1093937,13.8593911 16.1562688,13.9062662 16.2187689,13.9062662 C16.296894,13.9218912 16.343769,13.9218912 16.3750191,13.9218912 L16.6093943,13.9218912 L16.7500195,13.4531407 L16.6562694,13.4531407 C16.5937693,13.4531407 16.5156442,13.4375156 16.5000192,13.4218906 C16.4843942,13.3906406 16.4843942,13.3593905 16.4687692,13.3125155 L16.3906394,12.8281399 L16.0781437,12.8281399 L16.2031439,12.6718897 L16.9687697,12.6718897 L17.0937699,12.2812643 L16.3906394,12.2812643 L16.5156442,11.9218889 L17.21877,11.9218889 L17.3593952,11.5000134 L15.2968928,11.5000134 L15.1562676,11.9218889 L15.1562676,11.9218889 Z M13.8750161,13.3125149 L13.3437655,13.3125149 L13.4843907,12.8125149 L14.0156413,12.8125149 L13.8750161,13.3125149 Z M14.1562665,12.3437644 C14.1562665,12.3437644 14.0000163,12.3593894 13.8906412,12.3906394 C13.765641,12.4218895 13.5781408,12.5312646 13.5781408,12.5312646 L13.750016,11.9375139 L14.2812666,11.9375139 C14.2812666,11.9218889 14.1562665,12.3437644 14.1562665,12.3437644 Z M14.1406415,11.5312634 C14.0312663,11.5625135 13.8437661,11.6562636 13.8437661,11.6562636 L14.0156413,11.0781379 L14.5312669,11.0781379 L14.4062668,11.4843884 C14.4062668,11.4843884 14.2500166,11.5000134 14.1406415,11.5312634 L14.1406415,11.5312634 Z M8.71876015,13.4218906 L8.89063535,12.8281399 L9.60938618,12.8281399 L9.75001135,12.3906394 L9.03126051,12.3906394 L9.15626065,12.031264 L9.85938647,12.031264 L10.0000116,11.6093885 L8.21875956,11.6093885 L8.0781344,12.046889 L8.48438487,12.046889 L8.37500975,12.4062644 L7.96875927,12.4062644 L7.82813411,12.8437649 L8.23438458,12.8437649 L8.00000931,13.6250159 C7.96875927,13.734391 8.01563433,13.765641 8.04688436,13.8125161 C8.0781344,13.8593911 8.12500945,13.8906412 8.18750953,13.9062662 C8.26563462,13.9218912 8.32813411,13.9375162 8.37500975,13.9375162 L9.18751069,13.9375162 L9.32813411,13.4531407 L8.95313542,13.5000157 C8.90626036,13.5000157 8.70313513,13.4843907 8.71876015,13.4218906 Z M5.89063185,7.76563404 C5.78125673,7.76563404 5.59375651,7.79688407 5.43750633,7.87500916 C5.37500625,7.9062592 5.31250618,7.95313425 5.26563113,7.98438429 L5.3281312,7.79688407 L5.29688116,7.76563404 C4.93750575,7.84375913 4.87500567,7.85938415 4.54688029,7.89063418 L4.51563025,7.9062592 C4.48438022,8.21875956 4.45313018,8.45313484 4.31250502,9.07813556 C4.26562996,9.31251084 4.21875491,9.53126109 4.15625484,9.75001135 L4.17187985,9.78126138 C4.51563025,9.76563404 4.59375535,9.76563404 4.89063069,9.76563404 L4.92188073,9.73438633 C4.95313076,9.54688611 4.95313076,9.50001105 5.04688087,9.1093856 C5.09375593,8.92188538 5.17188102,8.53125993 5.20313105,8.39063476 C5.28125615,8.35938473 5.34375622,8.32813469 5.40625629,8.32813469 C5.56250647,8.32813469 5.54688145,8.46875985 5.54688145,8.51563491 C5.5000064,8.73438516 5.46875636,8.95313542 5.40625629,9.18751069 L5.35938124,9.35938589 L5.26563113,9.73438633 L5.28125615,9.76563404 C5.60938153,9.75001135 5.70313164,9.75001135 5.98438196,9.75001135 L6.03125702,9.71876131 C6.09375709,9.42188596 6.10938211,9.34376087 6.1875072,8.92188538 L6.23438225,8.73438516 C6.31250735,8.34375971 6.3593824,8.15625949 6.29688233,8.00000931 C6.21875724,7.81250909 6.03125702,7.76563404 5.89063185,7.76563404 L5.89063185,7.76563404 Z M4.43750516,6.42188247 C3.87500451,6.40625745 3.71875433,6.40625745 3.65625425,6.39063244 C3.64062924,6.50000756 3.25000378,8.28125964 3.25000378,8.28125964 C3.15625367,8.64063505 3.10937862,8.90626036 2.89062836,9.06251055 C2.76562822,9.15626065 2.64062807,9.20313571 2.48437789,9.20313571 C2.2343776,9.20313571 2.07812742,9.06251055 2.0625024,8.82813527 L2.0625024,8.75001018 L2.14062749,8.26563462 C2.14062749,8.26563462 2.54687796,6.64063273 2.60937804,6.42188247 L2.60937804,6.39063244 C1.81250211,6.40625745 1.67187695,6.39063244 1.67187695,6.37500742 C1.67187695,6.39063244 1.64062691,6.50000756 1.64062691,6.50000756 L1.2031264,8.32813469 L1.15625135,8.48438487 L1.12500131,9.00001047 C1.12500131,9.14063564 1.15625135,9.2812608 1.21875142,9.39063593 C1.40625164,9.71876131 1.93750225,9.78126138 2.25000262,9.78126138 C2.65625309,9.78126138 3.01562851,9.68751127 3.25000378,9.54688611 C3.67187927,9.29688582 3.79687942,8.89063535 3.90625455,8.54688495 L3.9531296,8.37500742 C3.9531296,8.37500742 4.35938007,6.68750778 4.43750516,6.46875753 L4.43750516,6.42188247 L4.43750516,6.42188247 Z M11.7031386,12.6718897 C11.6875136,12.7031398 11.6718886,12.7187648 11.6562636,12.7343898 C11.6406385,12.7500148 11.5937635,12.7500148 11.5468884,12.7500148 L11.4062633,12.7500148 L11.4218883,12.5000145 L10.8125126,12.5000145 L10.7968876,13.4375156 L10.3750121,13.4843907 C10.328137,13.4843907 10.296887,13.4531407 10.281262,13.4375156 C10.2500119,13.4062656 10.2656369,13.3593905 10.296887,13.2812655 L10.5781373,12.3750144 L11.5312634,12.3750144 C11.6718886,12.3750144 11.7812637,12.3593894 11.8437638,12.3593894 C11.9218889,12.3593894 11.9843889,12.3281393 12.0781391,12.2812643 C12.1718892,12.2187642 12.2031392,12.1718892 12.2500143,12.1250141 C12.2968893,12.062514 12.3593894,11.9375139 12.4062644,11.7343887 L12.7500148,10.5937623 L11.7500137,10.5937623 C11.7500137,10.5937623 11.4375133,10.6562624 11.3125132,10.7031375 C11.187513,10.7500125 10.9843878,10.9062627 10.9843878,10.9062627 L11.0781379,10.5937623 L10.4531372,10.5937623 L9.57813615,13.4843907 C9.54688611,13.5937623 9.51563607,13.6718909 9.51563607,13.718766 C9.51563607,13.781266 9.59376116,13.8281411 9.64063622,13.8593911 C9.70313629,13.9062662 9.76563636,13.9062662 9.84376145,13.9062662 C9.92188655,13.9218912 10.0312617,13.9218912 10.1875119,13.9218912 L10.6562624,13.9218912 L10.7968876,13.4531407 L10.7968876,13.6875159 C10.7968876,13.781266 10.8125126,13.8125161 10.8750127,13.8593911 C10.9531377,13.9218912 11.140638,13.9218912 11.4062633,13.9218912 L11.7968887,13.9218912 L11.9375139,13.4687657 L11.6093885,13.4843907 L11.5000134,13.4843907 C11.4843884,13.4687657 11.4687633,13.4687657 11.4531383,13.4531407 C11.4375133,13.4375156 11.4218883,13.4531407 11.4218883,13.3593905 L11.4218883,13.0468902 L11.7656387,13.0312652 C11.9531389,13.0312652 12.031264,12.9687651 12.1093891,12.906265 C12.1875142,12.8437649 12.2031392,12.7812649 12.2343892,12.7031398 L12.2968893,12.4218895 L11.7968887,12.4531395 C11.7656387,12.4687645 11.7031386,12.6718897 11.7031386,12.6718897 L11.7031386,12.6718897 Z M10.9531377,11.0625129 L11.9843889,11.0625129 L11.9062639,11.3125132 C11.9062639,11.3125132 11.4218883,11.3125132 11.3281382,11.3281382 C10.9843878,11.3906383 10.7968876,11.5625129 10.7968876,11.5625129 L10.9531377,11.0625129 L10.9531377,11.0625129 Z M10.7656375,11.7500137 L11.7812637,11.7500137 L11.7187636,11.9531389 C11.7187636,11.9531389 11.6875124,11.9375139 11.5781385,11.9531389 L10.6875124,11.9531389 L10.7656375,11.7500137 L10.7656375,11.7500137 Z M8.00000931,9.71876131 C8.14063447,9.78125905 8.32813469,9.7968864 8.45313484,9.7968864 C8.78126022,9.7968864 9.1093856,9.70313629 9.35938589,9.43751098 C9.51563607,9.23438575 9.60938618,8.92188538 9.64063622,8.78125905 C9.75001135,8.35938473 9.67188625,8.14063447 9.56251113,8.03125935 C9.42188596,7.84375913 9.15626065,7.78125905 8.89063535,7.78125905 C8.73438516,7.78125905 8.34375971,7.79688407 8.04688436,8.0781344 C7.82813411,8.26563462 7.734384,8.54688495 7.67188393,8.79688524 C7.62500887,9.06251055 7.5625088,9.53126109 8.00000931,9.71876131 Z M8.40625978,8.81251025 C8.48438487,8.48438487 8.56250996,8.20313455 8.79688524,8.20313455 C8.95313542,8.21875956 8.96876044,8.4218848 8.90626036,8.75001018 C8.89063535,8.82813527 8.82813527,9.09376058 8.75001018,9.20313455 C8.68751011,9.29688582 8.60938502,9.34376087 8.54688495,9.34376087 C8.53125993,9.34376087 8.39063476,9.34376087 8.39063476,9.14063564 C8.37500975,9.03126051 8.39063476,8.92188538 8.40625978,8.81251025 L8.40625978,8.81251025 Z M6.67188276,8.28125964 L6.64063273,8.31250967 C6.62500771,8.43750982 6.60938269,8.53125993 6.59375767,8.67188509 C6.56250764,8.81251025 6.5312576,8.95313542 6.48438255,9.17188567 C6.45313251,9.32813585 6.42188247,9.39063593 6.40625745,9.453136 C6.37500742,9.51563607 6.3593824,9.57813615 6.31250735,9.73438633 L6.34375738,9.76563636 C6.50000756,9.75001135 6.60938269,9.75001135 6.71875782,9.75001135 L7.10938327,9.75001135 L7.10938327,9.70313629 L7.12500829,9.68751127 C7.15625833,9.54688611 7.15625833,9.51563607 7.17188335,9.43751098 C7.18750836,9.35938589 7.2187584,9.26563578 7.28125847,8.98438545 L7.37500858,8.57813498 L7.46875869,8.17188451 L7.46875869,8.14063447 C7.29688349,8.17188451 7.18750836,8.20313455 7.06250822,8.21875956 C6.95313309,8.23438458 6.82813295,8.2500096 6.67188276,8.28125964 L6.67188276,8.28125964 Z M19.2343974,7.76563404 C18.875022,7.84375913 18.8281469,7.84375913 18.5156465,7.89063418 L18.4843948,7.92188422 L18.4843948,7.93750924 C18.2500212,8.48438487 18.2500212,8.35938473 18.062521,8.79688524 L18.062521,8.73438516 L18.015646,7.79688407 L17.9843948,7.76563404 C17.6250205,7.84375913 17.6093955,7.84375913 17.2812701,7.89063418 L17.2500201,7.92188422 L17.2500201,7.96875927 C17.2968951,8.18750953 17.2812701,8.12500945 17.3281452,8.46875985 C17.3437702,8.62501004 17.3750202,8.79688524 17.3906452,8.96876044 C17.4218953,9.25001076 17.4531453,9.37501091 17.4843948,9.7968864 C17.2656451,10.1718868 17.203145,10.312512 16.9843948,10.6406374 L17.0000198,10.6718874 C17.3281452,10.6562624 17.4062703,10.6562624 17.6562705,10.6562624 L17.7187706,10.5937623 C17.8906458,10.1875119 19.2968975,7.79688407 19.2968975,7.79688407 L19.2343974,7.76563404 L19.2343974,7.76563404 Z M14.7031421,8.84376029 C14.640642,9.1093856 14.5625169,9.57813615 15.0156425,9.75001135 C15.1406426,9.81251142 15.2812678,9.82813644 15.4062679,9.82813644 C15.5312681,9.81251142 15.6562682,9.75001135 15.7500183,9.67188625 L15.7187683,9.76563636 L15.7343933,9.7968864 C16.0625187,9.78125905 16.1406438,9.78125905 16.4843942,9.78125905 L16.5312692,9.75001135 C16.5781443,9.453136 16.6250193,9.17188567 16.7500195,8.60938502 L16.9375197,7.81250909 L16.9218947,7.78125905 C16.6562694,7.84375913 16.4062691,7.89063418 16.1406438,7.92188422 L16.1093937,7.93750924 L16.0937687,8.04688436 C16.0312687,7.95313425 15.9531436,7.89063418 15.8593935,7.84375913 C15.7187683,7.78125905 15.3593929,7.85938415 15.0625175,8.14063447 C14.8593923,8.31250967 14.7656422,8.57813498 14.7031421,8.84376029 L14.7031421,8.84376029 Z M15.4218929,8.84376029 C15.500018,8.51563491 15.5781431,8.2500096 15.8125184,8.2500096 C15.9531436,8.26563462 16.0312687,8.39063476 16.0156436,8.60938502 C16.0000186,8.65626007 15.9843936,8.71876015 15.9687686,8.78126022 C15.9375185,8.89063535 15.9218935,9.00001047 15.8906435,9.12501062 C15.8750185,9.17188567 15.8593935,9.20313571 15.8281434,9.2500096 C15.7656433,9.34376087 15.6406432,9.37501091 15.5468931,9.37501091 C15.5312681,9.37501091 15.3906429,9.37501091 15.3906429,9.17188567 C15.3750179,9.06251055 15.3906429,8.95313542 15.4218929,8.84376029 Z M12.9843901,9.04688553 C12.9843901,9.04688553 13.0937652,8.60938502 13.1093903,8.59376 C13.1093903,8.59376 13.1406403,8.54688495 13.1718903,8.53125993 L13.2187654,8.53125993 C13.6718909,8.53125993 14.1875165,8.53125993 14.593767,8.23438458 C14.8750173,8.03125935 15.0468925,7.734384 15.1406426,7.3593824 C15.1562676,7.26563345 15.1875177,7.17188335 15.1875177,7.0468832 C15.1875177,6.90625804 15.1562676,6.76563287 15.0781425,6.65625775 C14.8750173,6.37500742 14.4531418,6.37500742 13.9843913,6.37500742 L13.750016,6.37500742 C13.1406403,6.39063244 12.89064,6.37500742 12.8125149,6.3593824 C12.7968899,6.39063244 12.7968899,6.43750749 12.7812649,6.48438255 L12.5468896,7.50000873 C12.5468896,7.50000873 12.031264,9.64063622 12.000014,9.75001135 L12.8437649,9.75001135 C12.85939,9.64063622 12.9843901,9.04688553 12.9843901,9.04688553 Z M13.2500154,7.98438429 L13.4843907,6.98438313 L13.4843907,6.89063302 L13.5781408,6.90625804 C13.5781408,6.90625804 14.0468913,6.95313309 14.0625164,6.95313309 C14.2500166,7.01563316 14.3281417,7.18750836 14.2812666,7.43750865 C14.2343904,7.65625891 14.0937664,7.84375913 13.8906412,7.93750924 C13.7343904,8.01563433 13.5468908,8.03125935 13.3593905,8.03125935 L13.2343904,8.03125935 L13.2500154,7.98438429 L13.2500154,7.98438429 Z M7.46875869,7.62500887 C7.31250851,7.53125876 7.0468832,7.5625088 6.84375796,7.68750895 C6.65625775,7.81250909 6.64063273,8.00000931 6.78125789,8.09375942 C6.93750807,8.20313455 7.2187584,8.17188451 7.42188364,8.03125935 C7.60938385,7.89063418 7.62500887,7.71875898 7.46875869,7.62500887 Z M10.4375121,9.73438633 L10.4687622,9.71876131 C10.5000122,9.53126109 10.5156372,9.48438604 10.5937623,9.09376058 C10.6406374,8.90626036 10.7187625,8.51563491 10.7500125,8.37500975 C10.8125126,8.34375971 10.8906377,8.31250967 10.9531377,8.31250967 C11.1093879,8.31250967 11.0937629,8.45313484 11.0937629,8.50000989 C11.0468879,8.71876015 11.0156378,8.9375104 10.9531377,9.17188567 L10.9062627,9.34376087 L10.8125126,9.71876131 L10.8281376,9.75000902 C11.156263,9.73438633 11.2500131,9.73438633 11.5312634,9.73438633 L11.6093885,9.70313629 C11.6562636,9.40626095 11.6718886,9.32813585 11.7500137,8.90626036 L11.7968887,8.71876015 C11.8750138,8.32813469 11.9218889,8.14063447 11.8593888,7.98438429 C11.7812637,7.81250909 11.6093885,7.76563404 11.4531383,7.76563404 C11.3437632,7.76563404 11.156263,7.79688407 11.0000128,7.87500916 C10.9375127,7.9062592 10.8750127,7.95313425 10.8281376,7.98438429 L10.8750127,7.79688407 L10.8437626,7.75000902 C10.4843872,7.82813411 10.4218871,7.84375913 10.0937617,7.89063418 L10.0625117,7.9062592 C10.0312617,8.21875956 9.98438662,8.45313484 9.85938647,9.07813556 C9.7968864,9.29688582 9.75001135,9.53126109 9.70313629,9.75000902 L9.71876131,9.78126138 C10.0468867,9.73438633 10.1406368,9.73438633 10.4375121,9.73438633 L10.4375121,9.73438633 Z" id="形状" fill="#FFFFFF"></path>
                <path d="M17.6562705,10.6093873 L17.3750202,11.0781379 C17.2812701,11.2343881 17.1250199,11.3593882 16.8750196,11.3593882 L16.4531441,11.3437632 L16.5781443,10.9375127 L16.6718944,10.9375127 C16.7187695,10.9375127 16.7500195,10.9375127 16.7812695,10.9218877 C16.7968945,10.9062627 16.8281446,10.8906377 16.8437696,10.8750127 L17.0000198,10.6250124 L17.6562705,10.6093873 L17.6562705,10.6093873 Z" id="路径" fill="#FFFFFF"></path>
            </g>
        </g>
    </g>
</svg>