<?xml version="1.0" encoding="UTF-8"?>
<svg width="20px" height="20px" viewBox="0 0 20 20" version="1.1" xmlns="http://www.w3.org/2000/svg" xmlns:xlink="http://www.w3.org/1999/xlink">
    <!-- Generator: Sketch 59.1 (86144) - https://sketch.com -->
    <title>微信 支付</title>
    <desc>Created with Sketch.</desc>
    <g id="页面-1" stroke="none" stroke-width="1" fill="none" fill-rule="evenodd">
        <g id="微信-支付" fill-rule="nonzero">
            <path d="M18.6823655,20.0000233 L1.34117344,20.0000233 C0.588242872,20.0000233 -3.55271368e-15,19.4117804 -3.55271368e-15,18.6823655 L-3.55271368e-15,1.34117344 C-3.55271368e-15,0.588242872 0.588242872,0 1.34117344,0 L18.6823655,0 C19.4117804,0 20.0000233,0.588242872 20.0000233,1.34117344 L20.0000233,18.6823655 C20.0000233,19.4117804 19.4117804,20.0000233 18.6823655,20.0000233 Z" id="路径" fill="#40BA49"></path>
            <path d="M7.71766523,11.9764788 C7.4588368,12.1176704 7.12942236,12.000014 6.96471514,11.7411855 L6.91764477,11.6705995 L5.38824846,8.30588857 C5.36471327,8.28235339 5.36471327,8.23530255 5.36471327,8.18825172 C5.36471327,8.1176657 5.38824846,8.04706015 5.43529929,8.00000931 C5.48236966,7.95293894 5.55295103,7.90588811 5.6235417,7.92942329 C5.69412772,7.92942329 5.74117856,7.95295847 5.78824892,7.97649366 L7.60000884,9.27059673 C7.8117669,9.41176876 8.09413051,9.45883913 8.35293941,9.36471793 L16.8706056,5.57647133 C15.3411897,3.7882466 12.8235305,2.61176085 9.97647645,2.61176085 C5.31766244,2.61176085 1.55295103,5.76469421 1.55295103,9.64706201 C1.55295103,11.7647207 2.68234687,13.6706018 4.47059114,14.9647244 C4.61176318,15.0588456 4.70588438,15.2470685 4.70588438,15.4117953 C4.70588438,15.4823618 4.70588438,15.5294321 4.6823492,15.6000182 L4.30588392,17.0117776 C4.28234873,17.0823636 4.25881355,17.1529692 4.25881355,17.2235552 C4.25881355,17.3882624 4.37646994,17.5058993 4.54117716,17.5058993 C4.58824753,17.5058993 4.65883355,17.4823641 4.70588438,17.4588289 L6.54117949,16.4000191 C6.75295708,16.258847 7.01176597,16.2353119 7.24705921,16.3058979 C8.14120088,16.5647263 9.05883867,16.6823632 10.0000116,16.6823632 C14.6588452,16.6823632 18.4235566,13.5294298 18.4235566,9.67059719 C18.4235566,8.51766616 18.0941421,7.38825078 17.4588484,6.4235231 L7.76469654,11.9529631 L7.71766523,11.9764788 L7.71766523,11.9764788 Z" id="路径" fill="#FFFFFF"></path>
        </g>
    </g>
</svg>