<?xml version="1.0" encoding="UTF-8"?>
<svg width="44px" height="44px" viewBox="0 0 44 44" version="1.1" xmlns="http://www.w3.org/2000/svg" xmlns:xlink="http://www.w3.org/1999/xlink">
    <!-- Generator: Sketch 59.1 (86144) - https://sketch.com -->
    <title>质量</title>
    <desc>Created with Sketch.</desc>
    <g id="页面-1" stroke="none" stroke-width="1" fill="none" fill-rule="evenodd">
        <g id="普通版本提交成功" transform="translate(-938.000000, -824.000000)" fill-rule="nonzero">
            <g id="质量" transform="translate(938.000000, 824.000000)">
                <g id="编组-6备份" fill="#DAEDFE">
                    <g id="曝光备份">
                        <path d="M22.0000266,44.0000512 L22.0000256,44.0000512 C9.84973802,44.0000512 0,34.1503132 0,22.0000256 C0,9.84973802 9.84973802,0 22.0000256,0 C34.1506569,0 44.0000512,9.84939427 44.0000512,22.0000256 C44.0000512,34.1506569 34.1506569,44.0000512 22.0000256,44.0000512 L22.0000266,44.0000512 Z" id="路径"></path>
                    </g>
                </g>
                <g id="质量管理" transform="translate(12.000000, 15.000000)" fill="#0584FF">
                    <path d="M13.8190545,6.07335189 L13.8190545,6.11736252 L9.94618252,18 L9.90217464,18 L6.02930267,6.07335189 L13.8190545,6.07335189 Z M5.28116144,6.1173583 L8.84595901,17.1637981 L0.132044536,6.38142628 C0.0880364385,6.33741819 0.0440285524,6.2494022 8.43519409e-07,6.1173583 L5.28116144,6.1173583 Z M19.8043944,6.11736252 L19.7603667,6.16137061 C19.7163588,6.24940642 19.6283426,6.29341431 19.5843347,6.3814111 L11.0904523,16.8997613 L14.5672286,6.11736252 L19.8043944,6.11736252 Z M2.81663398,0.70416477 L4.97311256,5.36920694 L4.97379915e-14,5.41319522 C4.97379915e-14,5.3692042 0.0440277089,5.32519632 0.0440277089,5.32519632 L2.81663398,0.70416477 Z M9.94621204,0.220086035 L13.5990098,5.41319248 L6.24940368,5.41319248 L9.94621204,0.220086035 Z M16.9877537,0.836208462 L19.6723414,5.28120277 C19.6723414,5.32521087 19.7163493,5.36921875 19.7163493,5.36921875 L14.8752646,5.36921875 L16.9877537,0.836208462 Z M15.8435223,1.42996726e-13 C16.0635628,1.42996726e-13 16.2836011,0.0880277925 16.4596542,0.176063598 L14.2591861,5.01714828 L10.6943843,1.42996726e-13 L15.8435223,1.42996726e-13 Z M9.15402497,1.18092725e-05 L5.58924848,5.01711792 L3.38878037,0.132043692 C3.56480095,0.0440199063 3.74085273,1.18092725e-05 3.87287618,1.18092725e-05 L9.15402497,1.18092725e-05 Z" id="形状结合"></path>
                </g>
            </g>
        </g>
    </g>
</svg>