<?xml version="1.0" encoding="UTF-8"?>
<svg width="44px" height="44px" viewBox="0 0 44 44" version="1.1" xmlns="http://www.w3.org/2000/svg" xmlns:xlink="http://www.w3.org/1999/xlink">
    <!-- Generator: Sketch 59.1 (86144) - https://sketch.com -->
    <title>曝光</title>
    <desc>Created with Sketch.</desc>
    <g id="页面-1" stroke="none" stroke-width="1" fill="none" fill-rule="evenodd">
        <g id="普通版本提交成功" transform="translate(-938.000000, -626.000000)" fill-rule="nonzero">
            <g id="曝光" transform="translate(938.000000, 626.000000)">
                <path d="M22.0000266,44.0000512 L22.0000256,44.0000512 C9.84973802,44.0000512 0,34.1503132 0,22.0000256 C0,9.84973802 9.84973802,0 22.0000256,0 C34.1506569,0 44.0000512,9.84939427 44.0000512,22.0000256 C44.0000512,34.1506569 34.1506569,44.0000512 22.0000256,44.0000512 L22.0000266,44.0000512 Z" id="路径" fill="#DAEDFE"></path>
                <path d="M22.0000256,13.2000154 C14.7323257,13.2000154 11.0000128,22.3696432 11.0000128,22.3696432 C11.0000128,22.3696432 13.8160161,31.5403453 22.0000256,31.5403453 C29.412917,31.5403453 33.0000384,22.4059519 33.0000384,22.4059519 C33.0000384,22.4059519 29.3821342,13.2000154 22.0000256,13.2000154 L22.0000256,13.2000154 Z M22.0154256,26.9731486 C19.3611225,26.9731486 17.4383031,24.9656462 17.4383031,22.3817604 C17.4383031,19.7989574 19.3600053,17.7881379 22.017617,17.7881379 C24.6730201,17.7881379 26.5947395,19.7967402 26.5947395,22.3817604 C26.5947395,24.9656634 24.6741373,26.9731486 22.017617,26.9731486 L22.015417,26.9731486 L22.0154256,26.9731486 Z M22.0154256,19.6251372 L22.0154255,19.6251372 C20.503448,19.6454077 19.2845392,20.8696926 19.2709223,22.3817432 C19.2709223,23.857945 20.4974238,25.1361464 22.0176255,25.1361464 C23.5356273,25.1361464 24.7643287,23.857945 24.7643287,22.3817432 C24.7643287,20.9044415 23.5356273,19.62294 22.0176255,19.6251372 L22.0154255,19.6251372 L22.0154256,19.6251372 Z" id="形状" fill="#0584FF"></path>
            </g>
        </g>
    </g>
</svg>