<?xml version="1.0" encoding="UTF-8"?>
<svg width="44px" height="44px" viewBox="0 0 44 44" version="1.1" xmlns="http://www.w3.org/2000/svg" xmlns:xlink="http://www.w3.org/1999/xlink">
    <!-- Generator: Sketch 59.1 (86144) - https://sketch.com -->
    <title>代发</title>
    <desc>Created with Sketch.</desc>
    <g id="页面-1" stroke="none" stroke-width="1" fill="none" fill-rule="evenodd">
        <g id="普通版本提交成功" transform="translate(-938.000000, -923.000000)">
            <g id="代发" transform="translate(938.000000, 923.000000)">
                <g id="编组-6备份-2" fill="#DAEDFE" fill-rule="nonzero">
                    <g id="曝光备份">
                        <path d="M22.0000266,44.0000512 L22.0000256,44.0000512 C9.84973802,44.0000512 0,34.1503132 0,22.0000256 C0,9.84973802 9.84973802,0 22.0000256,0 C34.1506569,0 44.0000512,9.84939427 44.0000512,22.0000256 C44.0000512,34.1506569 34.1506569,44.0000512 22.0000256,44.0000512 L22.0000266,44.0000512 Z" id="路径"></path>
                    </g>
                </g>
                <g id="发布" transform="translate(12.000000, 12.000000)">
                    <polygon id="路径" points="0 0 20.0000233 0 20.0000233 20.0000233 0 20.0000233"></polygon>
                    <path d="M17.9708608,1.79333607 C17.6691944,1.6433359 17.3671101,1.6433359 17.2162759,1.79333607 L2.11959817,9.28709479 C1.81751383,9.28709479 1.66668163,9.58709514 1.66668163,9.88667947 C1.66668163,10.1866798 1.8175152,10.4862642 1.96876596,10.4862642 L5.59168033,12.7341769 C5.89376467,12.8841771 6.19584705,12.8841771 6.49751537,12.5841768 L14.4987747,5.39041838 L14.800859,5.54041856 L7.55419043,13.1837673 C7.40335686,13.3337675 7.40335686,13.4837676 7.40335686,13.6333518 L7.40335686,16.9304455 C7.40335686,17.2304458 7.55419043,17.5304462 7.8562734,17.6800303 C8.15835774,17.8300305 8.46044012,17.6800303 8.61127428,17.5300302 L10.4225264,15.7316941 L14.0458704,18.129607 C14.196704,18.2796072 14.3479548,18.2796072 14.498787,18.2796072 L14.8008713,18.2796072 C15.1025377,18.129607 15.2537879,17.9796069 15.2537879,17.6800225 L18.2729515,2.69209493 C18.2729515,2.24209441 18.2729515,1.94251007 17.9708672,1.79292787 L17.9708608,1.79333607 Z" id="路径" fill="#0584FF" fill-rule="nonzero"></path>
                </g>
            </g>
        </g>
    </g>
</svg>