<?xml version="1.0" encoding="UTF-8"?>
<svg width="130px" height="98px" viewBox="0 0 130 98" version="1.1" xmlns="http://www.w3.org/2000/svg" xmlns:xlink="http://www.w3.org/1999/xlink">
    <!-- Generator: Sketch 57.1 (83088) - https://sketch.com -->
    <title>大上传</title>
    <desc>Created with Sketch.</desc>
    <g id="发布界面调整" stroke="none" stroke-width="1" fill="none" fill-rule="evenodd" opacity="0.197800409">
        <g id="发布作品--空状态---2-3" transform="translate(-895.000000, -411.000000)" fill="#168DD7" fill-rule="nonzero">
            <g id="编组-2" transform="translate(887.000000, 411.000000)">
                <g id="上传" transform="translate(8.000000, 0.000000)">
                    <path d="M64.7216296,0 C80.7564422,0 94.0674481,12.3510844 96.6348233,28.5584459 L97.0824813,28.5584459 C114.956456,28.5584459 129.443259,43.8920656 129.443259,62.8177351 C129.443259,79.796352 117.78256,93.8895161 102.47596,96.6078241 L102.47596,97.0824491 L70.1151823,97.0824491 L70.115,69 L76.1986397,69 C76.7508356,69 77.290927,68.8476244 77.7601639,68.5615725 L77.9326917,68.4480734 C79.2847254,67.490383 79.6044036,65.6179816 78.6467132,64.265948 L78.6467132,64.265948 L67.4480734,48.4561037 C67.2521194,48.1794627 67.010693,47.9380363 66.734052,47.7420823 C65.3820184,46.7843918 63.509617,47.1040701 62.5519266,48.4561037 L62.5519266,48.4561037 L51.3532868,64.265948 C50.9942107,64.7728791 50.8013603,65.3787796 50.8013603,66 C50.8013603,67.6568542 52.144506,69 53.8013603,69 L53.8013603,69 L59.328,69 L59.3280768,97.0824491 L32.3607778,97.0824491 C14.486803,97.0824491 0,81.7434046 0,62.8177351 C0,43.8920656 14.4868978,28.5530419 32.3607778,28.5530419 L32.8084359,28.5530419 C35.3757257,12.3510844 48.6868169,0 64.7216296,0 Z" id="形状结合"></path>
                </g>
            </g>
        </g>
    </g>
</svg>