<?xml version="1.0" encoding="UTF-8"?>
<svg width="44px" height="44px" viewBox="0 0 44 44" version="1.1" xmlns="http://www.w3.org/2000/svg" xmlns:xlink="http://www.w3.org/1999/xlink">
    <!-- Generator: Sketch 59.1 (86144) - https://sketch.com -->
    <title>编组 6</title>
    <desc>Created with Sketch.</desc>
    <g id="页面-1" stroke="none" stroke-width="1" fill="none" fill-rule="evenodd">
        <g id="普通版本提交成功" transform="translate(-938.000000, -725.000000)" fill-rule="nonzero">
            <g id="编组-6" transform="translate(938.000000, 725.000000)">
                <g id="曝光备份" fill="#DAEDFE">
                    <path d="M22.0000266,44.0000512 L22.0000256,44.0000512 C9.84973802,44.0000512 0,34.1503132 0,22.0000256 C0,9.84973802 9.84973802,0 22.0000256,0 C34.1506569,0 44.0000512,9.84939427 44.0000512,22.0000256 C44.0000512,34.1506569 34.1506569,44.0000512 22.0000256,44.0000512 L22.0000266,44.0000512 Z" id="路径"></path>
                </g>
                <g id="上传" transform="translate(11.000000, 14.000000)" fill="#0584FF">
                    <path d="M17.7670166,5.29696078 C16.6689004,2.4795825 14.0051897,0.491818091 10.8939603,0.491818091 C6.94247179,0.491818091 3.71769384,3.68987222 3.4905968,7.72153215 C1.52689492,7.95264331 0,9.67725015 0,11.7732183 C0,14.0268238 1.76465931,15.8543118 3.94079894,15.8543118 L9.66098302,15.8543118 L9.66098302,12.2581282 L6.80089098,12.2581282 C6.52167694,11.9789141 6.52167694,11.52472 6.80089098,11.2455282 L10.8498715,6.80380729 C11.1290855,6.52459326 11.5819268,6.52459326 11.859788,6.80380729 L15.9101213,11.2455504 C16.1880047,11.5247644 16.1880047,11.9789585 15.9101213,12.2581503 L13.0500958,12.2581503 L13.0500958,15.8543118 L17.6133935,15.8543118 C20.4293968,15.8543118 22.709726,13.4884663 22.709726,10.5736181 C22.709726,7.7108648 20.5108989,5.38245483 17.7670388,5.2969386 L17.7670166,5.29696078 Z" id="路径"></path>
                </g>
            </g>
        </g>
    </g>
</svg>