<?xml version="1.0" encoding="UTF-8"?>
<svg width="25px" height="24px" viewBox="0 0 25 24" version="1.1" xmlns="http://www.w3.org/2000/svg" xmlns:xlink="http://www.w3.org/1999/xlink">
    <!-- Generator: Sketch 56.1 (81669) - https://sketch.com -->
    <title>分组 4</title>
    <desc>Created with Sketch.</desc>
    <defs>
        <filter x="-16.7%" y="-17.4%" width="133.3%" height="134.8%" filterUnits="objectBoundingBox" id="filter-1">
            <feOffset dx="0" dy="1" in="SourceAlpha" result="shadowOffsetOuter1"></feOffset>
            <feGaussianBlur stdDeviation="0.5" in="shadowOffsetOuter1" result="shadowBlurOuter1"></feGaussianBlur>
            <feColorMatrix values="0 0 0 0 0.199416893   0 0 0 0 0.177947658   0 0 0 0 0.177947658  0 0 0 0.5 0" type="matrix" in="shadowBlurOuter1" result="shadowMatrixOuter1"></feColorMatrix>
            <feMerge>
                <feMergeNode in="shadowMatrixOuter1"></feMergeNode>
                <feMergeNode in="SourceGraphic"></feMergeNode>
            </feMerge>
        </filter>
    </defs>
    <g id="Page-1" stroke="none" stroke-width="1" fill="none" fill-rule="evenodd">
        <g id="图片所有水印预览图样式-参考" transform="translate(-1526.000000, -807.000000)" fill="#FFFFFF">
            <g id="分组-31" transform="translate(1501.000000, 103.000000)">
                <g id="分组-8" transform="translate(26.000000, 704.000000)">
                    <g id="Group-2-Copy-5" filter="url(#filter-1)">
                        <g id="分组-4" transform="translate(-0.000135, -0.000139)">
                            <path d="M9.58040081,20.9436544 L11.2349862,18.6528463 L12.8902895,20.9436544 C13.452827,21.7227819 14.537336,21.8957207 15.3120366,21.3296077 C16.0867373,20.7631337 16.2586935,19.6727884 15.6957971,18.8936609 L12.6382784,14.6611718 C12.6199699,14.63626 12.5969946,14.6174858 12.5783271,14.5936571 C12.5402741,14.5463607 12.5007852,14.5008694 12.4573474,14.4571834 C12.4139096,14.4134974 12.3686769,14.3737828 12.3216492,14.3355124 C12.2979558,14.3163772 12.2792883,14.2932706 12.254518,14.2752185 C12.2354915,14.2614989 12.2143111,14.253195 12.1945667,14.2401975 C12.1421541,14.2048154 12.0879466,14.1741269 12.0326621,14.1452436 C11.9849165,14.1203317 11.9371708,14.0961419 11.8883481,14.0759236 C11.8355766,14.0542611 11.782446,14.0372922 11.7278796,14.0210453 C11.6733131,14.0047985 11.6194645,13.9892737 11.5641801,13.9784424 C11.5106905,13.9683333 11.457201,13.9625566 11.4026345,13.957141 C11.3466321,13.9517254 11.2913476,13.9470318 11.2349862,13.9470318 C11.1789837,13.9470318 11.1236992,13.9517254 11.0676968,13.957141 C11.0134893,13.9625566 10.9599997,13.9683333 10.9061512,13.9784424 C10.8508668,13.9892737 10.7973772,14.0047985 10.7424517,14.0210453 C10.6882442,14.0372922 10.6351137,14.0542611 10.5823422,14.0759236 C10.5331605,14.0961419 10.4854148,14.1203317 10.4380281,14.1452436 C10.3820257,14.1741269 10.3281772,14.2048154 10.2757646,14.2401975 C10.2563792,14.253195 10.2348397,14.2614989 10.2161723,14.2752185 C10.191043,14.2932706 10.1723755,14.3163772 10.1490411,14.3355124 C10.1020134,14.3737828 10.0567807,14.4134974 10.0133429,14.4571834 C9.96990506,14.5008694 9.93041615,14.5463607 9.8923632,14.5936571 C9.87297774,14.6174858 9.85036136,14.63626 9.83241185,14.6611718 L6.77489323,18.8936609 C6.21199676,19.6727884 6.38359402,20.7631337 7.15829465,21.3296077 C7.93299527,21.8957207 9.01750434,21.7227819 9.58040081,20.9436544" id="Fill-38"></path>
                            <path d="M19.8652516,18.0024301 L19.8652516,18.0024301 C20.6399522,17.4363171 20.8119085,16.3456108 20.249012,15.5664833 L18.5940677,13.2760363 L21.2717748,12.4008717 C22.1825327,12.1033736 22.6811699,11.1195356 22.3853621,10.2032123 C22.0888362,9.28761119 21.1109472,8.78612459 20.2001894,9.08362276 L15.2525879,10.7003664 C15.1926365,10.7202237 15.1348391,10.7429693 15.0788367,10.7682422 C15.0723749,10.7711306 15.06699,10.7743799 15.0605282,10.7772683 C14.957857,10.8252868 14.8616477,10.8816093 14.7719002,10.9465967 C14.7715412,10.9469578 14.7704642,10.9473188 14.7693872,10.9480409 C14.7675923,10.9494851 14.7661563,10.9516513 14.7640024,10.9530955 C14.6731779,11.0198881 14.5902512,11.0946237 14.5152222,11.1762191 C14.5080424,11.183801 14.5022986,11.1917439 14.4954778,11.1996868 C14.4276287,11.2762276 14.3662413,11.358184 14.3127518,11.445195 C14.305572,11.4574704 14.2991102,11.4697458 14.2922894,11.4816602 C14.2427488,11.567227 14.2000289,11.6564042 14.1652069,11.7491919 C14.160899,11.7607452 14.1576681,11.7722986 14.1533602,11.7842129 C14.1203331,11.8788058 14.0948448,11.976287 14.0786903,12.0759344 C14.0768953,12.0849605 14.0761773,12.0939865 14.0747414,12.1030125 C14.0600228,12.2037431 14.053202,12.3066399 14.0560739,12.4102588 C14.0560739,12.4196459 14.0571509,12.4286719 14.0578689,12.438059 C14.0625357,12.5391506 14.0747414,12.6409643 14.0977168,12.742417 C14.1002297,12.7543313 14.1041786,12.7662457 14.1074095,12.7781601 C14.1171022,12.8182357 14.126795,12.8579502 14.1393596,12.8980258 C14.1587451,12.9579587 14.1817204,13.0160864 14.2064908,13.0727699 C14.2093627,13.0789076 14.2133116,13.0850453 14.2161835,13.091183 C14.2635702,13.1948019 14.3195726,13.291561 14.3838319,13.3810993 C14.3845498,13.3821824 14.3849088,13.3832656 14.3856268,13.3839877 L17.4435044,17.6164768 C18.0060419,18.3956042 19.090551,18.5685431 19.8652516,18.0024301" id="Fill-39"></path>
                            <path d="M13.3515558,8.57004127 C13.3641205,8.57581794 13.3763262,8.58195564 13.3892498,8.58737126 C13.4833052,8.62636374 13.5809505,8.65633018 13.6807498,8.67835371 C13.6908015,8.68051996 13.7004942,8.68304725 13.7105459,8.6852135 C13.8189609,8.70723703 13.9298889,8.71842932 14.0422528,8.7191514 C14.0447657,8.7191514 14.0469197,8.71987348 14.0490736,8.71987348 C14.0505096,8.71987348 14.0515865,8.71951244 14.0526635,8.71951244 C14.1625145,8.7191514 14.2734424,8.70759807 14.3843703,8.68557454 C14.3911912,8.68413038 14.398371,8.68376933 14.4051918,8.68232517 C14.4655021,8.66932768 14.5254535,8.65380289 14.5854048,8.63430665 L19.5326473,7.01756297 C20.4434051,6.7200648 20.9420424,5.73622681 20.6458756,4.82026461 C20.3497087,3.90430241 19.3718197,3.40281581 18.4607029,3.70067502 L15.7833547,4.5754785 L15.7833547,1.74419132 C15.7833547,0.78093269 15.0068592,-2.77111667e-13 14.0490736,-2.77111667e-13 C13.091647,-2.77111667e-13 12.3151514,0.78093269 12.3151514,1.74419132 L12.3151514,6.97568216 C12.3151514,6.97676528 12.3155104,6.97784841 12.3155104,6.97893153 C12.3158694,7.08941022 12.3269981,7.20097203 12.3492555,7.31289489 C12.3506915,7.31975468 12.3510505,7.32661446 12.3524864,7.33347425 C12.3654101,7.39412922 12.3808466,7.45442314 12.4002321,7.51471707 C12.4131557,7.55443163 12.4289513,7.59234098 12.4443879,7.63061138 C12.4486958,7.64216471 12.4522857,7.65371803 12.4573115,7.66491032 C12.4982364,7.76058631 12.547777,7.85012459 12.6027025,7.93460829 C12.6080874,7.94255121 12.6123952,7.95085516 12.6177801,7.95843703 C12.6759365,8.0443649 12.7416317,8.12307194 12.8127117,8.19600231 C12.8191735,8.20250106 12.8249174,8.20899981 12.8313792,8.21549855 C12.9028182,8.28662372 12.9807191,8.35052806 13.0625688,8.40757261 C13.0729795,8.4144324 13.0823133,8.42165323 13.092365,8.42851302 C13.1745737,8.48339132 13.2614493,8.53032671 13.3515558,8.57004127" id="Fill-40"></path>
                            <path d="M8.08624814,8.68568285 C8.19717608,8.70770638 8.30774503,8.71889867 8.41795499,8.71925971 C8.41903196,8.71925971 8.42010893,8.71962075 8.4211859,8.71962075 C8.42333984,8.71962075 8.42549378,8.71889867 8.42800671,8.71889867 C8.5407296,8.71853763 8.65165754,8.70734534 8.76007255,8.68532181 C8.77012427,8.68315556 8.779817,8.68026723 8.78986872,8.67810098 C8.88966797,8.65607745 8.98731327,8.62611101 9.08100969,8.58747958 C9.09429232,8.58170291 9.10649799,8.57556521 9.11906264,8.57014959 C9.20916915,8.53007398 9.29604476,8.48313859 9.37825349,8.42862133 C9.38830521,8.42176154 9.39763895,8.41454071 9.40804966,8.40731988 C9.48989941,8.35027533 9.56744127,8.28673203 9.63923929,8.21560687 C9.64570111,8.20910812 9.65144495,8.20224833 9.65790677,8.19611063 C9.72898681,8.12318025 9.794682,8.04447321 9.8524794,7.95854534 C9.85822324,7.95060243 9.86253112,7.94229848 9.86791598,7.93435556 C9.92284146,7.8502329 9.97238209,7.76069462 10.012948,7.66501863 C10.0179738,7.65382635 10.0219227,7.64191198 10.0262306,7.63035865 C10.0416672,7.5924493 10.0574627,7.55453994 10.0700274,7.51446434 C10.0897719,7.45453146 10.1052084,7.39387649 10.1177731,7.33358257 C10.119209,7.32672278 10.119927,7.31950195 10.121363,7.31264216 C10.1432614,7.20108035 10.1547491,7.08951853 10.1547491,6.97903985 C10.1547491,6.97795672 10.1551081,6.9768736 10.1551081,6.97579047 L10.1551081,1.74393859 C10.1551081,0.780679961 9.37897147,0.00010831244 8.4211859,0.00010831244 C7.46375932,0.00010831244 6.68726374,0.780679961 6.68726374,1.74393859 L6.68726374,4.57558681 L4.00991562,3.7004223 C3.09879877,3.40292413 2.12055076,3.90404968 1.82474292,4.82001188 C1.5285761,5.73633512 2.02721334,6.72017311 2.9379712,7.01767128 L7.88521369,8.63405392 C7.94516503,8.65391121 8.00511638,8.66943599 8.06542671,8.68207244 C8.07224753,8.68387765 8.07906834,8.68423869 8.08624814,8.68568285" id="Fill-41"></path>
                            <path d="M5.02711406,17.6165129 L8.08499167,13.3840238 C8.08570965,13.3829406 8.08606864,13.3818575 8.08642763,13.3811354 C8.15068686,13.2915971 8.20704831,13.194477 8.254435,13.0912191 C8.25730692,13.0850814 8.26089682,13.0789437 8.26376874,13.072806 C8.28889805,13.0161225 8.31151442,12.9579948 8.33089989,12.8980619 C8.34382353,12.8579863 8.35351626,12.8179107 8.363209,12.7781962 C8.36608092,12.7659208 8.3703888,12.7543674 8.37254274,12.7424531 C8.3958771,12.6410004 8.40808276,12.5391867 8.41274963,12.4384562 C8.41310862,12.4290691 8.41418559,12.419321 8.41454458,12.4099339 C8.4174165,12.306315 8.41059569,12.2037792 8.3958771,12.1030486 C8.39444114,12.0940226 8.39336416,12.0849966 8.3919282,12.0759705 C8.37541466,11.975962 8.35028535,11.8784808 8.31689927,11.783888 C8.31295038,11.7723347 8.30971947,11.7607813 8.30541159,11.749228 C8.27058955,11.6564403 8.22786973,11.5676241 8.1783291,11.4820573 C8.17150829,11.4697819 8.16504647,11.4571455 8.15786666,11.4452311 C8.10437714,11.3582201 8.04298983,11.2762637 7.97514071,11.1993619 C7.96831989,11.19178 7.96221706,11.1838371 7.95539625,11.1762552 C7.88036732,11.0946598 7.79708162,11.0199242 7.70625713,10.9527705 C7.70446217,10.9513264 7.70302621,10.9495212 7.70123126,10.948077 C7.70015429,10.9473549 7.69907732,10.9469939 7.69835934,10.9466328 C7.60897081,10.8816454 7.51276146,10.8249619 7.40973131,10.7773044 C7.40362848,10.774416 7.39788463,10.7711667 7.3917818,10.7682783 C7.33577935,10.7430054 7.27798194,10.7198988 7.2180306,10.7004025 L2.27042912,9.08365886 C1.35967126,8.78616069 0.381423251,9.28764729 0.0852564239,10.2032484 C-0.210551413,11.1192106 0.288085827,12.1030486 1.19884369,12.4009078 L3.87619181,13.2760724 L2.22160647,15.5665194 C1.65835101,16.3456469 1.83030727,17.4363532 2.60500789,18.0024662 C3.37970851,18.5685792 4.46421759,18.3956403 5.02711406,17.6165129" id="Fill-42"></path>
                            <path d="M11.2351297,12.2250446 C10.4920203,12.2250446 9.8889169,11.6188559 9.8889169,10.8711391 C9.8889169,10.1234222 10.4920203,9.51723356 11.2351297,9.51723356 C11.9785982,9.51723356 12.5813426,10.1234222 12.5813426,10.8711391 C12.5813426,11.6188559 11.9785982,12.2250446 11.2351297,12.2250446" id="Fill-43"></path>
                        </g>
                    </g>
                </g>
            </g>
        </g>
    </g>
</svg>