<?xml version="1.0" encoding="UTF-8"?>
<svg width="63px" height="38px" viewBox="0 0 63 38" version="1.1" xmlns="http://www.w3.org/2000/svg" xmlns:xlink="http://www.w3.org/1999/xlink">
    <!-- Generator: Sketch 56.1 (81669) - https://sketch.com -->
    <title>2</title>
    <desc>Created with Sketch.</desc>
    <defs>
        <path d="M61.0823827,13.2150877 C61.1099563,13.3115952 61.1375299,13.3805291 61.1375299,13.449463 C61.2064638,14.4421112 61.0548092,15.4071859 60.7377132,16.3309002 C60.5998454,16.7307168 60.434404,17.1029599 60.2276023,17.475203 C59.9794403,17.9301668 59.6071972,18.2748363 59.0832995,18.3851305 C59.0281524,18.3989173 58.9592185,18.4402776 58.9316449,18.481638 C58.8489243,18.7022265 58.7248432,18.922815 58.7248432,19.1434035 C58.6834829,20.3842137 58.5731886,21.5974504 58.2836662,22.8106871 C58.2698795,22.8520475 58.2698795,22.8934078 58.3112398,22.948555 C58.3388134,22.879621 58.3801737,22.8106871 58.3939605,22.7279665 C58.5594019,21.94212 58.8075639,21.183847 59.303888,20.5220815 C59.9105064,19.7224483 60.6412058,19.0882563 61.6200672,18.7573736 C61.6476408,18.7435868 61.6752143,18.7435868 61.7027879,18.7298 C61.7165747,18.7298 61.7303614,18.7298 61.7855086,18.7435868 C61.7855086,18.8814546 61.7992953,19.0331092 61.757935,19.170977 C61.4684126,20.3842137 60.9583017,21.4733694 60.0897345,22.3695102 C59.6899179,22.7831136 59.2073806,23.0450624 58.5869754,22.9899153 C58.5318283,22.9899153 58.4353208,23.0174889 58.4077473,23.0588492 C58.2836662,23.2656509 58.1320117,23.4724526 58.049291,23.7068279 C57.6494743,24.9476382 57.166937,26.1470881 56.5327451,27.2776041 C56.4913848,27.346538 56.4638112,27.4292587 56.4224508,27.4981926 C56.4500244,27.5119794 56.4638112,27.5257662 56.4913848,27.5395529 C56.5603187,27.4430455 56.6430393,27.3603248 56.6843997,27.2638173 C57.0014956,26.6434122 57.3737387,26.0781542 57.9114232,25.6231904 C58.6834829,24.9614249 59.5658369,24.6029686 60.5998454,24.6167554 C60.875581,24.6167554 60.8893678,24.644329 60.8066471,24.9200646 C60.6549925,25.3888151 60.3930437,25.8024186 60.0897345,26.1884484 C59.6623443,26.7261329 59.1935938,27.2362438 58.5594019,27.5533397 C57.9803571,27.8428621 57.3737387,27.9669431 56.7395468,27.663634 C56.6981865,27.6498472 56.6430393,27.6360604 56.6154658,27.6498472 C56.4362376,27.787715 56.2018624,27.8842225 56.0915681,28.0634506 C55.4573762,29.0560988 54.7404636,29.9798131 53.89947,30.8208068 C53.8718964,30.8483803 53.8443228,30.8759539 53.8167493,30.9173142 C53.8029625,30.931101 53.8167493,30.9448878 53.8029625,31.0413953 C53.9270435,30.9448878 54.023551,30.8897407 54.0924849,30.80702 C54.5612354,30.2969091 55.0989199,29.8695189 55.7744722,29.6627172 C56.7946939,29.359408 57.7873421,29.4697022 58.7662036,29.8833057 C58.7937771,29.8970924 58.8075639,29.9108792 58.8764978,29.9660264 C58.73863,30.1314677 58.6283358,30.3106959 58.4766812,30.4485637 C57.5253933,31.2757705 56.4500244,31.7996682 55.1678538,31.7720946 C54.7818239,31.7583079 54.4509412,31.62044 54.1614188,31.372278 C53.9132568,31.1516895 53.6099476,31.1379027 53.334212,31.372278 C52.6035126,32.0202567 51.8038793,32.5579411 50.9353121,33.0129049 L50.3562673,33.3024273 C50.3700541,33.3300009 50.3700541,33.3437876 50.3838409,33.3713612 C50.4803483,33.3437876 50.5768558,33.3300009 50.6457897,33.2886405 C51.1145403,33.0266917 51.5970776,32.8061032 52.134762,32.7371693 C53.2377045,32.5993015 54.2027791,32.943971 55.0989199,33.5643761 C55.2505745,33.6746704 55.4022291,33.7987514 55.595244,33.950406 C55.3884423,34.0882738 55.2367877,34.2261416 55.0437728,34.3088623 C54.0097642,34.7638261 52.9343953,34.9292674 51.8176661,34.6259582 C51.2799816,34.4743037 50.8250179,34.198568 50.5492822,33.7022439 C50.4527748,33.5230158 50.0529581,33.4127215 49.8323696,33.4954422 C49.1016703,33.7849646 48.3296105,33.9779796 47.5575508,34.1020606 C47.4886169,34.1158474 47.419683,34.1158474 47.3369623,34.1158474 C47.3093888,33.9090456 47.3921095,33.7987514 47.5851244,33.7711778 C48.3709709,33.6470968 49.1154571,33.4265083 49.8461564,33.1369859 C50.2183995,32.9853313 50.3700541,32.7647428 50.314907,32.3649262 C50.2183995,31.5652929 50.3700541,30.80702 50.7147236,30.0763206 C51.1007535,29.2904741 51.6660115,28.6838557 52.4104976,28.2564655 C52.4656448,28.228892 52.5345787,28.2013184 52.6310861,28.1461713 C52.6172994,28.2978259 52.6035126,28.4081201 52.5897258,28.5184144 C52.4380712,29.3869816 52.3553505,30.2555487 52.0658281,31.0965424 C51.8452396,31.7307343 51.4592098,32.2132716 50.8663782,32.5303676 C50.7836575,32.5717279 50.7009368,32.6130883 50.6044294,32.626875 C50.4114144,32.626875 50.3838409,32.7233825 50.3838409,32.9163974 C50.4527748,32.8888239 50.5079219,32.8750371 50.563069,32.8474635 C51.6797983,32.3235659 52.6724465,31.6342268 53.5685872,30.7794464 C53.8029625,30.5450711 53.7616022,30.2141884 53.6650947,29.9660264 C53.2377045,28.8217236 53.3066384,27.6774207 53.6926683,26.5469047 C53.8856832,25.9678599 54.2027791,25.4439623 54.6025958,24.9752117 C54.6439561,24.9338514 54.6853165,24.9062778 54.7542504,24.8373439 C54.7956107,25.1544399 54.8369711,25.4439623 54.8645446,25.7196979 C54.9196917,26.2711691 54.9886256,26.8226403 55.0161992,27.3741116 C55.0575596,28.1323845 55.0024124,28.8906575 54.5336619,29.5248494 C54.3957941,29.7178643 54.2165659,29.9108792 54.0097642,30.048747 C53.8443228,30.1728281 53.8167493,30.2831223 53.8718964,30.5037108 C54.0786981,30.2693355 54.2717131,30.0763206 54.4509412,29.8695189 C55.1127067,29.1112459 55.7055382,28.3116127 56.1742888,27.4292587 C56.3121566,27.1673099 56.2294359,26.8502139 56.0777813,26.6296254 C54.9748389,24.9752117 55.0024124,23.2518641 55.719325,21.4733694 C55.7331118,21.4320091 55.7606854,21.4044355 55.7744722,21.3630752 C55.7744722,21.3492884 55.8020457,21.3492884 55.8296193,21.3355016 C56.2432227,22.4384441 56.7946939,23.4862394 56.9049882,24.6719025 C56.9739221,25.3888151 56.8636278,26.0643674 56.3810905,26.6434122 C56.3121566,26.7261329 56.3397302,26.8777875 56.3259434,26.9880817 C56.3535169,27.0018685 56.3810905,27.0018685 56.3948773,27.0156553 L56.6430393,26.5606915 C57.1945106,25.4026019 57.6356876,24.2169388 57.9389967,22.9623417 C57.9527835,22.9071946 57.9665703,22.8382607 57.9527835,22.7969004 C57.8149157,22.5211647 57.732195,22.2178556 57.4288858,22.0248406 C56.8636278,21.6388108 56.5465319,21.0459792 56.2707963,20.4255741 C55.8296193,19.4191391 55.7744722,18.3851305 55.9261267,17.3235484 C55.9261267,17.2959748 55.9399135,17.2684013 55.9537003,17.2408277 C55.9812739,17.2546145 56.0088474,17.2546145 56.0088474,17.2684013 C56.5051715,17.9577403 57.042856,18.6195058 57.5116065,19.3364184 C57.9665703,20.0119707 58.2285191,20.7564568 58.1044381,21.5836637 C58.0768645,21.749105 58.0355042,21.9283332 57.9527835,22.066201 C57.8149157,22.2592159 57.9114232,22.3832969 58.049291,22.5900987 C58.1320117,22.1489217 58.2285191,21.7628918 58.2698795,21.3768619 C58.3663869,20.3980005 58.4215341,19.4329259 58.490468,18.4540644 C58.5042547,18.2610495 58.2147323,17.8060857 58.049291,17.7509386 C57.1945106,17.4889898 56.6430393,16.8685846 56.2018624,16.1378853 C55.7331118,15.3658255 55.5125233,14.5248319 55.471163,13.6424779 L55.471163,13.4908234 C55.471163,13.4770366 55.4849498,13.4632498 55.4987365,13.4218895 C55.6090308,13.5183969 55.7331118,13.6011176 55.8434061,13.6976251 C56.3397302,14.1112285 56.8498411,14.5110451 57.3185916,14.9522221 C57.8838496,15.4899066 58.2423059,16.151672 58.297453,16.9513053 C58.3112398,17.158107 58.297453,17.3649087 58.2698795,17.5579237 C58.2285191,17.7509386 58.3250266,17.8336593 58.490468,17.9715271 C58.490468,17.7509386 58.5042547,17.5854972 58.490468,17.4200559 C58.4077473,16.1930324 58.2698795,14.9797957 57.9803571,13.7803458 C57.8976364,13.4356762 57.608114,13.201301 57.2634445,13.201301 C56.4913848,13.1875142 55.8985532,12.8014843 55.3746555,12.3051602 C54.7404636,11.7123286 54.3682205,10.9678425 54.1062717,10.1544224 C54.1062717,10.1406356 54.0924849,10.1130621 54.0924849,10.0854885 C54.0924849,10.0717017 54.1062717,10.057915 54.1062717,10.0441282 C54.1200585,10.0441282 54.1338452,10.0303414 54.147632,10.0303414 C54.8645446,10.3336506 55.6090308,10.6093862 56.3121566,10.9540557 C56.9325617,11.2711517 57.3875255,11.7674758 57.5391801,12.4706016 C57.5667536,12.6222562 57.5943272,12.7739108 57.5805404,12.9393521 C57.5667536,13.1185803 57.6632611,13.1875142 57.8287025,13.2564481 C57.8287025,13.201301 57.8424893,13.1461538 57.8287025,13.1047935 C57.4978197,11.87777 57.0566428,10.6921069 56.5051715,9.54780406 C56.4362376,9.40993626 56.0226342,9.21692133 55.8709796,9.27206845 C54.8231843,9.60295119 53.9684039,9.21692133 53.1825574,8.56894263 C52.7965275,8.25184667 52.4794316,7.85203003 52.2174827,7.38327949 C52.3691373,7.38327949 52.5070051,7.36949271 52.6310861,7.38327949 C53.3204252,7.43842661 54.0097642,7.41085305 54.6715297,7.64522832 C55.3470819,7.87960359 55.8296193,8.29320702 55.9950606,9.01011961 C56.036421,9.18934776 56.160502,9.18934776 56.3259434,9.23070811 C56.284583,9.13420064 56.2707963,9.07905352 56.2432227,9.0239064 C55.7744722,8.11397887 55.2367877,7.24541168 54.6163826,6.43199161 C54.4923015,6.28033703 54.1200585,6.18382956 53.9546171,6.26655025 C52.8378879,6.84559504 51.8176661,6.59743298 50.8663782,5.8667336 C50.6182162,5.68750545 50.4252012,5.4393434 50.2046127,5.21875491 C50.2183995,5.19118135 50.2321863,5.17739457 50.2459731,5.14982101 C50.3562673,5.13603422 50.4803483,5.10846066 50.5906426,5.09467388 C51.1834742,4.99816642 51.7763057,4.84651183 52.3829241,4.91544573 C53.0998367,4.99816642 53.706455,5.26011525 54.023551,5.97702785 C54.0924849,6.12868244 54.1062717,6.12868244 54.3682205,6.0873221 C54.1062717,5.78401292 53.8856832,5.49449052 53.6237344,5.23254169 C53.2377045,4.84651183 52.8516746,4.47426875 52.451858,4.08823889 C52.3829241,4.03309176 52.3002034,3.97794464 52.2174827,3.96415786 C51.1696874,3.89522396 50.3838409,3.37132629 49.7910093,2.54411944 C49.4877001,2.13051602 49.2671116,1.66176548 49.1292438,1.16544137 C49.1154571,1.12408103 49.1154571,1.0689339 49.1016703,1 C49.4049794,1.11029425 49.6807151,1.20680171 49.9564507,1.30330918 C50.6182162,1.53768445 51.2661948,1.79963328 51.7763057,2.32353095 C52.1761224,2.73713437 52.4380712,3.19209814 52.3829241,3.78492971 C52.3829241,3.82629005 52.4104976,3.89522396 52.451858,3.92279752 C53.3479987,4.70864402 54.1338452,5.59099799 54.8507578,6.52849908 C54.8645446,6.55607264 54.905905,6.56985942 54.9196917,6.59743298 C54.9334785,6.5836462 54.9610521,6.5836462 54.9748389,6.56985942 C54.9196917,6.4457784 54.8921182,6.29412381 54.8093975,6.21140312 C53.9821907,5.31526237 53.582374,4.23989348 53.4996533,3.04044355 C53.458293,2.51654588 53.4996533,1.99264821 53.5134401,1.46875055 C53.5134401,1.38602986 53.5548005,1.31709596 53.5961608,1.16544137 C53.8718964,1.46875055 54.1200585,1.70312582 54.3268602,1.97886143 C54.905905,2.75092116 55.3332952,3.60570156 55.4435894,4.58456299 C55.5125233,5.17739457 55.4849498,5.74265258 55.0851331,6.23897668 C55.0575596,6.28033703 55.029986,6.34927093 55.0437728,6.39063127 C55.0713463,6.66636689 55.1127067,6.92831572 55.2919348,7.17647778 C55.9537003,8.07261852 56.4913848,9.05147996 56.9601353,10.057915 L57.042856,10.2233563 C57.0566428,10.2233563 57.0842163,10.2095695 57.0980031,10.2095695 C57.0704295,10.1130621 57.0704295,9.98898105 57.0290692,9.90626036 C56.4500244,8.89982537 56.2570095,7.81066969 56.3121566,6.66636689 C56.3535169,5.96324107 56.5189583,5.30147559 56.8360543,4.66728368 C56.8498411,4.62592334 56.8774146,4.59834978 56.918775,4.52941587 C56.9877089,4.63971012 57.0704295,4.7224308 57.1117899,4.81893827 C57.7184082,6.05974853 58.0217174,7.36949271 57.8976364,8.76195756 C57.856276,9.23070811 57.6632611,9.64431153 57.3185916,9.97519427 C57.2772313,10.0165546 57.2220841,10.0854885 57.2358709,10.1268489 C57.2358709,10.4025845 57.2220841,10.6645333 57.3323784,10.9402689 C57.7597686,11.9742775 58.0768645,13.0358596 58.2836662,14.1250153 C58.2836662,14.1388021 58.297453,14.1663756 58.3663869,14.1801624 C58.3663869,14.0698681 58.3939605,13.9457871 58.3801737,13.8354929 C58.297453,13.2150877 58.1457984,12.5946826 58.1182249,11.9742775 C58.0630778,10.6921069 58.490468,9.57537763 59.3314616,8.59651619 C59.3452484,8.58272941 59.3728219,8.58272941 59.4279691,8.54136907 C59.4831162,8.734384 59.5658369,8.91361215 59.6071972,9.10662708 C59.8553593,10.306077 59.8829328,11.5055269 59.5934104,12.6911901 C59.4693294,13.2426613 59.179807,13.6976251 58.6559093,13.9733607 C58.614549,13.9871475 58.5731886,14.0285078 58.5731886,14.0560814 C58.5318283,14.3180302 58.4215341,14.5937658 58.4628944,14.8419279 C58.6421225,16.0138042 58.7110565,17.1856806 58.73863,18.357557 C58.73863,18.3851305 58.7524168,18.4264909 58.7524168,18.4540644 C58.7662036,18.4540644 58.7937771,18.4540644 58.8075639,18.4678512 C58.8213507,18.3713437 58.862711,18.2610495 58.862711,18.164542 C58.8489243,17.475203 58.8351375,16.785864 59.0281524,16.1240985 C59.3728219,14.9797957 59.9794403,14.0285078 60.9583017,13.3115952 C60.9720885,13.2840216 61.0134488,13.2564481 61.0823827,13.2150877 Z M1.7053317,13.2150877 C1.67775814,13.3115952 1.65018458,13.3805291 1.65018458,13.449463 C1.58125068,14.4421112 1.73290526,15.4071859 2.05000122,16.3309002 C2.18786903,16.7307168 2.3533104,17.1029599 2.56011211,17.475203 C2.80827416,17.9301668 3.18051724,18.2748363 3.70441491,18.3851305 C3.75956203,18.3989173 3.82849594,18.4402776 3.8560695,18.481638 C3.93879018,18.7022265 4.06287121,18.922815 4.06287121,19.1434035 C4.10423155,20.3842137 4.2145258,21.5974504 4.5040482,22.8106871 C4.51783498,22.8520475 4.51783498,22.8934078 4.47647463,22.948555 C4.44890107,22.879621 4.40754073,22.8106871 4.39375395,22.7279665 C4.22831258,21.94212 3.98015053,21.183847 3.48382642,20.5220815 C2.87720807,19.7224483 2.14650869,19.0882563 1.16764725,18.7573736 C1.14007369,18.7435868 1.11250013,18.7435868 1.08492657,18.7298 C1.07113979,18.7298 1.05735301,18.7298 1.00220588,18.7435868 C1.00220588,18.8814546 0.988419104,19.0331092 1.02977945,19.170977 C1.31930184,20.3842137 1.82941273,21.4733694 2.69797992,22.3695102 C3.09779656,22.7831136 3.58033388,23.0450624 4.20073902,22.9899153 C4.25588614,22.9899153 4.35239361,23.0174889 4.37996717,23.0588492 C4.5040482,23.2656509 4.65570278,23.4724526 4.73842347,23.7068279 C5.13824011,24.9476382 5.62077744,26.1470881 6.25496935,27.2776041 C6.29632969,27.346538 6.32390325,27.4292587 6.3652636,27.4981926 C6.33769003,27.5119794 6.32390325,27.5257662 6.29632969,27.5395529 C6.22739579,27.4430455 6.1446751,27.3603248 6.10331476,27.2638173 C5.7862188,26.6434122 5.41397572,26.0781542 4.87629128,25.6231904 C4.10423155,24.9614249 3.22187759,24.6029686 2.18786903,24.6167554 C1.91213341,24.6167554 1.89834663,24.644329 1.98106732,24.9200646 C2.13272191,25.3888151 2.39467074,25.8024186 2.69797992,26.1884484 C3.12537012,26.7261329 3.59412067,27.2362438 4.22831258,27.5533397 C4.80735737,27.8428621 5.41397572,27.9669431 6.04816764,27.663634 C6.08952798,27.6498472 6.1446751,27.6360604 6.17224867,27.6498472 C6.35147682,27.787715 6.58585209,27.8842225 6.69614633,28.0634506 C7.33033825,29.0560988 8.04725085,29.9798131 8.88824447,30.8208068 C8.91581803,30.8483803 8.9433916,30.8759539 8.97096516,30.9173142 C8.98475194,30.931101 8.97096516,30.9448878 8.98475194,31.0413953 C8.86067091,30.9448878 8.76416345,30.8897407 8.69522954,30.80702 C8.226479,30.2969091 7.68879455,29.8695189 7.01324229,29.6627172 C5.99302052,29.359408 5.0003723,29.4697022 4.02151087,29.8833057 C3.99393731,29.8970924 3.98015053,29.9108792 3.91121662,29.9660264 C4.04908443,30.1314677 4.15937868,30.3106959 4.31103326,30.4485637 C5.26232114,31.2757705 6.33769003,31.7996682 7.61986064,31.7720946 C8.00589051,31.7583079 8.33677324,31.62044 8.62629564,31.372278 C8.87445769,31.1516895 9.17776687,31.1379027 9.45350248,31.372278 C10.1842019,32.0202567 10.9838351,32.5579411 11.8524023,33.0129049 L12.4314471,33.3024273 C12.4176603,33.3300009 12.4176603,33.3437876 12.4038736,33.3713612 C12.3073661,33.3437876 12.2108586,33.3300009 12.1419247,33.2886405 C11.6731742,33.0266917 11.1906369,32.8061032 10.6529524,32.7371693 C9.55000995,32.5993015 8.5849353,32.943971 7.68879455,33.5643761 C7.53713996,33.6746704 7.38548537,33.7987514 7.19247044,33.950406 C7.39927215,34.0882738 7.55092674,34.2261416 7.74394167,34.3088623 C8.77795023,34.7638261 9.85331913,34.9292674 10.9700484,34.6259582 C11.5077328,34.4743037 11.9626966,34.198568 12.2384322,33.7022439 C12.3349397,33.5230158 12.7347563,33.4127215 12.9553448,33.4954422 C13.6860442,33.7849646 14.4581039,33.9779796 15.2301636,34.1020606 C15.2990975,34.1158474 15.3680314,34.1158474 15.4507521,34.1158474 C15.4783257,33.9090456 15.395605,33.7987514 15.2025901,33.7711778 C14.4167436,33.6470968 13.6722574,33.4265083 12.941558,33.1369859 C12.5693149,32.9853313 12.4176603,32.7647428 12.4728075,32.3649262 C12.5693149,31.5652929 12.4176603,30.80702 12.0729908,30.0763206 C11.686961,29.2904741 11.121703,28.6838557 10.3772168,28.2564655 C10.3220697,28.228892 10.2531358,28.2013184 10.1566283,28.1461713 C10.1704151,28.2978259 10.1842019,28.4081201 10.1979886,28.5184144 C10.3496432,29.3869816 10.4323639,30.2555487 10.7218863,31.0965424 C10.9424748,31.7307343 11.3285047,32.2132716 11.9213362,32.5303676 C12.0040569,32.5717279 12.0867776,32.6130883 12.1832851,32.626875 C12.3763,32.626875 12.4038736,32.7233825 12.4038736,32.9163974 C12.3349397,32.8888239 12.2797925,32.8750371 12.2246454,32.8474635 C11.1079162,32.3235659 10.115268,31.6342268 9.21912721,30.7794464 C8.98475194,30.5450711 9.02611228,30.2141884 9.12261975,29.9660264 C9.55000995,28.8217236 9.48107605,27.6774207 9.09504618,26.5469047 C8.90203125,25.9678599 8.5849353,25.4439623 8.18511865,24.9752117 C8.14375831,24.9338514 8.10239797,24.9062778 8.03346407,24.8373439 C7.99210372,25.1544399 7.95074338,25.4439623 7.92316982,25.7196979 C7.8680227,26.2711691 7.79908879,26.8226403 7.77151523,27.3741116 C7.73015489,28.1323845 7.78530201,28.8906575 8.25405256,29.5248494 C8.39192037,29.7178643 8.57114852,29.9108792 8.77795023,30.048747 C8.9433916,30.1728281 8.97096516,30.2831223 8.91581803,30.5037108 C8.70901632,30.2693355 8.51600139,30.0763206 8.33677324,29.8695189 C7.67500777,29.1112459 7.0821762,28.3116127 6.61342565,27.4292587 C6.47555784,27.1673099 6.55827853,26.8502139 6.70993311,26.6296254 C7.81287557,24.9752117 7.78530201,23.2518641 7.06838941,21.4733694 C7.05460263,21.4320091 7.02702907,21.4044355 7.01324229,21.3630752 C7.01324229,21.3492884 6.98566873,21.3492884 6.95809517,21.3355016 C6.54449175,22.4384441 5.99302052,23.4862394 5.88272627,24.6719025 C5.81379237,25.3888151 5.92408661,26.0643674 6.40662394,26.6434122 C6.47555784,26.7261329 6.44798428,26.8777875 6.46177106,26.9880817 C6.4341975,27.0018685 6.40662394,27.0018685 6.39283716,27.0156553 L6.1446751,26.5606915 C5.59320387,25.4026019 5.15202689,24.2169388 4.84871771,22.9623417 C4.83493093,22.9071946 4.82114415,22.8382607 4.83493093,22.7969004 C4.97279874,22.5211647 5.05551943,22.2178556 5.3588286,22.0248406 C5.92408661,21.6388108 6.24118257,21.0459792 6.51691818,20.4255741 C6.95809517,19.4191391 7.01324229,18.3851305 6.8615877,17.3235484 C6.8615877,17.2959748 6.84780092,17.2684013 6.83401414,17.2408277 C6.80644058,17.2546145 6.77886702,17.2546145 6.77886702,17.2684013 C6.28254291,17.9577403 5.74485846,18.6195058 5.27610792,19.3364184 C4.82114415,20.0119707 4.55919532,20.7564568 4.68327634,21.5836637 C4.71084991,21.749105 4.75221025,21.9283332 4.83493093,22.066201 C4.97279874,22.2592159 4.87629128,22.3832969 4.73842347,22.5900987 C4.65570278,22.1489217 4.55919532,21.7628918 4.51783498,21.3768619 C4.42132751,20.3980005 4.36618039,19.4329259 4.29724648,18.4540644 C4.2834597,18.2610495 4.5729821,17.8060857 4.73842347,17.7509386 C5.59320387,17.4889898 6.1446751,16.8685846 6.58585209,16.1378853 C7.05460263,15.3658255 7.27519113,14.5248319 7.31655147,13.6424779 L7.31655147,13.4908234 C7.31655147,13.4770366 7.30276469,13.4632498 7.28897791,13.4218895 C7.17868366,13.5183969 7.05460263,13.6011176 6.94430839,13.6976251 C6.44798428,14.1112285 5.93787339,14.5110451 5.46912285,14.9522221 C4.90386484,15.4899066 4.54540854,16.151672 4.49026141,16.9513053 C4.47647463,17.158107 4.49026141,17.3649087 4.51783498,17.5579237 C4.55919532,17.7509386 4.46268785,17.8336593 4.29724648,17.9715271 C4.29724648,17.7509386 4.2834597,17.5854972 4.29724648,17.4200559 C4.37996717,16.1930324 4.51783498,14.9797957 4.80735737,13.7803458 C4.89007806,13.4356762 5.17960045,13.201301 5.52426997,13.201301 C6.29632969,13.1875142 6.88916126,12.8014843 7.41305893,12.3051602 C8.04725085,11.7123286 8.41949393,10.9678425 8.68144276,10.1544224 C8.68144276,10.1406356 8.69522954,10.1130621 8.69522954,10.0854885 C8.69522954,10.0717017 8.68144276,10.057915 8.68144276,10.0441282 C8.66765598,10.0441282 8.6538692,10.0303414 8.64008242,10.0303414 C7.92316982,10.3336506 7.17868366,10.6093862 6.47555784,10.9540557 C5.85515271,11.2711517 5.40018894,11.7674758 5.24853436,12.4706016 C5.22096079,12.6222562 5.19338723,12.7739108 5.20717401,12.9393521 C5.22096079,13.1185803 5.12445333,13.1875142 4.95901196,13.2564481 C4.95901196,13.201301 4.94522518,13.1461538 4.95901196,13.1047935 C5.2898947,11.87777 5.73107168,10.6921069 6.28254291,9.54780406 C6.35147682,9.40993626 6.76508024,9.21692133 6.91673483,9.27206845 C7.96453016,9.60295119 8.81931057,9.21692133 9.60515707,8.56894263 C9.99118693,8.25184667 10.3082829,7.85203003 10.5702317,7.38327949 C10.4185771,7.38327949 10.2807093,7.36949271 10.1566283,7.38327949 C9.46728926,7.43842661 8.77795023,7.41085305 8.11618475,7.64522832 C7.44063249,7.87960359 6.95809517,8.29320702 6.7926538,9.01011961 C6.75129346,9.18934776 6.62721243,9.18934776 6.46177106,9.23070811 C6.5031314,9.13420064 6.51691818,9.07905352 6.54449175,9.0239064 C7.01324229,8.11397887 7.55092674,7.24541168 8.17133187,6.43199161 C8.2954129,6.28033703 8.66765598,6.18382956 8.83309735,6.26655025 C9.94982659,6.84559504 10.9700484,6.59743298 11.9213362,5.8667336 C12.1694983,5.68750545 12.3625132,5.4393434 12.5831017,5.21875491 C12.5693149,5.19118135 12.5555282,5.17739457 12.5417414,5.14982101 C12.4314471,5.13603422 12.3073661,5.10846066 12.1970719,5.09467388 C11.6042403,4.99816642 11.0114087,4.84651183 10.4047904,4.91544573 C9.68787776,4.99816642 9.0812594,5.26011525 8.76416345,5.97702785 C8.69522954,6.12868244 8.68144276,6.12868244 8.41949393,6.0873221 C8.68144276,5.78401292 8.90203125,5.49449052 9.16398009,5.23254169 C9.55000995,4.84651183 9.93603981,4.47426875 10.3358565,4.08823889 C10.4047904,4.03309176 10.487511,3.97794464 10.5702317,3.96415786 C11.6180271,3.89522396 12.4038736,3.37132629 12.9967051,2.54411944 C13.3000143,2.13051602 13.5206028,1.66176548 13.6584706,1.16544137 C13.6722574,1.12408103 13.6722574,1.0689339 13.6860442,1 C13.382735,1.11029425 13.1069994,1.20680171 12.8312638,1.30330918 C12.1694983,1.53768445 11.5215196,1.79963328 11.0114087,2.32353095 C10.6115921,2.73713437 10.3496432,3.19209814 10.4047904,3.78492971 C10.4047904,3.82629005 10.3772168,3.89522396 10.3358565,3.92279752 C9.4397157,4.70864402 8.6538692,5.59099799 7.9369566,6.52849908 C7.92316982,6.55607264 7.88180948,6.56985942 7.8680227,6.59743298 C7.85423592,6.5836462 7.82666236,6.5836462 7.81287557,6.56985942 C7.8680227,6.4457784 7.89559626,6.29412381 7.97831694,6.21140312 C8.80552379,5.31526237 9.20534043,4.23989348 9.28806111,3.04044355 C9.32942146,2.51654588 9.28806111,1.99264821 9.27427433,1.46875055 C9.27427433,1.38602986 9.23291399,1.31709596 9.19155365,1.16544137 C8.91581803,1.46875055 8.66765598,1.70312582 8.46085427,1.97886143 C7.88180948,2.75092116 7.45441928,3.60570156 7.34412503,4.58456299 C7.27519113,5.17739457 7.30276469,5.74265258 7.70258133,6.23897668 C7.73015489,6.28033703 7.75772845,6.34927093 7.74394167,6.39063127 C7.71636811,6.66636689 7.67500777,6.92831572 7.49577962,7.17647778 C6.83401414,8.07261852 6.29632969,9.05147996 5.82757915,10.057915 L5.74485846,10.2233563 C5.73107168,10.2233563 5.70349812,10.2095695 5.68971134,10.2095695 C5.7172849,10.1130621 5.7172849,9.98898105 5.75864524,9.90626036 C6.33769003,8.89982537 6.53070497,7.81066969 6.47555784,6.66636689 C6.4341975,5.96324107 6.26875613,5.30147559 5.95166017,4.66728368 C5.93787339,4.62592334 5.91029983,4.59834978 5.86893949,4.52941587 C5.80000559,4.63971012 5.7172849,4.7224308 5.67592456,4.81893827 C5.06930621,6.05974853 4.76599703,7.36949271 4.89007806,8.76195756 C4.9314384,9.23070811 5.12445333,9.64431153 5.46912285,9.97519427 C5.51048319,10.0165546 5.56563031,10.0854885 5.55184353,10.1268489 C5.55184353,10.4025845 5.56563031,10.6645333 5.45533607,10.9402689 C5.02794586,11.9742775 4.71084991,13.0358596 4.5040482,14.1250153 C4.5040482,14.1388021 4.49026141,14.1663756 4.42132751,14.1801624 C4.42132751,14.0698681 4.39375395,13.9457871 4.40754073,13.8354929 C4.49026141,13.2150877 4.641916,12.5946826 4.66948956,11.9742775 C4.72463669,10.6921069 4.29724648,9.57537763 3.45625286,8.59651619 C3.44246608,8.58272941 3.41489252,8.58272941 3.35974539,8.54136907 C3.30459827,8.734384 3.22187759,8.91361215 3.18051724,9.10662708 C2.93235519,10.306077 2.90478163,11.5055269 3.19430402,12.6911901 C3.31838505,13.2426613 3.60790745,13.6976251 4.13180511,13.9733607 C4.17316546,13.9871475 4.2145258,14.0285078 4.2145258,14.0560814 C4.25588614,14.3180302 4.36618039,14.5937658 4.32482005,14.8419279 C4.1455919,16.0138042 4.07665799,17.1856806 4.04908443,18.357557 C4.04908443,18.3851305 4.03529765,18.4264909 4.03529765,18.4540644 C4.02151087,18.4540644 3.99393731,18.4540644 3.98015053,18.4678512 C3.96636375,18.3713437 3.9250034,18.2610495 3.9250034,18.164542 C3.93879018,17.475203 3.95257697,16.785864 3.75956203,16.1240985 C3.41489252,14.9797957 2.80827416,14.0285078 1.82941273,13.3115952 C1.81562595,13.2840216 1.78805239,13.2564481 1.7053317,13.2150877 L1.7053317,13.2150877 Z" id="path-1"></path>
        <filter x="-2.5%" y="-4.4%" width="104.9%" height="108.9%" filterUnits="objectBoundingBox" id="filter-2">
            <feOffset dx="0" dy="0" in="SourceAlpha" result="shadowOffsetOuter1"></feOffset>
            <feGaussianBlur stdDeviation="0.5" in="shadowOffsetOuter1" result="shadowBlurOuter1"></feGaussianBlur>
            <feColorMatrix values="0 0 0 0 0.2   0 0 0 0 0.176470588   0 0 0 0 0.176470588  0 0 0 0.5 0" type="matrix" in="shadowBlurOuter1"></feColorMatrix>
        </filter>
        <filter x="-10.0%" y="-30.0%" width="120.0%" height="160.0%" filterUnits="objectBoundingBox" id="filter-3">
            <feOffset dx="0" dy="1" in="SourceAlpha" result="shadowOffsetOuter1"></feOffset>
            <feGaussianBlur stdDeviation="0.5" in="shadowOffsetOuter1" result="shadowBlurOuter1"></feGaussianBlur>
            <feColorMatrix values="0 0 0 0 0.199416893   0 0 0 0 0.177947658   0 0 0 0 0.177947658  0 0 0 0.5 0" type="matrix" in="shadowBlurOuter1" result="shadowMatrixOuter1"></feColorMatrix>
            <feMerge>
                <feMergeNode in="shadowMatrixOuter1"></feMergeNode>
                <feMergeNode in="SourceGraphic"></feMergeNode>
            </feMerge>
        </filter>
        <path d="M18.9936306,31.5414013 C18.7006369,32.1528662 18.3757962,32.6751592 18.0191083,33.1082803 L17.5414013,32.5350318 C18.0509554,31.9363057 18.4968153,31.0955414 18.8789809,30 L19.5541401,30.1528662 C19.4649682,30.4076433 19.3757962,30.6496815 19.2866242,30.8853503 L21.8535032,30.8853503 L21.8535032,31.5414013 L19.8535032,31.5414013 L19.8535032,32.388535 L21.611465,32.388535 L21.611465,33.0382166 L19.8535032,33.0382166 L19.8535032,33.910828 L21.611465,33.910828 L21.611465,34.5541401 L19.8535032,34.5541401 L19.8535032,35.9745223 L19.1783439,35.9745223 L19.1783439,31.5414013 L18.9936306,31.5414013 Z M16.7643312,32.6433121 C16.5923567,32.8471338 16.4140127,33.044586 16.2229299,33.2356688 L16,32.522293 C16.6433121,31.8152866 17.1210191,30.9808917 17.433121,30.0254777 L18.0636943,30.3184713 C17.9044586,30.7961783 17.6942675,31.2547771 17.4394904,31.6878981 L17.4394904,35.9745223 L16.7643312,35.9745223 L16.7643312,32.6433121 Z M23.5477707,30.2611465 L27.2101911,30.2611465 L27.2101911,32.5350318 L23.5477707,32.5350318 L23.5477707,30.2611465 Z M26.5414013,31.910828 L26.5414013,30.8853503 L24.2165605,30.8853503 L24.2165605,31.910828 L26.5414013,31.910828 Z M25.089172,32.955414 L25.089172,35.8598726 L24.4458599,35.8598726 L24.4458599,35.5605096 L23.3375796,35.5605096 L23.3375796,35.8598726 L22.6878981,35.8598726 L22.6878981,32.955414 L25.089172,32.955414 Z M23.3375796,34.9426752 L24.4458599,34.9426752 L24.4458599,33.5796178 L23.3375796,33.5796178 L23.3375796,34.9426752 Z M28.0636943,32.955414 L28.0636943,35.8598726 L27.4012739,35.8598726 L27.4012739,35.5605096 L26.2356688,35.5605096 L26.2356688,35.8598726 L25.5859873,35.8598726 L25.5859873,32.955414 L28.0636943,32.955414 Z M26.2356688,34.9426752 L27.4012739,34.9426752 L27.4012739,33.5796178 L26.2356688,33.5796178 L26.2356688,34.9426752 Z M32.0828025,30.0191083 C32.1719745,30.1847134 32.2675159,30.3630573 32.3566879,30.566879 L34.6050955,30.566879 L34.6050955,31.2165605 L29.9617834,31.2165605 L29.9617834,32.5541401 C29.9426752,33.9681529 29.7388535,35.1019108 29.3566879,35.955414 L28.7898089,35.4522293 C29.1082803,34.7579618 29.2738854,33.7898089 29.2866242,32.5541401 L29.2866242,30.566879 L31.611465,30.566879 C31.5286624,30.4140127 31.4394904,30.2738854 31.3375796,30.1464968 L32.0828025,30.0191083 Z M31.4522293,31.2738854 L32.0828025,31.4203822 C32.044586,31.5477707 32,31.6751592 31.9617834,31.8025478 L34.3248408,31.8025478 L34.3248408,32.3821656 L31.7388535,32.3821656 C31.5923567,32.7261146 31.4394904,33.0318471 31.2738854,33.2993631 L32.1719745,33.2993631 L32.1719745,32.6305732 L32.8343949,32.6305732 L32.8343949,33.2993631 L34.1910828,33.2993631 L34.1910828,33.8980892 L32.8343949,33.8980892 L32.8343949,34.4076433 L34.6624204,34.4076433 L34.6624204,35.0127389 L32.8343949,35.0127389 L32.8343949,35.9681529 L32.1719745,35.9681529 L32.1719745,35.0127389 L29.9745223,35.0127389 L29.9745223,34.4076433 L32.1719745,34.4076433 L32.1719745,33.8980892 L30.6050955,33.8980892 L30.4649682,33.3121019 C30.6624204,33.0636943 30.8471338,32.7515924 31.0254777,32.3821656 L30.2101911,32.3821656 L30.2101911,31.8025478 L31.2675159,31.8025478 C31.3312102,31.6305732 31.388535,31.4522293 31.4522293,31.2738854 Z M35.4585987,34.7515924 L35.2675159,34.1910828 C35.3757962,34.1464968 35.433121,34.0764331 35.433121,33.9872611 L35.433121,30.6242038 L36.0828025,30.6242038 L36.0828025,33.955414 C36.3248408,33.8789809 36.566879,33.7961783 36.8025478,33.7070064 L36.8025478,30.089172 L37.4585987,30.089172 L37.4585987,32.6942675 C37.955414,32.0254777 38.2866242,31.1401274 38.4585987,30.044586 L39.1273885,30.1592357 C39.0764331,30.4394904 39.0191083,30.7070064 38.955414,30.955414 L40.9235669,30.955414 L40.9235669,31.611465 L40.4394904,31.611465 C40.388535,32.5923567 40.1464968,33.433121 39.7197452,34.1464968 C40.1146497,34.6305732 40.5732484,35.0700637 41.0955414,35.4585987 L40.6369427,36 C40.133758,35.611465 39.6942675,35.1847134 39.3121019,34.7197452 C38.9044586,35.2038217 38.388535,35.6178344 37.7643312,35.9490446 L37.4585987,35.4522293 L37.4585987,35.910828 L36.8025478,35.910828 L36.8025478,34.343949 C36.3694268,34.4968153 35.9235669,34.6305732 35.4585987,34.7515924 Z M38.7515924,31.611465 C38.6878981,31.7770701 38.6242038,31.9363057 38.5605096,32.089172 C38.7579618,32.6242038 39.0063694,33.1210191 39.2993631,33.566879 C39.5923567,33.0063694 39.7643312,32.3503185 39.8089172,31.611465 L38.7515924,31.611465 Z M38.1719745,32.8025478 C38.0700637,32.955414 37.9617834,33.0955414 37.8535032,33.2229299 L37.4585987,32.7324841 L37.4585987,35.2993631 C38.0573248,35.0063694 38.5414013,34.6305732 38.9044586,34.1719745 C38.611465,33.7388535 38.3694268,33.2802548 38.1719745,32.8025478 Z M42.3694268,30.2484076 L46.1656051,30.2484076 L46.1656051,32.3057325 L47.2420382,32.3057325 L47.2420382,32.910828 L46.2547771,32.910828 L46.7579618,33.3248408 C46.4267516,33.7324841 46.0509554,34.0573248 45.6305732,34.2866242 C46.1019108,34.6305732 46.6496815,34.9299363 47.2738854,35.1974522 L46.9363057,35.7834395 C46.044586,35.3630573 45.3248408,34.8598726 44.7770701,34.2675159 L44.7770701,35.2866242 C44.7770701,35.7324841 44.5796178,35.9617834 44.1910828,35.9617834 L43.4458599,35.9617834 L43.2993631,35.3375796 C43.5286624,35.3630573 43.7515924,35.3821656 43.9681529,35.3821656 C44.0636943,35.3821656 44.1146497,35.2929936 44.1146497,35.1273885 L44.1146497,34.2929936 C43.4904459,34.8407643 42.7515924,35.3312102 41.9044586,35.7707006 L41.6369427,35.1528662 C42.5923567,34.7197452 43.4140127,34.2101911 44.1146497,33.611465 L44.1146497,32.910828 L41.7324841,32.910828 L41.7324841,32.3057325 L45.4904459,32.3057325 L45.4904459,31.866242 L42.5859873,31.866242 L42.5859873,31.2929936 L45.4904459,31.2929936 L45.4904459,30.8471338 L42.3694268,30.8471338 L42.3694268,30.2484076 Z M42.5286624,33.0063694 C42.8980892,33.2611465 43.2101911,33.5159236 43.4649682,33.7707006 L43.0318471,34.2038217 C42.8089172,33.9617834 42.4968153,33.7070064 42.089172,33.4267516 L42.5286624,33.0063694 Z M46.2420382,32.910828 L44.7770701,32.910828 L44.7770701,33.5350318 C44.8980892,33.6687898 45.0318471,33.7961783 45.1783439,33.9235669 C45.5859873,33.6815287 45.9426752,33.343949 46.2420382,32.910828 Z" id="path-4"></path>
        <filter x="-6.4%" y="-16.7%" width="112.8%" height="166.7%" filterUnits="objectBoundingBox" id="filter-5">
            <feOffset dx="0" dy="1" in="SourceAlpha" result="shadowOffsetOuter1"></feOffset>
            <feGaussianBlur stdDeviation="0.5" in="shadowOffsetOuter1" result="shadowBlurOuter1"></feGaussianBlur>
            <feColorMatrix values="0 0 0 0 0.199416893   0 0 0 0 0.177947658   0 0 0 0 0.177947658  0 0 0 0.5 0" type="matrix" in="shadowBlurOuter1"></feColorMatrix>
        </filter>
    </defs>
    <g id="Page-1" stroke="none" stroke-width="1" fill="none" fill-rule="evenodd">
        <g id="图片所有水印预览图样式-参考" transform="translate(-2020.000000, -797.000000)">
            <g id="分组-31" transform="translate(1501.000000, 103.000000)">
                <g id="2" transform="translate(519.000000, 694.000000)">
                    <g id="形状">
                        <use fill="black" fill-opacity="1" filter="url(#filter-2)" xlink:href="#path-1"></use>
                        <use fill="#F7F6F6" fill-rule="evenodd" xlink:href="#path-1"></use>
                    </g>
                    <g id="分组-6" filter="url(#filter-3)" opacity="0.9" transform="translate(11.000000, 11.000000)" fill="#FFFFFF">
                        <path d="M37.3720486,0.000175330938 L27.7682965,0.000175330938 L27.7682965,12.2330148 L29.0332694,12.2330148 L29.0332694,1.2173227 C29.0332694,1.2173227 36.5233871,1.23240116 37.0809096,1.23240116 C38.0871697,1.23240116 38.5202172,1.70684667 38.5202172,2.69395985 C38.5223092,4.82808802 38.5261446,9.61497326 38.5261446,10.1118611 C38.5261446,10.7711055 38.2615044,11.0218287 37.7378029,11.0218287 L36.9445798,11.0218287 L36.9445798,12.2330148 L38.0624142,12.2330148 C39.2782246,12.2330148 39.817965,11.7108793 39.817965,10.3860787 L39.817965,2.24195669 C39.817965,0.796177786 39.0575168,0.000175330938 37.3720486,0.000175330938" id="Fill-1"></path>
                        <path d="M33.4587219,2.30770579 L32.3133426,2.30770579 C32.2150178,3.64968879 32.0629979,4.71570089 31.74536,5.6610853 C31.4214461,4.72622074 31.2289805,3.65775401 31.073474,2.30770579 L29.9287921,2.30770579 C30.1163762,4.19917594 30.5204842,5.76277724 31.1114789,7.03918646 C30.7945384,7.56763391 30.3946145,8.08065223 29.884511,8.61400894 L29.884511,10.1106338 C30.6010268,9.49557289 31.2108497,8.85561497 31.7143285,8.14482335 C32.2216425,8.93802051 32.8210054,9.58884895 33.5023055,10.1106338 L33.5023055,8.55614973 C33.0445025,8.05014465 32.6766562,7.55746471 32.3768005,7.04339441 C33.0155629,5.77364776 33.3788765,4.26054177 33.4587219,2.30770579" id="Fill-3"></path>
                        <path d="M37.7009834,8.61414921 C37.2452724,8.11130008 36.8840508,7.61686684 36.5918658,7.09964057 C37.2484104,5.81832208 37.6207894,4.28943631 37.7013321,2.30784606 L36.5566502,2.30784606 C36.4572794,3.6659595 36.3021214,4.74108881 35.9764641,5.6948891 C35.6640563,4.74459542 35.4830968,3.66140089 35.3268929,2.30784606 L34.1818623,2.30784606 C34.3704925,4.20668011 34.763443,5.775892 35.3446751,7.05510651 C35.0294778,7.57759271 34.6323433,8.08605242 34.1274699,8.61414921 L34.1274699,10.1107741 C34.836315,9.50167441 35.4412565,8.86872973 35.9419459,8.16635399 C36.4374052,8.94973262 37.0256106,9.59354782 37.7009834,10.1107741 L37.7009834,8.61414921 Z" id="Fill-5"></path>
                        <polygon id="Fill-7" points="16.1267108 3.1682651 17.4139985 3.1682651 17.4139985 2.28354519 22.6178905 2.28354519 22.6178905 3.1682651 23.9048295 3.1682651 23.9048295 2.28354519 26.1411955 2.28354519 26.1411955 1.01555185 23.9048295 1.01555185 23.9048295 3.50661879e-05 22.6178905 3.50661879e-05 22.6178905 1.01555185 17.4139985 1.01555185 17.4139985 3.50661879e-05 16.1267108 3.50661879e-05 16.1267108 1.01555185 13.8879041 1.01555185 13.8879041 2.28354519 16.1267108 2.28354519"></polygon>
                        <path d="M13.887939,6.80501446 L13.887939,7.93239239 C14.3907203,7.82579118 14.8603781,7.65572017 15.2895903,7.43234856 L15.2895903,12.2343123 L16.6176723,12.2343123 L16.6176723,6.4340142 C17.2682895,5.74776891 17.7152838,4.88163408 17.8917106,3.90504076 L16.5099334,3.90504076 C16.2717922,5.22808802 15.25821,6.30952924 13.887939,6.80501446" id="Fill-9"></path>
                        <path d="M22.7950146,10.9463663 C21.9449584,10.9463663 21.6004729,10.6202507 21.6004729,9.83932673 C21.6004729,9.75727185 21.6011703,9.51356185 21.6018676,9.16956255 C24.1150772,8.09723854 25.6147046,6.3832033 26.1021445,4.26906286 L24.7437283,4.26730955 C24.29255,5.75025861 23.2531663,6.95688612 21.604657,7.83669677 C21.608841,6.10828439 21.6137224,3.90507583 21.6137224,3.90507583 L20.2556548,3.90507583 L20.2556548,8.43317261 C19.5663352,8.68494784 18.800657,8.89429298 17.9572256,9.05910406 L17.9572256,10.1552731 C18.7860129,10.0321908 19.5509937,9.86247041 20.2556548,9.65242395 L20.2556548,10.1068817 C20.2556548,11.5603752 21.0007614,12.1775401 22.642646,12.1775401 L26.1411955,12.1775401 L26.1411955,10.9428596 L22.7950146,10.9463663 Z" id="Fill-11"></path>
                        <path d="M6.58666064,2.30770579 L12.3508644,2.30770579 L12.3508644,1.08354519 L7.41998069,1.08354519 C7.10234279,1.08354519 6.9959986,0.938020514 7.10478348,0.627334093 C7.25227067,0.221618305 7.34118139,0 7.34118139,0 L6.01902673,0 C6.01902673,0 5.97056167,0.197071973 5.68639605,0.940124485 C5.43988673,1.62496713 5.77112273,2.30770579 6.58666064,2.30770579" id="Fill-13"></path>
                        <path d="M10.8956575,6.91049356 L9.55014199,6.91049356 L9.55014199,5.10037696 L8.39325667,5.10037696 L8.39325667,6.91049356 L7.04913583,6.91049356 L7.05471454,4.268607 L10.124052,4.2658017 C10.6805284,4.2658017 10.8984469,4.54387657 10.8984469,5.04146577 L10.8956575,6.91049356 Z M9.55014199,11.0626808 L9.55014199,9.01621811 L8.39325667,9.01621811 L8.39325667,11.0654861 L7.83468816,11.0668888 C7.34097218,11.0668888 7.04181377,10.8351013 7.04181377,10.271237 L7.04634648,8.1314982 L10.8939142,8.1314982 L10.8942628,11.0637328 L9.55014199,11.0626808 Z M12.1097246,6.91049356 L12.1097246,4.73042868 C12.1097246,3.69983344 11.5434854,3.11037082 10.378232,3.11037082 L5.84727214,3.11317612 L5.84727214,6.91049356 L5.33333333,6.91049356 L5.33333333,8.1314982 L5.84727214,8.1314982 L5.84727214,10.5047778 C5.84727214,11.6244411 6.50242209,12.2233716 7.63385454,12.2233716 L12.1097246,12.2342421 L12.1097246,8.1314982 L12.5870531,8.1314982 L12.5870531,6.91049356 L12.1097246,6.91049356 Z" id="Fill-15"></path>
                        <polygon id="Fill-17" points="5.03159477 1.08245814 3.35100789 1.08245814 3.35100789 0.0153940563 2.15472291 0.0153940563 2.15472291 1.08245814 0.378600593 1.08245814 0.378600593 2.30767073 2.15472291 2.30767073 2.15472291 12.238415 3.35100789 12.238415 3.35100789 2.30767073 5.03159477 2.30767073"></polygon>
                        <path d="M0.222396668,11.4572806 L1.20006588,11.4586833 C1.48702086,9.28002104 1.57976694,7.11222933 1.57976694,3.11047602 L0.593032322,3.11047602 C0.593032322,5.61420181 0.63452399,8.45175769 0.222396668,11.4572806" id="Fill-19"></path>
                        <path d="M4.83923382,3.11040589 L3.88771481,3.11040589 C3.88771481,7.1121592 3.9769742,9.27995091 4.25416643,11.4586131 L5.19662003,11.4572105 C4.7994855,8.45168756 4.83923382,5.61413167 4.83923382,3.11040589" id="Fill-21"></path>
                    </g>
                    <g id="作品库收录" opacity="0.9" fill-rule="nonzero">
                        <use fill="black" fill-opacity="1" filter="url(#filter-5)" xlink:href="#path-4"></use>
                        <use fill="#FFFFFF" xlink:href="#path-4"></use>
                    </g>
                </g>
            </g>
        </g>
    </g>
</svg>