<?xml version="1.0" encoding="UTF-8"?>
<svg width="75px" height="27px" viewBox="0 0 75 27" version="1.1" xmlns="http://www.w3.org/2000/svg" xmlns:xlink="http://www.w3.org/1999/xlink">
    <!-- Generator: Sketch 56.1 (81669) - https://sketch.com -->
    <title>Group 2 Copy 6</title>
    <desc>Created with Sketch.</desc>
    <defs>
        <filter x="-11.3%" y="-34.8%" width="122.5%" height="169.6%" filterUnits="objectBoundingBox" id="filter-1">
            <feOffset dx="0" dy="2" in="SourceAlpha" result="shadowOffsetOuter1"></feOffset>
            <feGaussianBlur stdDeviation="1" in="shadowOffsetOuter1" result="shadowBlurOuter1"></feGaussianBlur>
            <feColorMatrix values="0 0 0 0 0.199416893   0 0 0 0 0.177947658   0 0 0 0 0.177947658  0 0 0 0.5 0" type="matrix" in="shadowBlurOuter1" result="shadowMatrixOuter1"></feColorMatrix>
            <feMerge>
                <feMergeNode in="shadowMatrixOuter1"></feMergeNode>
                <feMergeNode in="SourceGraphic"></feMergeNode>
            </feMerge>
        </filter>
    </defs>
    <g id="Page-1" stroke="none" stroke-width="1" fill="none" fill-rule="evenodd" opacity="0.9">
        <g id="图片所有水印预览图样式-参考" transform="translate(-2499.000000, -807.000000)" fill="#FFFFFF">
            <g id="分组-31" transform="translate(1501.000000, 103.000000)">
                <g id="Group-2-Copy-6" filter="url(#filter-1)" transform="translate(1000.000000, 704.000000)">
                    <path d="M68.0633199,1.12123672 L57.8266805,1.12123672 L57.8266805,14.1602203 L59.1750151,14.1602203 L59.1750151,2.4185941 C59.1750151,2.4185941 67.1587316,2.43466623 67.7529948,2.43466623 C68.8255674,2.43466623 69.2871528,2.9403777 69.2871528,3.99254164 C69.2893826,6.26730885 69.2934708,11.3696498 69.2934708,11.8992826 C69.2934708,12.6019711 69.0113908,12.869217 68.4531773,12.869217 L67.6076809,12.869217 L67.6076809,14.1602203 L68.7991805,14.1602203 C70.0951129,14.1602203 70.6704221,13.6036761 70.6704221,12.1915711 L70.6704221,3.51075148 C70.6704221,1.96969574 69.8598605,1.12123672 68.0633199,1.12123672" id="Fill-1"></path>
                    <path d="M63.8921049,3.58083344 L62.6712452,3.58083344 C62.5664408,5.01125311 62.4044028,6.14751541 62.0658325,7.15520066 C61.7205727,6.15872852 61.5154236,5.01984984 61.3496692,3.58083344 L60.1295527,3.58083344 C60.3294987,5.59695148 60.7602373,7.2635941 61.3901787,8.62411869 C61.0523517,9.18739082 60.6260728,9.73421705 60.0823536,10.302722 L60.0823536,11.8979744 C60.8460877,11.242381 61.496098,10.5602498 62.032756,9.80261705 C62.573502,10.6480859 63.2123629,11.3418039 63.9385607,11.8979744 L63.9385607,10.2410498 C63.4505885,9.70169902 63.0585011,9.17655148 62.7388849,8.62860393 C63.4197418,7.27518098 63.8069978,5.66236131 63.8921049,3.58083344" id="Fill-3"></path>
                    <path d="M68.4139314,10.3028715 C67.9281891,9.76688459 67.543163,9.2398682 67.231723,8.68855672 C67.9315339,7.32279934 68.3284527,5.69316 68.4143031,3.58098295 L67.1941867,3.58098295 C67.0882673,5.02859607 66.9228845,6.17457639 66.5757664,7.19123213 C66.2427709,6.1783141 66.0498862,5.02373705 65.8833884,3.58098295 L64.6629003,3.58098295 C64.8639613,5.60495016 65.2828072,7.27757311 65.9023424,8.64108787 C65.5663737,9.1980059 65.143068,9.73997311 64.6049234,10.3028715 L64.6049234,11.8981239 C65.3604814,11.2488846 66.0052886,10.5742289 66.5389734,9.82556656 C67.0670835,10.6605698 67.6940516,11.3468125 68.4139314,11.8981239 L68.4139314,10.3028715 Z" id="Fill-5"></path>
                    <polygon id="Fill-7" points="45.4179143 4.49810361 46.7900343 4.49810361 46.7900343 3.55508066 52.3368627 3.55508066 52.3368627 4.49810361 53.708611 4.49810361 53.708611 3.55508066 56.0923536 3.55508066 56.0923536 2.20352656 53.708611 2.20352656 53.708611 1.12108721 52.3368627 1.12108721 52.3368627 2.20352656 46.7900343 2.20352656 46.7900343 1.12108721 45.4179143 1.12108721 45.4179143 2.20352656 43.0315702 2.20352656 43.0315702 3.55508066 45.4179143 3.55508066"></polygon>
                    <path d="M43.0316074,8.37451475 L43.0316074,9.57618689 C43.5675221,9.46256066 44.0681303,9.28128197 44.5256275,9.04319016 L44.5256275,14.1616033 L45.9412302,14.1616033 L45.9412302,7.97906557 C46.6347231,7.24759672 47.1111743,6.32438361 47.2992276,5.28343279 L45.8263913,5.28343279 C45.5725565,6.69366885 44.4921793,7.84637705 43.0316074,8.37451475" id="Fill-9"></path>
                    <path d="M52.5256593,12.7887816 C51.6195844,12.7887816 51.2523974,12.4411751 51.2523974,11.6087882 C51.2523974,11.5213259 51.2531406,11.2615554 51.2538839,10.8948866 C53.932714,9.75189639 55.5311669,7.92490623 56.0507291,5.67144393 L54.6027932,5.66957508 C54.1218823,7.25025049 53.0140032,8.53639475 51.2568571,9.47418492 C51.2613169,7.63187016 51.2665199,5.28347016 51.2665199,5.28347016 L49.8189557,5.28347016 L49.8189557,10.1099685 C49.0842099,10.3783357 48.2680736,10.6014767 47.36906,10.7771489 L47.36906,11.9455554 C48.2524644,11.814362 49.0678575,11.633457 49.8189557,11.4095685 L49.8189557,11.8939751 C49.8189557,13.4432538 50.6131649,14.1010898 52.3632496,14.1010898 L56.0923536,14.1010898 L56.0923536,12.7850439 L52.5256593,12.7887816 Z" id="Fill-11"></path>
                    <path d="M35.2491748,3.58083344 L41.3932397,3.58083344 L41.3932397,2.27600066 L36.1374107,2.27600066 C35.7988404,2.27600066 35.6854882,2.1208859 35.801442,1.78972525 C35.9586486,1.35727279 36.0534185,1.12104984 36.0534185,1.12104984 L34.6441338,1.12104984 C34.6441338,1.12104984 34.5924749,1.33110885 34.2895828,2.12312852 C34.0268285,2.8531023 34.379893,3.58083344 35.2491748,3.58083344" id="Fill-13"></path>
                    <path d="M39.8421346,8.48694492 L38.4079496,8.48694492 L38.4079496,6.55754164 L37.1748255,6.55754164 L37.1748255,8.48694492 L35.7421271,8.48694492 L35.7480735,5.67095803 L39.0196802,5.66796787 C39.6128285,5.66796787 39.8451078,5.96436787 39.8451078,6.4947482 L39.8421346,8.48694492 Z M38.4079496,12.9127613 L38.4079496,10.7314367 L37.1748255,10.7314367 L37.1748255,12.9157515 L36.5794474,12.9172466 C36.0531955,12.9172466 35.7343226,12.6701843 35.7343226,12.0691613 L35.739154,9.78841377 L39.8402764,9.78841377 L39.840648,12.9138826 L38.4079496,12.9127613 Z M41.1362087,8.48694492 L41.1362087,6.16321377 C41.1362087,5.0647023 40.5326543,4.4363941 39.2906107,4.4363941 L34.4610606,4.43938426 L34.4610606,8.48694492 L33.9132533,8.48694492 L33.9132533,9.78841377 L34.4610606,9.78841377 L34.4610606,12.3180925 C34.4610606,13.5115416 35.159385,14.1499416 36.3653788,14.1499416 L41.1362087,14.1615285 L41.1362087,9.78841377 L41.6449932,9.78841377 L41.6449932,8.48694492 L41.1362087,8.48694492 Z" id="Fill-15"></path>
                    <polygon id="Fill-17" points="33.5916301 2.27484197 31.8002926 2.27484197 31.8002926 1.13745836 30.5251724 1.13745836 30.5251724 2.27484197 28.6320036 2.27484197 28.6320036 3.58079607 30.5251724 3.58079607 30.5251724 14.1659764 31.8002926 14.1659764 31.8002926 3.58079607 33.5916301 3.58079607"></polygon>
                    <path d="M28.4655059,13.3333652 L29.5076035,13.3348603 C29.8134688,11.0126243 29.9123268,8.70197508 29.9123268,4.43650623 L28.8605664,4.43650623 C28.8605664,7.10522754 28.9047924,10.1297784 28.4655059,13.3333652" id="Fill-19"></path>
                    <path d="M33.3865926,4.43643148 L32.3723685,4.43643148 C32.3723685,8.70190033 32.4675101,11.0125495 32.7629693,13.3347856 L33.7675306,13.3332905 C33.3442249,10.1297036 33.3865926,7.10515279 33.3865926,4.43643148" id="Fill-21"></path>
                    <path d="M43.0479227,18.0719528 L41.906967,18.0719528 L41.906967,16.7121757 L41.1443478,16.7121757 L41.1443478,21.3035725 L41.9110551,21.3046938 L41.9103118,18.7757626 L42.8345974,18.7757626 C43.2809452,18.7757626 43.4797763,19.0172184 43.4797763,19.4313561 L43.4797763,21.3046938 L44.2475985,21.3046938 L44.2475985,19.3181036 C44.2475985,18.481979 43.870377,18.0719528 43.0479227,18.0719528" id="Fill-23"></path>
                    <polygon id="Fill-25" points="39.0507871 17.4763869 39.8182377 17.4763869 39.8182377 16.7086623 39.0507871 16.7086623"></polygon>
                    <polygon id="Fill-27" points="39.0504154 21.304918 39.8241841 21.304918 39.8241841 18.072177 39.0504154 18.072177"></polygon>
                    <path d="M32.2618407,18.0753915 C31.9849639,18.0753915 28.4654687,18.0697849 28.4654687,18.0697849 L28.4654687,21.3047685 L29.2325477,21.3047685 C29.2344059,19.4168538 29.2336626,18.7743423 29.2336626,18.7743423 C29.2336626,18.7743423 29.9598605,18.7750898 30.0780442,18.7750898 C30.4166144,18.7750898 30.5741926,18.9548734 30.5741926,19.2953784 C30.5741926,20.0335751 30.5786524,21.3047685 30.5786524,21.3047685 L31.3327237,21.3047685 C31.3327237,19.4389062 31.333467,18.7762111 31.333467,18.7762111 L32.063753,18.7750898 C32.4606718,18.7750898 32.6684223,19.0333652 32.6684223,19.4015292 L32.6684223,21.3047685 L33.441076,21.3047685 L33.441076,19.1896013 C33.441076,18.4895292 33.0571649,18.0753915 32.2618407,18.0753915" id="Fill-28"></path>
                    <path d="M36.0320116,18.68916 L36.5025165,18.68916 C36.8641288,18.68916 37.0142741,18.8685698 37.0142741,19.2049633 L37.0142741,19.451278 L35.482346,19.4520256 L35.482346,19.1974879 C35.482346,18.8610944 35.6767173,18.68916 36.0320116,18.68916 M34.7145238,19.1485239 C34.7115506,19.6475075 34.7111789,19.9274616 34.7111789,19.9947403 C34.7111789,20.8701108 35.1274233,21.3040584 35.9584256,21.3040584 C36.0178891,21.3040584 37.7047939,21.3048059 37.7047939,21.3048059 L37.7066521,20.6671534 C37.7066521,20.6671534 36.1981378,20.6682748 36.1829002,20.667901 C35.7499317,20.667901 35.4849476,20.4858748 35.4849476,20.062019 L37.7828397,20.0594026 L37.7902726,19.1754354 C37.7902726,18.5239534 37.4312618,18.0772977 36.6816502,18.0772977 C36.6816502,18.0772977 36.7459451,18.07356 35.84433,18.0765502 C35.1344846,18.0765502 34.7145238,18.5370354 34.7145238,19.1485239" id="Fill-29"></path>
                    <path d="M46.7201275,21.2973679 C46.9836251,21.2973679 48.6170128,21.3048433 48.6170128,21.3048433 C48.6170128,21.3048433 48.6203576,19.7084695 48.6233308,18.0698597 L47.8573667,18.066122 L47.8506771,20.5987908 C47.8506771,20.5987908 46.8702728,20.5939318 46.8695295,20.5939318 C46.4841318,20.5939318 46.2838142,20.4085416 46.2838142,20.0145875 C46.2841858,19.727158 46.2849291,19.4954203 46.2882739,18.062758 L45.5208233,18.061263 C45.5208233,18.061263 45.5193367,18.8476761 45.5163589,20.1162531 C45.514877,20.8955646 45.8738878,21.2973679 46.7201275,21.2973679" id="Fill-30"></path>
                    <polygon id="Fill-31" points="54.7580673 21.304918 55.7466477 21.304918 55.7466477 20.3106885 54.7580673 20.3106885"></polygon>
                    <polygon id="Fill-32" points="57.5212612 17.4763869 58.2890835 17.4763869 58.2890835 16.7086623 57.5212612 16.7086623"></polygon>
                    <polygon id="Fill-33" points="57.5223761 21.304918 58.2954015 21.304918 58.2954015 18.072177 57.5223761 18.072177"></polygon>
                    <path d="M69.8794463,20.0696439 C69.8794463,20.4288374 69.6493969,20.5970341 69.3290374,20.5970341 C69.2948458,20.5970341 68.8789731,20.6000243 68.8470115,20.5981554 C68.5039815,20.5981554 68.2780202,20.413139 68.2780202,20.030398 L68.2780202,19.3209816 C68.2780202,18.9812243 68.4794528,18.7771456 68.8440383,18.7771456 C68.9625936,18.7726603 69.3606273,18.7786407 69.297819,18.7786407 C69.696596,18.7786407 69.8794463,19.0260767 69.8794463,19.3830275 L69.8794463,20.0696439 Z M69.4130295,18.0737095 C69.3680603,18.0737095 68.7853181,18.0740833 68.7425787,18.0755784 C67.9260707,18.0755784 67.484926,18.5184964 67.484926,19.2593095 C67.484926,19.9679784 67.4834394,19.0978407 67.4834394,19.9560177 C67.4834394,20.8885751 67.8922508,21.3027128 68.7593028,21.3027128 C68.8005556,21.3042079 69.3290374,21.3049554 69.3721484,21.3049554 C70.1882847,21.3049554 70.6669658,20.9745423 70.6669658,20.0789882 C70.6669658,20.0789882 70.6703106,19.3355587 70.6703106,19.273139 C70.6703106,18.566339 70.2529513,18.0737095 69.4130295,18.0737095 L69.4130295,18.0737095 Z" id="Fill-34"></path>
                    <path d="M61.474208,18.0719528 C61.2103388,18.0719528 59.591817,18.0685889 59.591817,18.0685889 L59.591817,21.3035725 L60.358896,21.3046938 L60.3596393,18.7727725 L61.3322389,18.7727725 C61.7369623,18.7727725 61.9279887,19.0131069 61.9279887,19.3741692 L61.9279887,21.3046938 L62.6954394,21.3046938 L62.6954394,19.2500774 C62.6954394,18.4890807 62.3189612,18.0719528 61.474208,18.0719528" id="Fill-35"></path>
                    <path d="M64.4060181,17.7098439 C64.4063897,17.7588079 64.4063897,17.8885062 64.4063897,18.0709062 L63.6682992,18.0709062 L63.6682992,18.7720997 L64.4067614,18.7720997 C64.407133,19.6246702 64.4075047,20.7560734 64.4086196,21.3032734 L65.185733,21.3047685 C65.185733,21.3047685 65.1846181,19.75848 65.1838748,18.7720997 L66.5418722,18.7720997 L66.5418722,18.0709062 L65.1831315,18.0709062 L65.1831315,17.9707357 C65.1831315,17.5850046 65.3459128,17.4082111 65.7703335,17.4082111 L66.564171,17.4115751 L66.5656576,16.7088866 C66.5396423,16.7096341 66.3683132,16.711503 65.4455142,16.7141193 C64.7137416,16.7141193 64.4060181,17.0807882 64.4060181,17.7098439 M66.5656576,16.7085128 L66.5656576,16.7088866 C66.5753204,16.7085128 66.5656576,16.7085128 66.5656576,16.7085128" id="Fill-36"></path>
                    <path d="M51.117824,20.6934295 C50.8022959,20.6934295 50.6711046,20.5708328 50.6711046,20.2811607 C50.6711046,20.0045705 50.7922615,19.868518 51.1137359,19.868518 C51.1286018,19.868518 52.2123239,19.8703869 52.2123239,19.8703869 L52.2082357,20.6911869 C52.2082357,20.6911869 51.1720845,20.6934295 51.117824,20.6934295 M51.7269531,18.0774098 C51.6674897,18.0774098 50.0987685,18.0777836 50.0987685,18.0777836 L50.0972819,18.7154361 C50.0972819,18.7154361 51.6857004,18.7135672 51.7009379,18.7135672 C52.0759295,18.7135672 52.2167836,18.8802689 52.2167836,19.2835672 L50.8550698,19.2813246 C50.2362779,19.2813246 49.8869299,19.5878164 49.8869299,20.146977 L49.8869299,20.3723607 C49.8869299,20.9954361 50.2433391,21.304918 50.9260543,21.304918 L52.9764297,21.3041705 C52.9764297,21.3041705 52.9846059,19.4644721 52.9846059,19.3370164 C52.9846059,18.4575344 52.6813421,18.0774098 51.7269531,18.0774098" id="Fill-37"></path>
                    <g id="分组-3" transform="translate(-0.000145, -0.000150)">
                        <path d="M9.91817135,21.6820525 L11.6310914,19.3104787 L13.3447548,21.6820525 C13.9271253,22.4886492 15.0498703,22.6676852 15.8518841,22.0816131 C16.6538979,21.4951672 16.8319167,20.3663803 16.2491745,19.5597836 L13.0838588,15.1780721 C13.0649048,15.152282 13.0411194,15.1328459 13.0217937,15.108177 C12.9823992,15.0592131 12.941518,15.012118 12.8965488,14.9668918 C12.8515795,14.9216656 12.804752,14.8805508 12.7560663,14.8409311 C12.7315376,14.8211213 12.712212,14.7972 12.6865683,14.7785115 C12.6668711,14.7643082 12.6449439,14.7557115 12.6245033,14.7422557 C12.5702429,14.7056262 12.5141242,14.6738557 12.4568906,14.6439541 C12.4074616,14.6181639 12.3580326,14.5931213 12.3074886,14.5721902 C12.2528565,14.5497639 12.1978528,14.5321967 12.1413625,14.515377 C12.0848722,14.4985574 12.0291252,14.4824852 11.9718915,14.4712721 C11.9165162,14.4608066 11.8611408,14.4548262 11.8046505,14.4492197 C11.7466736,14.4436131 11.68944,14.4387541 11.6310914,14.4387541 C11.5731145,14.4387541 11.5158809,14.4436131 11.457904,14.4492197 C11.4017854,14.4548262 11.34641,14.4608066 11.290663,14.4712721 C11.2334294,14.4824852 11.178054,14.4985574 11.121192,14.515377 C11.0650734,14.5321967 11.0100696,14.5497639 10.9554376,14.5721902 C10.9045219,14.5931213 10.8550929,14.6181639 10.8060355,14.6439541 C10.7480586,14.6738557 10.6923116,14.7056262 10.6380512,14.7422557 C10.6179823,14.7557115 10.5956835,14.7643082 10.5763578,14.7785115 C10.5503425,14.7972 10.5310169,14.8211213 10.5068599,14.8409311 C10.4581741,14.8805508 10.4113466,14.9216656 10.3663774,14.9668918 C10.3214081,15.012118 10.280527,15.0592131 10.2411324,15.108177 C10.2210635,15.1328459 10.1976497,15.152282 10.1790674,15.1780721 L7.01375164,19.5597836 C6.43100946,20.3663803 6.60865663,21.4951672 7.41067042,22.0816131 C8.2126842,22.6676852 9.33542917,22.4886492 9.91817135,21.6820525" id="Fill-38"></path>
                        <path d="M20.5656291,18.6371311 L20.5656291,18.6371311 C21.3676428,18.051059 21.5456617,16.9218984 20.9629195,16.1153016 L19.2496278,13.7441016 L22.0217412,12.838082 C22.9646091,12.5300951 23.4808265,11.5115705 23.1745896,10.562941 C22.8676093,9.61505902 21.8552434,9.0958918 20.9123755,9.40387869 L15.7903394,11.077623 C15.7282744,11.0981803 15.6684392,11.1217279 15.6104623,11.1478918 C15.6037727,11.150882 15.598198,11.1542459 15.5915083,11.1572361 C15.4852174,11.2069475 15.385616,11.2652557 15.2927043,11.3325344 C15.2923327,11.3329082 15.2912177,11.333282 15.2901028,11.3340295 C15.2882446,11.3355246 15.286758,11.3377672 15.2845281,11.3392623 C15.1905015,11.4084098 15.104651,11.4857803 15.0269769,11.5702525 C15.0195439,11.5781016 15.0135976,11.5863246 15.0065363,11.5945475 C14.936295,11.6737869 14.8727434,11.7586328 14.8173681,11.8487115 C14.8099351,11.8614197 14.8032455,11.8741279 14.7961842,11.8864623 C14.7448969,11.9750459 14.700671,12.0673672 14.6646212,12.1634262 C14.6601615,12.1753869 14.6568167,12.1873475 14.6523569,12.199682 C14.6181654,12.2976098 14.5917785,12.3985279 14.5750544,12.5016885 C14.5731961,12.5110328 14.5724528,12.520377 14.5709662,12.5297213 C14.5557287,12.6340033 14.5486674,12.7405279 14.5516406,12.8478 C14.5516406,12.857518 14.5527556,12.8668623 14.5534988,12.8765803 C14.5583303,12.9812361 14.5709662,13.0866393 14.5947516,13.1916689 C14.5973532,13.2040033 14.6014413,13.2163377 14.6047861,13.2286721 C14.6148206,13.2701607 14.624855,13.3112754 14.6378627,13.3527639 C14.6579316,13.4148098 14.681717,13.4749869 14.7073606,13.5336689 C14.7103338,13.540023 14.7144219,13.546377 14.7173951,13.5527311 C14.7664525,13.6600033 14.8244294,13.7601738 14.8909541,13.8528689 C14.8916974,13.8539902 14.8920691,13.8551115 14.8928124,13.855859 L18.0584998,18.2375705 C18.6408703,19.0441672 19.7636153,19.2232033 20.5656291,18.6371311" id="Fill-39"></path>
                        <path d="M13.8222838,8.87219016 C13.8352914,8.87817049 13.8479274,8.88452459 13.8613067,8.89013115 C13.9586781,8.93049836 14.0597661,8.96152131 14.1630839,8.98432131 C14.17349,8.98656393 14.1835245,8.98918033 14.1939306,8.99142295 C14.3061679,9.01422295 14.4210068,9.02580984 14.5373322,9.02655738 C14.5399337,9.02655738 14.5421636,9.02730492 14.5443935,9.02730492 C14.5458801,9.02730492 14.546995,9.02693115 14.54811,9.02693115 C14.6618339,9.02655738 14.7766727,9.01459672 14.8915116,8.99179672 C14.8985729,8.99030164 14.9060058,8.98992787 14.9130671,8.98843279 C14.9755038,8.97497705 15.0375688,8.95890492 15.0996338,8.93872131 L20.2212983,7.26497705 C21.1641662,6.95699016 21.6803836,5.93846557 21.373775,4.99020984 C21.0671664,4.0419541 20.0548005,3.52278689 19.111561,3.83114754 L16.3398192,4.73679344 L16.3398192,1.80568525 C16.3398192,0.808465574 15.5359472,-8.97060204e-14 14.5443935,-8.97060204e-14 C13.5532115,-8.97060204e-14 12.7493395,0.808465574 12.7493395,1.80568525 L12.7493395,7.22161967 C12.7493395,7.22274098 12.7497111,7.2238623 12.7497111,7.22498361 C12.7500828,7.33935738 12.7616038,7.45485246 12.7846459,7.57072131 C12.7861325,7.57782295 12.7865042,7.58492459 12.7879907,7.59202623 C12.80137,7.65481967 12.8173508,7.71723934 12.8374198,7.77965902 C12.8507991,7.82077377 12.8671515,7.86001967 12.8831323,7.89963934 C12.8875921,7.9116 12.8913086,7.92356066 12.8965116,7.93514754 C12.9388793,8.03419672 12.9901666,8.1268918 13.0470286,8.2143541 C13.0526033,8.22257705 13.057063,8.23117377 13.0626377,8.23902295 C13.1228445,8.32798033 13.1908559,8.4094623 13.2644419,8.48496393 C13.2711316,8.4916918 13.2770779,8.49841967 13.2837676,8.50514754 C13.3577253,8.57878033 13.4383726,8.6449377 13.5231081,8.70399344 C13.5338859,8.71109508 13.5435487,8.71857049 13.5539548,8.72567213 C13.6390619,8.78248525 13.7290004,8.83107541 13.8222838,8.87219016" id="Fill-40"></path>
                        <path d="M8.37134022,8.99190885 C8.48617908,9.01470885 8.60064629,9.02629574 8.71474186,9.02666951 C8.7158568,9.02666951 8.71697174,9.02704328 8.71808668,9.02704328 C8.72031656,9.02704328 8.72254644,9.02629574 8.72514797,9.02629574 C8.84184506,9.02592197 8.95668392,9.01433508 9.06892126,8.99153508 C9.07932737,8.98929246 9.08936183,8.9863023 9.09976794,8.98405967 C9.20308575,8.96125967 9.30417368,8.93023672 9.40117349,8.89024328 C9.41492442,8.88426295 9.42756042,8.87790885 9.44056805,8.8723023 C9.5338514,8.83081377 9.62378992,8.78222361 9.70889704,8.72578426 C9.71930315,8.71868262 9.72896597,8.71120721 9.73974372,8.7037318 C9.82447919,8.64467607 9.9047549,8.57889246 9.97908426,8.50525967 C9.9857739,8.4985318 9.99172025,8.49143016 9.99840989,8.48507607 C10.071996,8.40957443 10.1400073,8.32809246 10.1998425,8.23913508 C10.2057888,8.23091213 10.2102486,8.22231541 10.2158233,8.21409246 C10.2726852,8.12700393 10.3239725,8.03430885 10.3659686,7.93525967 C10.3711716,7.92367279 10.3752597,7.91133836 10.3797195,7.8993777 C10.3957003,7.8601318 10.4120528,7.8208859 10.4250604,7.77939738 C10.445501,7.71735148 10.4614818,7.65455803 10.4744894,7.59213836 C10.475976,7.58503672 10.4767193,7.57756131 10.4782059,7.57045967 C10.5008764,7.45496459 10.5127691,7.33946951 10.5127691,7.22509574 C10.5127691,7.22397443 10.5131407,7.22285311 10.5131407,7.2217318 L10.5131407,1.80542361 C10.5131407,0.808203934 9.70964033,0.000112131147 8.71808668,0.000112131147 C7.72690468,0.000112131147 6.92303266,0.808203934 6.92303266,1.80542361 L6.92303266,4.73690557 L4.15129085,3.8308859 C3.20805129,3.52289902 2.19531377,4.04169246 1.88907681,4.9899482 C1.5824682,5.9385777 2.0986856,6.9571023 3.04155352,7.26508918 L8.16321802,8.93845967 C8.22528303,8.95901705 8.28734805,8.97508918 8.34978471,8.98817115 C8.356846,8.99004 8.36390729,8.99041377 8.37134022,8.99190885" id="Fill-41"></path>
                        <path d="M5.20435205,18.2376079 L8.37003946,13.8558964 C8.37078275,13.8547751 8.3711544,13.8536538 8.37152604,13.8529062 C8.43805082,13.7602111 8.49639937,13.6596669 8.54545675,13.5527685 C8.54842992,13.5464144 8.55214639,13.5400603 8.55511956,13.5337062 C8.58113484,13.4750243 8.60454859,13.4148472 8.62461751,13.3528013 C8.6379968,13.3113128 8.64803126,13.2698243 8.65806572,13.2287095 C8.6610389,13.2160013 8.66549866,13.2040407 8.66772854,13.1917062 C8.69188558,13.0866767 8.70452157,12.9812734 8.70935298,12.8769915 C8.70972463,12.8672734 8.71083957,12.8571816 8.71121122,12.8474636 C8.71418439,12.7401915 8.7071231,12.6340407 8.69188558,12.5297587 C8.690399,12.5204144 8.68928406,12.5110702 8.68779747,12.5017259 C8.67070172,12.3981915 8.64468644,12.2972734 8.61012329,12.1993456 C8.60603517,12.1873849 8.60269035,12.1754243 8.59823059,12.1634636 C8.56218085,12.0674046 8.51795488,11.975457 8.46666762,11.8868734 C8.45960634,11.8741652 8.45291669,11.8610833 8.44548376,11.8487489 C8.39010838,11.7586702 8.32655678,11.6738243 8.25631554,11.5942111 C8.24925425,11.586362 8.24293625,11.578139 8.23587496,11.5702898 C8.15820078,11.4858177 8.07197873,11.4084472 7.97795209,11.3389259 C7.97609385,11.3374308 7.97460727,11.335562 7.97274903,11.3340669 C7.97163409,11.3333193 7.97051915,11.3329456 7.96977586,11.3325718 C7.87723581,11.2652931 7.77763446,11.2066111 7.67097183,11.1572734 C7.66465384,11.1542833 7.65870749,11.1509193 7.65238949,11.1479292 C7.59441259,11.1217652 7.53457746,11.0978439 7.47251245,11.0776603 L2.35047631,9.40391607 C1.40760838,9.09592918 0.394870866,9.61509639 0.0882622593,10.5629784 C-0.2179747,11.5112341 0.298242699,12.5297587 1.24111062,12.8381193 L4.01285242,13.744139 L2.29993234,16.115339 C1.71681852,16.9219357 1.89483733,18.0510964 2.69685112,18.6371685 C3.4988649,19.2232407 4.62160987,19.0442046 5.20435205,18.2376079" id="Fill-42"></path>
                        <path d="M11.6312401,12.6560557 C10.8619312,12.6560557 10.2375646,12.0284951 10.2375646,11.2544164 C10.2375646,10.4803377 10.8619312,9.85277705 11.6312401,9.85277705 C12.4009206,9.85277705 13.0249156,10.4803377 13.0249156,11.2544164 C13.0249156,12.0284951 12.4009206,12.6560557 11.6312401,12.6560557" id="Fill-43"></path>
                    </g>
                </g>
            </g>
        </g>
    </g>
</svg>