<?xml version="1.0" encoding="UTF-8"?>
<svg width="40px" height="16px" viewBox="0 0 40 16" version="1.1" xmlns="http://www.w3.org/2000/svg" xmlns:xlink="http://www.w3.org/1999/xlink">
    <!-- Generator: Sketch 56.1 (81669) - https://sketch.com -->
    <title>Group 2 Copy 11</title>
    <desc>Created with Sketch.</desc>
    <defs>
        <filter x="-22.6%" y="-70.2%" width="146.9%" height="245.6%" filterUnits="objectBoundingBox" id="filter-1">
            <feOffset dx="0" dy="2" in="SourceAlpha" result="shadowOffsetOuter1"></feOffset>
            <feGaussianBlur stdDeviation="1" in="shadowOffsetOuter1" result="shadowBlurOuter1"></feGaussianBlur>
            <feColorMatrix values="0 0 0 0 0.199416893   0 0 0 0 0.177947658   0 0 0 0 0.177947658  0 0 0 0.5 0" type="matrix" in="shadowBlurOuter1" result="shadowMatrixOuter1"></feColorMatrix>
            <feMerge>
                <feMergeNode in="shadowMatrixOuter1"></feMergeNode>
                <feMergeNode in="SourceGraphic"></feMergeNode>
            </feMerge>
        </filter>
    </defs>
    <g id="Page-1" stroke="none" stroke-width="1" fill="none" fill-rule="evenodd" opacity="0.9">
        <g id="07机构创作者账户中心--机构账户中心-机构资料-功能设置-" transform="translate(-909.000000, -983.000000)" fill="#FFFFFF">
            <g id="分组-5" transform="translate(555.000000, 682.000000)">
                <g id="分组-2" transform="translate(-0.000000, 0.000000)">
                    <g id="图片" transform="translate(0.000000, 37.000000)">
                        <g id="分组-32-copy-3">
                            <g id="Group-2-Copy-11" filter="url(#filter-1)" transform="translate(356.000000, 264.000000)">
                                <path d="M33.8167231,0.560618361 L28.7307297,0.560618361 L28.7307297,7.08011016 L29.4006391,7.08011016 L29.4006391,1.20929705 C29.4006391,1.20929705 33.3672856,1.21733311 33.6625406,1.21733311 C34.1954398,1.21733311 34.4247748,1.47018885 34.4247748,1.99627082 C34.4258827,3.13365443 34.4279139,5.68482492 34.4279139,5.94964131 C34.4279139,6.30098557 34.2877647,6.43460852 34.0104207,6.43460852 L33.5903425,6.43460852 L33.5903425,7.08011016 L34.1823297,7.08011016 C34.8262035,7.08011016 35.1120413,6.80183803 35.1120413,6.09578557 L35.1120413,1.75537574 C35.1120413,0.984847869 34.7093201,0.560618361 33.8167231,0.560618361" id="Fill-1"></path>
                                <path d="M31.7442879,1.79041672 L31.1377134,1.79041672 C31.0856421,2.50562656 31.0051348,3.0737577 30.8369189,3.57760033 C30.6653793,3.07936426 30.5634526,2.50992492 30.4810988,1.79041672 L29.8748936,1.79041672 C29.9742351,2.79847574 30.1882442,3.63179705 30.5012256,4.31205934 C30.333379,4.59369541 30.1215857,4.86710852 29.851443,5.15136098 L29.851443,5.94898721 C30.2308983,5.62119049 30.5538508,5.28012492 30.8204851,4.90130852 C31.0891505,5.32404295 31.4065635,5.67090197 31.7673691,5.94898721 L31.7673691,5.12052492 C31.524924,4.85084951 31.3301185,4.58827574 31.1713196,4.31430197 C31.509598,3.63759049 31.7020031,2.83118066 31.7442879,1.79041672" id="Fill-3"></path>
                                <path d="M33.9909217,5.15143574 C33.7495845,4.8834423 33.5582873,4.6199341 33.4035508,4.34427836 C33.7512463,3.66139967 33.9484523,2.84658 33.9911064,1.79049148 L33.3849012,1.79049148 C33.332276,2.51429803 33.2501068,3.0872882 33.0776439,3.59561607 C32.9121977,3.08915705 32.8163645,2.51186852 32.7336414,1.79049148 L32.1272515,1.79049148 C32.2271471,2.80247508 32.4352474,3.63878656 32.7430585,4.32054393 C32.5761351,4.59900295 32.365819,4.86998656 32.0984462,5.15143574 L32.0984462,5.94906197 C32.4738392,5.6244423 32.7942065,5.28711443 33.0593636,4.91278328 C33.3217509,5.33028492 33.6332551,5.67340623 33.9909217,5.94906197 L33.9909217,5.15143574 Z" id="Fill-5"></path>
                                <polygon id="Fill-7" points="22.5655322 2.2490518 23.2472591 2.2490518 23.2472591 1.77754033 26.003157 1.77754033 26.003157 2.2490518 26.6846994 2.2490518 26.6846994 1.77754033 27.869043 1.77754033 27.869043 1.10176328 26.6846994 1.10176328 26.6846994 0.560543607 26.003157 0.560543607 26.003157 1.10176328 23.2472591 1.10176328 23.2472591 0.560543607 22.5655322 0.560543607 22.5655322 1.10176328 21.3798959 1.10176328 21.3798959 1.77754033 22.5655322 1.77754033"></polygon>
                                <path d="M21.3799144,4.18725738 L21.3799144,4.78809344 C21.6461794,4.73128033 21.8949026,4.64064098 22.1222065,4.52159508 L22.1222065,7.08080164 L22.8255375,7.08080164 L22.8255375,3.98953279 C23.170094,3.62379836 23.406815,3.1621918 23.5002478,2.64171639 L22.7684807,2.64171639 C22.6423649,3.34683443 22.105588,3.92318852 21.3799144,4.18725738" id="Fill-9"></path>
                                <path d="M26.0969591,6.39439082 C25.646783,6.39439082 25.464349,6.22058754 25.464349,5.8043941 C25.464349,5.76066295 25.4647183,5.6307777 25.4650876,5.44744328 C26.7960432,4.8759482 27.5902219,3.96245311 27.8483623,2.83572197 L27.1289667,2.83478754 C26.8900299,3.62512525 26.3395889,4.26819738 25.4665648,4.73709246 C25.4687806,3.81593508 25.4713657,2.64173508 25.4713657,2.64173508 L24.7521548,2.64173508 L24.7521548,5.05498426 C24.3871022,5.18916787 23.9816113,5.30073836 23.5349435,5.38857443 L23.5349435,5.9727777 C23.973856,5.90718098 24.3789776,5.81672852 24.7521548,5.70478426 L24.7521548,5.94698754 C24.7521548,6.72162689 25.1467514,7.05054492 26.0162672,7.05054492 L27.869043,7.05054492 L27.869043,6.39252197 L26.0969591,6.39439082 Z" id="Fill-11"></path>
                                <path d="M17.5132742,1.79041672 L20.5659043,1.79041672 L20.5659043,1.13800033 L17.9545872,1.13800033 C17.7863713,1.13800033 17.7300531,1.06044295 17.7876638,0.894862623 C17.8657707,0.678636393 17.9128563,0.560524918 17.9128563,0.560524918 L17.2126644,0.560524918 C17.2126644,0.560524918 17.1869981,0.665554426 17.0365085,1.06156426 C16.9059611,1.42655115 17.0813784,1.79041672 17.5132742,1.79041672" id="Fill-13"></path>
                                <path d="M19.79525,4.24347246 L19.0826865,4.24347246 L19.0826865,3.27877082 L18.4700186,3.27877082 L18.4700186,4.24347246 L17.7581937,4.24347246 L17.7611481,2.83547902 L19.3866201,2.83398393 C19.6813211,2.83398393 19.7967272,2.98218393 19.7967272,3.2473741 L19.79525,4.24347246 Z M19.0826865,6.45638066 L19.0826865,5.36571836 L18.4700186,5.36571836 L18.4700186,6.45787574 L18.1742096,6.45862328 C17.9127456,6.45862328 17.7543161,6.33509213 17.7543161,6.03458066 L17.7567165,4.89420689 L19.7943268,4.89420689 L19.7945114,6.45694131 L19.0826865,6.45638066 Z M20.4382006,4.24347246 L20.4382006,3.08160689 C20.4382006,2.53235115 20.1383293,2.21819705 19.5212298,2.21819705 L17.1217059,2.21969213 L17.1217059,4.24347246 L16.8495321,4.24347246 L16.8495321,4.89420689 L17.1217059,4.89420689 L17.1217059,6.15904623 C17.1217059,6.75577082 17.4686628,7.07497082 18.0678514,7.07497082 L20.4382006,7.08076426 L20.4382006,4.89420689 L20.6909861,4.89420689 L20.6909861,4.24347246 L20.4382006,4.24347246 Z" id="Fill-15"></path>
                                <polygon id="Fill-17" points="16.6897362 1.13742098 15.7997243 1.13742098 15.7997243 0.56872918 15.1661909 0.56872918 15.1661909 1.13742098 14.225585 1.13742098 14.225585 1.79039803 15.1661909 1.79039803 15.1661909 7.0829882 15.7997243 7.0829882 15.7997243 1.79039803 16.6897362 1.79039803"></polygon>
                                <path d="M14.1428619,6.66668262 L14.6606198,6.66743016 C14.8125866,5.50631213 14.8617034,4.35098754 14.8617034,2.21825311 L14.3391446,2.21825311 C14.3391446,3.55261377 14.3611179,5.06488918 14.1428619,6.66668262" id="Fill-19"></path>
                                <path d="M16.5878649,2.21821574 L16.0839557,2.21821574 C16.0839557,4.35095016 16.1312261,5.50627475 16.2780226,6.66739279 L16.777131,6.66664525 C16.5668149,5.0648518 16.5878649,3.55257639 16.5878649,2.21821574" id="Fill-21"></path>
                                <path d="M21.3880205,9.03597639 L20.8211457,9.03597639 L20.8211457,8.35608787 L20.4422444,8.35608787 L20.4422444,10.6517862 L20.8231769,10.6523469 L20.8228076,9.38788131 L21.2820316,9.38788131 C21.5037959,9.38788131 21.6025836,9.50860918 21.6025836,9.71567803 L21.6025836,10.6523469 L21.98407,10.6523469 L21.98407,9.6590518 C21.98407,9.24098951 21.7966505,9.03597639 21.3880205,9.03597639" id="Fill-23"></path>
                                <polygon id="Fill-25" points="19.4020753 8.73819344 19.783377 8.73819344 19.783377 8.35433115 19.4020753 8.35433115"></polygon>
                                <polygon id="Fill-27" points="19.4018906 10.652459 19.7863314 10.652459 19.7863314 9.03608852 19.4018906 9.03608852"></polygon>
                                <path d="M16.0290409,9.03769574 C15.8914768,9.03769574 14.1428434,9.03489246 14.1428434,9.03489246 L14.1428434,10.6523843 L14.5239605,10.6523843 C14.5248838,9.70842689 14.5245145,9.38717115 14.5245145,9.38717115 C14.5245145,9.38717115 14.8853201,9.38754492 14.9440388,9.38754492 C15.1122547,9.38754492 15.1905462,9.47743672 15.1905462,9.64768918 C15.1905462,10.0167875 15.192762,10.6523843 15.192762,10.6523843 L15.5674164,10.6523843 C15.5674164,9.71945311 15.5677857,9.38810557 15.5677857,9.38810557 L15.9306225,9.38754492 C16.1278285,9.38754492 16.2310477,9.51668262 16.2310477,9.70076459 L16.2310477,10.6523843 L16.6149346,10.6523843 L16.6149346,9.59480066 C16.6149346,9.24476459 16.4241914,9.03769574 16.0290409,9.03769574" id="Fill-28"></path>
                                <path d="M17.9022205,9.34458 L18.1359871,9.34458 C18.3156514,9.34458 18.3902499,9.43428492 18.3902499,9.60248164 L18.3902499,9.72563902 L17.6291235,9.72601279 L17.6291235,9.59874393 C17.6291235,9.43054721 17.7256953,9.34458 17.9022205,9.34458 M17.2476371,9.57426197 C17.2461599,9.82375377 17.2459752,9.96373082 17.2459752,9.99737016 C17.2459752,10.4350554 17.452783,10.6520292 17.8656599,10.6520292 C17.8952038,10.6520292 18.7333292,10.652403 18.7333292,10.652403 L18.7342524,10.3335767 C18.7342524,10.3335767 17.984759,10.3341374 17.9771883,10.3339505 C17.7620713,10.3339505 17.6304161,10.2429374 17.6304161,10.0310095 L18.7721056,10.0297013 L18.7757986,9.5877177 C18.7757986,9.26197672 18.5974269,9.03864885 18.2249883,9.03864885 C18.2249883,9.03864885 18.2569327,9.03678 17.8089724,9.03827508 C17.4562913,9.03827508 17.2476371,9.2685177 17.2476371,9.57426197" id="Fill-29"></path>
                                <path d="M23.2125265,10.6486839 C23.3434432,10.6486839 24.154979,10.6524216 24.154979,10.6524216 C24.154979,10.6524216 24.1566408,9.85423475 24.158118,9.03492984 L23.7775548,9.03306098 L23.7742311,10.2993954 C23.7742311,10.2993954 23.287125,10.2969659 23.2867557,10.2969659 C23.0952739,10.2969659 22.9957477,10.2042708 22.9957477,10.0072938 C22.9959323,9.86357902 22.9963016,9.74771016 22.9979635,9.03137902 L22.6166617,9.03063148 C22.6166617,9.03063148 22.6159231,9.42383803 22.6144436,10.0581266 C22.6137073,10.4477823 22.792079,10.6486839 23.2125265,10.6486839" id="Fill-30"></path>
                                <polygon id="Fill-31" points="27.2061134 10.652459 27.6972818 10.652459 27.6972818 10.1553443 27.2061134 10.1553443"></polygon>
                                <polygon id="Fill-32" points="28.5789845 8.73819344 28.9604709 8.73819344 28.9604709 8.35433115 28.5789845 8.35433115"></polygon>
                                <polygon id="Fill-33" points="28.5795385 10.652459 28.96361 10.652459 28.96361 9.03608852 28.5795385 9.03608852"></polygon>
                                <path d="M34.7190512,10.034822 C34.7190512,10.2144187 34.604753,10.298517 34.4455849,10.298517 C34.4285971,10.298517 34.221974,10.3000121 34.2060941,10.2990777 C34.0356624,10.2990777 33.9233953,10.2065695 33.9233953,10.015199 L33.9233953,9.66049082 C33.9233953,9.49061213 34.0234755,9.38857279 34.2046169,9.38857279 C34.2635202,9.38633016 34.4612801,9.38932033 34.4300743,9.38932033 C34.6282035,9.38932033 34.7190512,9.51303836 34.7190512,9.69151377 L34.7190512,10.034822 Z M34.4873157,9.03685475 C34.4649731,9.03685475 34.1754423,9.03704164 34.1542075,9.03778918 C33.748532,9.03778918 33.5293527,9.2592482 33.5293527,9.62965475 C33.5293527,9.98398918 33.5286141,9.54892033 33.5286141,9.97800885 C33.5286141,10.4442875 33.7317288,10.6513564 34.1625168,10.6513564 C34.1830129,10.6521039 34.4455849,10.6524777 34.4670042,10.6524777 C34.8724952,10.6524777 35.1103241,10.4872711 35.1103241,10.0394941 C35.1103241,10.0394941 35.1119859,9.66777934 35.1119859,9.63656951 C35.1119859,9.28316951 34.9046242,9.03685475 34.4873157,9.03685475 L34.4873157,9.03685475 Z" id="Fill-34"></path>
                                <path d="M30.5429749,9.03597639 C30.4118736,9.03597639 29.6077238,9.03429443 29.6077238,9.03429443 L29.6077238,10.6517862 L29.9888409,10.6523469 L29.9892102,9.38638623 L30.4724387,9.38638623 C30.6735223,9.38638623 30.7684323,9.50655344 30.7684323,9.68708459 L30.7684323,10.6523469 L31.1497341,10.6523469 L31.1497341,9.62503869 C31.1497341,9.24454033 30.9626839,9.03597639 30.5429749,9.03597639" id="Fill-35"></path>
                                <path d="M31.9996216,8.85492197 C31.9998063,8.87940393 31.9998063,8.94425311 31.9998063,9.03545311 L31.6330918,9.03545311 L31.6330918,9.38604984 L31.9999909,9.38604984 C32.0001756,9.81233508 32.0003602,10.3780367 32.0009142,10.6516367 L32.3870168,10.6523843 C32.3870168,10.6523843 32.3864629,9.87924 32.3860936,9.38604984 L33.0608039,9.38604984 L33.0608039,9.03545311 L32.3857243,9.03545311 L32.3857243,8.98536787 C32.3857243,8.7925023 32.4666009,8.70410557 32.6774709,8.70410557 L33.0718829,8.70578754 L33.0726215,8.35444328 C33.059696,8.35481705 32.9745724,8.35575148 32.516087,8.35705967 C32.1525116,8.35705967 31.9996216,8.5403941 31.9996216,8.85492197 M33.0726215,8.35425639 L33.0726215,8.35444328 C33.0774224,8.35425639 33.0726215,8.35425639 33.0726215,8.35425639" id="Fill-36"></path>
                                <path d="M25.3974873,10.3467148 C25.2407197,10.3467148 25.1755383,10.2854164 25.1755383,10.1405803 C25.1755383,10.0022852 25.2357341,9.93425902 25.3954562,9.93425902 C25.4028422,9.93425902 25.9412809,9.93519344 25.9412809,9.93519344 L25.9392498,10.3455934 C25.9392498,10.3455934 25.4244462,10.3467148 25.3974873,10.3467148 M25.7001283,9.03870492 C25.6705843,9.03870492 24.8911776,9.0388918 24.8911776,9.0388918 L24.890439,9.35771803 C24.890439,9.35771803 25.6796322,9.35678361 25.6872028,9.35678361 C25.8735144,9.35678361 25.9434967,9.44013443 25.9434967,9.64178361 L25.2669399,9.6406623 C24.959498,9.6406623 24.7859273,9.7939082 24.7859273,10.0734885 L24.7859273,10.1861803 C24.7859273,10.497718 24.9630064,10.652459 25.302208,10.652459 L26.3209208,10.6520852 C26.3209208,10.6520852 26.3249831,9.73223607 26.3249831,9.6685082 C26.3249831,9.22876721 26.1743089,9.03870492 25.7001283,9.03870492" id="Fill-37"></path>
                                <path d="M4.92769319,10.8409515 L5.77874401,9.65516459 L6.63016413,10.8409515 C6.91951033,11.2442498 7.4773373,11.3337679 7.87581152,11.0407318 C8.27428574,10.7475089 8.36273298,10.1831154 8.07320213,9.77981705 L6.50053999,7.58896131 C6.49112285,7.57606623 6.47930526,7.5663482 6.46970347,7.55401377 C6.4501306,7.5295318 6.42981912,7.50598426 6.4074765,7.48337115 C6.38513387,7.46075803 6.361868,7.44020066 6.33767888,7.42039082 C6.325492,7.4104859 6.31589021,7.39852525 6.30314937,7.38918098 C6.29336294,7.38207934 6.2824686,7.37778098 6.27231286,7.37105311 C6.24535399,7.35273836 6.21747188,7.33685311 6.18903581,7.3219023 C6.16447739,7.30900721 6.13991897,7.2964859 6.1148066,7.28602033 C6.08766308,7.27480721 6.06033492,7.26602361 6.03226815,7.25761377 C6.00420139,7.24920393 5.97650392,7.24116787 5.94806785,7.23556131 C5.92055504,7.23032852 5.89304222,7.22733836 5.86497545,7.22453508 C5.83617009,7.2217318 5.80773402,7.2193023 5.77874401,7.2193023 C5.74993864,7.2193023 5.72150258,7.2217318 5.69269721,7.22453508 C5.6648151,7.22733836 5.63730228,7.23032852 5.60960481,7.23556131 C5.58116875,7.24116787 5.55365593,7.24920393 5.52540452,7.25761377 C5.4975224,7.26602361 5.47019423,7.27480721 5.44305072,7.28602033 C5.4177537,7.2964859 5.39319528,7.30900721 5.36882151,7.3219023 C5.34001614,7.33685311 5.31231867,7.35273836 5.28535981,7.37105311 C5.27538872,7.37778098 5.26430973,7.38207934 5.25470794,7.38918098 C5.24178246,7.39852525 5.23218067,7.4104859 5.22017844,7.42039082 C5.19598931,7.44020066 5.17272344,7.46075803 5.15038082,7.48337115 C5.1280382,7.50598426 5.10772672,7.5295318 5.08815385,7.55401377 C5.07818276,7.5663482 5.06654982,7.57606623 5.05731733,7.58896131 L3.48465519,9.77981705 C3.19512434,10.1831154 3.28338693,10.7475089 3.68186115,11.0407318 C4.08033537,11.3337679 4.63816234,11.2442498 4.92769319,10.8409515" id="Fill-38"></path>
                                <path d="M10.2177985,9.31849082 L10.2177985,9.31849082 C10.6162727,9.02545475 10.70472,8.46087443 10.4151891,8.05757607 L9.56395364,6.87197607 L10.9412563,6.41896623 C11.4097128,6.26497279 11.6661913,5.75571049 11.5140399,5.28139574 C11.3615192,4.80745475 10.8585332,4.54787115 10.3900767,4.70186459 L7.84523352,5.53873672 C7.814397,5.54901541 7.78466839,5.56078918 7.75586303,5.57387115 C7.75253933,5.57536623 7.74976958,5.5770482 7.74644589,5.57854328 C7.69363605,5.60339902 7.64414991,5.63255311 7.59798747,5.66619246 C7.59780282,5.66637934 7.59724887,5.66656623 7.59669492,5.66694 C7.59577167,5.66768754 7.59503307,5.66880885 7.59392517,5.66955639 C7.54720878,5.70413016 7.50455468,5.74281541 7.46596288,5.78505148 C7.46226988,5.78897607 7.45931548,5.79308754 7.45580714,5.79719902 C7.42090833,5.83681869 7.38933322,5.87924164 7.3618204,5.92428098 C7.35812741,5.93063508 7.35480371,5.93698918 7.35129537,5.94315639 C7.3258137,5.9874482 7.30384037,6.03360885 7.28592934,6.08163836 C7.28371355,6.08761869 7.2820517,6.09359902 7.2798359,6.09976623 C7.26284812,6.14873016 7.24973799,6.19918918 7.24142875,6.25076951 C7.2405055,6.25544164 7.2401362,6.26011377 7.2393976,6.2647859 C7.23182696,6.31692689 7.22831861,6.37018918 7.22979581,6.42382525 C7.22979581,6.42868426 7.23034976,6.43335639 7.23071906,6.43821541 C7.23311951,6.49054328 7.2393976,6.54324492 7.25121519,6.59575967 C7.25250773,6.60192689 7.25453888,6.6080941 7.25620073,6.61426131 C7.26118627,6.63500557 7.26617182,6.65556295 7.27263456,6.67630721 C7.28260565,6.70733016 7.29442323,6.73741869 7.30716407,6.76675967 C7.30864127,6.76993672 7.31067241,6.77311377 7.31214961,6.77629082 C7.33652338,6.82992689 7.36532875,6.88001213 7.39838106,6.92635967 C7.39875036,6.92692033 7.39893501,6.92748098 7.39930431,6.92785475 L8.9721511,9.11871049 C9.2614973,9.52200885 9.81932428,9.61152689 10.2177985,9.31849082" id="Fill-39"></path>
                                <path d="M6.86742063,4.43602033 C6.87388337,4.43901049 6.88016146,4.44218754 6.88680885,4.44499082 C6.93518709,4.46517443 6.98541183,4.4806859 7.03674447,4.4920859 C7.04191466,4.49320721 7.04690021,4.49451541 7.0520704,4.49563672 C7.10783463,4.50703672 7.16489142,4.51283016 7.2226868,4.51320393 C7.22397934,4.51320393 7.22508724,4.5135777 7.22619514,4.5135777 C7.22693374,4.5135777 7.22748769,4.51339082 7.22804164,4.51339082 C7.28454447,4.51320393 7.34160125,4.50722361 7.39865803,4.49582361 C7.40216638,4.49507607 7.40585937,4.49488918 7.40936772,4.49414164 C7.44038888,4.48741377 7.47122539,4.4793777 7.50206191,4.4692859 L10.0467205,3.63241377 C10.515177,3.47842033 10.7716555,2.96915803 10.6193194,2.49503016 C10.4669834,2.0209023 9.96399738,1.76131869 9.49535624,1.91549902 L8.11823821,2.36832197 L8.11823821,0.902767869 C8.11823821,0.404158033 7.71884075,-7.47540984e-05 7.22619514,-7.47540984e-05 C6.73373419,-7.47540984e-05 6.33433672,0.404158033 6.33433672,0.902767869 L6.33433672,3.61073508 C6.33433672,3.61129574 6.33452137,3.61185639 6.33452137,3.61241705 C6.33470602,3.66960393 6.34043016,3.72735148 6.35187845,3.7852859 C6.35261705,3.78883672 6.3528017,3.79238754 6.3535403,3.79593836 C6.36018769,3.82733508 6.36812763,3.85854492 6.37809872,3.88975475 C6.38474611,3.91031213 6.3928707,3.92993508 6.40081064,3.94974492 C6.40302644,3.95572525 6.40487294,3.96170557 6.40745803,3.96749902 C6.42850811,4.01702361 6.45398978,4.06337115 6.48224119,4.1071023 C6.48501094,4.11121377 6.48722674,4.11551213 6.48999648,4.11943672 C6.51990975,4.16391541 6.55370066,4.20465639 6.59026131,4.24240721 C6.59358501,4.24577115 6.5965394,4.24913508 6.5998631,4.25249902 C6.63660841,4.28931541 6.67667741,4.3223941 6.71877756,4.35192197 C6.7241324,4.35547279 6.72893329,4.35921049 6.73410349,4.36276131 C6.77638829,4.39116787 6.82107353,4.41546295 6.86742063,4.43602033" id="Fill-40"></path>
                                <path d="M4.15916235,4.49587967 C4.21621914,4.50727967 4.27309127,4.51307311 4.32977875,4.51326 C4.3303327,4.51326 4.33088665,4.51344689 4.3314406,4.51344689 C4.33254849,4.51344689 4.33365639,4.51307311 4.33494894,4.51307311 C4.39292897,4.51288623 4.44998575,4.50709279 4.50574999,4.49569279 C4.51092018,4.49457148 4.51590572,4.49307639 4.52107592,4.49195508 C4.57240855,4.48055508 4.62263329,4.46504361 4.67082689,4.44504689 C4.67765893,4.44205672 4.68393702,4.43887967 4.69039976,4.43607639 C4.73674686,4.41533213 4.7814321,4.39103705 4.8237169,4.36281738 C4.82888709,4.35926656 4.83368799,4.35552885 4.83904283,4.35179115 C4.88114298,4.32226328 4.92102733,4.28937148 4.95795729,4.25255508 C4.96128098,4.24919115 4.96423538,4.24564033 4.96755908,4.24246328 C5.00411973,4.20471246 5.03791064,4.16397148 5.06763925,4.11949279 C5.07059365,4.11538131 5.07280945,4.11108295 5.0755792,4.10697148 C5.10383061,4.06342721 5.12931228,4.01707967 5.1501777,3.96755508 C5.1527628,3.96176164 5.15479395,3.95559443 5.15700975,3.9496141 C5.16494969,3.92999115 5.17307428,3.9103682 5.17953702,3.88962393 C5.18969276,3.85860098 5.1976327,3.82720426 5.20409544,3.79599443 C5.20483404,3.79244361 5.20520334,3.7887059 5.20594194,3.78515508 C5.21720557,3.72740754 5.22311437,3.66966 5.22311437,3.61247311 C5.22311437,3.61191246 5.22329902,3.6113518 5.22329902,3.61079115 L5.22329902,0.902637049 C5.22329902,0.404027213 4.8240862,-1.86885246e-05 4.3314406,-1.86885246e-05 C3.83897964,-1.86885246e-05 3.43958218,0.404027213 3.43958218,0.902637049 L3.43958218,2.36837803 L2.06246414,1.9153682 C1.59382301,1.76137475 1.09065237,2.02077148 0.938500954,2.49489934 C0.786164888,2.9692141 1.04264343,3.47847639 1.51109991,3.63246984 L4.05575848,4.46915508 C4.08659499,4.47943377 4.11743151,4.48746984 4.14845267,4.49401082 C4.15196101,4.49494525 4.15546936,4.49513213 4.15916235,4.49587967" id="Fill-41"></path>
                                <path d="M2.58566928,9.11872918 L4.15851608,6.92787344 C4.15888538,6.92731279 4.15907003,6.92675213 4.15925468,6.92637836 C4.19230699,6.88003082 4.221297,6.82975869 4.24567077,6.77630951 C4.24714797,6.77313246 4.24899447,6.76995541 4.25047167,6.76677836 C4.26339715,6.73743738 4.27503009,6.70734885 4.28500118,6.6763259 C4.29164857,6.65558164 4.29663411,6.63483738 4.30161966,6.61428 C4.30309686,6.6079259 4.30531265,6.60194557 4.30642055,6.59577836 C4.31842279,6.54326361 4.32470088,6.49056197 4.32710133,6.43842098 C4.32728598,6.43356197 4.32783993,6.42851607 4.32802458,6.42365705 C4.32950177,6.37002098 4.32599343,6.31694557 4.31842279,6.26480459 C4.31768419,6.26013246 4.31713024,6.25546033 4.31639164,6.2507882 C4.30789775,6.19902098 4.29497227,6.14856197 4.27779984,6.09959803 C4.27576869,6.0936177 4.27410684,6.08763738 4.27189104,6.08165705 C4.25398001,6.03362754 4.23200669,5.98765377 4.20652502,5.94336197 C4.20301668,5.93700787 4.19969298,5.93046689 4.19599999,5.92429967 C4.16848717,5.87926033 4.13691206,5.83683738 4.10201325,5.79703082 C4.0985049,5.79310623 4.09536586,5.78899475 4.09185751,5.78507016 C4.05326571,5.7428341 4.01042696,5.70414885 3.96371057,5.6693882 C3.96278732,5.66864066 3.96204872,5.66770623 3.96112547,5.66695869 C3.96057152,5.66658492 3.96001757,5.66639803 3.95964827,5.66621115 C3.91367048,5.6325718 3.86418434,5.60323082 3.81118985,5.57856197 C3.8080508,5.57706689 3.80509641,5.57538492 3.80195736,5.57388984 C3.773152,5.56080787 3.74342338,5.54884721 3.71258687,5.53875541 L1.16774365,4.70188328 C0.699287168,4.54788984 0.196116528,4.80747344 0.043780462,5.28141443 C-0.108370954,5.7555423 0.148107586,6.26480459 0.616564069,6.41898492 L1.9936821,6.87199475 L1.14263128,8.05759475 C0.852915782,8.46089311 0.941363025,9.02547344 1.33983724,9.31850951 C1.73831146,9.61154557 2.29613844,9.52202754 2.58566928,9.11872918" id="Fill-42"></path>
                                <path d="M5.77881787,6.32795311 C5.39659283,6.32795311 5.08638121,6.01417279 5.08638121,5.62713344 C5.08638121,5.2400941 5.39659283,4.92631377 5.77881787,4.92631377 C6.16122756,4.92631377 6.47125453,5.2400941 6.47125453,5.62713344 C6.47125453,6.01417279 6.16122756,6.32795311 5.77881787,6.32795311" id="Fill-43"></path>
                            </g>
                        </g>
                    </g>
                </g>
            </g>
        </g>
    </g>
</svg>