<?xml version="1.0" encoding="UTF-8"?>
<svg width="20px" height="20px" viewBox="0 0 20 20" version="1.1" xmlns="http://www.w3.org/2000/svg" xmlns:xlink="http://www.w3.org/1999/xlink">
    <!-- Generator: Sketch 56.1 (81669) - https://sketch.com -->
    <title>旅游航空</title>
    <desc>Created with Sketch.</desc>
    <g id="Page-1" stroke="none" stroke-width="1" fill="none" fill-rule="evenodd">
        <g id="00-作品修改" transform="translate(-537.000000, -2565.000000)">
            <g id="编组-7" transform="translate(171.000000, 2151.000000)">
                <g id="旅游航空" transform="translate(366.000000, 414.000000)">
                    <rect id="矩形备份-25" x="0" y="0" width="20" height="20"></rect>
                    <path d="M18,7.1095808 C18,9.8846186 4.65692662,12.9474809 3.6465289,12.9474809 C3.08016637,12.9474809 2.43741906,12.816729 2.43741906,12.2930325 C2.43741906,12.1180654 2.63870859,11.8653357 2.9922544,11.560477 L2.99191031,11.560649 L2.05514173,9.89218182 L2.0551417,9.89218177 C1.9389768,9.68552836 2.01233209,9.42383175 2.21898601,9.30766686 C2.23511939,9.29859787 2.25182231,9.29058187 2.26899042,9.28366897 L2.42984947,9.21915321 L2.42984947,9.21915321 C2.72154869,9.10197552 3.05007961,9.11941242 3.32773419,9.2668089 L5.02802483,10.1693378 C5.69004269,9.77570507 6.4411764,9.36349245 7.23257178,8.95764879 L3.91903793,6.80230217 C3.65701743,6.6318087 3.65977049,6.24608988 3.92419919,6.07938112 L4.19533743,5.90871541 L4.1953375,5.90871537 C4.64619578,5.62449303 5.19489606,5.54042746 5.71017148,5.67663065 L11.2224,7.134347 C12.9411043,6.45047945 14.4951564,5.98355438 15.4150621,5.98355438 C15.660566,5.98355438 15.9065865,5.99009197 16.1440043,6.00712418 L14.4793243,6.76066821 L14.4394105,7.32204131 L17.009207,6.13770301 C17.6249455,6.28514293 18,6.56006588 18,7.10956817 L18,7.1095808 Z M11.293771,11.8997503 L13.3500143,14.2415903 L13.3500143,14.2415903 C13.475093,14.3842781 13.6793258,14.4273108 13.8513445,14.3472245 L14.1266119,14.2188812 L14.1266118,14.2188812 C14.6292521,13.9841257 14.9249468,13.4537474 14.8603712,12.9027593 L14.6029965,10.6961474 L14.6029965,10.6961474 C14.5894738,10.5788189 14.4833982,10.4946676 14.3660697,10.5081905 C14.3501837,10.5100214 14.3345533,10.5136284 14.3194715,10.5189439 L11.3833972,11.555844 L11.3833973,11.555844 C11.271646,11.5955047 11.2132054,11.718248 11.2528664,11.8299992 C11.2619898,11.8557061 11.2759282,11.879439 11.2939358,11.8999281 L11.293771,11.8997503 Z" id="形状备份-28" fill="#979797" fill-rule="nonzero"></path>
                </g>
            </g>
        </g>
    </g>
</svg>