<?xml version="1.0" encoding="UTF-8"?>
<svg width="20px" height="20px" viewBox="0 0 20 20" version="1.1" xmlns="http://www.w3.org/2000/svg" xmlns:xlink="http://www.w3.org/1999/xlink">
    <!-- Generator: Sketch 56.1 (81669) - https://sketch.com -->
    <title>应用</title>
    <desc>Created with Sketch.</desc>
    <g id="Page-1" stroke="none" stroke-width="1" fill="none" fill-rule="evenodd">
        <g id="00-作品修改" transform="translate(-1412.000000, -2362.000000)">
            <g id="编组-23" transform="translate(1214.000000, 2151.000000)">
                <g id="应用" transform="translate(198.000000, 211.000000)">
                    <rect id="矩形备份-35" x="0" y="0" width="20" height="20"></rect>
                    <path d="M15.4574474,12.5169046 C15.7699943,12.5169046 16.0224361,12.7753569 16.0165307,13.0999249 C16.0165307,13.3403456 15.8721731,13.5447032 15.6678155,13.634861 L10.2222858,15.9549211 C10.0840439,16.0150263 9.92777044,16.0150263 9.78952851,15.9549211 L9.78351799,15.9549211 L4.33798832,13.634861 C4.13363069,13.5507137 3.98937825,13.3403456 3.98937825,13.0999249 C3.98937825,12.7753569 4.24182002,12.5169046 4.55436698,12.5169046 C4.63250372,12.5169046 4.70462994,12.5289256 4.77074564,12.5589782 L10.0059072,14.7888805 L15.2410687,12.5589782 C15.3071844,12.5289256 15.3853211,12.5169046 15.4574474,12.5169046 Z M15.4574474,9.99849737 C15.7699943,9.99849737 16.0224361,10.2569497 16.0044045,10.5815177 C16.0044045,10.8219384 15.8601521,11.0323065 15.6557945,11.1164538 L10.2102648,13.4365139 C10.1441491,13.460556 10.0720229,13.4785875 9.99388614,13.4785875 C9.9157494,13.4785875 9.84362318,13.4665665 9.77750748,13.4365139 L4.3319778,11.1164538 C4.12762017,11.0323065 3.98336773,10.8219384 3.98336773,10.5815177 C3.98336773,10.2569497 4.2358095,9.99849737 4.54835646,9.99849737 C4.6264932,9.99849737 4.76473512,10.040571 4.76473512,10.040571 L10.0059072,12.2704733 L15.2410687,10.040571 C15.2410687,10.040571 15.349258,9.99849737 15.4574474,9.99849737 Z M4.33798832,8.2133734 C4.13363069,8.10518407 3.98937825,7.8527423 3.98937825,7.5582269 C3.98937825,7.25770098 4.13363069,7.0052592 4.33798832,6.89706987 L9.79553903,4.05409467 C9.93378095,3.98196844 10.0900544,3.98196844 10.2282964,4.05409467 L15.661805,6.90308039 C15.8661626,7.01126972 16.0104151,7.2637115 16.0104151,7.56423742 C16.0104151,7.85875282 15.8661626,8.11119459 15.661805,8.21938392 L10.2162753,11.0623591 C10.1441491,11.0984222 10.0720229,11.1164538 9.99989666,11.1164538 C9.92175992,11.1164538 9.8496337,11.0984222 9.78351799,11.0623591 L4.33798832,8.2133734 Z" id="形状结合" fill="#979797" fill-rule="nonzero"></path>
                </g>
            </g>
        </g>
    </g>
</svg>