<?xml version="1.0" encoding="UTF-8"?>
<svg width="20px" height="20px" viewBox="0 0 20 20" version="1.1" xmlns="http://www.w3.org/2000/svg" xmlns:xlink="http://www.w3.org/1999/xlink">
    <!-- Generator: Sketch 56.1 (81669) - https://sketch.com -->
    <title>体育运动</title>
    <desc>Created with Sketch.</desc>
    <g id="Page-1" stroke="none" stroke-width="1" fill="none" fill-rule="evenodd">
        <g id="00-作品修改" transform="translate(-537.000000, -2514.000000)">
            <g id="编组-7" transform="translate(171.000000, 2151.000000)">
                <g id="体育运动" transform="translate(366.000000, 363.000000)">
                    <rect id="矩形备份-22" x="0" y="0" width="20" height="20"></rect>
                    <path d="M6.96694864,13.1377497 L6.96694864,13.8622496 L6.96694864,13.8622501 C6.96694864,15.5951875 8.32507553,17 10.000423,17 C11.6757704,17 13.0338973,15.5951875 13.0338973,13.8622501 L13.0338973,13.1377497 L6.96694864,13.1377497 L6.96694864,13.1377497 Z M9.27462236,12.6547497 L10.7262236,12.6547497 L11.6355891,4.66337494 L11.6745015,4.29849996 L10.000423,3 L8.32634441,4.29849996 L8.3652568,4.66162494 L9.27462236,12.6547497 L10.7262236,12.6547497 L9.27462236,12.6547497 L9.27462236,12.6547497 Z M12.1558308,4.19349996 L13.5,3 L14.9,4.44812495 L13.0330514,12.6556247 L11.1965559,12.6556247 L12.0991541,4.71762494 L12.1558308,4.19262496 L12.1558308,4.19349996 Z M7.86870091,12.6547497 L8.78229607,12.6547497 L6.95510574,12.6547497 L5.1,4.44812495 L6.49154079,3 L7.82809668,4.19262496 L7.88477341,4.71674994 L8.78145015,12.6547497 L7.86785498,12.6547497 L7.86870091,12.6547497 Z" id="形状备份-9" fill="#979797" fill-rule="nonzero"></path>
                </g>
            </g>
        </g>
    </g>
</svg>