<?xml version="1.0" encoding="UTF-8"?>
<svg width="20px" height="20px" viewBox="0 0 20 20" version="1.1" xmlns="http://www.w3.org/2000/svg" xmlns:xlink="http://www.w3.org/1999/xlink">
    <!-- Generator: Sketch 56.1 (81669) - https://sketch.com -->
    <title>文化娱乐</title>
    <desc>Created with Sketch.</desc>
    <g id="Page-1" stroke="none" stroke-width="1" fill="none" fill-rule="evenodd">
        <g id="00-作品修改" transform="translate(-201.000000, -2514.000000)">
            <g id="编组-7" transform="translate(171.000000, 2151.000000)">
                <g id="文化娱乐" transform="translate(30.000000, 363.000000)">
                    <rect id="矩形备份-21" x="0" y="0" width="20" height="20"></rect>
                    <path d="M14.9774473,5.416 C14.7252788,5.416 14.5548947,5.566 14.5548947,5.788 L14.5548947,14.434 C14.5548947,14.806 14.132342,15.178 13.7097893,15.178 L6.2605948,15.178 C5.74944238,15.178 5.16332094,14.806 5.16332094,14.434 L5.16332094,13.612 C5.16332094,13.24 5.67447336,13.018 6.17881041,13.018 L13.2872367,13.018 C13.5394052,13.018 13.7097893,12.868 13.7097893,12.646 L13.7097893,5.344 C13.7097893,4.522 13.0350682,4 12.0195787,4 L6.2605948,4 C5.32688971,4 4.4,4.45 4.4,5.344 L4.4,14.734 C4.48178439,15.406 5.24510533,15.928 6.00842627,16 L13.7097893,16 C14.6434944,16 15.4,15.328 15.4,14.584 L15.4,5.788 C15.4,5.638 15.2364312,5.416 14.9774473,5.416 Z M13.3690211,13.762 L6.43097893,13.762 C6.17881041,13.762 6.00842627,13.912 6.00842627,14.134 C6.00842627,14.356 6.17881041,14.506 6.43097893,14.506 L13.3758364,14.506 C13.628005,14.506 13.7983891,14.356 13.7983891,14.134 C13.7915737,13.912 13.628005,13.762 13.3690211,13.762 Z" id="形状备份-8" fill="#979797" fill-rule="nonzero"></path>
                </g>
            </g>
        </g>
    </g>
</svg>