<?xml version="1.0" encoding="UTF-8"?>
<svg width="20px" height="20px" viewBox="0 0 20 20" version="1.1" xmlns="http://www.w3.org/2000/svg" xmlns:xlink="http://www.w3.org/1999/xlink">
    <!-- Generator: Sketch 56.1 (81669) - https://sketch.com -->
    <title>商务摄影</title>
    <desc>Created with Sketch.</desc>
    <g id="Page-1" stroke="none" stroke-width="1" fill="none" fill-rule="evenodd">
        <g id="00-作品修改" transform="translate(-1412.000000, -2462.000000)">
            <g id="编组-23" transform="translate(1214.000000, 2151.000000)">
                <g id="商务摄影" transform="translate(198.000000, 311.000000)">
                    <rect id="矩形备份-41" x="0" y="0" width="20" height="20"></rect>
                    <path d="M9.94671391,8.46410678 C8.89905516,8.46410678 8.04467139,9.33618174 8.04467139,10.4072162 C8.04467139,11.4782507 8.89724885,12.3521851 9.94671391,12.3521851 C10.9943727,12.3521851 11.8487564,11.4801102 11.8487564,10.4072162 C11.8487564,9.33432231 10.9943727,8.46410678 9.94671391,8.46410678 Z M16.4873558,13.869484 C16.4837432,13.8787812 16.4783243,13.8880784 16.4747117,13.8955161 L16.4747117,6.72739458 C16.4747117,6.2755519 16.11345,5.90552436 15.6727109,5.90552436 L13.24142,5.90552436 L13.2287759,5.87763284 L12.9144783,5.2361278 C12.8783521,5.15245323 12.5568292,4.44958684 12.1197027,4.44958684 L7.85500903,4.44958684 C7.40885091,4.44958684 7.07829651,5.19522023 7.06384605,5.22683062 L6.74593581,5.8757734 L6.73329165,5.90366493 L4.30200083,5.90366493 C3.86126164,5.90366493 3.5,6.27369247 3.5,6.72553515 L3.5,14.7285429 C3.5,15.1822451 3.86126164,15.5504132 4.30200083,15.5504132 L15.6727109,15.5504132 C16.1152564,15.5504132 16.4747117,15.1803856 16.4747117,14.7285429 L16.4747117,13.9029538 C16.4819369,13.8917972 16.4927748,13.8806406 16.5,13.8676246 L16.4873558,13.869484 Z M9.94671391,13.2186818 C8.43302765,13.2186818 7.19931916,11.9561255 7.19931916,10.4072162 C7.19931916,8.85830697 8.43122134,7.59575068 9.94671391,7.59575068 C11.4622065,7.59575068 12.6941087,8.85830697 12.6941087,10.4072162 C12.6941087,11.9561255 11.4622065,13.2186818 9.94671391,13.2186818 Z M14.1517994,8.34696238 C13.7995693,8.34696238 13.5123663,8.05131223 13.5123663,7.68872243 C13.5123663,7.32613262 13.7995693,7.02862304 14.1517994,7.02862304 C14.5040295,7.02862304 14.7930388,7.32427319 14.7930388,7.68872243 C14.7894261,8.05317166 14.5040295,8.34696238 14.1517994,8.34696238 L14.1517994,8.34696238 Z M15.5801818,13.9156154 L15.5801818,13.8772154 L15.5801818,13.9156154 Z" id="形状备份-17" fill="#979797" fill-rule="nonzero"></path>
                </g>
            </g>
        </g>
    </g>
</svg>