<?xml version="1.0" encoding="UTF-8"?>
<svg width="20px" height="20px" viewBox="0 0 20 20" version="1.1" xmlns="http://www.w3.org/2000/svg" xmlns:xlink="http://www.w3.org/1999/xlink">
    <!-- Generator: Sketch 56.1 (81669) - https://sketch.com -->
    <title>车</title>
    <desc>Created with Sketch.</desc>
    <g id="Page-1" stroke="none" stroke-width="1" fill="none" fill-rule="evenodd">
        <g id="00-作品修改" transform="translate(-537.000000, -2412.000000)">
            <g id="编组-7" transform="translate(171.000000, 2151.000000)">
                <g id="车" transform="translate(366.000000, 261.000000)">
                    <rect id="矩形备份-16" x="0" y="0" width="20" height="20"></rect>
                    <path d="M8.49477587,4.40363581 C9.59079366,4.24927252 10.4959722,4.25479884 11.4980482,4.40363581 C12.1836574,4.54878893 12.878479,4.66225858 13.5526675,4.8494106 C14.0518619,4.98793215 14.4125347,5.32650083 14.5908446,5.84374749 C14.8741513,6.6608786 15.1710891,7.47322507 15.4835006,8.27929796 C15.5365515,8.41413567 15.7093358,8.61270838 15.8062276,8.60202491 C16.463101,8.5279747 16.7721968,8.89306837 16.9729778,9.4331564 C17.0212394,9.59857232 16.9943455,9.76435629 16.9729778,9.87377404 C16.6992494,9.94966628 16.4255221,10.0248215 16.1738978,10.0940829 C16.2092651,10.3784947 16.2733683,10.6673277 16.2748419,10.9561606 C16.2858942,12.273588 16.2939993,13.5913947 16.2674738,14.9088221 C16.2630529,15.1438674 16.1271097,15.5096974 16.0324285,15.5690113 C15.942905,15.7230066 13.949079,15.7156378 13.793974,15.6087995 C13.2759902,15.2724413 13.5946641,14.7080386 13.4285121,14.2501059 L6.6545732,14.2501059 C6.52341934,14.7345638 6.44531701,15.5480155 6.28726878,15.6087995 C5.94243767,15.7414266 4.09412905,15.7462157 3.99097482,15.6087995 C3.85097885,15.5096974 3.75592953,15.1103423 3.73750921,14.8539289 C3.69919459,14.2991044 3.7212992,13.73986 3.72682535,13.1824603 C3.7371408,12.1475989 3.75261401,11.1127398 3.76624511,10.070881 C3.57209346,10.0200406 3.29578647,9.9467268 3.01947948,9.87341358 C3.00437473,9.77431147 2.98448054,9.65310476 3.01947948,9.52084563 C3.21142061,8.95054855 3.49214865,8.51029896 4.2116474,8.60203249 C4.29859194,8.61308477 4.45884948,8.42740642 4.50637471,8.30288413 C4.75210348,7.65890467 5.01588451,7.01602713 5.19161586,6.35141905 C5.48597511,5.23403209 6.29315996,4.7845768 7.32360361,4.58636544 C7.71153888,4.51231523 8.1046313,4.46368564 8.49478156,4.40363447 L8.49478156,4.40363447 L8.49477587,4.40363581 Z M5.40161026,8.81643713 C8.5150409,9.46078464 11.4991523,9.47588917 14.5602642,8.81643713 C14.3031147,8.02435681 14.0452281,7.32069534 13.8510764,6.60082408 C13.6838191,5.98263373 13.283726,5.67832711 12.6880067,5.65180189 C11.2361074,5.58659346 9.78384006,5.53464729 8.33157271,5.52359577 C7.85337722,5.51991168 7.3681821,5.6330133 6.89883429,5.74500986 C6.70541984,5.79142948 6.45084896,5.93879347 6.38490343,6.10457744 C6.03859901,6.96997098 5.74313449,7.85672701 5.40161026,8.81643267 L5.40161026,8.81643267 L5.40161026,8.81643713 Z M5.99916976,12.1836992 C6.00027499,12.1667524 5.99843294,12.2002776 5.99916976,12.1836992 C6.24821432,12.1836992 6.51015288,12.1748574 6.74704066,12.119596 C6.91908816,12.0794394 7.13718646,11.9398128 7.19171019,11.79208 C7.23002481,11.6870834 7.06497739,11.4177759 6.9282972,11.3547781 C6.35947344,11.0909971 5.77517598,10.8518999 5.17909202,10.6562738 C4.88215419,10.5586454 4.55132235,10.5770658 4.45553581,11.0003677 C4.31590901,11.6192953 4.44632559,11.9644944 4.9094155,12.0610182 C5.26566729,12.1350684 5.63518113,12.1453839 5.99916976,12.183698 L5.99916976,12.183698 L5.99916976,12.1836992 Z M14.0665906,12.1818573 C14.3882122,12.1431742 14.786831,12.1288062 15.1685027,12.0400198 C15.6901704,11.9202866 15.5800155,11.4800382 15.5678587,11.1072074 C15.5575432,10.7881654 15.3593386,10.548331 15.0719801,10.637854 C14.3535821,10.8607414 13.6403458,11.1234172 12.9643059,11.4513013 C12.6537368,11.6023488 12.764996,12.0186518 13.1183011,12.096018 C13.4012397,12.1575424 13.6992828,12.1516478 14.0665861,12.1818573 L14.0665861,12.1818573 L14.0665906,12.1818573 Z" id="形状备份-23" fill="#979797" fill-rule="nonzero"></path>
                </g>
            </g>
        </g>
    </g>
</svg>