<?xml version="1.0" encoding="UTF-8"?>
<svg width="20px" height="20px" viewBox="0 0 20 20" version="1.1" xmlns="http://www.w3.org/2000/svg" xmlns:xlink="http://www.w3.org/1999/xlink">
    <!-- Generator: Sketch 56.1 (81669) - https://sketch.com -->
    <title>其他</title>
    <desc>Created with Sketch.</desc>
    <g id="Page-1" stroke="none" stroke-width="1" fill="none" fill-rule="evenodd">
        <g id="00-作品修改" transform="translate(-201.000000, -2615.000000)">
            <g id="编组-7" transform="translate(171.000000, 2151.000000)">
                <g id="其他" transform="translate(30.000000, 464.000000)">
                    <rect id="矩形备份-27" x="0" y="0" width="20" height="20"></rect>
                    <path d="M8.41998397,5.1751434 C8.63381711,5.1751434 8.81714321,5.24945709 8.96938479,5.39779531 C9.12155436,5.54613297 9.19774786,5.72779725 9.19774786,5.94213586 L9.19774786,9.0349722 C9.19774786,9.24931081 9.12155464,9.43299836 8.96938479,9.58560138 C8.81714321,9.7381324 8.63381711,9.81446992 8.41998397,9.81446992 L5.33343061,9.81446992 C5.11945344,9.81446992 4.93844005,9.73813212 4.7902464,9.58560138 C4.64212477,9.43299836 4.56802795,9.24938282 4.56802795,9.0349722 L4.56802795,5.94213586 C4.56802795,5.72779725 4.64212477,5.54613297 4.7902464,5.39779531 C4.93836804,5.24945765 5.11945344,5.1751434 5.33343061,5.1751434 L8.41998397,5.1751434 L8.41998397,5.1751434 Z M8.41998397,11.3608161 C8.63381711,11.3608161 8.81714321,11.4348406 8.96938479,11.583468 C9.12155436,11.7320231 9.19774786,11.9133979 9.19774786,12.1276645 L9.19774786,15.2331516 C9.19774786,15.4473461 9.12155464,15.628793 8.96938479,15.7773481 C8.81714321,15.9257592 8.63381711,16 8.41998397,16 L5.33343061,16 C5.11945344,16 4.93844005,15.9257586 4.7902464,15.7773481 C4.64212477,15.628721 4.56802795,15.4473461 4.56802795,15.2331516 L4.56802795,12.1276645 C4.56802795,11.9133979 4.64212477,11.7319511 4.7902464,11.583468 C4.93836804,11.4348409 5.11945344,11.3608161 5.33343061,11.3608161 L8.41998397,11.3608161 L8.41998397,11.3608161 L8.41998397,11.3608161 Z M14.6050778,11.3608161 C14.8192724,11.3608161 15.0002843,11.4348406 15.148334,11.583468 C15.2965276,11.7320231 15.3704804,11.9133979 15.3704804,12.1276645 L15.3704804,15.2331516 C15.3704804,15.4473461 15.2965282,15.628793 15.148334,15.7773481 C15.0002843,15.9257592 14.8192724,16 14.6050778,16 L11.5187503,16 C11.3047011,16 11.1215191,15.9257586 10.9693495,15.7773481 C10.8170359,15.628721 10.7407704,15.4473461 10.7407704,15.2331516 L10.7407704,12.1276645 C10.7407704,11.9133979 10.8170359,11.7319511 10.9693495,11.583468 C11.1214471,11.4348409 11.3047011,11.3608161 11.5187503,11.3608161 L14.6050778,11.3608161 L14.6050778,11.3608161 L14.6050778,11.3608161 Z M16.3211647,6.53592418 C16.4859129,6.70096186 16.5681776,6.89491396 16.5681776,7.11742186 C16.5681776,7.34007377 16.4859121,7.52983392 16.3211647,7.68648488 L14.0246715,9.98746792 C13.8604301,10.1525776 13.6689347,10.2349157 13.4509096,10.2349157 C13.2326671,10.2349157 13.0412452,10.1525779 12.8767129,9.98746792 L10.5802904,7.68648488 C10.4239274,7.52983392 10.3459281,7.34007377 10.3459281,7.11742186 C10.3459281,6.89484195 10.4239285,6.70088985 10.5802904,6.53592418 L12.8767129,4.23494114 C13.0412437,4.07821676 13.2327391,4 13.4509096,4 C13.6689347,4 13.8603581,4.07828962 14.0246715,4.23494114 L16.3211647,6.53592418 L16.3211647,6.53592418 Z" id="形状备份-30" fill="#979797" fill-rule="nonzero"></path>
                </g>
            </g>
        </g>
    </g>
</svg>