<?xml version="1.0" encoding="UTF-8"?>
<svg width="20px" height="20px" viewBox="0 0 20 20" version="1.1" xmlns="http://www.w3.org/2000/svg" xmlns:xlink="http://www.w3.org/1999/xlink">
    <!-- Generator: Sketch 56.1 (81669) - https://sketch.com -->
    <title>服装与饰品</title>
    <desc>Created with Sketch.</desc>
    <g id="Page-1" stroke="none" stroke-width="1" fill="none" fill-rule="evenodd">
        <g id="00-作品修改" transform="translate(-537.000000, -2312.000000)">
            <g id="编组-7" transform="translate(171.000000, 2151.000000)">
                <g id="服装与饰品" transform="translate(366.000000, 161.000000)">
                    <rect id="矩形备份-10" x="0" y="0" width="20" height="20"></rect>
                    <path d="M15.294126,6.33339617 L13.8823354,6.33339617 L13.8823354,4.66665403 C13.8823354,4.29851399 13.5662737,4 13.1764472,4 L7.17646142,4 C6.78664913,4 6.4705874,4.2985006 6.4705874,4.66665403 L6.4705874,6.33339617 L4.70587402,6.33339617 C4.3160759,6.33339617 4,6.63189677 4,7.00005019 L4,15.3333326 C4,15.701486 4.31606172,16 4.70587402,16 L15.2941402,16 C15.6839383,16 16,15.701486 16,15.3333326 L16,7.00005019 C16,6.63189677 15.6839383,6.33339617 15.2941402,6.33339617 L15.294126,6.33339617 Z M9.47058032,7.50004071 L7.52939843,8.50004852 L7.48784641,8.4902377 C7.42840946,8.59519877 7.31126454,8.66669864 7.17644725,8.66669864 C6.98155527,8.66669864 6.82352441,8.51730111 6.82352441,8.33338501 L6.82352441,4.66665403 C6.82352441,4.4825907 6.98155527,4.3333404 7.17644725,4.3333404 C7.31130705,4.3333404 7.42845198,4.4048135 7.48788893,4.50980134 L7.52939843,4.49999052 L9.64704882,6.83340007 L9.63667499,6.87257643 C9.74783938,6.92865739 9.82350315,7.03925332 9.82350315,7.16674047 C9.82350315,7.35064318 9.66547229,7.5000541 9.47058032,7.5000541 L9.47058032,7.50004071 Z M10.1764543,15.0000056 C10.1764543,15.0918097 10.0974318,15.1666825 9.99997166,15.1666825 C9.90249733,15.1666825 9.82348898,15.0918231 9.82348898,15.0000056 L9.82348898,8.33338501 C9.82348898,8.24125966 9.90249733,8.16670812 9.99997166,8.16670812 C10.0974318,8.16670812 10.1764543,8.24125966 10.1764543,8.33338501 L10.1764543,15.0000056 Z M13.5294126,8.33338501 C13.5294126,8.51730111 13.3713959,8.66669864 13.1764614,8.66669864 C13.04163,8.66669864 12.9245134,8.59518538 12.8650764,8.4902377 L12.8235386,8.50004852 L10.8823567,7.50004071 C10.6874364,7.50004071 10.5293913,7.3506298 10.5293913,7.16672708 C10.5293913,7.03923994 10.6050835,6.92864401 10.7162478,6.87256305 L10.705874,6.83338669 L12.8235244,4.49997713 L12.8650339,4.50978796 C12.9244425,4.40478674 13.0416158,4.33332701 13.1764472,4.33332701 C13.3713676,4.33332701 13.5294126,4.48257731 13.5294126,4.66664064 L13.5294126,8.33337163 L13.5294126,8.33338501 Z" id="a备份-2" fill="#979797" fill-rule="nonzero"></path>
                </g>
            </g>
        </g>
    </g>
</svg>