<?xml version="1.0" encoding="UTF-8"?>
<svg width="20px" height="20px" viewBox="0 0 20 20" version="1.1" xmlns="http://www.w3.org/2000/svg" xmlns:xlink="http://www.w3.org/1999/xlink">
    <!-- Generator: Sketch 56.1 (81669) - https://sketch.com -->
    <title>电子产品</title>
    <desc>Created with Sketch.</desc>
    <g id="Page-1" stroke="none" stroke-width="1" fill="none" fill-rule="evenodd">
        <g id="00-作品修改" transform="translate(-201.000000, -2412.000000)">
            <g id="编组-7" transform="translate(171.000000, 2151.000000)">
                <g id="电子产品" transform="translate(30.000000, 261.000000)">
                    <rect id="矩形备份-15" x="0" y="0" width="20" height="20"></rect>
                    <path d="M5.87492763,15.1426988 L8.54187043,15.1426988 L8.87491578,14.5712904 C8.87491578,14.2558063 9.09885846,13.999882 9.37490618,13.999882 L10.6250887,13.999882 C10.9011483,13.999882 11.125091,14.2558063 11.125091,14.5712904 L11.4581363,15.1426988 L14.1250791,15.1426988 C14.3321416,15.1426988 14.5002006,15.3347429 14.5002006,15.5713068 C14.5002006,15.8079402 14.332143,16 14.1250791,16 L5.87493271,16 C5.66787025,16 5.49979939,15.8079418 5.49979939,15.5713068 C5.49979939,15.3347431 5.66788142,15.1426988 5.87493271,15.1426988 Z M5,4 L15,4 C15.5522847,4 16,4.44771525 16,5 L16,12.1425072 C16,12.694792 15.5522847,13.1425072 15,13.1425072 L5,13.1425072 C4.44771525,13.1425072 4,12.694792 4,12.1425072 L4,5 C4,4.44771525 4.44771525,4 5,4 Z" id="形状结合" fill="#979797" fill-rule="nonzero"></path>
                </g>
            </g>
        </g>
    </g>
</svg>