<?xml version="1.0" encoding="UTF-8"?>
<svg width="20px" height="20px" viewBox="0 0 20 20" version="1.1" xmlns="http://www.w3.org/2000/svg" xmlns:xlink="http://www.w3.org/1999/xlink">
    <!-- Generator: Sketch 56.1 (81669) - https://sketch.com -->
    <title>化妆品及个人用品</title>
    <desc>Created with Sketch.</desc>
    <g id="Page-1" stroke="none" stroke-width="1" fill="none" fill-rule="evenodd">
        <g id="00-作品修改" transform="translate(-537.000000, -2262.000000)">
            <g id="编组-7" transform="translate(171.000000, 2151.000000)">
                <g id="化妆品及个人用品" transform="translate(366.000000, 111.000000)">
                    <rect id="矩形备份-7" x="0" y="0" width="20" height="20"></rect>
                    <path d="M16.4285714,13.3944766 L16.4285714,15.1778862 C16.4285714,15.6318699 16.0647141,16 15.6159997,16 L11.3075745,16 C10.85886,16 10.4950027,15.6318699 10.4950027,15.1778862 L10.4950027,13.3944766 C10.4950027,12.9404929 10.85886,12.5723628 11.3075745,12.5723628 L15.6159997,12.5723628 C16.0647141,12.5723628 16.4285714,12.9404929 16.4285714,13.3944766 Z M15.4154282,11.255935 L15.4154282,11.7203252 C15.4154282,11.7411382 15.4141425,11.7606504 15.4128567,11.7801626 L11.6199981,11.7801626 C11.6187124,11.7606504 11.6174267,11.7411382 11.6174267,11.7203252 L11.6174267,11.255935 C11.6174267,10.8071545 11.9774268,10.4429268 12.4197127,10.4429268 L14.6118564,10.4429268 C15.055428,10.4442276 15.4154282,10.8071545 15.4154282,11.255935 L15.4154282,11.255935 Z M11.6842889,4.9404878 L9.95242102,11.7801601 C9.79170667,12.2770706 9.53584943,12.7206479 9.02284923,12.7206479 L6.16728171,12.7206479 C5.65428151,12.7206479 5.3932814,12.3004853 5.23770991,11.7801601 L3.57142857,4.9404878 C3.57142857,4.42146341 3.98671445,4 4.50100036,4 L10.7560028,4 C11.269003,4 11.6842889,4.42146341 11.6842889,4.9404878 L11.6842889,4.9404878 Z M9.60913266,14.260813 L9.60913266,15.1778862 C9.60913266,15.6318699 9.24527537,16 8.79656091,16 L6.34212636,16 C5.8934119,16 5.52955462,15.6318699 5.52955462,15.1778862 L5.52955462,14.260813 C5.52955462,13.8068293 5.8934119,13.4386992 6.34212636,13.4386992 L8.79526767,13.4386992 C9.24526784,13.4386992 9.60913266,13.8068293 9.60913266,14.260813 L9.60913266,14.260813 Z" id="形状备份-3" fill="#979797" fill-rule="nonzero"></path>
                </g>
            </g>
        </g>
    </g>
</svg>