<?xml version="1.0" encoding="UTF-8"?>
<svg width="20px" height="20px" viewBox="0 0 20 20" version="1.1" xmlns="http://www.w3.org/2000/svg" xmlns:xlink="http://www.w3.org/1999/xlink">
    <!-- Generator: Sketch 56.1 (81669) - https://sketch.com -->
    <title>食品饮料</title>
    <desc>Created with Sketch.</desc>
    <g id="Page-1" stroke="none" stroke-width="1" fill="none" fill-rule="evenodd">
        <g id="00-作品修改" transform="translate(-201.000000, -2362.000000)">
            <g id="编组-7" transform="translate(171.000000, 2151.000000)">
                <g id="食品饮料" transform="translate(30.000000, 211.000000)">
                    <rect id="矩形备份-12" x="0" y="0" width="20" height="20"></rect>
                    <path d="M13.8922639,5 L4.89387075,5 L4.89387075,12.4709077 C4.89387075,13.7994569 5.79371006,15 6.89440637,15 L11.8933351,15 C12.9924246,15 13.8938707,13.7994569 13.8938707,12.4709077 C15.5505392,12.4709077 16.8938707,10.8494957 16.8938707,8.84988363 C16.8922639,6.85027153 15.5489323,5 13.8922639,5 Z M13.8922639,10.6594259 L13.8922639,7.04034135 C14.7197947,7.04034135 15.3914605,7.85298681 15.3914605,8.84988363 C15.3914605,9.84678045 14.7181878,10.6594259 13.8922639,10.6594259 L13.8922639,10.6594259 Z" id="形状备份-6" fill="#979797" fill-rule="nonzero"></path>
                </g>
            </g>
        </g>
    </g>
</svg>