<?xml version="1.0" encoding="UTF-8"?>
<svg width="20px" height="20px" viewBox="0 0 20 20" version="1.1" xmlns="http://www.w3.org/2000/svg" xmlns:xlink="http://www.w3.org/1999/xlink">
    <!-- Generator: Sketch 56.1 (81669) - https://sketch.com -->
    <title>展示设计</title>
    <desc>Created with Sketch.</desc>
    <g id="Page-1" stroke="none" stroke-width="1" fill="none" fill-rule="evenodd">
        <g id="00-作品修改" transform="translate(-1412.000000, -2412.000000)">
            <g id="编组-23" transform="translate(1214.000000, 2151.000000)">
                <g id="展示设计" transform="translate(198.000000, 261.000000)">
                    <rect id="矩形备份-38" x="0" y="0" width="20" height="20"></rect>
                    <path d="M14.6091623,4.63043553 L14.6091623,13.6739166 L15.1212828,13.6739166 L15.1212829,13.6739166 C15.4041188,13.6739682 15.6333333,13.927066 15.6333333,14.2392279 C15.6333333,14.5513155 15.404053,14.8042996 15.1212829,14.8043521 L11.2240367,14.8043521 L14.6296408,16.5 L12.5780864,16.5 L9.21089339,14.8043521 L10.7385561,14.8043521 L7.30427324,16.5 L5.36538946,16.5 L8.77099353,14.8043521 L4.87887259,14.8043521 L4.87887258,14.8043521 C4.5960366,14.8043005 4.36678987,14.5512027 4.36683608,14.2390409 C4.36688285,13.9269532 4.59610241,13.6739692 4.87887258,13.6739166 L5.39099309,13.6739166 L5.39099309,4.63043553 L4.87887258,4.63043553 L4.87887261,4.63043553 C4.59603663,4.63048717 4.36666667,4.37747313 4.36666667,4.06531127 C4.36666667,3.75315096 4.59586579,3.5 4.87870317,3.5 C4.87875962,3.5 4.87881608,3.5 4.87887254,3.5 L15.1212968,3.5 L15.1212968,3.5 C15.4041328,3.5 15.6333333,3.75314941 15.6333333,4.06531127 C15.6333333,4.37739895 15.404067,4.63038298 15.1212968,4.63043553 L14.6091763,4.63043553 L14.6091623,4.63043553 Z M7.93469645,6.32608255 L7.93469646,6.32608255 C7.72737751,6.32577123 7.55908298,6.51100908 7.55879976,6.73982278 C7.55879976,6.74001132 7.55879976,6.74019986 7.55879976,6.74038839 L7.55879976,6.76299713 C7.55879976,6.99134564 7.72728754,7.17673691 7.93469611,7.17673691 L12.0654614,7.17673691 L12.0654614,7.17673691 C12.2727803,7.17704868 12.4410749,6.99181084 12.4413581,6.76299713 C12.4413581,6.76280859 12.4413581,6.76262005 12.4413581,6.76243151 L12.4413581,6.74038796 L12.4413581,6.74038759 C12.4413581,6.51157388 12.2732932,6.32608255 12.0659729,6.32608255 C12.065802,6.32608255 12.0656312,6.32608255 12.0654604,6.32608255 L7.93469512,6.32608255 L7.93469645,6.32608255 Z M7.93469645,8.45356362 L7.93469646,8.45356362 C7.72737751,8.45325184 7.55908298,8.63848969 7.55879976,8.86730339 C7.55879976,8.86749193 7.55879976,8.86768047 7.55879976,8.867869 L7.55879976,8.88991255 C7.55879976,9.11882517 7.72728754,9.30421798 7.93469611,9.30421798 L10.9387974,9.30421798 L10.9387974,9.30421798 C11.1461163,9.30452975 11.3144109,9.11929191 11.3146941,8.89047821 C11.3146941,8.89028968 11.3146941,8.89010114 11.3146941,8.88991261 L11.3146941,8.86786907 L11.3146941,8.86786868 C11.3146941,8.63905498 11.1466292,8.45356362 10.9393088,8.45356362 C10.939138,8.45356362 10.9389672,8.45356362 10.9387964,8.45356362 L7.9346951,8.45356362 L7.93469645,8.45356362 Z M7.93469645,10.580472 L7.93469647,10.580472 C7.72737752,10.5801604 7.55908299,10.7653969 7.55879977,10.9942106 C7.55879977,10.9945877 7.55879977,10.9949648 7.55879977,10.9953418 L7.55879977,11.01682 C7.55879977,11.2457327 7.7272879,11.4316892 7.93469647,11.4316892 L9.43674711,11.4316892 L9.43674713,11.4316892 C9.64406608,11.4316892 9.81213236,11.2461994 9.81213236,11.0173857 C9.81213236,11.0171972 9.81213236,11.0170086 9.81213236,11.0168201 L9.81213236,10.9953419 L9.81213236,10.9953307 C9.81240925,10.766517 9.64456846,10.5807784 9.43724951,10.580472 C9.43707868,10.580472 9.43690786,10.580472 9.43673703,10.580472 L7.9347004,10.580472 L7.93469645,10.580472 Z" id="形状备份-31" fill="#979797" fill-rule="nonzero"></path>
                </g>
            </g>
        </g>
    </g>
</svg>