<?xml version="1.0" encoding="UTF-8"?>
<svg width="20px" height="20px" viewBox="0 0 20 20" version="1.1" xmlns="http://www.w3.org/2000/svg" xmlns:xlink="http://www.w3.org/1999/xlink">
    <!-- Generator: Sketch 56.1 (81669) - https://sketch.com -->
    <title>电商零售</title>
    <desc>Created with Sketch.</desc>
    <g id="Page-1" stroke="none" stroke-width="1" fill="none" fill-rule="evenodd">
        <g id="00-作品修改" transform="translate(-369.000000, -2412.000000)">
            <g id="编组-7" transform="translate(171.000000, 2151.000000)">
                <g id="电商零售" transform="translate(198.000000, 261.000000)">
                    <rect id="矩形备份-17" x="0" y="0" width="20" height="20"></rect>
                    <path d="M7.45470939,7.19719027 C7.45470939,8.96292524 8.59357257,10.3923297 10.0009801,10.3923297 C11.4064274,10.3923297 12.5472508,8.96087445 12.5472508,7.19719027 L11.8200249,7.19719027 C11.8200249,8.45842954 11.0065512,9.47972572 10.0029403,9.47972572 C8.99932934,9.47972572 8.18389546,8.45637874 8.18389546,7.19719027 L7.45470939,7.19719027 L7.45470939,7.19719027 Z M14.2976894,4 C14.7583311,4 15.1386056,4.37324479 15.1582073,4.84492777 L15.5992473,15.0832944 C15.6090482,15.3232375 15.5228004,15.5570282 15.3601056,15.729295 C15.1974109,15.9015618 14.9739507,16 14.7387293,16 L5.26127066,16 C5.02604935,16 4.8025891,15.9015618 4.63989436,15.729295 C4.47719962,15.5570282 4.3909518,15.3232375 4.40075269,15.0832944 L4.84179265,4.84492777 C4.86139443,4.37324479 5.24166888,4 5.70231062,4 L14.2976894,4 Z" id="形状备份-24" fill="#979797" fill-rule="nonzero"></path>
                </g>
            </g>
        </g>
    </g>
</svg>