<?xml version="1.0" encoding="UTF-8"?>
<svg width="20px" height="20px" viewBox="0 0 20 20" version="1.1" xmlns="http://www.w3.org/2000/svg" xmlns:xlink="http://www.w3.org/1999/xlink">
    <!-- Generator: Sketch 56.1 (81669) - https://sketch.com -->
    <title>教育培训</title>
    <desc>Created with Sketch.</desc>
    <g id="Page-1" stroke="none" stroke-width="1" fill="none" fill-rule="evenodd">
        <g id="00-作品修改" transform="translate(-369.000000, -2463.000000)">
            <g id="编组-7" transform="translate(171.000000, 2151.000000)">
                <g id="教育培训" transform="translate(198.000000, 312.000000)">
                    <rect id="矩形备份-20" x="0" y="0" width="20" height="20"></rect>
                    <path d="M15.9002022,8.55764019 L15.9002022,10.6856753 L16.6461538,11.4425373 L15.6679321,12.4350649 L14.6897103,11.4425373 L15.3814138,10.7407127 L15.3814138,8.83916853 C13.4073749,9.87718176 10.4719641,11.0909091 10.00084,11.0909091 C9.28063,11.0909091 2.80015,8.25450114 2.8,7.54545455 C2.79985,6.83640795 9.2803,4 10.000225,4 C10.72018,4 17.19985,6.83640795 17.2,7.54545455 C17.2000428,7.74791764 16.6718023,8.12383439 15.9002022,8.55764019 Z M5.98681638,10.4626623 C7.68037722,11.2881201 9.52721678,12.0442808 9.88572068,12.0442808 C10.244239,12.0442808 12.0907045,11.2881201 13.7838913,10.4626623 L13.9128871,10.4626623 C14.0717906,10.4626623 14.2005994,10.5934838 14.2005994,10.7548701 L14.2005994,14.5966721 C12.762038,15.5322192 11.3234765,16 9.88491508,16 C8.44635365,16 7.00779221,15.5322192 5.56923077,14.5966721 L5.56923077,10.7548701 C5.56923077,10.5934838 5.69803956,10.4626623 5.85694306,10.4626623 L5.98681638,10.4626623 Z" id="形状结合" fill="#979797" fill-rule="nonzero"></path>
                </g>
            </g>
        </g>
    </g>
</svg>