<?xml version="1.0" encoding="UTF-8"?>
<svg width="20px" height="20px" viewBox="0 0 20 20" version="1.1" xmlns="http://www.w3.org/2000/svg" xmlns:xlink="http://www.w3.org/1999/xlink">
    <!-- Generator: Sketch 56.1 (81669) - https://sketch.com -->
    <title>家电</title>
    <desc>Created with Sketch.</desc>
    <g id="Page-1" stroke="none" stroke-width="1" fill="none" fill-rule="evenodd">
        <g id="00-作品修改" transform="translate(-537.000000, -2362.000000)">
            <g id="编组-7" transform="translate(171.000000, 2151.000000)">
                <g id="家电" transform="translate(366.000000, 211.000000)">
                    <rect id="矩形备份-13" x="0" y="0" width="20" height="20"></rect>
                    <path d="M12.8450659,11.0344828 C12.8450659,11.4187192 12.7713333,11.7783246 12.6238678,12.1133005 C12.4764023,12.4482763 12.2730017,12.7413793 12.013666,12.9926108 C11.7543302,13.2438424 11.4517723,13.4408862 11.1059908,13.5837438 C10.7602093,13.726601 10.3890037,13.7980296 9.99237248,13.7980296 C9.5957413,13.7980296 9.22453569,13.726601 8.87875417,13.5837438 C8.53297265,13.4408867 8.23041475,13.2438424 7.97107898,12.9926108 C7.71174321,12.7413793 7.5083431,12.4482763 7.36087717,12.1133005 C7.21341168,11.7783246 7.13967901,11.4187192 7.13967901,11.0344828 C7.13967901,10.6502463 7.21341168,10.2906409 7.36087717,9.95566502 C7.50834265,9.62068917 7.71174321,9.32758621 7.97107898,9.07635468 C8.23041475,8.82512315 8.53297265,8.6280793 8.87875417,8.48522167 C9.22453569,8.34236448 9.5957413,8.27093596 9.99237248,8.27093596 C10.3890037,8.27093596 10.7602093,8.34236448 11.1059908,8.48522167 C11.4517723,8.62807887 11.7543302,8.82512315 12.013666,9.07635468 C12.2730017,9.32758621 12.4764019,9.62068917 12.6238678,9.95566502 C12.7713333,10.2906409 12.8450659,10.6502463 12.8450659,11.0344828 Z M13.9434292,4 C14.380741,4 14.6985539,4.12315266 14.8968695,4.36945813 C15.0951851,4.61576403 15.1943429,4.91133053 15.1943429,5.25615764 L15.1943429,14.7438424 C15.1943429,15.0886695 15.0672176,15.384236 14.8129668,15.6305419 C14.5587155,15.8768478 14.2383596,16 13.8518989,16 L6.13284602,16 C5.73621484,16 5.41585889,15.8768473 5.17177817,15.6305419 C4.92769744,15.384236 4.80565708,15.0886695 4.80565708,14.7438424 L4.80565708,5.25615764 C4.80565708,4.91133053 4.91752736,4.61822612 5.14126808,4.37684729 C5.36500924,4.13546846 5.67011014,4.01477833 6.05657079,4.01477833 L13.9434292,4 Z M5.82774511,5.72906404 C5.82774511,5.83743838 5.86588273,5.93842413 5.94215795,6.0320197 C6.01843318,6.12561572 6.14301655,6.17241379 6.31590656,6.17241379 L7.47529,6.17241379 C7.64818002,6.17241379 7.77530639,6.11576359 7.85666614,6.00246305 C7.93802633,5.88916251 7.9787065,5.77832464 7.9787065,5.66995074 L7.9787065,5.44827586 C7.9787065,5.33990153 7.93294136,5.24137931 7.84141109,5.15270936 C7.74988082,5.06403941 7.62275594,5.01970443 7.46003496,5.01970443 L6.34641665,5.01970443 C6.17352664,5.01970443 6.04385875,5.06650251 5.957413,5.16009852 C5.87096769,5.25369453 5.82774511,5.35468028 5.82774511,5.46305419 L5.82774511,5.72906404 L5.82774511,5.72906404 Z M9.99237248,14.729064 C10.5212145,14.729064 11.0170035,14.6330049 11.4797394,14.4408867 C11.9424753,14.2487685 12.346734,13.9852222 12.6925155,13.6502463 C13.038297,13.3152705 13.3103448,12.9236448 13.5086604,12.4753695 C13.706976,12.0270941 13.8061338,11.5467985 13.8061338,11.0344828 C13.8061338,10.5320197 13.706976,10.0566498 13.5086604,9.60837438 C13.3103448,9.160099 13.038297,8.76847339 12.6925155,8.43349754 C12.346734,8.09852169 11.9424753,7.83497537 11.4797394,7.64285714 C11.0170035,7.45073892 10.5212145,7.3546798 9.99237248,7.3546798 C9.47370094,7.3546798 8.98299648,7.45073892 8.52026061,7.64285714 C8.05752473,7.83497537 7.65326603,8.09852169 7.30748451,8.43349754 C6.96170298,8.76847339 6.68965517,9.160099 6.49133958,9.60837438 C6.29302399,10.0566498 6.1938662,10.5320197 6.1938662,11.0344828 C6.1938662,11.5467985 6.29302399,12.0270941 6.49133958,12.4753695 C6.68965517,12.9236448 6.96170298,13.3152705 7.30748451,13.6502463 C7.65326603,13.9852222 8.05752473,14.2487685 8.52026061,14.4408867 C8.98299648,14.6330049 9.47370094,14.729064 9.99237248,14.729064 Z" id="形状备份-20" fill="#979797" fill-rule="nonzero"></path>
                </g>
            </g>
        </g>
    </g>
</svg>