<?xml version="1.0" encoding="UTF-8"?>
<svg width="20px" height="20px" viewBox="0 0 20 20" version="1.1" xmlns="http://www.w3.org/2000/svg" xmlns:xlink="http://www.w3.org/1999/xlink">
    <!-- Generator: Sketch 56.1 (81669) - https://sketch.com -->
    <title>9备份</title>
    <desc>Created with Sketch.</desc>
    <g id="Page-1" stroke="none" stroke-width="1" fill="none" fill-rule="evenodd">
        <g id="00-作品修改" transform="translate(-369.000000, -2362.000000)">
            <g id="编组-7" transform="translate(171.000000, 2151.000000)">
                <g id="房地产" transform="translate(198.000000, 211.000000)">
                    <rect id="矩形备份-14" x="0" y="0" width="20" height="20"></rect>
                    <path d="M11.5844748,7.67866923 L15.4017145,9.58728906 L15.4017145,14.8 L15.5714289,14.8 C15.8081219,14.8 16,14.9918781 16,15.2285711 L16,16 L4,16 L4,15.2285711 C4,14.9918781 4.19187812,14.8 4.42857111,14.8 L4.60171447,14.8 L4.60171447,7.00171094 L10.5844748,4.00862475 L10.5844748,14.8800597 L11.5844748,14.8800597 L11.5844748,7.67866923 Z M8.20171447,14.2017145 L8.20171447,13.0017145 L7.00171447,13.0017145 L7.00171447,14.2017145 L8.20171447,14.2017145 Z M8.20171447,11.8017145 L8.20171447,10.6017145 L7.00171447,10.6017145 L7.00171447,11.8017145 L8.20171447,11.8017145 Z M8.20171447,9.40171445 L8.20171447,8.20171445 L7.00171447,8.20171445 L7.00171447,9.40171445 L8.20171447,9.40171445 Z" id="形状结合" fill="#979797" fill-rule="nonzero"></path>
                </g>
            </g>
        </g>
    </g>
</svg>