<?xml version="1.0" encoding="UTF-8"?>
<svg width="20px" height="20px" viewBox="0 0 20 20" version="1.1" xmlns="http://www.w3.org/2000/svg" xmlns:xlink="http://www.w3.org/1999/xlink">
    <!-- Generator: Sketch 56.1 (81669) - https://sketch.com -->
    <title>视觉识别系统</title>
    <desc>Created with Sketch.</desc>
    <g id="Page-1" stroke="none" stroke-width="1" fill="none" fill-rule="evenodd">
        <g id="00-作品修改" transform="translate(-1244.000000, -2462.000000)">
            <g id="编组-23" transform="translate(1214.000000, 2151.000000)">
                <g id="视觉识别系统" transform="translate(30.000000, 311.000000)">
                    <rect id="矩形备份-40" x="0" y="0" width="20" height="20"></rect>
                    <path d="M18,10.0747659 L18,10.0249217 L18,9.97507747 L18,9.92523322 L18,9.87538898 L18,9.82554474 C18,9.80062252 17.9750778,9.7757005 17.9750778,9.7757005 L17.9750778,9.75077827 C17.8504671,9.52647805 15.6573115,5.53894283 10.4735236,5.31463019 C10.1744573,5.28970797 9.87539312,5.28970797 9.57632684,5.31463019 C4.34268247,5.53893042 2.14953666,9.57632208 2.04984445,9.75077827 C2.04984445,9.7757005 2.04984445,9.7757005 2.02492222,9.80062252 C2.02492222,9.82554474 2,9.82554474 2,9.85046676 L2,10.149533 C2,10.1744553 2.02492222,10.1993773 2.02492222,10.2242995 L2.02492222,10.2492217 C2.14953293,10.473522 4.34268847,14.4610572 9.52647639,14.6853698 C9.82554267,14.710292 10.1246069,14.710292 10.4236732,14.6853698 C15.6573175,14.4610696 17.8504633,10.4236779 17.9501556,10.2492217 C17.9501556,10.2242995 17.9501556,10.2242995 17.9750778,10.1993775 C17.9750778,10.1744553 18,10.1744553 18,10.1495332 C17.9750778,10.099689 18,10.099689 18,10.0747668 L18,10.0747659 Z M8.15575136,8.03115017 C8.23051783,8.03115017 8.28036207,8.05607239 8.33020631,8.08099441 C8.38005055,8.10591664 8.40497278,8.15576088 8.40497278,8.20560512 L8.77880511,10.1993769 C8.80372733,10.2741433 8.82864935,10.3738318 8.82864935,10.4735211 C8.85357158,10.5732096 8.85357158,10.6728983 8.87849359,10.7725874 C8.90341582,10.6728989 8.95326006,10.5732102 9.0031043,10.4735211 C9.05294854,10.3738326 9.07787077,10.2990662 9.12771501,10.1993769 L9.97506774,8.20560512 C9.97506774,8.18068289 9.99998997,8.15576088 10.024912,8.13083865 C10.0498342,8.10591643 10.0747562,8.08099441 10.0996785,8.08099441 C10.1246007,8.05607219 10.1495227,8.05607219 10.1744449,8.03115017 C10.1993671,8.03115017 10.2492114,8.00622794 10.2741334,8.00622794 L10.92211,8.00622794 L9.12771646,11.6448591 L8.38005179,11.6448591 L7.48285503,8.00622794 L8.15575364,8.00622794 L8.15575136,8.03115017 Z M11.1214859,9.07787904 L11.8940726,9.07787904 L11.5950063,11.669773 L10.8224196,11.669773 L11.1214859,9.07787904 L11.1214859,9.07787904 Z M11.9688387,8.55451461 C11.9439164,8.60435885 11.9189944,8.65420309 11.8691502,8.70404733 C11.8193059,8.75389157 11.7694617,8.7788138 11.7196172,8.80373581 C11.669773,8.82865783 11.5950065,8.82865783 11.5451623,8.82865783 C11.4953181,8.82865783 11.4205516,8.82865783 11.3707073,8.80373581 C11.3208631,8.77881359 11.2710189,8.75389157 11.2211744,8.70404733 C11.1713302,8.65420309 11.1464079,8.60435885 11.1214859,8.55451461 C11.0965637,8.50467036 11.0716417,8.45482612 11.0716417,8.38005966 C11.0716417,8.33021541 11.0716417,8.25544895 11.1214859,8.20560471 C11.1464082,8.15576046 11.1713302,8.10591622 11.2211744,8.05607198 C11.2710187,8.00622774 11.3208629,7.98130551 11.3707073,7.9563835 C11.4205516,7.93146127 11.4703958,7.93146127 11.5451623,7.93146127 C11.5950065,7.93146127 11.669773,7.93146127 11.7196172,7.9563835 C11.7694615,7.98130572 11.8193057,8.00622774 11.8691502,8.05607198 C11.9189944,8.10591622 11.9439166,8.15576046 11.9688387,8.20560471 C11.9937609,8.25544895 12.0186829,8.33021541 12.0186829,8.38005966 C12.0186829,8.4299039 11.9937607,8.50467036 11.9688387,8.55451461 Z M3.04670674,9.97507581 C3.39561705,9.42678936 4.41742391,8.05607012 6.21182572,7.15886921 C5.14017276,8.60435243 4.86603057,10.6729006 6.06229279,12.741426 C4.3426653,11.8193072 3.39561416,10.5233519 3.04670674,9.97507581 L3.04670674,9.97507581 Z M13.7382924,12.7913031 C14.8099611,11.3457992 15.0841033,9.27725104 13.887841,7.23365388 C15.6074685,8.13085065 16.5794272,9.45172792 16.9034114,9.9750965 C16.5545011,10.523383 15.5576162,11.8941022 13.7382924,12.7913031 L13.7382924,12.7913031 Z" id="形状备份-13" fill="#979797" fill-rule="nonzero"></path>
                </g>
            </g>
        </g>
    </g>
</svg>