<?xml version="1.0" encoding="UTF-8"?>
<svg width="20px" height="20px" viewBox="0 0 20 20" version="1.1" xmlns="http://www.w3.org/2000/svg" xmlns:xlink="http://www.w3.org/1999/xlink">
    <!-- Generator: Sketch 56.1 (81669) - https://sketch.com -->
    <title>母婴玩具</title>
    <desc>Created with Sketch.</desc>
    <g id="Page-1" stroke="none" stroke-width="1" fill="none" fill-rule="evenodd">
        <g id="00-作品修改" transform="translate(-369.000000, -2312.000000)">
            <g id="编组-7" transform="translate(171.000000, 2151.000000)">
                <g id="母婴玩具" transform="translate(198.000000, 161.000000)">
                    <rect id="矩形备份-11" x="0" y="0" width="20" height="20"></rect>
                    <path d="M13.6185151,9.78978979 C13.7546508,9.92592553 13.8227193,10.0960961 13.8227193,10.3003003 C13.8227193,10.5045045 13.7546512,10.6786787 13.6185151,10.8228228 L8.65755411,15.7957958 C8.50540156,15.9319315 8.32722378,16 8.12301957,16 C7.91881537,16 7.74864481,15.9319319 7.61250906,15.7957958 L4.21310966,12.3963964 C4.06896552,12.2522523 3.99689345,12.0800805 3.99689345,11.8798799 C3.99689345,11.6796793 4.06896552,11.5035039 4.21310966,11.3513514 L9.18608263,6.39039039 C9.33022678,6.24624625 9.50239856,6.17417417 9.70259915,6.17417417 C9.90279974,6.17417417 10.0749715,6.24624625 10.2191157,6.39039039 L13.6185151,9.78978979 Z M14.7836802,8.86486486 C14.8957923,8.97697694 14.9518484,9.10910872 14.9518484,9.26126126 C14.9518484,9.4134138 14.8957923,9.54554594 14.7836802,9.65765766 C14.6795761,9.76976973 14.5514484,9.82582583 14.3992958,9.82582583 C14.2471433,9.82582583 14.1150112,9.76976973 14.0028995,9.65765766 L10.3512478,6.00600601 C10.2391357,5.89389393 10.1830796,5.76176215 10.1830796,5.60960961 C10.1830796,5.45745707 10.2391357,5.32532493 10.3512478,5.21321321 C10.4553519,5.10110114 10.5834796,5.04504505 10.7356322,5.04504505 C10.8877847,5.04504505 11.0199169,5.10110114 11.1320286,5.21321321 L14.7836802,8.86486486 Z M15.8407373,4.96096096 C15.7286252,5.0650651 15.5984947,5.11711712 15.4503469,5.11711712 C15.3021991,5.11711712 15.1720682,5.0650651 15.0599565,4.96096096 C15.2121091,5.12112073 15.3242208,5.30130091 15.3962928,5.5015015 C15.4683649,5.70170209 15.4963929,5.91391352 15.4803769,6.13813814 C15.464361,6.36236275 15.4083049,6.58458498 15.3122088,6.8048048 C15.2161127,7.02502463 15.0839805,7.23123123 14.9158124,7.42342342 L14.9158124,7.43543544 C14.9958925,7.50750751 15.0359325,7.59359398 15.0359325,7.69369369 C15.0359325,7.79379375 14.9958925,7.87987988 14.9158124,7.95195195 C14.8437403,8.02402402 14.7556526,8.06006006 14.6515481,8.06006006 C14.547444,8.06006006 14.4593559,8.02402402 14.3872838,7.95195195 L12.0449415,5.60960961 C11.9808775,5.53753754 11.9488454,5.44944984 11.9488454,5.34534535 C11.9488454,5.2412412 11.9848814,5.15315315 12.0569535,5.08108108 C12.1210175,5.00100096 12.2051013,4.96096096 12.3092058,4.96096096 C12.4133099,4.96096096 12.5013979,5.00100096 12.57347,5.08108108 L12.57347,5.09309309 C12.7656622,4.91691653 12.97387,4.78078078 13.1980946,4.68468468 C13.4223193,4.58858859 13.6465427,4.53453453 13.8707673,4.52252252 C14.0949919,4.51051051 14.3092058,4.5385385 14.51341,4.60660661 C14.7176142,4.67467471 14.8997967,4.78478439 15.0599565,4.93693694 C14.9478444,4.82482486 14.8917883,4.6946943 14.8917883,4.54654655 C14.8917883,4.39839879 14.9478444,4.27227266 15.0599565,4.16816817 C15.1720686,4.0560561 15.3021991,4 15.4503469,4 C15.5984947,4 15.7286256,4.0560561 15.8407373,4.16816817 C15.9448414,4.28028024 15.9988958,4.41241202 16.0028995,4.56456456 C16.0069035,4.71671711 15.9528494,4.84884924 15.8407373,4.96096096 L15.8407373,4.96096096 Z" id="形状备份-5" fill="#979797" fill-rule="nonzero"></path>
                </g>
            </g>
        </g>
    </g>
</svg>