<?xml version="1.0" encoding="UTF-8"?>
<svg width="20px" height="20px" viewBox="0 0 20 20" version="1.1" xmlns="http://www.w3.org/2000/svg" xmlns:xlink="http://www.w3.org/1999/xlink">
    <!-- Generator: Sketch 56.1 (81669) - https://sketch.com -->
    <title>游戏</title>
    <desc>Created with Sketch.</desc>
    <g id="Page-1" stroke="none" stroke-width="1" fill="none" fill-rule="evenodd">
        <g id="00-作品修改" transform="translate(-369.000000, -2514.000000)">
            <g id="编组-7" transform="translate(171.000000, 2151.000000)">
                <g id="游戏" transform="translate(198.000000, 363.000000)">
                    <rect id="矩形备份-23" x="0" y="0" width="20" height="20"></rect>
                    <path d="M6.72109655,5.03559231 C8.13709869,5.2558347 8.47160378,6.97652596 9.99238459,6.93642036 C11.4681183,6.89755571 12.0218706,4.9399819 13.5177054,5.11982254 C16.0118023,5.41965566 17.671358,13.6516839 15.4804102,14.8078366 C14.8950841,15.1166525 14.0747512,14.9039264 13.4402272,14.2974772 C12.4071387,13.4738598 11.2676929,13.0031548 9.93932159,12.8914683 C8.88365516,12.8025139 8.04289453,13.0826891 7.17762339,13.6547158 L6.25884015,14.3753193 C5.78931635,14.8018997 5.30252223,15.1722138 4.69056259,14.8606761 C2.05739143,13.5200151 4.26824974,4.65361602 6.72108294,5.03559231 L6.72109655,5.03559231 Z M12.1464918,10.2660741 C11.7936004,10.2660741 11.5074358,10.5625228 11.5074358,10.9281832 C11.5074358,11.293886 11.7935868,11.5903206 12.1464918,11.5903206 C12.4993831,11.5903206 12.7855341,11.2939001 12.7855341,10.9281832 C12.7855341,10.5625228 12.4993831,10.2660741 12.1464918,10.2660741 Z M13.327732,8.18224658 C12.9748815,8.18224658 12.6887305,8.47873757 12.6887305,8.84436983 C12.6887305,9.2100303 12.9748815,9.50650718 13.327732,9.50650718 C13.6806642,9.50650718 13.9667743,9.21001619 13.9667743,8.84436983 C13.9667607,8.47873757 13.6806642,8.18226068 13.327732,8.18226068 L13.327732,8.18224658 Z M7.30887231,9.0975964 L6.07137087,9.0975964 L6.07137087,10.095583 L7.30887231,10.0907601 L7.30887231,11.4101838 L8.35226308,11.4102402 L8.35423644,10.0907601 L9.55893926,10.0907601 L9.55893926,9.0976105 L8.35226308,9.0976105 L8.35226308,7.79420651 L7.30887231,7.79275402 L7.30887231,9.0975964 L7.30887231,9.0975964 Z" id="形状备份-10" fill="#979797" fill-rule="nonzero"></path>
                </g>
            </g>
        </g>
    </g>
</svg>