<?xml version="1.0" encoding="UTF-8"?>
<svg width="20px" height="20px" viewBox="0 0 20 20" version="1.1" xmlns="http://www.w3.org/2000/svg" xmlns:xlink="http://www.w3.org/1999/xlink">
    <!-- Generator: Sketch 56.1 (81669) - https://sketch.com -->
    <title>落地页</title>
    <desc>Created with Sketch.</desc>
    <g id="Page-1" stroke="none" stroke-width="1" fill="none" fill-rule="evenodd">
        <g id="00-作品修改" transform="translate(-1244.000000, -2412.000000)">
            <g id="编组-23" transform="translate(1214.000000, 2151.000000)">
                <g id="落地页" transform="translate(30.000000, 261.000000)">
                    <rect id="矩形备份-37" x="0" y="0" width="20" height="20"></rect>
                    <path d="M4.41999124,4 C8.140007,4 11.8599942,4 15.5800088,4 C15.5725111,4.15901983 15.5720503,4.31880319 15.5562311,4.47700927 C15.4469907,5.56850589 15.3322626,6.65938851 15.223525,7.75088512 C14.9971142,10.0233844 14.7725877,12.2960611 14.5501132,14.5689288 C14.5336517,14.7367691 14.4783334,14.8264894 14.2936551,14.8709736 C13.6062389,15.0366076 12.9236663,15.2226956 12.2412371,15.4084071 C11.5329479,15.6012395 10.8270137,15.8024344 10.1200112,16 C10.0399798,16 9.96004638,16 9.88001485,16 C9.82768449,15.9768785 9.7773507,15.9462734 9.7227584,15.9316828 C8.38481581,15.5750734 7.04776828,15.2151976 5.70666432,14.8708475 C5.52345247,14.8238088 5.4652012,14.7374106 5.44984327,14.5691943 C5.39025255,13.9137383 5.32567733,13.2587148 5.26005491,12.6037854 C5.07009872,10.7084397 4.87598242,8.8134759 4.68905661,6.91784358 C4.59320597,5.94584987 4.50929266,4.97266911 4.41999124,4 L4.41999124,4 Z M6.9384834,10.8669628 C6.99144207,11.4979848 7.0492177,12.1118614 7.09071332,12.7268609 C7.10329328,12.912949 7.18949597,12.9730286 7.35776889,13.0157814 C8.16027548,13.2196861 8.95785378,13.4427458 9.76022938,13.6469439 C9.8884583,13.6795875 10.0390831,13.6780098 10.167815,13.6460503 C10.9907483,13.4413079 11.8083686,13.2149666 12.6327933,13.0168007 C12.8245778,12.9706835 12.8932587,12.8934585 12.9077652,12.7050808 C12.9732759,11.8587612 13.0502777,11.0133067 13.1233834,10.1675016 C13.1606626,9.73560884 13.1983884,9.30377066 13.2387113,8.84058899 C11.5330338,8.84058899 9.86880749,8.84058899 8.18071739,8.84058899 C8.15088021,8.4204098 8.12298365,8.027122 8.09242032,7.59546665 C9.88105468,7.59546665 11.6435058,7.59546665 13.4180184,7.59546665 C13.4457893,7.13732515 13.471326,6.71514845 13.4972958,6.28683048 C11.145278,6.28683048 8.84066017,6.28683048 6.4966788,6.28683048 C6.61439431,7.59335862 6.73035107,8.87977791 6.84894526,10.195681 C8.45255035,10.195681 10.027066,10.195681 11.6371248,10.195681 C11.6084184,10.7648783 11.5814575,11.300246 11.5535051,11.854477 C10.7304599,12.0610204 9.93362244,12.458175 9.06578187,12.0392524 C8.94192306,11.9794523 8.80054234,11.9491543 8.66383818,11.9240641 C8.50264401,11.8946178 8.4302778,11.8239551 8.42553098,11.6486869 C8.41856383,11.3923271 8.37766856,11.1369155 8.34977199,10.86697 C7.87608973,10.86697 7.42164717,10.86697 6.93848217,10.86697 L6.9384834,10.8669628 Z" id="形状备份-16" fill="#979797" fill-rule="nonzero"></path>
                </g>
            </g>
        </g>
    </g>
</svg>