<?xml version="1.0" encoding="UTF-8"?>
<svg width="20px" height="20px" viewBox="0 0 20 20" version="1.1" xmlns="http://www.w3.org/2000/svg" xmlns:xlink="http://www.w3.org/1999/xlink">
    <!-- Generator: Sketch 56.1 (81669) - https://sketch.com -->
    <title>线下公关活动</title>
    <desc>Created with Sketch.</desc>
    <g id="Page-1" stroke="none" stroke-width="1" fill="none" fill-rule="evenodd">
        <g id="00-作品修改" transform="translate(-1580.000000, -2462.000000)">
            <g id="编组-23" transform="translate(1214.000000, 2151.000000)">
                <g id="线下公关活动" transform="translate(366.000000, 311.000000)">
                    <rect id="矩形备份-42" x="0" y="0" width="20" height="20"></rect>
                    <path d="M11.4924328,8.60431194 L11.4924329,8.60431198 C11.2216456,8.27968101 10.7575409,8.1949633 10.3895238,8.40298658 C9.94310773,8.604311 9.51419854,8.81438985 9.05903098,9.00696082 L9.05903102,9.0069608 C8.88555947,9.08424115 8.70331572,9.14009006 8.51632994,9.17327241 L8.51633,9.1732724 C7.74962018,9.22788007 7.08380902,8.6506077 7.02920116,7.88390084 C6.99192524,7.36053516 7.25215645,6.86068709 7.70227493,6.59106384 C8.02614568,6.38098598 8.35001543,6.18841402 8.68263963,5.99584305 L9.5579649,5.52316761 L9.55796486,5.52316757 C9.48528279,5.46619778 9.4092885,5.41358555 9.33038009,5.36560942 L9.33038003,5.36560938 C8.84462081,5.02331156 8.21838777,4.95080089 7.66726399,5.17303742 L7.66726462,5.17303718 C6.99113119,5.43135578 6.34536135,5.76304401 5.74154508,6.16215927 L5.74154509,6.16215927 C5.45698095,6.36323291 5.09774986,6.42738111 4.7611804,6.33722432 C4.17471108,6.17091272 3.59699917,5.9520814 3.01052986,5.75951043 L3.01052986,10.6000617 L3.75455633,10.8539059 L3.75455632,10.8539059 C3.92182659,10.3492981 4.34558599,9.97225302 4.86622277,9.86478383 L4.8662227,9.86478385 C5.59026513,9.63764929 6.36415266,10.024594 6.61687324,10.7401091 L6.61687325,10.7401091 C6.64143455,10.7945186 6.68500938,10.8380934 6.73941859,10.8626545 L6.73941849,10.8626544 C7.10684422,11.0081181 7.39386872,11.3047106 7.52721124,11.6767066 L7.52721123,11.6767065 C7.55069458,11.733944 7.59427287,11.7806352 7.64975657,11.8080053 L7.64975658,11.8080053 C8.03753956,11.9645475 8.33576998,12.2852263 8.46380869,12.6833306 L8.46380868,12.6833306 C8.48369222,12.7399577 8.52437483,12.7868989 8.57760057,12.8146294 L8.5776005,12.8146293 C9.17539124,13.0471181 9.53688326,13.658039 9.45292577,14.2939289 L9.45292578,14.2939288 C9.43875025,14.3305352 9.43875025,14.3711148 9.45292576,14.4077207 L9.45292537,14.4077203 C9.55691529,14.5280224 9.66798715,14.6420167 9.78554759,14.7490959 L9.78554758,14.7490959 C10.0272617,14.99081 10.4191588,14.99081 10.6608728,14.7490959 C10.9025869,14.5073818 10.9025869,14.1154848 10.6608729,13.8737707 C10.6608729,13.8737707 10.6608729,13.8737707 10.6608729,13.8737707 C10.4332881,13.62868 10.1969509,13.3835883 9.96061264,13.1384976 L9.96061263,13.1384976 C9.91898379,13.0971627 9.88359916,13.0499832 9.85557321,12.9984454 L9.85557321,12.9984454 C9.84755391,12.9579904 9.84755392,12.9163548 9.85557321,12.8759 L9.85557318,12.8759 C9.89602812,12.8678807 9.93766378,12.8678807 9.97811852,12.8759 L9.97811851,12.8759 C10.0356017,12.9133409 10.0884844,12.9574097 10.1356767,13.0071988 L11.0110019,13.8825241 L11.0110019,13.8825241 C11.2293109,14.1347293 11.6107376,14.1622079 11.8629428,13.9438988 C12.0067182,13.819446 12.0834881,13.6345503 12.0701457,13.4448613 L12.0701457,13.4448612 C12.0604817,13.2813743 11.9884141,13.1278394 11.8688213,13.015952 L11.089782,12.1931465 L11.089782,12.1931465 C10.995917,12.1251176 10.9484887,12.0099352 10.9672366,11.8955361 L10.9672367,11.8955361 C11.02868,11.9284897 11.0872417,11.9665548 11.1423018,12.009328 L12.1751812,13.0247026 L12.1751813,13.0247026 C12.3593325,13.2382252 12.6616691,13.3058062 12.9192077,13.1910142 L12.9192077,13.1910142 C13.2278404,13.0408283 13.3562879,12.6688827 13.2061019,12.36025 C13.1703439,12.2867668 13.1204443,12.2210577 13.05926,12.1668833 C12.7879089,11.8867788 12.5253114,11.6066753 12.2627138,11.291558 C12.2101943,11.2390385 12.1576744,11.098986 12.1839345,11.0814801 C12.2101943,11.0639736 12.3414927,11.0814801 12.4027658,11.1690126 L13.2780911,11.9918182 L13.2780911,11.9918182 C13.5198052,12.2335323 13.9117023,12.2335323 14.1534164,11.9918182 C14.3951305,11.7501041 14.3951305,11.358207 14.1534164,11.1164929 C14.1534164,11.1164929 14.1534164,11.1164929 14.1534164,11.1164929 L11.4924328,8.60431194 Z M16.8931911,6.25844456 L14.9061994,6.69610719 L14.9061994,6.69610719 C14.6264741,6.76243753 14.3320112,6.68718577 14.1184067,6.49478277 L12.7003793,5.29559169 L12.7003793,5.29559168 C12.342487,4.93179134 11.7713654,4.8869973 11.3611291,5.19055226 L8.01738223,7.07250455 L8.0173821,7.07250462 C7.62580491,7.28037882 7.47688469,7.76633056 7.68475889,8.15790874 C7.89263309,8.54948593 8.37858484,8.69840615 8.77016301,8.49053195 L9.25159191,8.23668782 C9.78554052,7.96533679 10.3107337,7.68523329 10.8446882,7.43138818 L10.8446883,7.43138815 C11.1751454,7.26183918 11.5784636,7.33746085 11.825053,7.61520666 L14.6523503,10.4074941 L14.6523503,10.4074941 C14.8751753,10.649149 15.2019516,10.7667884 15.5276756,10.7226114 C16.0178579,10.6525854 16.5080403,10.5475464 16.9894701,10.4600138 L16.9894701,6.24969908 L16.8931911,6.25844456 Z M8.06116132,13.3748435 L8.06116144,13.3748436 C7.96204486,13.3689622 7.86266763,13.3689622 7.76355105,13.3748435 L7.76355107,13.3748435 C7.86651419,13.1092257 7.81978789,12.808842 7.64100573,12.5870507 L7.64100574,12.5870508 C7.44214761,12.3809823 7.14963862,12.2945595 6.87071989,12.359466 L6.8707199,12.359466 C6.94791702,12.095188 6.88154353,11.8097817 6.69565485,11.606686 L6.69565483,11.606686 C6.49380418,11.4251985 6.2147729,11.3562619 5.95162836,11.4228675 L5.95162836,11.2915687 L5.95162834,11.2915688 C6.04564342,10.9064673 5.8096706,10.5180663 5.42456914,10.4240511 C5.32479699,10.3996936 5.22095912,10.3970312 5.12006933,10.4162434 L5.12006922,10.4162434 C4.68658288,10.5196232 4.34812371,10.8580824 4.24474395,11.2915687 L4.24474392,11.2915688 C4.1166361,11.6047825 4.26669369,11.9625445 4.57990746,12.0906533 C4.75602499,12.1626873 4.95561372,12.1488122 5.12006919,12.0531019 L5.33890051,12.0005823 L5.22510862,12.3244531 L5.22510862,12.3244531 C5.11241856,12.5969642 5.2419793,12.9092302 5.51448982,13.0219202 C5.62542939,13.0677964 5.74859179,13.0749478 5.86409567,13.0422199 L6.24923859,12.9459341 L6.1354467,13.2960642 L6.13544671,13.2960642 C6.05865301,13.5042869 6.12600819,13.7382576 6.30175831,13.8737791 L6.3017583,13.8737791 C6.4566142,13.9913583 6.65860702,14.0271965 6.84446036,13.9700649 C6.9670057,13.9700649 7.08079858,13.9087921 7.22084983,13.8737791 C7.15957707,14.0225848 7.10705794,14.1363767 7.06329168,14.2676754 L7.06329166,14.2676755 C6.96137409,14.5495413 7.10725045,14.8606591 7.38911628,14.9625776 C7.39427303,14.9644422 7.39945771,14.9662285 7.40466861,14.967936 L7.40466857,14.967936 C7.98227583,15.1284452 8.58670028,14.8205313 8.79643357,14.2589223 L8.79643358,14.2589223 C8.87870377,13.8612633 8.62303016,13.4722037 8.22537117,13.3899335 C8.17137306,13.3787621 8.11628971,13.3737004 8.06115956,13.3748439 L8.06116132,13.3748435 Z" id="形状备份-18" fill="#979797" fill-rule="nonzero"></path>
                </g>
            </g>
        </g>
    </g>
</svg>