<?xml version="1.0" encoding="UTF-8"?>
<svg width="20px" height="20px" viewBox="0 0 20 20" version="1.1" xmlns="http://www.w3.org/2000/svg" xmlns:xlink="http://www.w3.org/1999/xlink">
    <!-- Generator: Sketch 56.1 (81669) - https://sketch.com -->
    <title>营养保健品</title>
    <desc>Created with Sketch.</desc>
    <g id="Page-1" stroke="none" stroke-width="1" fill="none" fill-rule="evenodd">
        <g id="00-作品修改" transform="translate(-201.000000, -2312.000000)">
            <g id="编组-7" transform="translate(171.000000, 2151.000000)">
                <g id="营养保健品" transform="translate(30.000000, 161.000000)">
                    <rect id="矩形备份-9" x="0" y="0" width="20" height="20"></rect>
                    <path d="M6.75294118,4 L13.2470588,4 C13.5589373,4 13.8117647,4.24282861 13.8117647,4.54237288 L13.8117647,5.76271186 C13.8117647,6.06225614 13.5589373,6.30508475 13.2470588,6.30508475 L6.75294118,6.30508475 C6.44106273,6.30508475 6.18823529,6.06225614 6.18823529,5.76271186 L6.18823529,4.54237288 C6.18823529,4.24282861 6.44106273,4 6.75294118,4 Z M7.11422614,6.84745763 L12.864854,6.84745763 C13.3642081,6.84745763 13.8264137,7.100819 14.0803861,7.51376036 L14.6037674,8.3647419 C14.7322335,8.57361891 14.8,8.81177376 14.8,9.05437137 L14.8,14.6440678 C14.8,15.3929285 14.1679314,16 13.3882353,16 L6.61176471,16 C5.83206859,16 5.2,15.3929285 5.2,14.6440678 L5.2,8.97991881 C5.2,8.72696185 5.27367341,8.47904839 5.41269257,8.26420123 L5.915154,7.48767225 C6.17276123,7.08955319 6.62618735,6.84745763 7.11422614,6.84745763 Z M10.0000419,13.6646774 C10.0412752,13.6552165 10.0775813,13.6305767 10.1019316,13.5955279 L11.5475417,12.1755731 C11.9021329,11.8141005 12.0794276,11.4589194 12.0794276,11.1100263 C12.0966125,10.8088385 11.9898517,10.5139136 11.7845929,10.2955498 C11.5631064,10.0903124 11.2693233,9.9844179 10.9698032,10.0018582 C10.8699562,10.0025732 10.7708912,10.0197809 10.6765004,10.0528048 C10.5780455,10.085879 10.4843498,10.1320479 10.3978626,10.1901041 C10.3120607,10.2478952 10.2382242,10.3019866 10.1763535,10.3523781 C10.1147543,10.4026309 10.0558971,10.4562466 10.0000438,10.5129872 C9.94431625,10.4561126 9.88545172,10.4024905 9.82373464,10.3523788 C9.76190035,10.3010993 9.68802752,10.2479331 9.60222553,10.1901048 C9.51573861,10.1320482 9.4220429,10.0858792 9.32358839,10.0528047 C9.22921869,10.0196976 9.13013993,10.0024877 9.03028587,10.0018581 C8.73071252,9.98441752 8.4368825,10.0903549 8.21538687,10.2956606 C8.01021956,10.5140816 7.90347351,10.8089646 7.92055189,11.1101374 C7.92146124,11.2212894 7.9399358,11.3315746 7.97527265,11.4367944 C8.00596572,11.5365619 8.04747887,11.6325677 8.09905072,11.7230495 C8.14624968,11.8036923 8.1988698,11.8809423 8.25653675,11.9542512 C8.31585401,12.0289503 8.35842648,12.0804518 8.38556791,12.1090884 C8.40571684,12.1307867 8.42705505,12.1513161 8.44948133,12.1705793 L9.89815433,13.5953046 C9.92246608,13.630437 9.95877685,13.6551593 10.0000441,13.6646774 Z" id="形状结合" fill="#979797"></path>
                </g>
            </g>
        </g>
    </g>
</svg>