<?xml version="1.0" encoding="UTF-8"?>
<svg width="20px" height="20px" viewBox="0 0 20 20" version="1.1" xmlns="http://www.w3.org/2000/svg" xmlns:xlink="http://www.w3.org/1999/xlink">
    <!-- Generator: Sketch 56.1 (81669) - https://sketch.com -->
    <title>网站与软件</title>
    <desc>Created with Sketch.</desc>
    <g id="Page-1" stroke="none" stroke-width="1" fill="none" fill-rule="evenodd">
        <g id="00-作品修改" transform="translate(-537.000000, -2463.000000)">
            <g id="编组-7" transform="translate(171.000000, 2151.000000)">
                <g id="网站与软件" transform="translate(366.000000, 312.000000)">
                    <rect id="矩形备份-19" x="0" y="0" width="20" height="20"></rect>
                    <path d="M5.34566335,9.07416768 C6.02388754,6.75829537 7.50957855,5.10648981 10.226162,4.87106 C10.4132414,4.85466101 10.6751591,4.86950389 10.8887323,4.82896529 C11.0726992,4.79310824 11.2971907,4.66059958 11.5092205,4.5732843 C12.3697885,4.22095169 14.2717766,3.60201972 15.2321287,4.3612545 C16.065392,5.0215232 15.9118693,6.62650178 15.397396,7.67334999 C15.8082216,8.50044222 16.1121815,9.65254243 15.9352646,10.9426603 C13.5219157,11.0416261 10.7094611,10.9558806 8.3651122,10.9855132 C8.44380881,12.2311584 9.22840719,13.1852644 10.3922344,13.3200887 C11.5295104,13.451852 12.3160557,12.811095 12.8328528,12.0892677 C13.7978666,12.0892677 14.7628968,12.0892677 15.7279364,12.0892677 C14.9757376,14.2438313 13.0635834,15.9150783 10.1030272,15.6983751 C9.42952448,15.6484864 8.90496014,15.4528027 8.32379187,15.2306783 C7.35368394,15.7599817 5.20698945,16.545722 4.35298509,15.4426952 C3.70443397,14.6055214 4.12109786,13.0823385 4.47695547,12.089256 C5.1972078,10.0773448 6.56834329,8.08417184 7.91030493,6.95156578 C7.91804558,6.91645357 7.95158835,6.90865978 7.95158835,6.86656495 C6.89145225,7.40601563 6.17666555,8.30007352 5.34566511,9.07416768 L5.34566335,9.07416768 Z M15.5213757,5.93275587 C15.4815819,4.48755198 13.6123318,4.62943097 12.6254836,5.2109344 C13.7276877,5.65056822 14.5321486,6.39578268 15.1900396,7.29065033 C15.3334807,6.83697158 15.5361472,6.4604456 15.521371,5.93275118 L15.5213757,5.93275587 Z M8.36510634,9.4561171 C9.89565793,9.4561171 11.4265962,9.4561171 12.9567494,9.4561171 C12.8234825,6.50335383 8.5092822,6.74187739 8.36510634,9.4561171 Z M4.97311237,14.6367097 C5.20344335,15.9439604 7.0391408,15.563566 7.86894593,14.9765794 C6.77960317,14.3669966 6.10101922,13.3373012 5.55224158,12.1734646 C5.2977184,12.8032903 4.82106972,13.7730162 4.973103,14.6367003 L4.97311237,14.6367097 Z" id="形状备份-25" fill="#979797" fill-rule="nonzero"></path>
                </g>
            </g>
        </g>
    </g>
</svg>