<?xml version="1.0" encoding="UTF-8"?>
<svg width="20px" height="20px" viewBox="0 0 20 20" version="1.1" xmlns="http://www.w3.org/2000/svg" xmlns:xlink="http://www.w3.org/1999/xlink">
    <!-- Generator: Sketch 56.1 (81669) - https://sketch.com -->
    <title>介绍视频</title>
    <desc>Created with Sketch.</desc>
    <g id="Page-1" stroke="none" stroke-width="1" fill="none" fill-rule="evenodd">
        <g id="00-作品修改" transform="translate(-1244.000000, -2362.000000)">
            <g id="编组-23" transform="translate(1214.000000, 2151.000000)">
                <g id="介绍视频" transform="translate(30.000000, 211.000000)">
                    <rect id="矩形备份-34" x="0" y="0" width="20" height="20"></rect>
                    <path d="M4.62709285,4 L15.3729072,4 C15.7686454,4 16.0913242,4.35616438 16.0913242,4.80136986 L16.0913242,15.1986301 C16.0913242,15.6438356 15.7686454,16 15.3729072,16 L4.62709285,16 C4.23135464,16 3.9086758,15.6438356 3.9086758,15.1986301 L3.9086758,4.80136986 C3.9086758,4.35616438 4.23135464,4 4.62709285,4 Z M8.56621005,8 L8.56621005,11.6575342 C8.56621005,11.8013699 8.63318113,11.9315068 8.74885845,12.0068493 C8.85844749,12.0753425 8.99847793,12.0753425 9.10806697,12.0068493 L11.8782344,10.1780822 C11.9878234,10.1027397 12.0547945,9.97260274 12.0547945,9.83561644 C12.0547945,9.69178082 11.9878234,9.56164384 11.8782344,9.49315068 L9.10806697,7.65753425 C8.99847793,7.58219178 8.85844749,7.58219178 8.74885845,7.65753425 C8.63318113,7.7260274 8.56621005,7.85616438 8.56621005,8 L8.56621005,8 Z M4.62709285,6 L6.42922374,6 L6.42922374,4.80136986 L4.98021309,4.80136986 C4.78538813,4.80136986 4.62100457,4.97945205 4.62100457,5.19863014 L4.62100457,6 L4.62709285,6 Z M15.3242009,6 L15.3242009,5.19863014 C15.3242009,4.97945205 15.1659056,4.80136986 14.9649924,4.80136986 L13.5768645,4.80136986 L13.5768645,6 L15.3242009,6 Z M9.27853881,6 L9.27853881,4.80136986 L7.48858447,4.80136986 L7.48858447,6 L9.27853881,6 L9.27853881,6 Z M12.5053272,6 L12.5053272,4.80136986 L10.7153729,4.80136986 L10.7153729,6 L12.5053272,6 Z M15.3242009,14 L13.52207,14 L13.52207,15.1986301 L14.9649924,15.1986301 C15.0624049,15.1986301 15.1537291,15.1575342 15.2207002,15.0821918 C15.2876712,15.0068493 15.3242009,14.9041096 15.3242009,14.8013699 L15.3242009,14 L15.3242009,14 Z M4.62709285,14 L4.62709285,14.8013699 C4.62709285,15.0205479 4.78538813,15.1986301 4.98630137,15.1986301 L6.37442922,15.1986301 L6.37442922,14 L4.62709285,14 Z M10.6666667,14 L10.6666667,15.1986301 L12.456621,15.1986301 L12.456621,14 L10.6666667,14 Z M7.44596651,14 L7.44596651,15.1986301 L9.23592085,15.1986301 L9.23592085,14 L7.44596651,14 L7.44596651,14 Z" id="形状备份-14" fill="#979797" fill-rule="nonzero"></path>
                </g>
            </g>
        </g>
    </g>
</svg>