<?xml version="1.0" encoding="UTF-8"?>
<svg width="20px" height="20px" viewBox="0 0 20 20" version="1.1" xmlns="http://www.w3.org/2000/svg" xmlns:xlink="http://www.w3.org/1999/xlink">
    <!-- Generator: Sketch 56.1 (81669) - https://sketch.com -->
    <title>物流服务</title>
    <desc>Created with Sketch.</desc>
    <g id="Page-1" stroke="none" stroke-width="1" fill="none" fill-rule="evenodd">
        <g id="00-作品修改" transform="translate(-201.000000, -2463.000000)">
            <g id="编组-7" transform="translate(171.000000, 2151.000000)">
                <g id="物流服务" transform="translate(30.000000, 312.000000)">
                    <rect id="矩形备份-18" x="0" y="0" width="20" height="20"></rect>
                    <path d="M3.5,6.76923077 L9.56204296,8.44242155 L9.56204296,15.7814138 C9.56204296,15.7814138 9.59446696,15.9357874 9.48758941,15.9872499 C9.38071187,16.0387125 8.97664931,15.9177663 8.97664931,15.9177663 L4.4480139,14.6677954 C4.4480139,14.6677954 4.03767347,14.4352174 3.81668975,14.2118125 C3.59570602,13.9884075 3.5,13.2803131 3.5,13.2803131 L3.5,6.76923077 Z M16.4977227,6.76923077 L16.4977087,6.76923077 L16.4977087,12.5826879 C16.4977087,12.5826879 16.5431577,13.9232666 16.2292214,14.2412097 C15.915285,14.5591527 15.0594293,14.7865571 15.0594293,14.7865571 L11.0051253,15.9073751 C11.0051253,15.9073751 10.5855546,16.0778473 10.5012449,15.9562547 C10.4176037,15.8356493 10.4347916,15.1629695 10.4347916,15.1629695 L10.4347916,8.445268 L13.3195404,7.64780845 L13.3195404,10.4663253 L14.5817625,10.1202052 L14.5817625,7.298882 L16.4977227,6.76923077 Z M16.0666667,5.72322902 L16.0666667,5.72326991 L13.8765613,6.30769231 L7.4,4.57831664 L9.27420012,4.06653646 C9.27420012,4.06653646 9.54681481,4 9.63753462,4 C9.72825443,4 9.99114323,4.06239327 9.99114323,4.06239327 L16.0666667,5.72322902 Z M3.5,6.04143878 L5.91891571,5.38461538 L12.1666667,7.04311477 L9.71929092,7.69230769 L3.5,6.04143878 Z" id="形状结合" fill="#979797" fill-rule="nonzero"></path>
                </g>
            </g>
        </g>
    </g>
</svg>