<?xml version="1.0" encoding="UTF-8"?>
<svg width="20px" height="20px" viewBox="0 0 20 20" version="1.1" xmlns="http://www.w3.org/2000/svg" xmlns:xlink="http://www.w3.org/1999/xlink">
    <!-- Generator: Sketch 56.1 (81669) - https://sketch.com -->
    <title>药品诊疗</title>
    <desc>Created with Sketch.</desc>
    <g id="Page-1" stroke="none" stroke-width="1" fill="none" fill-rule="evenodd">
        <g id="00-作品修改" transform="translate(-369.000000, -2262.000000)">
            <g id="编组-7" transform="translate(171.000000, 2151.000000)">
                <g id="药品诊疗" transform="translate(198.000000, 111.000000)">
                    <rect id="矩形备份-8" x="0" y="0" width="20" height="20"></rect>
                    <path d="M12.1925415,6.99996362 C11.9376641,6.99996362 11.7309927,6.77610094 11.7309927,6.49997211 L11.7309927,5.49997454 C11.7309927,5.22422402 11.5238914,4.99998302 11.2694573,4.99998302 L8.73098594,4.99998302 C8.47656528,4.99998302 8.26945058,5.22420947 8.26945058,5.49997454 L8.26945058,6.49997211 C8.26945058,6.77608639 8.06279256,6.99996362 7.80790179,6.99996362 C7.55302445,6.99996362 7.34635299,6.77610094 7.34635299,6.49997211 L7.34635299,5.49997454 C7.34635299,4.6728394 7.96744189,4 8.73097251,4 L11.2694439,4 C12.0329611,4 12.65405,4.67282485 12.65405,5.49997454 L12.65405,6.49997211 C12.65405,6.77608639 12.4474188,6.99996362 12.1925415,6.99996362 Z M15.0769293,16 L4.92307072,16 C4.41398763,16 4,15.551518 4,15.000017 L4,6.99996362 C4,6.448579 4.41398763,5.9999806 4.92307072,5.9999806 L15.0769293,5.9999806 C15.5860124,5.9999806 16,6.448579 16,6.99996362 L16,15.000017 C16,15.551518 15.5860124,16 15.0769293,16 Z M9.42334271,10.3193457 L7.69259182,10.3193457 L7.69259182,11.5693245 L9.42334271,11.5693245 L9.42334271,13.4443145 L10.577208,13.4443145 L10.577208,11.5693245 L12.3079857,11.5693245 L12.3079857,10.3193457 L10.577208,10.3193457 L10.577208,8.44437028 L9.42334271,8.44437028 L9.42334271,10.3193457 Z" id="形状结合" fill="#979797" fill-rule="nonzero"></path>
                </g>
            </g>
        </g>
    </g>
</svg>