<?xml version="1.0" encoding="UTF-8"?>
<svg width="20px" height="20px" viewBox="0 0 20 20" version="1.1" xmlns="http://www.w3.org/2000/svg" xmlns:xlink="http://www.w3.org/1999/xlink">
    <!-- Generator: Sketch 56.1 (81669) - https://sketch.com -->
    <title>微电影</title>
    <desc>Created with Sketch.</desc>
    <g id="Page-1" stroke="none" stroke-width="1" fill="none" fill-rule="evenodd">
        <g id="00-作品修改" transform="translate(-1580.000000, -2312.000000)">
            <g id="编组-23" transform="translate(1214.000000, 2151.000000)">
                <g id="微电影" transform="translate(366.000000, 161.000000)">
                    <rect id="矩形备份-33" x="0" y="0" width="20" height="20"></rect>
                    <path d="M9.24414284,6.18171821 L7.47224195,4.00013406 L5.46517381,4.00013406 L7.23770178,6.18171821 L9.24414284,6.18171821 Z M14.4560297,6.18171821 L12.6841288,4.00013406 L10.6776766,4.00013406 L12.4495774,6.18171821 L14.4560297,6.18171821 Z M11.8503998,6.18171821 L10.0778718,4.00013406 L8.07141958,4.00013406 L9.84332047,6.18171821 L11.8503998,6.18171821 Z M15.212202,4.00013406 L13.2833064,4.00013406 L15.0558344,6.18171821 L15.9940108,6.18171821 L15.9940108,4.81831308 L15.9940108,4.81831052 C16.0016782,4.37446909 15.6640801,4.00816002 15.239965,4.0001362 C15.2307088,3.99996108 15.2214503,3.99996111 15.2121941,4.00013629 L15.212202,4.00013406 Z M4.86599618,4.00013406 L4.78781485,4.00013406 L4.78781484,4.00013406 C4.3636997,3.99210866 4.01366991,4.34540683 4.00600158,4.78924826 C4.00583421,4.79893499 4.00583421,4.80862414 4.00600158,4.81831085 L4.00600158,6.18171598 L6.63790176,6.18171598 L4.86599618,4.00013406 Z M4.00600137,15.1816756 L4.00600135,15.1816766 C3.99798114,15.6251501 4.33500707,15.9914591 4.7587706,15.9998533 C4.76845159,16 4.77813514,16 4.78781618,15.9998532 L15.2122058,15.9998532 L15.2122058,15.9998532 C15.6359693,16.008247 15.9859991,15.6555461 15.994019,15.2120726 C15.9941565,15.2019414 15.9941565,15.1918074 15.994019,15.1816761 L15.994019,6.72761274 L4.00598723,6.72761274 L4.00600137,15.1816756 Z M8.17587814,9.18214933 C8.17587814,8.71807901 8.5405156,8.5001163 8.95769141,8.5001163 L8.95769141,8.5001163 C9.10333475,8.49736694 9.24706997,8.53508502 9.37424125,8.60942472 L12.3451357,10.4094115 L12.3451357,10.4094116 C12.7048976,10.6099274 12.8412176,11.0776868 12.6496136,11.454183 C12.5806429,11.5897079 12.4746373,11.7006433 12.3451357,11.7728225 L9.37424131,13.5728093 L9.37424131,13.5728093 C9.24825365,13.6502272 9.10367747,13.6881662 8.95769147,13.6821178 C8.54051567,13.6821178 8.17587814,13.4635012 8.17587814,13.0000847 L8.17587814,9.18214933 Z" id="形状备份-15" fill="#979797" fill-rule="nonzero"></path>
                </g>
            </g>
        </g>
    </g>
</svg>