<?xml version="1.0" encoding="UTF-8"?>
<svg width="20px" height="20px" viewBox="0 0 20 20" version="1.1" xmlns="http://www.w3.org/2000/svg" xmlns:xlink="http://www.w3.org/1999/xlink">
    <!-- Generator: Sketch 56.1 (81669) - https://sketch.com -->
    <title>包装设计</title>
    <desc>Created with Sketch.</desc>
    <g id="Page-1" stroke="none" stroke-width="1" fill="none" fill-rule="evenodd">
        <g id="00-作品修改" transform="translate(-1580.000000, -2412.000000)">
            <g id="编组-23" transform="translate(1214.000000, 2151.000000)">
                <g id="包装设计" transform="translate(366.000000, 261.000000)">
                    <rect id="矩形备份-39" x="0" y="0" width="20" height="20"></rect>
                    <path d="M7.31281879,7.01915415 C7.05384701,6.88062845 6.81381137,6.71763742 6.61119572,6.538179 C5.68360212,5.71708897 5.51489685,4.53566363 6.23693432,3.89691009 C6.53979763,3.62994386 6.94918251,3.5 7.39369088,3.5 C8.00863594,3.5 8.68691447,3.74949647 9.22700266,4.22719634 C9.53964654,4.50360467 9.80837841,4.85827348 9.99979007,5.23155693 C10.1912845,4.85807588 10.4601904,4.5031991 10.7729848,4.22665901 C11.3130689,3.7500506 11.990195,3.50000905 12.6068634,3.50000905 C13.049643,3.50000905 13.4601804,3.62995291 13.7618926,3.89637276 C14.4856574,4.5351263 14.3163759,5.71708906 13.3893585,6.53764168 C13.185742,6.71732997 12.9449076,6.88050885 12.685276,7.01914942 L14.9986966,7.01914942 C15.5503001,7.01914942 15.9999906,7.44553148 15.9999906,7.96799912 L15.9999906,11.2856955 L10.500645,11.2856955 L10.500645,7.43892244 C10.3169507,7.3917842 10.1547905,7.31301776 10.0250369,7.1982321 C10.0166084,7.19078176 10.0083519,7.18321266 10.000266,7.17552728 C9.9920065,7.18339725 9.98356851,7.19114551 9.97495057,7.19876942 C9.84554569,7.31353154 9.68338741,7.39228921 9.49934158,7.43943076 L9.49934158,11.2857002 L9.49934158,11.2862466 L4.00000004,11.2862466 L4.00000004,7.96800385 C4.00000004,7.44553621 4.45026538,7.01915415 5.00014286,7.01915415 L7.31281879,7.01915415 Z M12.6068634,4.46796202 C12.2256912,4.46796202 11.7996089,4.64212264 11.4679553,4.93310994 C10.847256,5.48341684 10.633063,6.30888295 10.7315227,6.49996264 L10.7326743,6.4994167 C10.7436133,6.4994167 10.8167388,6.52507598 10.970474,6.52507598 C11.5042331,6.52507598 12.2458478,6.22589954 12.6932346,5.82899841 C13.0600107,5.50470815 13.1918661,5.14656984 13.1918661,4.9172737 C13.1918661,4.71418283 13.097437,4.63174536 13.067496,4.60444825 C12.9321869,4.4848863 12.7197209,4.46796202 12.6068665,4.46796202 Z M7.39369088,4.46796202 C7.27853384,4.46796202 7.06779563,4.48489091 6.93306136,4.60445247 C6.90254467,4.63065774 6.80869127,4.71418705 6.80869127,4.91673155 C6.80869127,5.14548132 6.93997081,5.50525746 7.30674788,5.83009409 C7.75585805,6.22699522 8.49574403,6.52617167 9.02834788,6.52617167 C9.21547926,6.52617167 9.28284639,6.48740974 9.28284639,6.48740974 C9.37094187,6.32198895 9.15732383,5.48723712 8.53086752,4.93419708 C8.20036507,4.64211833 7.77485768,4.46796202 7.39368683,4.46796202 Z M10.500649,12.233995 L16,12.233995 L16,15.5533254 C16,16.0747015 15.5503095,16.4999909 15.0010083,16.4999909 L10.500649,16.4999909 L10.500649,12.233995 Z M4,12.2340036 L9.49932939,12.2340036 L9.49932939,16.5 L5.00013067,16.5 C4.44883487,16.4990954 4.00189386,16.0760427 4,15.553323 L4,15.5533339 L4,12.2340036 Z" id="形状结合" fill="#979797" fill-rule="nonzero"></path>
                </g>
            </g>
        </g>
    </g>
</svg>