<?xml version="1.0" encoding="UTF-8"?>
<svg width="20px" height="20px" viewBox="0 0 20 20" version="1.1" xmlns="http://www.w3.org/2000/svg" xmlns:xlink="http://www.w3.org/1999/xlink">
    <!-- Generator: Sketch 56.1 (81669) - https://sketch.com -->
    <title>插画与动画</title>
    <desc>Created with Sketch.</desc>
    <g id="Page-1" stroke="none" stroke-width="1" fill="none" fill-rule="evenodd">
        <g id="00-作品修改" transform="translate(-1244.000000, -2312.000000)">
            <g id="编组-23" transform="translate(1214.000000, 2151.000000)">
                <g id="插画与动画" transform="translate(30.000000, 161.000000)">
                    <rect id="矩形备份-31" x="0" y="0" width="20" height="20"></rect>
                    <path d="M15.3514492,12.3729794 L15.3514491,12.3729794 C14.0320961,12.3729793 12.9625424,11.3034292 12.9625424,9.98407265 C12.9625425,8.66471963 14.0320926,7.59516593 15.3514491,7.59516593 L15.3514491,7.59516593 C15.5185427,7.59227162 15.6516526,7.45446948 15.6487584,7.28737589 C15.6481275,7.25095619 15.6409262,7.21494957 15.6275009,7.1810888 L15.6275011,7.18108913 C14.070657,4.25660846 10.4378412,3.14792617 7.51336048,4.70477024 C4.58887981,6.2616143 3.48019752,9.89443019 5.03704159,12.8189109 C6.59388565,15.7433915 10.2267015,16.8520738 13.1511822,15.2952298 C14.2045535,14.7344684 15.0667362,13.8722763 15.6275011,12.8189109 L15.6275011,12.8189109 C15.7099281,12.6769144 15.6616373,12.4949829 15.5196408,12.4125562 C15.4687316,12.3830041 15.4101949,12.3692308 15.35145,12.3729818 L15.3514492,12.3729794 Z M5.59940571,10.2176602 L5.59940571,10.2176601 C5.59940571,9.63127989 6.07476179,9.15592386 6.66114196,9.15592386 C7.24752212,9.15592386 7.72287814,9.63127989 7.72287814,10.2176601 C7.72287814,10.8040402 7.24752212,11.2793962 6.66114196,11.2793962 L6.6611419,11.2793962 C6.07476174,11.2793962 5.59940571,10.8040402 5.59940571,10.2176601 C5.59940571,10.2176601 5.59940571,10.21766 5.59940571,10.21766 L5.59940571,10.2176602 Z M8.18472907,14.2416447 L8.18472902,14.2416447 C7.59834886,14.2416447 7.12299283,13.7662887 7.12299283,13.1799085 C7.12299283,12.5935284 7.59834886,12.1181723 8.18472902,12.1181723 C8.77110918,12.1181723 9.24646521,12.5935284 9.24646521,13.1799085 L9.24646521,13.1799085 C9.24646521,13.7662887 8.77110918,14.2416447 8.18472902,14.2416447 C8.18472902,14.2416447 8.18472902,14.2416447 8.18472902,14.2416447 L8.18472907,14.2416447 Z M8.18472907,8.05703092 L8.18472902,8.05703092 C7.59834886,8.05703092 7.12299283,7.58167489 7.12299283,6.99529473 C7.12299283,6.40891457 7.59834886,5.93355854 8.18472902,5.93355854 C8.77110918,5.93355854 9.24646521,6.40891457 9.24646521,6.99529473 L9.24646521,6.99529473 C9.24646521,7.58167489 8.77110918,8.05703092 8.18472902,8.05703092 C8.18472902,8.05703092 8.18472902,8.05703092 8.18472902,8.05703092 L8.18472907,8.05703092 Z M11.6831503,14.4274527 L11.6831503,14.4274527 C11.0967701,14.4274527 10.6214141,13.9520967 10.6214141,13.3657166 C10.6214141,12.7793364 11.0967701,12.3039804 11.6831503,12.3039804 C12.2695305,12.3039804 12.7448865,12.7793364 12.7448865,13.3657166 L12.7448865,13.3657166 C12.7448865,13.9520967 12.2695305,14.4274527 11.6831503,14.4274527 C11.6831503,14.4274527 11.6831503,14.4274527 11.6831503,14.4274527 L11.6831503,14.4274527 Z M11.7256197,7.41998991 L11.7256197,7.41998991 C11.1392395,7.41998991 10.6638835,6.94463388 10.6638835,6.35825372 C10.6638835,5.77187356 11.1392395,5.29651753 11.7256197,5.29651753 C12.3119999,5.29651753 12.7873559,5.77187356 12.7873559,6.35825372 L12.7873559,6.35825372 C12.7873559,6.94463388 12.3119999,7.41998991 11.7256197,7.41998991 C11.7256197,7.41998991 11.7256197,7.41998991 11.7256197,7.41998991 L11.7256197,7.41998991 Z" id="形状备份-12" fill="#979797" fill-rule="nonzero"></path>
                </g>
            </g>
        </g>
    </g>
</svg>