<?xml version="1.0" encoding="UTF-8"?>
<svg width="20px" height="20px" viewBox="0 0 20 20" version="1.1" xmlns="http://www.w3.org/2000/svg" xmlns:xlink="http://www.w3.org/1999/xlink">
    <!-- Generator: Sketch 56.1 (81669) - https://sketch.com -->
    <title>平面</title>
    <desc>Created with Sketch.</desc>
    <g id="Page-1" stroke="none" stroke-width="1" fill="none" fill-rule="evenodd">
        <g id="00-作品修改" transform="translate(-1244.000000, -2262.000000)">
            <g id="编组-23" transform="translate(1214.000000, 2151.000000)">
                <g id="平面" transform="translate(30.000000, 111.000000)">
                    <rect id="矩形备份-28" x="0" y="0" width="20" height="20"></rect>
                    <path d="M15.1639348,4 L4.83606524,4 C4.34426232,4 4,4.39344207 4,4.83606524 L4,15.1639348 C4,15.6557377 4.39344207,16 4.83606524,16 L15.1639348,16 C15.6557377,16 16,15.6065579 16,15.1639348 L16,4.83606524 C16,4.39344207 15.6557377,4 15.1639348,4 Z M12.7049201,6.50819304 C13.5901665,6.50819304 14.3278749,7.24589743 14.3278749,8.13114781 C14.3278749,9.01639415 13.5901705,9.75410257 12.7049201,9.75410257 C11.8196738,9.75410257 11.0819654,9.01639818 11.0819654,8.13114781 C11.0819654,7.24590146 11.8196698,6.50819304 12.7049201,6.50819304 Z M6.21311451,5.96720901 L8.27868841,5.96720901 C8.52458988,5.96720901 8.72131159,6.16393072 8.72131159,6.40983219 C8.72131159,6.65573365 8.52458988,6.85245536 8.27868841,6.85245536 L6.21311451,6.85245536 C5.96721305,6.85245536 5.77049134,6.65573365 5.77049134,6.40983219 C5.77049134,6.16393072 5.96721305,5.96720901 6.21311451,5.96720901 L6.21311451,5.96720901 Z M6.21311451,7.59016378 L9.55738086,7.59016378 C9.80328233,7.59016378 10.000004,7.78688549 10.000004,8.03278695 C10.000004,8.27868841 9.80328233,8.47541012 9.55738086,8.47541012 L6.21311451,8.47541012 C5.96721305,8.47541012 5.77049134,8.27868841 5.77049134,8.03278695 C5.77049134,7.78688549 5.96721305,7.59016378 6.21311451,7.59016378 L6.21311451,7.59016378 Z M4.83606524,15.1639348 L4.83606524,13.6885287 L7.6885206,10.9836085 L10.1475352,13.2950879 L11.8196684,11.8688603 L15.1639348,15.2131266 L4.83606524,15.2131266 L4.83606524,15.1639348 Z" id="形状备份-11" fill="#008AD9" fill-rule="nonzero"></path>
                </g>
            </g>
        </g>
    </g>
</svg>