<?xml version="1.0" encoding="UTF-8"?>
<svg width="20px" height="20px" viewBox="0 0 20 20" version="1.1" xmlns="http://www.w3.org/2000/svg" xmlns:xlink="http://www.w3.org/1999/xlink">
    <!-- Generator: Sketch 56.1 (81669) - https://sketch.com -->
    <title>餐饮服务</title>
    <desc>Created with Sketch.</desc>
    <g id="Page-1" stroke="none" stroke-width="1" fill="none" fill-rule="evenodd">
        <g id="00-作品修改" transform="translate(-201.000000, -2565.000000)">
            <g id="编组-7" transform="translate(171.000000, 2151.000000)">
                <g id="餐饮服务" transform="translate(30.000000, 414.000000)">
                    <rect id="矩形备份-24" x="0" y="0" width="20" height="20"></rect>
                    <path d="M11.0506836,6.46846451 L11.0506838,6.46846454 C14.0414562,6.96585126 16.2980362,9.51027805 16.4885271,12.5999651 L16.4885272,12.5999654 C16.5149593,13.0321337 16.1934768,13.4043665 15.7704757,13.4313717 C15.7543193,13.4324031 15.738135,13.4328979 15.721947,13.4328979 L4.26776872,13.4328979 L4.2240349,13.4312114 L4.22403492,13.4312114 C3.81398812,13.4067739 3.50082833,13.0475888 3.52429399,12.6286287 L3.52429409,12.628627 C3.70245402,9.52808736 5.96182159,6.96860498 8.96213747,6.46846443 L8.96213747,5.98202557 L8.96213747,5.98202573 C8.96213738,5.39303719 9.42947821,4.91556832 10.0059731,4.91556832 C10.5824679,4.91556832 11.0498086,5.39303719 11.0498086,5.98202573 C11.0498086,5.98202573 11.0498086,5.98202573 11.0498086,5.98202573 L11.0498086,6.46930797 L11.0506836,6.46846451 Z M3.90639393,15.0844317 L3.90639391,15.0844317 C3.681949,15.0844317 3.5,14.8985395 3.5,14.6692305 C3.5,14.4399214 3.681949,14.2540293 3.90639391,14.2540293 L16.0940838,14.2540293 L16.0940838,14.2540293 C16.3183014,14.2540661 16.5,14.4397994 16.5,14.6688762 C16.5,14.8979006 16.31825,15.083553 16.0940838,15.0835894 L3.90555586,15.0835894 L3.90639393,15.0844317 Z" id="形状备份-27" fill="#979797" fill-rule="nonzero"></path>
                </g>
            </g>
        </g>
    </g>
</svg>