<?xml version="1.0" encoding="UTF-8"?>
<svg width="20px" height="20px" viewBox="0 0 20 20" version="1.1" xmlns="http://www.w3.org/2000/svg" xmlns:xlink="http://www.w3.org/1999/xlink">
    <!-- Generator: Sketch 56.1 (81669) - https://sketch.com -->
    <title>网站</title>
    <desc>Created with Sketch.</desc>
    <g id="Page-1" stroke="none" stroke-width="1" fill="none" fill-rule="evenodd">
        <g id="00-作品修改" transform="translate(-1580.000000, -2362.000000)">
            <g id="编组-23" transform="translate(1214.000000, 2151.000000)">
                <g id="网站" transform="translate(366.000000, 211.000000)">
                    <rect id="矩形备份-36" x="0" y="0" width="20" height="20"></rect>
                    <path d="M5.98214468,6.88383124 C5.69233164,6.88383124 5.4618,6.6378172 5.4618,6.34396861 C5.4618,6.05011851 5.69891976,5.80410599 5.98214468,5.80410599 C6.26537106,5.80410599 6.50248936,6.05012003 6.50248936,6.34396861 C6.50248936,6.63781872 6.27195626,6.88383124 5.98214468,6.88383124 Z M7.48390317,6.88383124 C7.19409012,6.88383124 6.96355848,6.6378172 6.96355848,6.34396861 C6.96355848,6.05011851 7.20067824,5.80410599 7.48390317,5.80410599 C7.76712955,5.80410599 8.00424785,6.05012003 8.00424785,6.34396861 C8.00424785,6.63781872 7.77371475,6.88383124 7.48390317,6.88383124 Z M8.98566165,6.88383124 C8.69584861,6.88383124 8.46531697,6.6378172 8.46531697,6.34396861 C8.46531697,6.05011851 8.70243673,5.80410599 8.98566165,5.80410599 C9.27547469,5.80410599 9.50600633,6.05012003 9.50600633,6.34396861 C9.50600633,6.63781872 9.26888657,6.88383124 8.98566165,6.88383124 Z M15.3878806,4 L4.6121194,4 C4.03249477,4 3.57142857,4.47835912 3.57142857,5.0865605 L3.57142857,14.9134395 C3.57142857,15.5216394 4.02590665,16 4.6121194,16 L15.3878806,16 C15.9675052,16 16.4285714,15.5216409 16.4285714,14.9134395 L16.4285714,5.12073668 C16.4219848,4.53303799 15.9477467,4 15.3878806,4 L15.3878806,4 Z M7.61563637,12.4738018 C7.81323617,12.56264 7.90544941,12.8018205 7.81323617,13.0068307 C7.74736971,13.1435049 7.61563637,13.246011 7.45096987,13.246011 C7.40486339,13.246011 7.33899694,13.2255098 7.29947669,13.1981751 L5.64623231,12.4054647 C5.51449941,12.3371276 5.42228587,12.200453 5.42228587,12.0296099 C5.42228587,11.8587668 5.53425895,11.7220924 5.67257895,11.6537551 L7.35216997,10.929382 C7.54976977,10.8610449 7.78030141,10.9498832 7.86592799,11.1685623 C7.95155442,11.373574 7.84616801,11.6127528 7.61563491,11.7289261 L6.7857172,12.0842797 L7.61563491,12.4738019 L7.61563637,12.4738018 Z M10.7311193,10.5261982 L9.88144158,13.2391788 C9.81557512,13.4031882 9.65749514,13.5193615 9.49941676,13.5193615 C9.47965678,13.5193615 9.4335503,13.5193615 9.38744383,13.4988603 C9.18984403,13.4305232 9.07128415,13.1913427 9.13715075,12.9863326 L9.98682843,10.273352 C10.0526949,10.0683403 10.2766415,9.94533324 10.4808265,10.0136705 C10.6850129,10.0820076 10.7969862,10.321188 10.7311196,10.5261982 L10.7311193,10.5261982 Z M14.5118475,11.9954457 C14.5118475,12.1594551 14.4262211,12.3029632 14.2879011,12.3713005 L12.6346567,13.1640109 C12.5885502,13.2118468 12.5226838,13.2118468 12.4831635,13.2118468 C12.3316704,13.2118468 12.1933505,13.1230085 12.1208972,12.9726665 C12.0352708,12.7676548 12.1208972,12.528476 12.318497,12.4396376 L13.1484147,12.0432831 L12.318497,11.6879295 C12.1208972,11.5990913 12.0023374,11.3599108 12.0945506,11.1549006 C12.180177,10.9498889 12.4107103,10.8268819 12.6083086,10.9157203 L14.2878996,11.6400934 C14.4196325,11.722098 14.5381927,11.8587726 14.5118461,11.9954471 L14.5118475,11.9954457 Z M15.5920583,7.4902505 L4.40134482,7.4902505 L4.40134482,5.55133895 C4.40134482,5.47492875 4.50673123,5.40329398 4.60553128,5.40329398 L15.3878719,5.40329398 C15.5130181,5.40329398 15.5920583,5.46537725 15.5920583,5.55133895 L15.5920583,7.4902505 Z" id="形状备份-7" fill="#979797" fill-rule="nonzero"></path>
                </g>
            </g>
        </g>
    </g>
</svg>