<?xml version="1.0" encoding="UTF-8"?>
<svg width="20px" height="20px" viewBox="0 0 20 20" version="1.1" xmlns="http://www.w3.org/2000/svg" xmlns:xlink="http://www.w3.org/1999/xlink">
    <!-- Generator: Sketch 56.1 (81669) - https://sketch.com -->
    <title>视频广告</title>
    <desc>Created with Sketch.</desc>
    <g id="Page-1" stroke="none" stroke-width="1" fill="none" fill-rule="evenodd">
        <g id="00-作品修改" transform="translate(-1412.000000, -2312.000000)">
            <g id="编组-23" transform="translate(1214.000000, 2151.000000)">
                <g id="视频广告" transform="translate(198.000000, 161.000000)">
                    <rect id="矩形备份-32" x="0" y="0" width="20" height="20"></rect>
                    <path d="M12.363638,14.9242472 L4.68181859,14.9242472 C4.03181796,14.9242472 3.5,14.3924293 3.5,13.7424287 L3.5,6.25757134 C3.5,5.60757071 4.03181796,5.07575275 4.68181859,5.07575275 L12.363638,5.07575275 C13.0136387,5.07575275 13.5454566,5.60757071 13.5454566,6.25757134 L13.5454566,13.7424287 C13.5454566,14.3924293 13.0136387,14.9242472 12.363638,14.9242472 Z M14.0378831,12.2454639 C13.978792,12.2060702 13.9393981,12.1272825 13.9393981,12.0287975 L13.9393981,8.36516447 C13.9393981,8.28637692 13.9787922,8.20758897 14.0378831,8.14849804 L16.0469696,6.59243255 C16.1060604,6.55303864 16.1651513,6.53334162 16.2242422,6.53334162 C16.3818181,6.53334162 16.5,6.65152294 16.5,6.80909938 L16.5,13.5848634 C16.5,13.6439549 16.480303,13.7030459 16.4409091,13.7424398 C16.3424253,13.8803187 16.1651518,13.9000157 16.04697,13.8015308 L14.0378835,12.2454653 Z M5.07575632,8.03030325 C5.07575632,8.46363745 5.43030163,8.81818276 5.86363583,8.81818276 C6.29697002,8.81818276 6.65151533,8.46363745 6.65151533,8.03030325 C6.65151533,7.59696906 6.29697002,7.24242375 5.86363583,7.24242375 C5.43030163,7.24242375 5.07575632,7.59696906 5.07575632,8.03030325 Z" id="形状结合" fill="#979797" fill-rule="nonzero"></path>
                </g>
            </g>
        </g>
    </g>
</svg>