<?xml version="1.0" encoding="UTF-8"?>
<svg width="61px" height="80px" viewBox="0 0 61 80" version="1.1" xmlns="http://www.w3.org/2000/svg" xmlns:xlink="http://www.w3.org/1999/xlink">
    <!-- Generator: Sketch 53.2 (72643) - https://sketchapp.com -->
    <title>Group 13</title>
    <desc>Created with Sketch.</desc>
    <g id="Page-1" stroke="none" stroke-width="1" fill="none" fill-rule="evenodd">
        <g id="榜单作品榜" transform="translate(-443.000000, -1019.000000)" fill-rule="nonzero">
            <g id="Group-21" transform="translate(385.000000, 1019.000000)">
                <g id="Group-13" transform="translate(58.000000, 0.000000)">
                    <g id="Group-11-Copy" fill="#FF8A01">
                        <g id="榜单">
                            <path d="M60.2500565,4.19891266 L51.7284051,21.738484 C44.5119885,14.6508538 32.2950799,13.9011546 32.2950799,13.9011546 L38.0007415,2.426701 C38.2359613,1.4825825 39.0366741,0.769196208 40.0352199,0.769196208 L58.5441736,0.769196208 C59.7252646,0.769196208 60.682342,1.74546025 60.682342,2.95014918 C60.682342,3.42491443 60.5028244,3.84110509 60.2500473,4.19888127 L60.2500565,4.19891266 Z M60.4957198,48.9016286 C60.4957198,65.7633652 47.0930237,79.4332279 30.560485,79.4332279 C14.0279463,79.4332279 0.625711342,65.7633652 0.625711342,48.9016286 C0.625711342,32.0391072 14.0279463,18.3697154 30.560485,18.3697154 C47.0930237,18.3697154 60.4957198,32.0391072 60.4957198,48.9016286 Z M0.569446583,4.1993443 C0.317122965,3.84110666 0.137000407,3.42491443 0.137000407,2.95014918 C0.137000407,1.74546025 1.09437757,0.769196208 2.27531492,0.769196208 L20.7843454,0.769196208 C21.7827375,0.769196208 22.5836033,1.48258015 22.8186778,2.426701 L28.5243394,13.9011546 C28.5243394,13.9011546 16.3075845,14.6508569 9.09132165,21.738484 L0.569362801,4.19938354 L0.569446583,4.1993443 Z" id="Shape"></path>
                        </g>
                    </g>
                    <path d="M41.1086568,36.20035 L41.1086568,52.6716424 L34.4782609,52.6716424 L34.4782609,52.6666862 L27.8477872,52.6666862 L27.8477872,55.9999609 L41.1086568,55.9999609 L41.1086568,62.6666667 L27.8477872,62.6666667 L21.2173913,62.6666667 L21.2173913,46.0030412 L21.2173913,45.9999805 L34.4782609,45.9999805 L34.4782609,42.6667057 L21.2173913,42.6667057 L21.2173913,36 L41.1086568,36 L41.1086568,36.20035 Z" id="Combined-Shape-Copy" fill="#FFFFFF"></path>
                </g>
            </g>
        </g>
    </g>
</svg>