<?xml version="1.0" encoding="UTF-8"?>
<svg width="62px" height="80px" viewBox="0 0 62 80" version="1.1" xmlns="http://www.w3.org/2000/svg" xmlns:xlink="http://www.w3.org/1999/xlink">
    <!-- Generator: Sketch 53.2 (72643) - https://sketchapp.com -->
    <title>Group 12</title>
    <desc>Created with Sketch.</desc>
    <g id="Page-1" stroke="none" stroke-width="1" fill="none" fill-rule="evenodd">
        <g id="榜单作品榜" transform="translate(-445.000000, -1271.000000)" fill-rule="nonzero">
            <g id="Group-22" transform="translate(385.000000, 1271.000000)">
                <g id="Group-12" transform="translate(60.000000, 0.000000)">
                    <g id="Group-11-Copy-2" fill="#FFAE01">
                        <g id="榜单">
                            <path d="M60.5792918,4.19891266 L52.011074,21.738484 C44.7552234,14.6508538 32.4715557,13.9011546 32.4715557,13.9011546 L38.2083959,2.426701 C38.444901,1.4825825 39.2499893,0.769196208 40.2539916,0.769196208 L58.8640871,0.769196208 C60.0516322,0.769196208 61.0139395,1.74546025 61.0139395,2.95014918 C61.0139395,3.42491443 60.8334409,3.84110509 60.5792825,4.19888127 L60.5792918,4.19891266 Z M60.8262975,48.9016286 C60.8262975,65.7633652 47.3503626,79.4332279 30.7274822,79.4332279 C14.1046017,79.4332279 0.62913053,65.7633652 0.62913053,48.9016286 C0.62913053,32.0391072 14.1046017,18.3697154 30.7274822,18.3697154 C47.3503626,18.3697154 60.8262975,32.0391072 60.8262975,48.9016286 Z M0.572558313,4.1993443 C0.318855877,3.84110666 0.137749043,3.42491443 0.137749043,2.95014918 C0.137749043,1.74546025 1.10035778,0.769196208 2.28774833,0.769196208 L20.8979211,0.769196208 C21.9017688,0.769196208 22.707011,1.48258015 22.94337,2.426701 L28.6802101,13.9011546 C28.6802101,13.9011546 16.396697,14.6508569 9.14100101,21.738484 L0.572474073,4.19938354 L0.572558313,4.1993443 Z" id="Shape"></path>
                        </g>
                    </g>
                    <path d="M34.6666667,36 L41.3332943,36 L41.3332943,62.6666667 L34.6666667,62.6666667 L21.3333333,62.6666667 L21.3333333,55.9999609 L34.6666667,55.9999609 L34.6666667,52.6666862 L21.3333333,52.6666862 L21.3333333,45.9999805 L34.6666667,45.9999805 L34.6666667,42.6667057 L21.3333333,42.6667057 L21.3333333,36 L34.6666667,36 Z" id="Combined-Shape-Copy-2" fill="#FFFFFF"></path>
                </g>
            </g>
        </g>
    </g>
</svg>