<?xml version="1.0" encoding="UTF-8"?>
<svg width="62px" height="79px" viewBox="0 0 62 79" version="1.1" xmlns="http://www.w3.org/2000/svg" xmlns:xlink="http://www.w3.org/1999/xlink">
    <!-- Generator: Sketch 53.2 (72643) - https://sketchapp.com -->
    <title>Group 11</title>
    <desc>Created with Sketch.</desc>
    <g id="Page-1" stroke="none" stroke-width="1" fill="none" fill-rule="evenodd">
        <g id="榜单作品榜" transform="translate(-444.000000, -778.000000)" fill-rule="nonzero">
            <g id="Group-11" transform="translate(444.000000, 778.000000)">
                <g id="榜单" fill="#FF6000">
                    <path d="M60.1964967,4.09042351 L51.6825087,21.1625962 C44.4725818,14.2638388 32.2666596,13.5341178 32.2666596,13.5341178 L37.9671903,2.36543817 C38.2021985,1.44647877 39.0021913,0.752102959 39.9998391,0.752102959 L58.4921478,0.752102959 C59.6721767,0.752102959 60.6283934,1.70235129 60.6283934,2.87493737 C60.6283934,3.33705097 60.4490373,3.74215088 60.1964875,4.09039295 L60.1964967,4.09042351 Z M61.3917285,48.1059769 C61.3917285,64.7967675 47.7884623,78.3280437 31.0085157,78.3280437 C14.2285692,78.3280437 0.625771053,64.7967675 0.625771053,48.1059769 C0.625771053,31.4144094 14.2285692,17.8835993 31.0085157,17.8835993 C47.7884623,17.8835993 61.3917285,31.4144094 61.3917285,48.1059769 Z M0.569556892,4.09084365 C0.317460186,3.74215241 0.137499611,3.33705097 0.137499611,2.87493737 C0.137499611,1.70235129 1.09401582,0.752102959 2.27389116,0.752102959 L20.7662767,0.752102959 C21.7637709,0.752102959 22.5639165,1.44647647 22.7987796,2.36543817 L28.4993102,13.5341178 C28.4993102,13.5341178 16.2935417,14.2638419 9.08376833,21.1625962 L0.569473185,4.09088184 L0.569556892,4.09084365 Z" id="Shape"></path>
                </g>
                <polygon id="Path-Copy-4" fill="#FFFFFF" transform="translate(31.723404, 48.000000) scale(-1, 1) translate(-31.723404, -48.000000) " points="28.1489362 32 35.2978723 32 35.2978723 64 28.1489362 64"></polygon>
            </g>
        </g>
    </g>
</svg>