<?xml version="1.0" encoding="UTF-8"?>
<svg width="238px" height="93px" viewBox="0 0 238 93" version="1.1" xmlns="http://www.w3.org/2000/svg" xmlns:xlink="http://www.w3.org/1999/xlink">
    <!-- Generator: Sketch 53.2 (72643) - https://sketchapp.com -->
    <title>Group 40</title>
    <desc>Created with Sketch.</desc>
    <g id="Page-1" stroke="none" stroke-width="1" fill="none" fill-rule="evenodd">
        <g id="Group-40" fill="#191919" fill-rule="nonzero">
            <path d="M50.879455,62.4714286 L50.879455,64.0714286 L50.879455,62.4714286 Z M50.879455,62.4714286 L50.879455,8.8556878 L3.5231289,62.3714286 L50.979455,62.3714286 L50.879455,62.3714286 L50.879455,62.4714286 Z M50.879455,65.5714286 L54.079455,62.3714286 L54.279455,62.3714286 L54.279455,62.5714286 L75.4353872,62.5714286 L75.4353872,65.5714286 L54.279455,65.5714286 L54.279455,88.8809524 L50.879455,88.8809524 L50.879455,64.0714286 L50.879455,65.5714286 Z M51.079455,88.8809524 L51.079455,65.7714286 L54.079455,65.7714286 L54.079455,88.8809524 L51.079455,88.8809524 Z M75.4353872,65.5714286 L72.2353872,65.5714286 L72.2353872,62.5714286 L75.4353872,62.5714286 L75.4353872,65.5714286 Z M51.079455,88.8809524 L51.079455,65.5714286 L3.5231289,65.5714286 C1.7558177,65.5714286 0.323128897,64.1387398 0.323128897,62.3714286 C0.323128897,61.590162 0.60894218,60.8358853 1.1266839,60.2508033 L48.48301,6.73506256 C49.654199,5.41154254 51.6765602,5.28805383 53.0000803,6.45924281 C53.686459,7.06662251 54.079455,7.93915855 54.079455,8.8556878 L54.079455,62.5714286 L57.279455,62.5714286 L75.4353872,62.5714286 L75.4353872,65.5714286 L54.079455,65.5714286 L54.079455,88.8809524 L51.079455,88.8809524 Z" id="Combined-Shape"></path>
            <path d="M212.556326,62.4714286 L212.556326,64.0714286 L212.556326,62.4714286 Z M212.556326,62.4714286 L212.556326,8.8556878 L165.2,62.3714286 L212.656326,62.3714286 L212.556326,62.3714286 L212.556326,62.4714286 Z M212.556326,65.5714286 L215.756326,62.3714286 L215.956326,62.3714286 L215.956326,62.5714286 L237.112258,62.5714286 L237.112258,65.5714286 L215.956326,65.5714286 L215.956326,88.8809524 L212.556326,88.8809524 L212.556326,64.0714286 L212.556326,65.5714286 Z M212.756326,88.8809524 L212.756326,65.7714286 L215.756326,65.7714286 L215.756326,88.8809524 L212.756326,88.8809524 Z M237.112258,65.5714286 L233.912258,65.5714286 L233.912258,62.5714286 L237.112258,62.5714286 L237.112258,65.5714286 Z M212.756326,88.8809524 L212.756326,65.5714286 L165.2,65.5714286 C163.432689,65.5714286 162,64.1387398 162,62.3714286 C162,61.590162 162.285813,60.8358853 162.803555,60.2508033 L210.159881,6.73506256 C211.33107,5.41154254 213.353431,5.28805383 214.676951,6.45924281 C215.36333,7.06662251 215.756326,7.93915855 215.756326,8.8556878 L215.756326,62.5714286 L218.956326,62.5714286 L237.112258,62.5714286 L237.112258,65.5714286 L215.756326,65.5714286 L215.756326,88.8809524 L212.756326,88.8809524 Z" id="Combined-Shape-Copy-5"></path>
            <path d="M115.966102,92.6 C97.8305957,92.6 83.4,71.8624363 83.4,46.5 C83.4,21.1375637 97.8305957,0.4 115.966102,0.4 C134.101608,0.4 148.532203,21.1375637 148.532203,46.5 C148.532203,71.8624363 134.101608,92.6 115.966102,92.6 Z M115.966102,89.4 C132.034807,89.4 145.332203,70.2909065 145.332203,46.5 C145.332203,22.7090935 132.034807,3.6 115.966102,3.6 C99.8973963,3.6 86.6,22.7090935 86.6,46.5 C86.6,70.2909065 99.8973963,89.4 115.966102,89.4 Z" id="Oval"></path>
        </g>
    </g>
</svg>