<?xml version="1.0" encoding="UTF-8"?>
<svg width="58px" height="55px" viewBox="0 0 58 55" version="1.1" xmlns="http://www.w3.org/2000/svg" xmlns:xlink="http://www.w3.org/1999/xlink">
    <!-- Generator: Sketch 53.2 (72643) - https://sketchapp.com -->
    <title>kong</title>
    <desc>Created with Sketch.</desc>
    <g id="Page-1" stroke="none" stroke-width="1" fill="none" fill-rule="evenodd">
        <g id="00-创作者列表-" transform="translate(-821.000000, -709.000000)" fill="#E6E6E6">
            <g id="分组-2-copy" transform="translate(207.000000, 541.000000)">
                <g id="分组-22-copy" transform="translate(384.000000, 0.000000)">
                    <g id="Bitmap-Copy-11" transform="translate(182.000000, 141.000000)">
                        <g id="kong" transform="translate(48.169014, 26.760563)">
                            <path d="M24.8348933,52.7959041 L28.9006798,47.0752999 L32.9682307,52.7959041 C34.3505452,54.7415406 37.0154923,55.1734034 38.9191519,53.7597064 C40.8228116,52.3451078 41.245357,49.6222986 39.8621604,47.676662 L32.3489679,37.1072936 C32.3039787,37.0450837 32.2475217,36.9982009 32.2016504,36.9386958 C32.1081435,36.8205872 32.011108,36.7069865 31.904369,36.5978938 C31.7976299,36.4888011 31.6864802,36.389626 31.5709198,36.2940572 C31.5126985,36.2462728 31.4668272,36.1885708 31.4059595,36.1434912 C31.359206,36.1092307 31.3071597,36.0884941 31.258642,36.0560367 C31.1298494,35.9676807 30.9966462,35.8910453 30.8607965,35.8189179 C30.7434718,35.756708 30.6261471,35.6963014 30.5061759,35.6458122 C30.3765012,35.5917166 30.2459444,35.5493418 30.111859,35.5087701 C29.9777736,35.4681985 29.8454525,35.42943 29.7096029,35.4023822 C29.5781639,35.3771376 29.4467249,35.3627121 29.3126395,35.3491883 C29.1750256,35.3356644 29.0391759,35.3239437 28.9006798,35.3239437 C28.7630659,35.3239437 28.6272162,35.3356644 28.4896022,35.3491883 C28.356399,35.3627121 28.22496,35.3771376 28.0926389,35.4023822 C27.9567893,35.42943 27.8253503,35.4681985 27.6903828,35.5087701 C27.5571795,35.5493418 27.4266227,35.5917166 27.296948,35.6458122 C27.1760947,35.6963014 27.05877,35.756708 26.9423274,35.8189179 C26.8047135,35.8910453 26.6723924,35.9676807 26.5435998,36.0560367 C26.4959642,36.0884941 26.4430358,36.1092307 26.3971645,36.1434912 C26.3354146,36.1885708 26.2895433,36.2462728 26.2322042,36.2940572 C26.1166437,36.389626 26.005494,36.4888011 25.898755,36.5978938 C25.7920159,36.7069865 25.6949805,36.8205872 25.6014735,36.9386958 C25.5538379,36.9982009 25.4982631,37.0450837 25.454156,37.1072936 L17.9409636,47.676662 C16.5577669,49.6222986 16.9794302,52.3451078 18.8830898,53.7597064 C20.7867495,55.1734034 23.4516966,54.7415406 24.8348933,52.7959041" id="Fill-38"></path>
                            <path d="M51.1746984,45.1880752 L51.1746984,45.1880752 C53.1455561,43.7603559 53.5830171,41.0096289 52.1509945,39.0446938 L47.9407747,33.2682581 L54.7529285,31.0611207 C57.0699194,30.3108396 58.338465,27.829631 57.5859224,25.5186925 C56.8315533,23.2095751 54.3437792,21.9448417 52.0267884,22.6951227 L39.4399665,26.7724996 C39.2874488,26.822579 39.1404107,26.8799428 38.9979391,26.9436802 C38.9815,26.9509645 38.9678008,26.9591593 38.9513618,26.9664436 C38.6901638,27.0875448 38.4454048,27.2295883 38.2170848,27.3934846 C38.2161716,27.3943952 38.2134317,27.3953057 38.2106919,27.3971268 C38.2061255,27.4007689 38.2024724,27.4062321 38.1969927,27.4098743 C37.9659329,27.5783233 37.7549653,27.7668041 37.5640898,27.9725851 C37.5458242,27.9917063 37.5312117,28.0117381 37.5138594,28.0317699 C37.3412495,28.2248033 37.1850787,28.4314948 37.049,28.6509338 C37.0307344,28.681892 37.0142954,28.7128502 36.9969431,28.7428979 C36.8709105,28.9586947 36.7622302,29.183597 36.673642,29.4176045 C36.6626827,29.4467416 36.6544631,29.4758788 36.6435038,29.5059264 C36.559482,29.7444867 36.4946392,29.9903312 36.4535416,30.2416389 C36.4489752,30.2644023 36.4471486,30.2871657 36.4434955,30.3099291 C36.406051,30.5639684 36.3886987,30.8234709 36.396005,31.0847946 C36.396005,31.1084685 36.3987448,31.1312319 36.4005714,31.1549058 C36.412444,31.4098557 36.4434955,31.6666266 36.5019454,31.922487 C36.5083384,31.9525347 36.5183845,31.9825823 36.526604,32.01263 C36.5512625,32.1136994 36.5759211,32.2138583 36.6078859,32.3149277 C36.657203,32.4660766 36.7156529,32.6126727 36.7786692,32.7556268 C36.7859754,32.7711059 36.7960215,32.786585 36.8033277,32.8020641 C36.9238807,33.0633877 37.0663523,33.3074111 37.2298294,33.5332239 C37.231656,33.5359555 37.2325692,33.5386871 37.2343958,33.5405082 L45.013713,44.214713 C46.4448224,46.1796481 49.2038406,46.6157945 51.1746984,45.1880752" id="Fill-39"></path>
                            <path d="M34.7490128,22.1110152 C34.780974,22.1251977 34.8120219,22.1402666 34.8448962,22.1535626 C35.0841481,22.2492944 35.3325318,22.322866 35.5863945,22.3769367 C35.6119634,22.3822551 35.6366191,22.3884599 35.662188,22.3937784 C35.9379669,22.4478491 36.2201381,22.4753276 36.5059619,22.4771004 C36.5123541,22.4771004 36.5178332,22.4788732 36.5233122,22.4788732 C36.5269649,22.4788732 36.5297045,22.4779868 36.532444,22.4779868 C36.8118756,22.4771004 37.0940467,22.4487355 37.3762179,22.3946648 C37.3935682,22.3911192 37.4118317,22.3902328 37.429182,22.3866871 C37.5825955,22.3547766 37.7350957,22.3166611 37.887596,22.2687953 L50.4720633,18.2994742 C52.7887887,17.5690766 54.0571891,15.1536233 53.3038195,12.9048141 C52.55045,10.6560049 50.0629608,9.42478855 47.7453222,10.1560726 L40.9348616,12.3038316 L40.9348616,5.35264452 C40.9348616,2.98771629 38.9596636,1.07042254 36.5233122,1.07042254 C34.087874,1.07042254 32.1126761,2.98771629 32.1126761,5.35264452 L32.1126761,18.1966513 C32.1126761,18.1993105 32.1135892,18.2019697 32.1135892,18.2046289 C32.1145024,18.4758688 32.1428108,18.7497679 32.1994277,19.0245534 C32.2030804,19.0413951 32.2039936,19.0582368 32.2076463,19.0750785 C32.2405206,19.2239945 32.2797871,19.3720241 32.3290986,19.5200537 C32.3619729,19.6175583 32.4021526,19.7106308 32.4414191,19.8045897 C32.4523772,19.8329547 32.461509,19.8613196 32.4742934,19.8887982 C32.5783954,20.1236955 32.7044136,20.3435239 32.8441294,20.5509426 C32.857827,20.5704435 32.8687851,20.5908308 32.8824827,20.6094453 C33.0304171,20.8204097 33.1975282,21.013646 33.3783369,21.1926998 C33.394774,21.208655 33.4093848,21.2246103 33.425822,21.2405656 C33.6075438,21.4151874 33.8057029,21.572081 34.0139068,21.712133 C34.0403889,21.7289747 34.0641314,21.7467028 34.0897003,21.7635445 C34.2988175,21.898278 34.5198059,22.0135107 34.7490128,22.1110152" id="Fill-40"></path>
                            <path d="M20.4272877,22.3955477 C20.7094709,22.4496207 20.9907409,22.4771004 21.2710976,22.4779868 C21.2738372,22.4779868 21.2765769,22.4788732 21.2793165,22.4788732 C21.2847958,22.4788732 21.2902751,22.4771004 21.2966676,22.4771004 C21.5834168,22.4762139 21.8656,22.4487342 22.1413907,22.3946613 C22.1669607,22.3893426 22.1916175,22.3822511 22.2171875,22.3769325 C22.471061,22.3228595 22.7194552,22.2492849 22.9578041,22.1544356 C22.991593,22.1402526 23.0226423,22.125183 23.0546048,22.1118864 C23.2838216,22.0134914 23.5048194,21.898254 23.7139454,21.7644013 C23.7395154,21.7475589 23.763259,21.7298301 23.7897422,21.7121013 C23.997955,21.5720435 24.1952093,21.4160298 24.3778521,21.2414008 C24.39429,21.2254448 24.4089014,21.2086024 24.4253393,21.1935329 C24.6061557,21.0144717 24.7732738,20.8212275 24.9203013,20.6102544 C24.9349127,20.5907527 24.9458713,20.5703645 24.9595695,20.5508628 C25.0992913,20.3443219 25.2253148,20.1244844 25.328508,19.8895774 C25.341293,19.8620977 25.3513384,19.8328451 25.362297,19.804479 C25.4015652,19.7114026 25.4417466,19.6183262 25.4737091,19.5199312 C25.5239359,19.3727819 25.5632041,19.2238597 25.5951666,19.075824 C25.5988194,19.0589816 25.6006459,19.0412528 25.6042987,19.0244104 C25.6600048,18.7504999 25.6892276,18.4765895 25.6892276,18.2053384 C25.6892276,18.202679 25.6901408,18.2000197 25.6901408,18.1973604 L25.6901408,5.35193539 C25.6901408,2.98690924 23.7157719,1.07042254 21.2793165,1.07042254 C18.8437744,1.07042254 16.8684922,2.98690924 16.8684922,5.35193539 L16.8684922,12.3042967 L10.0577411,10.1555623 C7.74000363,9.42513447 5.25149508,10.6555154 4.49900663,12.9044177 C3.74560496,15.1542064 5.01405941,17.5697597 7.33088369,18.3001876 L19.9158878,22.2687866 C20.0683946,22.3175409 20.2209013,22.3556579 20.3743213,22.3866833 C20.3916724,22.3911155 20.4090234,22.392002 20.4272877,22.3955477" id="Fill-41"></path>
                            <path d="M12.7891039,44.214713 L20.5684211,33.5405082 C20.5702477,33.5377766 20.5711609,33.5350449 20.5720742,33.5332239 C20.7355513,33.3074111 20.8789362,33.0624771 20.9994892,32.8020641 C21.0067954,32.786585 21.0159282,32.7711059 21.0232344,32.7556268 C21.087164,32.6126727 21.1447006,32.4660766 21.1940177,32.3149277 C21.2268958,32.2138583 21.2515544,32.1127889 21.2762129,32.01263 C21.2835192,31.9816718 21.2944785,31.9525347 21.2999582,31.922487 C21.3593214,31.6666266 21.3903729,31.4098557 21.4022455,31.1558163 C21.4031588,31.1321424 21.4058987,31.107558 21.4068119,31.083884 C21.4141182,30.8225604 21.3967659,30.5639684 21.3593214,30.3099291 C21.3556683,30.2871657 21.3529284,30.2644023 21.3492753,30.2416389 C21.3072644,29.9894207 21.2433349,29.7435761 21.1583998,29.5050159 C21.1483538,29.4758788 21.1401342,29.4467416 21.1291749,29.4176045 C21.0405867,29.183597 20.9319064,28.9596053 20.8058738,28.7438084 C20.7885215,28.7128502 20.7720825,28.6809815 20.7538169,28.6509338 C20.6177382,28.4314948 20.4615674,28.2248033 20.2889575,28.0308593 C20.2716052,28.0117381 20.2560794,27.9917063 20.2387271,27.9725851 C20.0478516,27.7668041 19.8359707,27.5783233 19.6049109,27.4089637 C19.6003445,27.4053216 19.5966914,27.4007689 19.592125,27.3971268 C19.5893852,27.3953057 19.5866453,27.3943952 19.5848188,27.3934846 C19.3574121,27.2295883 19.1126531,27.0866343 18.8505418,26.9664436 C18.8350161,26.9591593 18.8204036,26.9509645 18.8048778,26.9436802 C18.6624062,26.8799428 18.5153681,26.8216685 18.3628504,26.7724996 L5.7760285,22.6951227 C3.45903769,21.9448417 0.970350294,23.2095751 0.216894475,25.5186925 C-0.535648063,27.8287205 0.732897551,30.3099291 3.04988835,31.0611207 L9.86112895,33.2682581 L5.65182245,39.0446938 C4.21888647,41.0096289 4.65634749,43.7603559 6.62720525,45.1880752 C8.59806302,46.6157945 11.3570812,46.1796481 12.7891039,44.214713" id="Fill-42"></path>
                            <path d="M28.9014085,31.0422535 C27.1287887,31.0422535 25.6901408,29.604462 25.6901408,27.8309859 C25.6901408,26.0575099 27.1287887,24.6197183 28.9014085,24.6197183 C30.6748845,24.6197183 32.1126761,26.0575099 32.1126761,27.8309859 C32.1126761,29.604462 30.6748845,31.0422535 28.9014085,31.0422535" id="Fill-43"></path>
                        </g>
                    </g>
                </g>
            </g>
        </g>
    </g>
</svg>