<?xml version="1.0" encoding="UTF-8"?>
<svg width="214px" height="94px" viewBox="0 0 214 94" version="1.1" xmlns="http://www.w3.org/2000/svg" xmlns:xlink="http://www.w3.org/1999/xlink">
    <!-- Generator: Sketch 53.2 (72643) - https://sketchapp.com -->
    <title>500</title>
    <desc>Created with Sketch.</desc>
    <g id="Page-1" stroke="none" stroke-width="1" fill="none" fill-rule="evenodd">
        <g id="500" transform="translate(2.000000, 2.000000)">
            <path d="M21.1271894,34.5089136 C28.0137113,32.8800632 35.8824402,33.6297146 42.0220295,37.317659 C49.9289151,42.0671876 54.426087,51.1306226 54.426087,64.6917959 C54.426087,80.6800537 43.1489821,90.8820653 28.0324536,91.5660482 C13.3127472,92.232076 0.461531474,83.5636783 -1.58331369,69.515903 C-1.71060035,68.641463 -1.1049129,67.8294031 -0.230472889,67.7021164 C0.643967117,67.5748298 1.45602703,68.1805172 1.58331369,69.0549573 C3.36984897,81.3281829 14.6936644,88.9663191 27.8878101,88.3693189 C41.3882686,87.7584589 51.226087,78.8585206 51.226087,64.6917959 C51.226087,52.1951655 47.2563884,44.1947808 40.3742664,40.06081 C35.0165726,36.8425365 27.9925577,36.1733607 21.8637536,37.6229902 C15.2773353,39.1808579 9.05320463,43.0547034 3.18289013,49.2855357 C2.1337551,50.399102 0.270020046,49.5463435 0.426747497,48.024453 L5.3892848,-0.163904492 C5.47330582,-0.979784457 6.16067256,-1.6 6.98086745,-1.6 L52.826087,-1.6 C53.7097426,-1.6 54.426087,-0.8836556 54.426087,2.22044605e-16 C54.426087,0.8836556 53.7097426,1.6 52.826087,1.6 L8.42455799,1.6 L4.06476976,43.9354064 C9.42079441,39.0821966 15.109892,35.9321687 21.1271894,34.5089136 Z" id="Path-3" fill="#191919" fill-rule="nonzero"></path>
            <ellipse id="Oval" stroke="#191919" stroke-width="3.2" cx="99.9661017" cy="44.5" rx="30.9661017" ry="44.5"></ellipse>
            <ellipse id="Oval-Copy" stroke="#191919" stroke-width="3.2" cx="178.966102" cy="44.5" rx="30.9661017" ry="44.5"></ellipse>
        </g>
    </g>
</svg>