<?xml version="1.0" encoding="UTF-8"?>
<svg width="44px" height="44px" viewBox="0 0 44 44" version="1.1" xmlns="http://www.w3.org/2000/svg" xmlns:xlink="http://www.w3.org/1999/xlink">
    <!-- Generator: Sketch 56.1 (81669) - https://sketch.com -->
    <title>系统消息 copy</title>
    <desc>Created with Sketch.</desc>
    <g id="Page-1" stroke="none" stroke-width="1" fill="none" fill-rule="evenodd">
        <g id="我的消息全部" transform="translate(-506.000000, -1557.000000)" fill="#FF8C24" fill-rule="nonzero">
            <g id="Group-33-Copy-9" transform="translate(506.000000, 1557.000000)">
                <g id="系统消息-copy">
                    <path d="M22.0000256,0 C9.84965209,0 0,9.84986693 0,22.0000256 C0,34.1503991 9.84965209,44.0000512 22.0000256,44.0000512 C34.1503991,44.0000512 44.0000512,34.1503991 44.0000512,22.0000256 C44.0000512,9.84986693 34.1503991,0 22.0000256,0 Z M12.3756589,28.7467717 L9.84103684,28.7467717 C8.9084549,28.7467717 8.15143488,27.95829 8.15143488,26.9869888 L8.15143488,19.9469806 C8.15143488,18.9752412 8.90823576,18.1867594 9.84103684,18.1867594 L12.3756589,18.1867594 L12.3756589,28.7467717 Z M28.4040096,31.2378363 C28.4040096,32.9694575 27.4663702,34.3257591 26.2695688,34.3257591 C26.2055488,34.3257591 26.1424087,34.3118991 26.0843286,34.284839 L14.3644595,28.843571 L14.3644596,28.843571 C14.2091428,28.7714225 14.1096993,28.615747 14.1096993,28.4444905 L14.1096993,17.4607629 L14.1096993,17.4608077 C14.1096993,17.3034452 14.1937381,17.1580624 14.3301009,17.0795249 L26.0497551,10.3345405 C26.1166352,10.2960405 26.1920953,10.2758005 26.2693154,10.2758005 C27.4661168,10.2758005 28.4037561,11.6323212 28.4037561,13.3637232 L28.4037561,31.2378846 L28.4040096,31.2378363 Z M30.2896309,29.5378961 L30.2896309,16.2223806 C33.4283729,16.6942811 35.8483757,19.4803652 35.8483757,22.8800094 C35.8481557,26.2798943 33.4281537,29.0661846 30.2896309,29.5378961 Z" id="形状"></path>
                </g>
            </g>
        </g>
    </g>
</svg>