<?xml version="1.0" encoding="UTF-8"?>
<svg width="14px" height="14px" viewBox="0 0 14 14" version="1.1" xmlns="http://www.w3.org/2000/svg" xmlns:xlink="http://www.w3.org/1999/xlink">
    <!-- Generator: Sketch 59.1 (86144) - https://sketch.com -->
    <title>authentication</title>
    <desc>Created with Sketch.</desc>
    <g id="Page-1" stroke="none" stroke-width="1" fill="none" fill-rule="evenodd">
        <g id="个人中心-创作者管理-2" transform="translate(-667.000000, -229.000000)" fill="#168DD7" fill-rule="nonzero">
            <g id="authentication" transform="translate(667.000000, 229.000000)">
                <path d="M6.75130513,0.377317951 C6.90610123,0.28767572 7.0969932,0.28755692 7.25190076,0.37700641 L7.25190076,0.37700641 L8.45856439,1.07377967 C8.53458076,1.1176744 8.62081336,1.14078339 8.70859283,1.14078339 L8.70859283,1.14078339 L10.0966897,1.14078339 C10.2752909,1.14078339 10.4403302,1.23604942 10.5296582,1.39070678 L10.5296582,1.39070678 L11.2251464,2.59483572 C11.2690492,2.67084646 11.3321889,2.73395995 11.4082178,2.7778312 L11.4082178,2.7778312 L12.6136434,3.47340212 C12.7684019,3.56270297 12.8637463,3.72779897 12.8637463,3.90647421 L12.8637463,3.90647421 L12.8637463,5.29760343 C12.8637463,5.38527993 12.8868011,5.47141506 12.9305982,5.54736887 L12.9305982,5.54736887 L13.625077,6.75174743 C13.714213,6.9063287 13.714213,7.09669703 13.625077,7.25127831 L13.625077,7.25127831 L12.9305982,8.45565686 C12.8868011,8.53161067 12.8637463,8.6177458 12.8637463,8.7054223 L12.8637463,8.7054223 L12.8637463,10.096312 C12.8637463,10.2751156 12.7682661,10.4403098 12.6133323,10.5295635 L12.6133323,10.5295635 L11.4086251,11.2235671 C11.3323374,11.2675146 11.2690063,11.3308264 11.2250356,11.4071007 L11.2250356,11.4071007 L10.529589,12.6134641 C10.4403153,12.7683236 10.2751627,12.8637463 10.0964135,12.8637463 L10.0964135,12.8637463 L8.70801595,12.8637463 C8.6206016,12.8637463 8.5347147,12.8866635 8.45892056,12.9302125 L8.45892056,12.9302125 L7.25096636,13.6242665 C7.09653405,13.7129987 6.90655954,13.7128807 6.75223752,13.6239569 L6.75223752,13.6239569 L5.54882242,12.9305221 C5.47290003,12.8867739 5.38681381,12.8637463 5.29918896,12.8637463 L5.29918896,12.8637463 L3.90938092,12.8637463 C3.73075986,12.8637463 3.56570534,12.7684592 3.47638464,12.6137747 L3.47638464,12.6137747 L2.77942594,11.4067899 C2.73549643,11.3307133 2.67229837,11.2675536 2.59619511,11.2236703 L2.59619511,11.2236703 L1.39252186,10.5295982 C1.23768915,10.4403173 1.1422873,10.2751797 1.1422873,10.0964502 L1.1422873,10.0964502 L1.1422873,8.70580723 C1.1422873,8.61788716 1.11910426,8.53152148 1.07507611,8.45541983 L1.07507611,8.45541983 L0.378787008,7.25190026 C0.289172086,7.09700295 0.289172086,6.90602279 0.378787008,6.75112547 L0.378787008,6.75112547 L1.07507611,5.5476059 C1.11910426,5.47150426 1.1422873,5.38513858 1.1422873,5.29721851 L1.1422873,5.29721851 L1.1422873,3.90633603 C1.1422873,3.72773484 1.23755332,3.56269553 1.39221069,3.47336757 L1.39221069,3.47336757 L2.59660236,2.77772755 C2.67244683,2.73392083 2.73545339,2.67095949 2.77931455,2.59514648 L2.77931455,2.59514648 L3.47631579,1.390396 C3.56569055,1.23591381 3.73063165,1.14078339 3.9091046,1.14078339 L3.9091046,1.14078339 L5.29861105,1.14078339 C5.38660158,1.14078339 5.47303393,1.11756321 5.54917825,1.07346813 L5.54917825,1.07346813 Z M9.69436255,5.02372988 C9.54978156,4.86293869 9.3109941,4.85824854 9.16101634,5.01325459 L9.16101634,5.01325459 L6.259,8.124 L4.83914734,6.60006792 C4.69299612,6.44883433 4.46138667,6.44883686 4.31523899,6.60007411 C4.16535224,6.75518126 4.16112607,7.01118908 4.30580138,7.17188371 L4.30580138,7.17188371 L5.99260324,8.98191794 C6.01935354,9.01042997 6.04966149,9.03422435 6.08289017,9.05288341 L6.08289017,9.05288341 L6.11521722,9.06932553 C6.16060069,9.08939052 6.2096222,9.1 6.25965947,9.1 L6.25965947,9.1 L6.33368159,9.09212997 C6.37165011,9.08397436 6.40816913,9.06960251 6.44237043,9.04919991 L6.44237043,9.04919991 L6.475,9.026 L6.52661458,8.98120526 L9.6943625,5.58505837 C9.83521249,5.42841564 9.83521249,5.18037261 9.69436255,5.02372988 Z" id="形状结合"></path>
            </g>
        </g>
    </g>
</svg>