<?xml version="1.0" encoding="UTF-8"?>
<svg width="16px" height="16px" viewBox="0 0 16 16" version="1.1" xmlns="http://www.w3.org/2000/svg" xmlns:xlink="http://www.w3.org/1999/xlink">
    <!-- Generator: Sketch 53.2 (72643) - https://sketchapp.com -->
    <title>引号 copy</title>
    <desc>Created with Sketch.</desc>
    <g id="Page-1" stroke="none" stroke-width="1" fill="none" fill-rule="evenodd">
        <g id="03-文章-详情+作品-+引用" transform="translate(-1167.000000, -574.000000)" fill="#E1E1E1" fill-rule="nonzero">
            <g id="引号-copy" transform="translate(1175.000000, 582.000000) scale(-1, 1) translate(-1175.000000, -582.000000) translate(1167.000000, 574.000000)">
                <path d="M14.6853707,9.39330961e-06 L16,1.09574522 C13.6625282,2.84957006 12.4208417,5.84500256 12.274142,10.0820584 L15.7819545,10.0820584 L15.7819545,16 L10.0825557,16 L10.0825557,10.7393396 C10.0825557,5.77124943 11.6168243,2.19147479 14.6853551,0 L14.6853707,9.39330961e-06 Z M4.82244176,9.39330961e-06 L6.13707102,1.09574522 C3.65289955,2.84957006 2.33747182,5.84500256 2.1915863,10.0820584 L5.91824274,10.0820584 L5.91824274,16 L0,16 L0,10.7393396 C0,5.77124943 1.60721443,2.19147479 4.82244176,0 L4.82244176,9.39330961e-06 Z" id="Shape"></path>
            </g>
        </g>
    </g>
</svg>