<?xml version="1.0" encoding="UTF-8"?>
<svg width="300px" height="248px" viewBox="0 0 300 248" version="1.1" xmlns="http://www.w3.org/2000/svg" xmlns:xlink="http://www.w3.org/1999/xlink">
    <!-- Generator: Sketch 53.2 (72643) - https://sketchapp.com -->
    <title>分组 17</title>
    <desc>Created with Sketch.</desc>
    <defs>
        <linearGradient x1="50%" y1="67.803175%" x2="50%" y2="0%" id="linearGradient-1">
            <stop stop-color="#BFC9D3" offset="0%"></stop>
            <stop stop-color="#C4D1DC" offset="100%"></stop>
        </linearGradient>
        <linearGradient x1="50%" y1="0%" x2="50%" y2="100%" id="linearGradient-2">
            <stop stop-color="#C3D1DB" offset="0%"></stop>
            <stop stop-color="#DEEAF4" offset="100%"></stop>
        </linearGradient>
        <linearGradient x1="50%" y1="106.912435%" x2="50%" y2="46.5760284%" id="linearGradient-3">
            <stop stop-color="#D2DEE9" offset="0%"></stop>
            <stop stop-color="#B8C6D1" offset="100%"></stop>
        </linearGradient>
    </defs>
    <g id="Page-1" stroke="none" stroke-width="1" fill="none" fill-rule="evenodd">
        <g id="05机构创作者--首页-copy" transform="translate(-1026.000000, -670.000000)">
            <g id="分组-17" transform="translate(1026.000000, 670.000000)">
                <ellipse id="椭圆形" fill="#F1F1F1" cx="150" cy="219.047619" rx="150" ry="28.5714286"></ellipse>
                <g id="Bitmap-Copy" transform="translate(34.126984, 0.000000)">
                    <g id="空状态-copy">
                        <g id="分组" transform="translate(0.000000, 0.412839)">
                            <polygon id="路径" fill="url(#linearGradient-1)" fill-rule="nonzero" points="116.308852 68.1984825 15.8087933 94.640821 15.8087933 153.191713 116.308852 126.777992 216.983795 153.191713 216.983795 94.640821"></polygon>
                            <g id="分组-3-copy" transform="translate(41.370382, 20.641926)" fill="#FFFFFF">
                                <path d="M64.9180213,138.544174 L76.1297032,123.390271 L87.3462503,138.544174 C91.1580762,143.698173 98.5068484,144.84218 103.756319,141.097291 C109.005789,137.350013 110.170987,130.137281 106.356729,124.983282 L85.6385912,96.9849822 C85.5145305,96.820188 85.3588465,96.6959953 85.2323532,96.538366 C84.9745016,96.2254958 84.7069197,95.9245672 84.4125796,95.6355803 C84.1182395,95.3465933 83.8117366,95.0838779 83.4930708,94.8307157 C83.3325217,94.7041347 83.2060284,94.5512821 83.0381816,94.4318659 C82.9092558,94.3411097 82.7657345,94.2861783 82.6319436,94.2001987 C82.2767894,93.9661431 81.9094724,93.7631358 81.5348578,93.57207 C81.2113269,93.4072758 80.8877961,93.2472582 80.5569675,93.1135122 C80.1993808,92.9702128 79.8393615,92.8579617 79.469612,92.7504872 C79.0998624,92.6430127 78.734978,92.5403149 78.3603633,92.4686652 C77.9979115,92.4017922 77.6354596,92.363579 77.2657101,92.3277542 C76.8862303,92.2919294 76.5116156,92.2608812 76.1297032,92.2608812 C75.7502235,92.2608812 75.3756088,92.2919294 74.996129,92.3277542 C74.628812,92.363579 74.2663601,92.4017922 73.9014757,92.4686652 C73.5268611,92.5403149 73.1644092,92.6430127 72.7922271,92.7504872 C72.4249101,92.8579617 72.0648908,92.9702128 71.7073041,93.1135122 C71.374043,93.2472582 71.0505121,93.4072758 70.7294138,93.57207 C70.349934,93.7631358 69.9850496,93.9661431 69.6298955,94.2001987 C69.4985371,94.2861783 69.3525833,94.3411097 69.22609,94.4318659 C69.0558106,94.5512821 68.9293174,94.7041347 68.7712008,94.8307157 C68.4525351,95.0838779 68.1460322,95.3465933 67.8516921,95.6355803 C67.557352,95.9245672 67.2897701,96.2254958 67.0319184,96.538366 C66.90056,96.6959953 66.7473085,96.820188 66.6256804,96.9849822 L45.9075431,124.983282 C42.0932846,130.137281 43.2560496,137.350013 48.5055202,141.097291 C53.7549907,144.84218 61.1037629,143.698173 64.9180213,138.544174" id="Fill-38"></path>
                                <path d="M134.609486,119.087709 L134.609486,119.087709 C139.858956,115.34282 141.024154,108.127699 137.209895,102.9737 L125.995781,87.8221846 L144.140267,82.032892 C150.311679,80.0649146 153.690508,73.556737 151.686077,67.4951756 C149.67678,61.4383908 143.050479,58.1210115 136.879067,60.0889889 L103.353487,70.7838951 C102.947249,70.9152528 102.555606,71.0657171 102.176126,71.2328996 C102.13234,71.2520062 102.095852,71.2735011 102.052065,71.2926077 C101.356352,71.6102545 100.704426,71.9828327 100.096285,72.4127307 C100.093852,72.415119 100.086555,72.4175074 100.079257,72.422284 C100.067094,72.4318373 100.057364,72.4461672 100.042769,72.4557205 C99.4273302,72.8975601 98.8654081,73.3919428 98.3570025,73.9317035 C98.3083513,73.9818583 98.2694303,74.0344014 98.2232116,74.0869445 C97.7634572,74.5932688 97.347489,75.1354179 96.9850371,75.7110035 C96.9363859,75.7922064 96.8925997,75.8734094 96.846381,75.952224 C96.5106874,76.5182563 96.2212124,77.1081719 95.9852538,77.7219707 C95.956063,77.798397 95.93417,77.8748233 95.9049792,77.9536379 C95.6811835,78.5793783 95.5084715,79.2242252 95.3990062,79.8834021 C95.3868434,79.9431102 95.3819782,80.0028182 95.372248,80.0625263 C95.2725129,80.7288681 95.2262942,81.4095399 95.2457547,82.0949883 C95.2457547,82.1570847 95.2530524,82.2167928 95.2579175,82.2788891 C95.2895408,82.9476193 95.372248,83.6211261 95.527932,84.2922446 C95.5449599,84.3710593 95.5717181,84.4498739 95.5936112,84.5286885 C95.6592904,84.7937923 95.7249696,85.0565077 95.8101093,85.3216114 C95.9414677,85.7180729 96.0971517,86.1025928 96.2649985,86.4775593 C96.284459,86.5181608 96.3112172,86.5587623 96.3306777,86.5993638 C96.651776,87.2848122 97.0312558,87.9248825 97.4666845,88.5171864 C97.4715497,88.5243513 97.4739822,88.5315163 97.4788474,88.5362929 L118.199417,116.534592 C122.011243,121.688591 129.360015,122.832598 134.609486,119.087709" id="Fill-39"></path>
                                <path d="M90.4718502,56.6916007 C90.5569899,56.7298139 90.6396971,56.7704154 90.7272693,56.8062402 C91.3646008,57.064179 92.0262579,57.2624097 92.7025103,57.4080974 C92.7706221,57.4224273 92.8363013,57.4391456 92.904413,57.4534755 C93.639047,57.5991631 94.3907089,57.6732011 95.152101,57.6779778 C95.169129,57.6779778 95.1837244,57.6827544 95.1983197,57.6827544 C95.20805,57.6827544 95.2153477,57.6803661 95.2226454,57.6803661 C95.9670096,57.6779778 96.7186715,57.6015515 97.4703334,57.4558638 C97.5165521,57.4463105 97.5652033,57.4439222 97.611422,57.4343689 C98.0200926,57.3483893 98.4263306,57.2456915 98.8325686,57.1167221 L132.355716,46.4218159 C138.527128,44.4538385 141.905958,37.9456609 139.899094,31.8864878 C137.892229,25.8273148 131.265928,22.5099354 125.092084,24.4803011 L106.950031,30.2672055 L106.950031,11.5379839 C106.950031,5.16594062 101.688397,-3.10862447e-14 95.1983197,-3.10862447e-14 C88.7106748,-3.10862447e-14 83.4490414,5.16594062 83.4490414,11.5379839 L83.4490414,46.1447705 C83.4490414,46.1519355 83.451474,46.1591005 83.451474,46.1662654 C83.4539066,46.897092 83.529316,47.6350835 83.6801349,48.3754633 C83.6898652,48.4208415 83.6922977,48.4662196 83.702028,48.5115977 C83.7896002,48.9128358 83.8942004,49.3116856 84.0255588,49.7105354 C84.1131311,49.9732508 84.2201638,50.2240246 84.324764,50.4771867 C84.3539548,50.5536131 84.3782804,50.6300394 84.4123363,50.7040773 C84.6896485,51.3369827 85.0253421,51.9292866 85.3975242,52.4881539 C85.4340127,52.540697 85.4632034,52.5956284 85.4996919,52.6457832 C85.893767,53.2142038 86.338926,53.734858 86.8205735,54.2172991 C86.8643596,54.2602889 86.9032806,54.3032787 86.9470667,54.3462685 C87.4311467,54.8167679 87.9590129,55.2395009 88.5136372,55.6168558 C88.5841815,55.6622339 88.6474281,55.7100004 88.7155399,55.7553785 C89.2725968,56.1184035 89.861277,56.4288853 90.4718502,56.6916007" id="Fill-40"></path>
                                <path d="M54.7934517,57.4565803 C55.5451136,57.602268 56.294343,57.6763059 57.0411397,57.6786943 C57.0484374,57.6786943 57.0557351,57.6810826 57.0630328,57.6810826 C57.0776282,57.6810826 57.0922236,57.6763059 57.1092515,57.6763059 C57.8730762,57.6739176 58.6247381,57.5998796 59.3593721,57.454192 C59.4274838,57.4398621 59.493163,57.4207555 59.5612748,57.4064255 C60.2375273,57.2607379 60.8991843,57.0625072 61.5340832,56.8069567 C61.624088,56.7687436 61.7067952,56.7281421 61.7919349,56.6923172 C62.4025081,56.4272135 62.9911883,56.1167316 63.5482452,55.756095 C63.616357,55.7107169 63.6796036,55.6629504 63.7501479,55.615184 C64.3047722,55.2378291 64.8302058,54.8174844 65.3167184,54.346985 C65.3605045,54.3039952 65.3994255,54.2586171 65.4432116,54.2180156 C65.9248591,53.7355745 66.3700181,53.2149203 66.7616607,52.6464997 C66.8005817,52.5939566 66.8297724,52.5390252 66.8662609,52.4864821 C67.238443,51.9300031 67.5741366,51.3376992 67.8490162,50.7047938 C67.8830721,50.6307559 67.9098303,50.5519412 67.9390211,50.4755149 C68.0436213,50.2247411 68.150654,49.9739673 68.2357937,49.7088635 C68.3695847,49.3124021 68.4741849,48.911164 68.5593246,48.5123142 C68.5690548,48.4669361 68.5739199,48.4191696 68.5836502,48.3737915 C68.7320365,47.6358 68.8098785,46.8978085 68.8098785,46.1669819 C68.8098785,46.159817 68.8123111,46.152652 68.8123111,46.145487 L68.8123111,11.536312 C68.8123111,5.16426879 63.5531103,0.000716496618 57.0630328,0.000716496618 C50.5753878,0.000716496618 45.3137545,5.16426879 45.3137545,11.536312 L45.3137545,30.267922 L27.1717012,24.4786293 C20.9978568,22.5106519 14.3691232,25.8256429 12.3646915,31.884816 C10.3578271,37.9463774 13.7366569,44.454555 19.9080687,46.4225324 L53.4312166,57.1150503 C53.8374545,57.246408 54.2436925,57.3491058 54.6523631,57.4326971 C54.6985818,57.4446387 54.7448005,57.447027 54.7934517,57.4565803" id="Fill-41"></path>
                                <path d="M34.0643679,116.534831 L54.7849377,88.5365318 C54.7898029,88.5293668 54.7922354,88.5222018 54.794668,88.5174252 C55.2300967,87.9251213 55.6120091,87.2826627 55.9331074,86.5996026 C55.9525679,86.5590011 55.9768935,86.5183996 55.996354,86.4777982 C56.1666334,86.1028316 56.3198849,85.7183117 56.4512433,85.3218503 C56.5388155,85.0567465 56.6044947,84.7916428 56.6701739,84.5289274 C56.6896344,84.4477244 56.7188252,84.3712981 56.7334205,84.2924835 C56.8915371,83.621365 56.9742443,82.9478582 57.0058676,82.2815163 C57.0083001,82.2194199 57.0155978,82.1549352 57.0180304,82.0928389 C57.0374909,81.4073904 56.9912722,80.729107 56.8915371,80.0627651 C56.8818069,80.0030571 56.8745092,79.943349 56.8647789,79.8836409 C56.752881,79.2220757 56.5826017,78.5772288 56.3563733,77.9514884 C56.3296151,77.8750621 56.3077221,77.7986358 56.2785313,77.7222095 C56.0425727,77.1084107 55.7530977,76.5208835 55.4174041,75.9548512 C55.3711854,75.8736482 55.3273993,75.7900569 55.278748,75.7112423 C54.9162961,75.1356567 54.5003279,74.5935076 54.0405735,74.084795 C53.9943548,74.0346402 53.9530013,73.9820971 53.9067826,73.9319424 C53.398377,73.3921816 52.8340224,72.8977989 52.218584,72.453571 C52.2064212,72.4440177 52.1966909,72.4320761 52.1845281,72.4225228 C52.1772304,72.4177462 52.1699327,72.4153579 52.1650676,72.4129695 C51.5593595,71.9830716 50.9074327,71.608105 50.2092871,71.2928465 C50.1679336,71.2737399 50.1290126,71.252245 50.087659,71.2331384 C49.7081792,71.0659559 49.3165366,70.9131033 48.9102986,70.7841339 L15.3847182,60.0892277 C9.21330635,58.1212503 2.58457274,61.4386297 0.577708433,67.4954144 C-1.42672331,73.5545875 1.95210641,80.0627651 8.12351822,82.0331308 L26.2655715,87.8224235 L15.0538896,102.973939 C11.2371986,108.127938 12.4023962,115.343059 17.6518667,119.087948 C22.9013372,122.832837 30.2501094,121.68883 34.0643679,116.534831" id="Fill-42"></path>
                                <path d="M76.1306763,80.8697791 C71.0952713,80.8697791 67.0085658,76.8597864 67.0085658,71.9135714 C67.0085658,66.9673564 71.0952713,62.9573637 76.1306763,62.9573637 C81.1685138,62.9573637 85.2527868,66.9673564 85.2527868,71.9135714 C85.2527868,76.8597864 81.1685138,80.8697791 76.1306763,80.8697791" id="Fill-43"></path>
                            </g>
                            <path d="M115.725905,237.246292 L21.6382631,212.549606 C17.9656971,211.605236 15.4590251,208.371487 15.4590251,204.765714 L15.4590251,94.3823714 L115.755052,120.796093 L115.755052,226.107571 L115.725905,237.246292 Z" id="路径" fill="url(#linearGradient-2)" fill-rule="nonzero"></path>
                            <path d="M90.5425957,173.996454 L6.3067576,151.760851 C1.64318179,150.616161 -0.863490209,145.865697 0.506435186,141.487258 L15.779646,94.526352 L116.075673,120.940073 L100.569284,168.645028 C99.257653,172.68006 94.827256,175.141144 90.5425957,173.996454" id="路径" fill="#E0EBF5" fill-rule="nonzero"></path>
                            <path d="M115.725905,237.246292 L210.804557,212.721309 C214.477123,211.77694 216.983795,208.543191 216.983795,204.937417 L216.983795,94.5826922 L115.725905,120.82471 L115.725905,237.246292 Z" id="路径" fill="url(#linearGradient-3)" fill-rule="nonzero"></path>
                            <path d="M139.918205,173.653047 L225.494821,151.589147 C229.954365,150.444457 232.665069,145.693994 231.295143,141.315555 L216.983795,94.5835865 L115.34699,120.825604 L129.862369,168.158535 C131.203147,172.336653 135.662692,174.797737 139.918205,173.653047" id="路径" fill="#E1ECF5" fill-rule="nonzero"></path>
                            <path d="M70.6058091,9.9909972 L58.2181859,9.9909972 C57.0522919,9.9909972 56.2944608,9.24694872 56.2944608,8.10225874 C56.2944608,6.95756876 57.0522919,6.21352028 58.2181859,6.21352028 L70.6058091,6.21352028 C71.7717031,6.21352028 72.5295341,6.95756876 72.5295341,8.10225874 C72.5295341,9.21833147 71.7717031,9.9909972 70.6058091,9.9909972 Z" id="路径" fill="#C4D1DC" fill-rule="nonzero"></path>
                            <path d="M64.4265712,16.0578541 C63.2606772,16.0578541 62.5028461,15.3138056 62.5028461,14.1691156 L62.5028461,1.97816737 C62.5028461,0.833477389 63.2606772,0.0894289044 64.4265712,0.0894289044 C65.5924651,0.0894289044 66.3502962,0.833477389 66.3502962,1.97816737 L66.3502962,14.1404984 C66.3502962,15.1134848 65.5924651,16.0578541 64.4265712,16.0578541 L64.4265712,16.0578541 Z M208.064706,69.0856172 C207.510907,69.0856172 207.102844,68.8852965 206.694781,68.5418895 C205.93695,67.797841 205.93695,66.653151 206.694781,65.8804853 L214.039913,58.6689385 C214.797744,57.92489 215.963638,57.92489 216.750616,58.6689385 C217.508447,59.4129869 217.508447,60.5576769 216.750616,61.3303427 L209.405484,68.5418895 C209.026569,68.9139138 208.676801,69.0856172 208.064706,69.0856172 Z" id="形状" fill="#C4D1DC" fill-rule="nonzero"></path>
                            <path d="M215.438985,69.0856172 C214.856038,69.0856172 214.477123,68.8852965 214.06906,68.5418895 L206.753076,61.3303427 C205.995244,60.5862942 205.995244,59.4416042 206.753076,58.6689385 C207.510907,57.92489 208.676801,57.92489 209.463779,58.6689385 L216.808911,65.8804853 C217.566742,66.6245338 217.566742,67.7692238 216.808911,68.5418895 C216.400848,68.9139138 216.021932,69.0856172 215.438985,69.0856172 L215.438985,69.0856172 Z M26.6516071,77.8424956 C22.9790411,77.8424956 20.0643063,75.0093879 20.0643063,71.3749972 C20.0643063,67.7692238 22.9498938,64.9074988 26.6516071,64.9074988 C30.324173,64.9074988 33.2389079,67.7406065 33.2389079,71.3749972 C33.2389079,75.0093879 30.324173,77.8424956 26.6516071,77.8424956 Z M26.6516071,68.713593 C25.0776503,68.713593 23.9409036,69.858283 23.9409036,71.3749972 C23.9409036,72.9203287 25.1067976,74.0364014 26.6516071,74.0364014 C28.2255639,74.0364014 29.3623105,72.8917114 29.3623105,71.3749972 C29.3623105,69.858283 28.1964166,68.713593 26.6516071,68.713593 L26.6516071,68.713593 Z" id="形状" fill="#C4D1DC" fill-rule="nonzero"></path>
                            <path d="M6.01528411,46.2490522 L0.477287837,40.8117748 C0.0109302558,40.3538988 0.0109302558,39.6384676 0.477287837,39.1805916 C0.943645418,38.7227156 1.67232914,38.7227156 2.13868672,39.1805916 L7.676683,44.617869 C8.14304058,45.075745 8.14304058,45.7911762 7.676683,46.2490522 C7.21032542,46.7069282 6.45249435,46.7069282 6.01528411,46.2490522 Z" id="路径" fill="#BECCD7" fill-rule="nonzero"></path>
                            <path d="M7.64753565,40.8117748 L2.10953937,46.2490522 C1.64318179,46.7069282 0.91449807,46.7069282 0.448140488,46.2490522 C-0.018217093,45.7911762 -0.018217093,45.075745 0.448140488,44.617869 L5.98613677,39.1805916 C6.45249435,38.7227156 7.18117807,38.7227156 7.64753565,39.1805916 C8.11389323,39.6384676 8.11389323,40.3825161 7.64753565,40.8117748 Z" id="路径" fill="#BECCD7" fill-rule="nonzero"></path>
                            <path d="M197.746545,33.3140555 L197.746545,25.6160154 C197.746545,24.9864359 198.271197,24.4713254 198.912439,24.4713254 C199.55368,24.4713254 200.078333,24.9864359 200.078333,25.6160154 L200.078333,33.3140555 C200.078333,33.943635 199.55368,34.4587455 198.912439,34.4587455 C198.271197,34.4587455 197.746545,33.943635 197.746545,33.3140555 Z" id="路径" fill="#C4D1DC" fill-rule="nonzero"></path>
                            <path d="M202.818183,30.624034 L194.977547,30.624034 C194.336305,30.624034 193.811653,30.1089235 193.811653,29.4793441 C193.811653,28.8497646 194.336305,28.3346541 194.977547,28.3346541 L202.818183,28.3346541 C203.459425,28.3346541 203.984077,28.8497646 203.984077,29.4793441 C203.984077,30.1089235 203.459425,30.624034 202.818183,30.624034 Z" id="路径" fill="#C4D1DC" fill-rule="nonzero"></path>
                        </g>
                    </g>
                </g>
            </g>
        </g>
    </g>
</svg>