<?xml version="1.0" encoding="UTF-8"?>
<svg width="200px" height="200px" viewBox="0 0 200 200" version="1.1" xmlns="http://www.w3.org/2000/svg" xmlns:xlink="http://www.w3.org/1999/xlink">
    <!-- Generator: Sketch 59.1 (86144) - https://sketch.com -->
    <title>编组</title>
    <desc>Created with Sketch.</desc>
    <defs>
        <linearGradient x1="50%" y1="67.803175%" x2="50%" y2="0%" id="linearGradient-1">
            <stop stop-color="#BFC9D3" offset="0%"></stop>
            <stop stop-color="#C4D1DC" offset="100%"></stop>
        </linearGradient>
        <linearGradient x1="50%" y1="0%" x2="50%" y2="100%" id="linearGradient-2">
            <stop stop-color="#C3D1DB" offset="0%"></stop>
            <stop stop-color="#DEEAF4" offset="100%"></stop>
        </linearGradient>
        <linearGradient x1="50%" y1="106.912435%" x2="50%" y2="46.5760284%" id="linearGradient-3">
            <stop stop-color="#D2DEE9" offset="0%"></stop>
            <stop stop-color="#B8C6D1" offset="100%"></stop>
        </linearGradient>
    </defs>
    <g id="-我的" stroke="none" stroke-width="1" fill="none" fill-rule="evenodd">
        <g id="空状态" transform="translate(-88.000000, -144.000000)">
            <g id="编组" transform="translate(88.000000, 144.000000)">
                <circle id="椭圆形" fill="#F9F9F9" cx="100" cy="100" r="100"></circle>
                <g id="404Group" transform="translate(36.512509, 34.969727)">
                    <g id="Bitmap">
                        <g id="空状态-copy">
                            <g id="分组" transform="translate(0.000000, 0.223523)">
                                <polygon id="路径" fill="url(#linearGradient-1)" fill-rule="nonzero" points="62.9730386 36.9246673 8.55934638 51.2413283 8.55934638 82.9425061 62.9730386 68.6413394 117.481418 82.9425061 117.481418 51.2413283"></polygon>
                                <g id="分组-3-copy" transform="translate(22.399144, 11.176147)" fill="#FFFFFF">
                                    <path d="M35.148529,75.0118971 L41.2188639,66.8071274 L47.2918329,75.0118971 C49.3556677,77.802424 53.3345094,78.4218227 56.1767274,76.3942295 C59.0189454,74.3653431 59.6498176,70.4601572 57.5846658,67.6696303 L46.3672559,52.5105262 C46.3000858,52.4213018 46.2157939,52.3540602 46.1473067,52.2687151 C46.0076982,52.0993179 45.8628215,51.9363863 45.7034571,51.7799203 C45.5440927,51.6234542 45.378143,51.4812123 45.205608,51.3441429 C45.1186819,51.2756082 45.0501948,51.1928493 44.9593175,51.1281939 C44.8895133,51.0790558 44.8118067,51.0493143 44.7393683,51.0027624 C44.5470774,50.8760378 44.3482012,50.7661237 44.1453738,50.662675 C43.9702046,50.5734506 43.7950355,50.4868124 43.6159152,50.4143983 C43.4223072,50.3368118 43.2273821,50.2760358 43.0271888,50.2178459 C42.8269955,50.1596561 42.6294364,50.1040524 42.426609,50.0652592 C42.2303668,50.0290522 42.0341247,50.0083624 41.8339314,49.9889658 C41.6284699,49.9695692 41.4256425,49.9527588 41.2188639,49.9527588 C41.0134023,49.9527588 40.8105749,49.9695692 40.6051134,49.9889658 C40.4062371,50.0083624 40.209995,50.0290522 40.0124359,50.0652592 C39.8096084,50.1040524 39.6133663,50.1596561 39.411856,50.2178459 C39.2129797,50.2760358 39.0180547,50.3368118 38.8244467,50.4143983 C38.6440093,50.4868124 38.4688402,50.5734506 38.2949881,50.662675 C38.0895266,50.7661237 37.8919674,50.8760378 37.6996765,51.0027624 C37.6285552,51.0493143 37.5495315,51.0790558 37.4810443,51.1281939 C37.38885,51.1928493 37.3203629,51.2756082 37.2347539,51.3441429 C37.0622189,51.4812123 36.8962692,51.6234542 36.7369048,51.7799203 C36.5775404,51.9363863 36.4326636,52.0993179 36.2930552,52.2687151 C36.2219339,52.3540602 36.138959,52.4213018 36.073106,52.5105262 L24.8556961,67.6696303 C22.7905442,70.4601572 23.4200995,74.3653431 26.2623174,76.3942295 C29.1045354,78.4218227 33.0833771,77.802424 35.148529,75.0118971" id="Fill-38"></path>
                                    <path d="M72.8815408,64.4775935 L72.8815408,64.4775935 C75.7237588,62.4500002 76.3546311,58.5435212 74.2894792,55.7529943 L68.2178273,47.5495177 L78.0417864,44.4150241 C81.3831705,43.3495032 83.2125685,39.8257841 82.1273101,36.5438763 C81.0394176,33.2645546 77.451743,31.4684277 74.1103589,32.5339486 L55.9586221,38.3244859 C55.7386728,38.3956068 55.526626,38.4770726 55.3211645,38.5675901 C55.2974574,38.577935 55.2777014,38.589573 55.2539943,38.5999178 C54.8773149,38.7719012 54.5243425,38.973626 54.1950772,39.2063855 C54.1937601,39.2076786 54.1898089,39.2089717 54.1858577,39.2115579 C54.1792724,39.2167303 54.1740042,39.224489 54.1661018,39.2296614 C53.8328854,39.4688864 53.5286442,39.7365597 53.2533785,40.0288021 C53.2270372,40.0559574 53.2059642,40.0844057 53.1809401,40.1128541 C52.9320155,40.386993 52.7067981,40.6805285 52.510556,40.9921675 C52.4842147,41.0361332 52.4605076,41.0800988 52.4354835,41.1227714 C52.253729,41.429238 52.0969988,41.7486356 51.9692438,42.0809644 C51.9534391,42.1223438 51.9415855,42.1637233 51.9257808,42.2063958 C51.8046112,42.5451901 51.7110998,42.8943292 51.6518321,43.251227 C51.6452468,43.2835547 51.6426127,43.3158824 51.6373444,43.3482101 C51.5833449,43.7089872 51.5583207,44.077523 51.5688572,44.4486449 C51.5688572,44.4822658 51.5728084,44.5145935 51.5754425,44.5482143 C51.5925643,44.9102845 51.6373444,45.2749409 51.7216363,45.6383042 C51.7308558,45.6809768 51.7453434,45.7236494 51.757197,45.7663219 C51.7927576,45.9098569 51.8283183,46.0520988 51.8744154,46.1956337 C51.9455367,46.4102897 52.0298286,46.61848 52.1207059,46.821498 C52.1312423,46.8434808 52.14573,46.8654636 52.1562665,46.8874465 C52.3301186,47.2585684 52.5355801,47.6051214 52.7713341,47.9258121 C52.7739682,47.9296915 52.7752853,47.9335708 52.7779194,47.936157 L63.9966463,63.0952611 C66.0604811,65.885788 70.0393228,66.5051867 72.8815408,64.4775935" id="Fill-39"></path>
                                    <path d="M48.9841247,30.6945026 C49.0302219,30.7151923 49.0750019,30.7371752 49.1224161,30.7565718 C49.4674862,30.8962274 49.8257268,31.0035554 50.1918698,31.082435 C50.2287475,31.0901936 50.2643082,31.0992454 50.3011859,31.107004 C50.6989383,31.1858836 51.1059102,31.22597 51.5181504,31.2285562 C51.5273698,31.2285562 51.5352722,31.2311424 51.5431745,31.2311424 C51.5484428,31.2311424 51.552394,31.2298493 51.5563452,31.2298493 C51.9593659,31.2285562 52.3663378,31.1871767 52.7733097,31.1082971 C52.7983338,31.1031247 52.824675,31.1018316 52.8496992,31.0966592 C53.0709655,31.0501073 53.2909147,30.9945036 53.5108639,30.9246758 L71.6612837,25.1341386 C75.0026678,24.0686176 76.8320657,20.5448986 75.7454903,17.2642838 C74.6589148,13.983669 71.0712403,12.1875421 67.728539,13.2543561 L57.905897,16.3875566 L57.905897,6.24700434 C57.905897,2.79699242 55.0570937,-3.10862447e-14 51.5431745,-3.10862447e-14 C48.0305725,-3.10862447e-14 45.1817692,2.79699242 45.1817692,6.24700434 L45.1817692,24.984138 C45.1817692,24.9880174 45.1830862,24.9918967 45.1830862,24.995776 C45.1844033,25.391467 45.2252322,25.7910374 45.30689,26.1919008 C45.3121582,26.2164699 45.3134753,26.2410389 45.3187435,26.265608 C45.3661577,26.4828501 45.4227914,26.6987991 45.4939127,26.9147482 C45.5413269,27.05699 45.5992776,27.1927664 45.6559112,27.3298358 C45.6717159,27.3712153 45.6848865,27.4125947 45.7033254,27.4526811 C45.8534704,27.7953547 46.0352248,28.1160454 46.2367352,28.4186327 C46.2564911,28.447081 46.2722958,28.4768225 46.2920517,28.5039778 C46.5054156,28.8117375 46.7464378,29.093635 47.0072159,29.3548428 C47.030923,29.3781187 47.051996,29.4013947 47.0757031,29.4246706 C47.3377983,29.6794129 47.6236006,29.908293 47.9238905,30.112604 C47.9620853,30.1371731 47.9963289,30.1630352 48.0332066,30.1876043 C48.3348136,30.3841567 48.6535424,30.5522607 48.9841247,30.6945026" id="Fill-40"></path>
                                    <path d="M29.6667888,31.1086851 C30.0737607,31.1875646 30.4794155,31.227651 30.8837533,31.2289441 C30.8877045,31.2289441 30.8916557,31.2302372 30.8956069,31.2302372 C30.9035092,31.2302372 30.9114116,31.227651 30.920631,31.227651 C31.3341882,31.2263579 31.7411601,31.1862715 32.1389126,31.107392 C32.1757903,31.0996333 32.2113509,31.0892884 32.2482287,31.0815298 C32.6143717,31.0026502 32.9726123,30.8953223 33.3163653,30.7569597 C33.3650965,30.73627 33.4098766,30.7142872 33.4559737,30.6948905 C33.7865561,30.5513556 34.1052849,30.3832515 34.4068919,30.1879922 C34.4437696,30.1634232 34.4780132,30.137561 34.516208,30.1116989 C34.8164979,29.9073878 35.1009831,29.6798008 35.3643953,29.4250586 C35.3881024,29.4017826 35.4091754,29.3772136 35.4328825,29.3552307 C35.6936606,29.0940229 35.9346828,28.8121254 36.1467297,28.5043657 C36.1678026,28.4759173 36.1836074,28.4461759 36.2033633,28.4177275 C36.4048737,28.1164333 36.5866281,27.7957426 36.735456,27.453069 C36.7538949,27.4129826 36.7683825,27.3703101 36.7841873,27.3289306 C36.8408209,27.1931543 36.8987716,27.057378 36.9448687,26.913843 C37.0173071,26.6991871 37.0739407,26.4819449 37.1200379,26.2659959 C37.1253061,26.2414269 37.1279402,26.2155647 37.1332085,26.1909957 C37.2135492,25.7914253 37.2556952,25.391855 37.2556952,24.9961639 C37.2556952,24.9922846 37.2570122,24.9884053 37.2570122,24.984526 L37.2570122,6.24609917 C37.2570122,2.79608725 34.409526,0.000387932375 30.8956069,0.000387932375 C27.3830048,0.000387932375 24.5342015,2.79608725 24.5342015,6.24609917 L24.5342015,16.3879446 L14.7115594,13.253451 C11.3688582,12.18793 7.77986657,13.9827638 6.69460818,17.2633786 C5.60803273,20.5452865 7.43743067,24.0690056 10.7788148,25.1345265 L28.9292346,30.9237706 C29.1491838,30.9948916 29.369133,31.0504952 29.5903993,31.095754 C29.6154234,31.1022195 29.6404476,31.1035126 29.6667888,31.1086851" id="Fill-41"></path>
                                    <path d="M18.4434522,63.0953904 L29.6621791,47.9362863 C29.6648132,47.932407 29.6661303,47.9285277 29.6674473,47.9259414 C29.9032013,47.6052507 30.1099799,47.2574047 30.283832,46.8875758 C30.2943684,46.865593 30.3075391,46.8436101 30.3180755,46.8216273 C30.4102698,46.6186093 30.4932447,46.410419 30.564366,46.1957631 C30.6117802,46.0522281 30.6473408,45.9086931 30.6829015,45.7664512 C30.693438,45.7224856 30.7092427,45.6811061 30.7171451,45.6384335 C30.802754,45.2750702 30.8475341,44.9104138 30.8646559,44.5496367 C30.865973,44.5160159 30.8699242,44.481102 30.8712412,44.4474811 C30.8817777,44.0763592 30.8567536,43.7091165 30.802754,43.3483394 C30.7974858,43.3160117 30.7935346,43.283684 30.7882664,43.2513563 C30.7276816,42.8931654 30.6354873,42.5440263 30.5130006,42.205232 C30.4985129,42.1638526 30.4866594,42.1224731 30.4708546,42.0810937 C30.3430997,41.7487649 30.1863694,41.4306604 30.004615,41.1241938 C29.9795908,41.0802281 29.9558837,41.0349694 29.9295425,40.9922968 C29.7333004,40.6806578 29.5080829,40.3871223 29.2591584,40.1116903 C29.2341342,40.084535 29.2117442,40.0560867 29.18672,40.0289314 C28.9114542,39.736689 28.605896,39.4690157 28.2726796,39.2284976 C28.2660943,39.2233252 28.260826,39.2168596 28.2542407,39.2116872 C28.2502895,39.209101 28.2463383,39.2078079 28.2437042,39.2065148 C27.915756,38.9737553 27.5627836,38.7707374 27.1847871,38.6000472 C27.162397,38.5897023 27.141324,38.5780643 27.118934,38.5677195 C26.9134725,38.4772019 26.7014256,38.394443 26.4814764,38.3246152 L8.3297396,32.5340779 C4.98835545,31.468557 1.39936381,33.2646839 0.312788363,36.5440056 C-0.772470026,39.8246204 1.05692791,43.3483394 4.39831206,44.4151535 L14.2209541,47.549647 L8.15061928,55.7531237 C6.08415033,58.5436505 6.71502263,62.4501296 9.55724059,64.4777228 C12.3994586,66.505316 16.3783003,65.8859173 18.4434522,63.0953904" id="Fill-42"></path>
                                    <path d="M41.2193907,43.7852806 C38.4930741,43.7852806 36.2804114,41.6141524 36.2804114,38.9361259 C36.2804114,36.2580994 38.4930741,34.0869712 41.2193907,34.0869712 C43.9470243,34.0869712 46.15837,36.2580994 46.15837,38.9361259 C46.15837,41.6141524 43.9470243,43.7852806 41.2193907,43.7852806" id="Fill-43"></path>
                                </g>
                                <path d="M62.6574139,128.452131 L11.715593,115.080617 C9.72715764,114.569308 8.36997158,112.818461 8.36997158,110.866189 L8.36997158,51.1013961 L62.6731952,65.4025628 L62.6731952,122.421299 L62.6574139,128.452131 Z" id="路径" fill="url(#linearGradient-2)" fill-rule="nonzero"></path>
                                <path d="M49.0224284,94.2068054 L3.41466434,82.167795 C0.889667024,81.5480262 -0.467519035,78.9759853 0.274198928,76.6053694 L8.54356515,51.1793514 L62.8467887,65.4805181 L54.4511727,91.3093859 C53.7410172,93.4940712 51.3422697,94.8265742 49.0224284,94.2068054" id="路径" fill="#E0EBF5" fill-rule="nonzero"></path>
                                <path d="M62.6574139,128.452131 L114.135797,115.173583 C116.124232,114.662274 117.481418,112.911426 117.481418,110.959154 L117.481418,51.2098557 L62.6574139,65.4180571 L62.6574139,128.452131 Z" id="路径" fill="url(#linearGradient-3)" fill-rule="nonzero"></path>
                                <path d="M75.7558375,94.0208747 L122.089538,82.0748297 C124.504067,81.4550608 125.971722,78.88302 125.230004,76.5124041 L117.481418,51.2103399 L62.4522579,65.4185412 L70.3113121,91.0459841 C71.0372488,93.3081405 73.4517775,94.6406436 75.7558375,94.0208747" id="路径" fill="#E1ECF5" fill-rule="nonzero"></path>
                                <path d="M38.2280649,5.40942019 L31.5210408,5.40942019 C30.8897914,5.40942019 30.4794794,5.00657042 30.4794794,4.38680155 C30.4794794,3.76703268 30.8897914,3.36418291 31.5210408,3.36418291 L38.2280649,3.36418291 C38.8593142,3.36418291 39.2696263,3.76703268 39.2696263,4.38680155 C39.2696263,4.9910762 38.8593142,5.40942019 38.2280649,5.40942019 Z" id="路径" fill="#FFFFFF" fill-rule="nonzero"></path>
                                <path d="M34.8824434,8.69419521 C34.2511941,8.69419521 33.840882,8.29134544 33.840882,7.67157657 L33.840882,1.07103808 C33.840882,0.45126921 34.2511941,0.0484194431 34.8824434,0.0484194431 C35.5136928,0.0484194431 35.9240048,0.45126921 35.9240048,1.07103808 L35.9240048,7.65608235 C35.9240048,8.18288589 35.5136928,8.69419521 34.8824434,8.69419521 L34.8824434,8.69419521 Z M112.652361,37.4049882 C112.352517,37.4049882 112.13158,37.2965287 111.910643,37.110598 C111.500331,36.7077482 111.500331,36.0879794 111.910643,35.6696354 L115.887514,31.7650915 C116.297826,31.3622417 116.929075,31.3622417 117.355168,31.7650915 C117.76548,32.1679413 117.76548,32.7877101 117.355168,33.2060541 L113.378298,37.110598 C113.173142,37.3120229 112.983767,37.4049882 112.652361,37.4049882 Z" id="形状" fill="#FFFFFF" fill-rule="nonzero"></path>
                                <path d="M116.645013,37.4049882 C116.329388,37.4049882 116.124232,37.2965287 115.903295,37.110598 L111.942205,33.2060541 C111.531893,32.8032043 111.531893,32.1834355 111.942205,31.7650915 C112.352517,31.3622417 112.983767,31.3622417 113.40986,31.7650915 L117.386731,35.6696354 C117.797043,36.0724851 117.797043,36.692254 117.386731,37.110598 C117.165794,37.3120229 116.960638,37.4049882 116.645013,37.4049882 L116.645013,37.4049882 Z M14.4299651,42.1462201 C12.4415298,42.1462201 10.8634064,40.6122921 10.8634064,38.644526 C10.8634064,36.692254 12.4257485,35.1428318 14.4299651,35.1428318 C16.4184005,35.1428318 17.9965239,36.6767598 17.9965239,38.644526 C17.9965239,40.6122921 16.4184005,42.1462201 14.4299651,42.1462201 Z M14.4299651,37.2035633 C13.5777786,37.2035633 12.9623105,37.8233322 12.9623105,38.644526 C12.9623105,39.4812139 13.5935598,40.0854886 14.4299651,40.0854886 C15.2821517,40.0854886 15.8976198,39.4657197 15.8976198,38.644526 C15.8976198,37.8233322 15.2663705,37.2035633 14.4299651,37.2035633 L14.4299651,37.2035633 Z" id="形状" fill="#FFFFFF" fill-rule="nonzero"></path>
                                <path d="M3.25685201,25.0405992 L0.258417694,22.0966971 C0.00591796247,21.8487895 0.00591796247,21.461434 0.258417694,21.2135264 C0.510917426,20.9656189 0.905448257,20.9656189 1.15794799,21.2135264 L4.15638231,24.1574286 C4.40888204,24.4053361 4.40888204,24.7926917 4.15638231,25.0405992 C3.90388257,25.2885068 3.49357051,25.2885068 3.25685201,25.0405992 Z" id="路径" fill="#FFFFFF" fill-rule="nonzero"></path>
                                <path d="M4.14060107,22.0966971 L1.14216676,25.0405992 C0.889667024,25.2885068 0.495136193,25.2885068 0.242636461,25.0405992 C-0.00986327078,24.7926917 -0.00986327078,24.4053361 0.242636461,24.1574286 L3.24107078,21.2135264 C3.49357051,20.9656189 3.88810134,20.9656189 4.14060107,21.2135264 C4.3931008,21.461434 4.3931008,21.8642837 4.14060107,22.0966971 Z" id="路径" fill="#FFFFFF" fill-rule="nonzero"></path>
                                <path d="M107.065804,18.037211 L107.065804,13.8692653 C107.065804,13.5283924 107.349866,13.2494964 107.697054,13.2494964 C108.044241,13.2494964 108.328303,13.5283924 108.328303,13.8692653 L108.328303,18.037211 C108.328303,18.3780838 108.044241,18.6569798 107.697054,18.6569798 C107.349866,18.6569798 107.065804,18.3780838 107.065804,18.037211 Z" id="路径" fill="#FFFFFF" fill-rule="nonzero"></path>
                                <path d="M109.811739,16.5807541 L105.566587,16.5807541 C105.2194,16.5807541 104.935338,16.3018581 104.935338,15.9609852 C104.935338,15.6201124 105.2194,15.3412164 105.566587,15.3412164 L109.811739,15.3412164 C110.158926,15.3412164 110.442988,15.6201124 110.442988,15.9609852 C110.442988,16.3018581 110.158926,16.5807541 109.811739,16.5807541 Z" id="路径" fill="#FFFFFF" fill-rule="nonzero"></path>
                            </g>
                        </g>
                    </g>
                </g>
            </g>
        </g>
    </g>
</svg>