<?xml version="1.0" encoding="UTF-8"?>
<svg width="15px" height="14px" viewBox="0 0 15 14" version="1.1" xmlns="http://www.w3.org/2000/svg" xmlns:xlink="http://www.w3.org/1999/xlink">
    <!-- Generator: Sketch 53.2 (72643) - https://sketchapp.com -->
    <title>zuopin_icon_bot_06 copy</title>
    <desc>Created with Sketch.</desc>
    <g id="Page-1" stroke="none" stroke-width="1" fill="none" fill-rule="evenodd">
        <g id="02-作品详情-" transform="translate(-1117.000000, -1953.000000)">
            <rect fill="#F9F9F9" x="0" y="0" width="1920" height="4043"></rect>
            <g id="Group-31" transform="translate(1116.000000, 1751.000000)"></g>
            <path d="M1131.63709,1955.86901 C1131.40443,1955.30643 1131.07106,1954.80353 1130.64913,1954.37119 C1130.22721,1953.94066 1129.73757,1953.60419 1129.19063,1953.36722 C1128.62633,1953.12301 1128.02904,1953 1127.41265,1953 C1126.55665,1953 1125.72149,1953.24421 1124.99571,1953.70549 C1124.82208,1953.81584 1124.65713,1953.93704 1124.50086,1954.0691 C1124.34459,1953.93704 1124.17964,1953.81584 1124.00601,1953.70549 C1123.28023,1953.24421 1122.44507,1953 1121.58907,1953 C1120.97268,1953 1120.37539,1953.12301 1119.81109,1953.36722 C1119.26588,1953.60238 1118.77451,1953.94066 1118.35259,1954.37119 C1117.92893,1954.80353 1117.59729,1955.30643 1117.36463,1955.86901 C1117.12328,1956.45331 1117,1957.07378 1117,1957.71234 C1117,1958.31473 1117.11807,1958.94244 1117.35247,1959.581 C1117.54867,1960.11464 1117.82996,1960.66818 1118.18937,1961.22715 C1118.75888,1962.11174 1119.54196,1963.03431 1120.51429,1963.96954 C1122.12559,1965.51982 1123.72126,1966.59072 1123.78897,1966.63414 L1124.20048,1966.9091 C1124.38279,1967.0303 1124.61719,1967.0303 1124.7995,1966.9091 L1125.21101,1966.63414 C1125.27873,1966.58891 1126.87266,1965.51982 1128.48569,1963.96954 C1129.45802,1963.03431 1130.2411,1962.11174 1130.81061,1961.22715 C1131.17003,1960.66818 1131.45304,1960.11464 1131.64751,1959.581 C1131.88191,1958.94244 1131.99998,1958.31473 1131.99998,1957.71234 C1132.00172,1957.07378 1131.87844,1956.45331 1131.63709,1955.86901 Z" id="zuopin_icon_bot_06" fill="#BBBBBB" fill-rule="nonzero"></path>
        </g>
    </g>
</svg>