<?xml version="1.0" encoding="UTF-8"?>
<svg width="40px" height="40px" viewBox="0 0 40 40" version="1.1" xmlns="http://www.w3.org/2000/svg" xmlns:xlink="http://www.w3.org/1999/xlink">
    <!-- Generator: Sketch 53.2 (72643) - https://sketchapp.com -->
    <title>zuopin_icon_like copy</title>
    <desc>Created with Sketch.</desc>
    <g id="Page-1" stroke="none" stroke-width="1" fill="none" fill-rule="evenodd">
        <g id="02-作品详情-修改-5.29" transform="translate(-1407.000000, -295.000000)">
            <g id="分组-18-copy" transform="translate(1406.000000, 295.000000)">
                <g id="zuopin_icon_like" transform="translate(1.000000, 0.000000)">
                    <circle id="Oval-6" fill="#FF0050" cx="20" cy="20" r="20"></circle>
                    <path d="M28.5645118,15.2788707 C28.2853131,14.6359143 27.8852673,14.0611816 27.3789593,13.5670769 C26.8726513,13.0750396 26.285084,12.6905062 25.6287588,12.4196789 C24.9515979,12.1405821 24.2348492,12 23.4951811,12 C22.4679802,12 21.465782,12.2790968 20.5948489,12.8062797 C20.3864917,12.9323901 20.1885524,13.0709048 20.0010309,13.2218238 C19.8135095,13.0709048 19.6155701,12.9323901 19.4072129,12.8062797 C18.5362798,12.2790968 17.5340817,12 16.5068807,12 C15.7672127,12 15.0504639,12.1405821 14.373303,12.4196789 C13.7190614,12.6884388 13.1294106,13.0750396 12.6231026,13.5670769 C12.114711,14.0611816 11.7167488,14.6359143 11.4375501,15.2788707 C11.1479336,15.9466357 11,16.6557483 11,17.3855348 C11,18.0739736 11.1416829,18.7913558 11.4229651,19.5211422 C11.6584087,20.1310204 11.9959474,20.7636399 12.4272468,21.4024615 C13.1106584,22.4134122 14.0503494,23.4677779 15.2171497,24.5366153 C17.1507045,26.3083632 19.0655071,27.5322544 19.1467664,27.5818716 L19.640573,27.896114 C19.859348,28.0346287 20.1406303,28.0346287 20.3594053,27.896114 L20.8532119,27.5818716 C20.9344712,27.530187 22.8471903,26.3083632 24.7828286,24.5366153 C25.9496289,23.4677779 26.8893199,22.4134122 27.5727315,21.4024615 C28.0040309,20.7636399 28.3436531,20.1310204 28.5770132,19.5211422 C28.8582954,18.7913558 28.9999783,18.0739736 28.9999783,17.3855348 C29.0020619,16.6557483 28.8541283,15.9466357 28.5645118,15.2788707 Z" id="Shape-Copy" fill="#FFFFFF" fill-rule="nonzero"></path>
                </g>
            </g>
        </g>
    </g>
</svg>