<?xml version="1.0" encoding="UTF-8"?>
<svg width="23px" height="18px" viewBox="0 0 23 18" version="1.1" xmlns="http://www.w3.org/2000/svg" xmlns:xlink="http://www.w3.org/1999/xlink">
    <!-- Generator: Sketch 53.2 (72643) - https://sketchapp.com -->
    <title>zuopin_icon_weibo copy</title>
    <desc>Created with Sketch.</desc>
    <g id="Page-1" stroke="none" stroke-width="1" fill="none" fill-rule="evenodd">
        <g id="02-作品详情-修改-5.29" transform="translate(-1415.000000, -554.000000)">
            <rect fill="#F9F9F9" x="0" y="0" width="1920" height="4630"></rect>
            <rect id="Rectangle-31" fill="#FFFFFF" x="0" y="141" width="1925" height="1263"></rect>
            <g id="分组-18-copy" transform="translate(1406.000000, 295.000000)" fill="#BBBBBB" fill-rule="nonzero">
                <path d="M18.7180736,276.26319 C14.2967458,276.26319 9.77777778,274.120676 9.77777778,270.59667 C9.77777778,268.754407 10.9449687,266.623826 12.9553657,264.613495 C15.6394248,261.929392 18.7697007,260.707139 19.9467547,261.884634 C20.4665483,262.403437 20.5166784,263.302717 20.1827203,264.375944 C20.0089494,264.91564 20.690053,264.616489 20.690053,264.617458 C22.8594042,263.709063 24.7524788,263.655587 25.444216,264.644251 C25.8132673,265.17087 25.778108,265.910205 25.4377654,266.76596 C25.2802422,267.160418 25.4863763,267.220939 25.7860557,267.311512 C27.0088806,267.69003 28.3693044,268.607276 28.3693044,270.22229 C28.3693485,272.896332 24.5141135,276.263212 18.7180736,276.263212 L18.7180736,276.26319 Z M26.7220585,265.05762 C26.8648091,264.616511 26.7754028,264.112591 26.4418411,263.742923 C26.1090499,263.374202 25.6170623,263.234138 25.1628758,263.330567 L25.1628758,263.329576 C24.7843357,263.412026 24.4112776,263.168487 24.3301493,262.790871 C24.2486467,262.410262 24.4901383,262.0376 24.8698012,261.956251 C25.7984286,261.759254 26.8045077,262.045724 27.4857874,262.801879 C28.1680138,263.557022 28.3508552,264.586438 28.0592996,265.489879 C27.9399739,265.859745 27.5439972,266.060331 27.174924,265.941996 C26.8056085,265.822868 26.6039216,265.426385 26.7226309,265.05762 L26.7220585,265.05762 L26.7220585,265.05762 Z M30.8153065,266.37934 C30.8148001,266.380309 30.8148001,266.382379 30.8148001,266.383303 C30.6761445,266.811797 30.2155734,267.046222 29.78785,266.90706 C29.3580791,266.76792 29.1230602,266.308802 29.2616718,265.879405 C29.6874579,264.56167 29.4170815,263.058275 28.4234193,261.956273 C27.4280839,260.853148 25.9607733,260.432778 24.6054352,260.720041 C24.1646784,260.814379 23.7309226,260.533236 23.6369591,260.091885 C23.5425772,259.651745 23.8237853,259.218518 24.2645201,259.123982 L24.2650925,259.123982 C26.1710685,258.71856 28.235118,259.309861 29.6353244,260.862263 C31.0348923,262.412331 31.4124637,264.525916 30.8153065,266.37934 Z M24.6689728,269.88536 C24.4403385,267.569846 21.3951538,265.976032 17.8668098,266.324719 C14.3391042,266.673582 11.6639174,268.83296 11.892882,271.149223 C12.1220888,273.465728 15.1678679,275.059673 18.6956175,274.711779 C22.2239174,274.363093 24.8981135,272.202592 24.6689508,269.885382 L24.6689728,269.88536 Z M20.9619704,271.787373 C20.2419429,273.415003 18.1709143,274.283461 16.4141176,273.717148 C14.7182387,273.169549 14.0003027,271.495025 14.7425882,269.986721 C15.4719284,268.506906 17.3695604,267.67004 19.0478927,268.107384 C20.7855136,268.555715 21.6719587,270.195255 20.9619704,271.787373 Z M17.3720041,270.546011 C16.8259456,270.317421 16.1198982,270.553034 15.7825717,271.081722 C15.4416347,271.612436 15.6016017,272.244378 16.1442477,272.49188 C16.6943351,272.742244 17.4251283,272.503834 17.7664176,271.960198 C18.1014985,271.409582 17.9248875,270.781801 17.3724004,270.546033 L17.3720041,270.546033 L17.3720041,270.546011 L17.3720041,270.546011 Z M18.7184919,269.987646 C18.5087692,269.90502 18.246913,270.005413 18.1238005,270.212097 C18.0044747,270.418738 18.0706543,270.655496 18.2807293,270.74171 C18.4938424,270.829289 18.7666846,270.727928 18.8903474,270.517258 C19.0081761,270.304542 18.9317372,270.06611 18.7184699,269.987646 L18.7184919,269.987646 Z" id="zuopin_icon_weibo"></path>
            </g>
        </g>
    </g>
</svg>