<?xml version="1.0" encoding="UTF-8"?>
<svg width="20px" height="22px" viewBox="0 0 20 22" version="1.1" xmlns="http://www.w3.org/2000/svg" xmlns:xlink="http://www.w3.org/1999/xlink">
    <!-- Generator: Sketch 53.2 (72643) - https://sketchapp.com -->
    <title>zuopin_icon_qq copy</title>
    <desc>Created with Sketch.</desc>
    <g id="Page-1" stroke="none" stroke-width="1" fill="none" fill-rule="evenodd">
        <g id="02-作品详情-修改-5.29" transform="translate(-1416.000000, -603.000000)">
            <rect fill="#F9F9F9" x="0" y="0" width="1920" height="4630"></rect>
            <rect id="Rectangle-31" fill="#FFFFFF" x="0" y="141" width="1925" height="1263"></rect>
            <g id="分组-18-copy" transform="translate(1406.000000, 295.000000)" fill="#BBBBBB" fill-rule="nonzero">
                <path d="M29.1969176,322.307325 C28.7679876,319.819518 26.9664727,318.189571 26.9664727,318.189571 C27.2238351,315.930783 26.2801802,315.530196 26.2801802,315.530196 C26.0815391,308.541534 20.0614607,308.663835 19.9350009,308.667184 C19.8085193,308.663835 13.7875436,308.541556 13.5897779,315.530196 C13.5897779,315.530196 12.6461231,315.930783 12.9034855,318.189571 C12.9034855,318.189571 11.1019486,319.819518 10.6730405,322.307325 C10.6730405,322.307325 10.4439991,326.510875 12.7319178,322.82205 C12.7319178,322.82205 13.2466426,324.222934 14.1902975,325.481425 C14.1902975,325.481425 12.5028764,326.053602 12.6461449,327.540324 C12.6461449,327.540324 12.5886712,329.198571 16.2491967,329.084455 C16.2491967,329.084455 18.8227988,328.884566 19.5948641,327.797665 L20.2751597,327.797665 C21.0471812,328.884566 23.6208052,329.084455 23.6208052,329.084455 C27.2804333,329.198571 27.2238351,327.540324 27.2238351,327.540324 C27.36625,326.053602 25.6796825,325.481425 25.6796825,325.481425 C26.6233374,324.222956 27.1380622,322.82205 27.1380622,322.82205 C29.4251273,326.510875 29.1969176,322.307325 29.1969176,322.307325 Z" id="zuopin_icon_qq"></path>
            </g>
        </g>
    </g>
</svg>