<?xml version="1.0" encoding="UTF-8"?>
<svg width="74px" height="50px" viewBox="0 0 74 50" version="1.1" xmlns="http://www.w3.org/2000/svg" xmlns:xlink="http://www.w3.org/1999/xlink">
    <!-- Generator: Sketch 53.2 (72643) - https://sketchapp.com -->
    <title>fabuzuopin_icon_03 copy</title>
    <desc>Created with Sketch.</desc>
    <g id="Page-1" stroke="none" stroke-width="1" fill="none" fill-rule="evenodd">
        <g id="02-发布作品--空状态--" transform="translate(-1200.000000, -395.000000)" fill="#BBBBBB">
            <g id="Group-14" transform="translate(721.000000, 292.000000)">
                <g id="Group-12" transform="translate(203.000000, 103.000000)">
                    <g id="Group-9" transform="translate(237.000000, 0.000000)">
                        <g id="fabuzuopin_icon_03" transform="translate(39.000000, 0.000000)">
                            <g id="Group-11" fill-rule="nonzero">
                                <path d="M4.6875,3.125 C3.82455508,3.125 3.125,3.82455508 3.125,4.6875 L3.125,45.3125 C3.125,46.1754449 3.82455508,46.875 4.6875,46.875 L51.5625,46.875 C52.4254449,46.875 53.125,46.1754449 53.125,45.3125 L53.125,4.6875 C53.125,3.82455508 52.4254449,3.125 51.5625,3.125 L4.6875,3.125 Z M4.6875,0 L51.5625,0 C54.1513348,0 56.25,2.09866524 56.25,4.6875 L56.25,45.3125 C56.25,47.9013348 54.1513348,50 51.5625,50 L4.6875,50 C2.09866524,50 0,47.9013348 0,45.3125 L0,4.6875 C0,2.09866524 2.09866524,0 4.6875,0 Z" id="Rectangle-42"></path>
                                <path d="M57.0731638,15.5172929 C56.5662503,15.7895602 56.25,16.3184012 56.25,16.893806 L56.25,33.1075096 C56.25,33.6829144 56.5662503,34.2117553 57.0731638,34.4840226 L68.0106638,40.3586419 C68.2379726,40.4807313 68.4919784,40.5446289 68.75,40.5446289 C69.6129449,40.5446289 70.3125,39.8450738 70.3125,38.9821289 L70.3125,11.0191867 C70.3125,10.7611651 70.2486025,10.5071593 70.126513,10.2798504 C69.7181889,9.51962325 68.7708909,9.23434948 68.0106638,9.64267361 L57.0731638,15.5172929 Z M55.5944913,12.7642668 L66.5319913,6.88964751 C68.8126728,5.66467512 71.6545668,6.52049644 72.8795391,8.80117793 C73.2458074,9.48310446 73.4375,10.2451219 73.4375,11.0191867 L73.4375,38.9821289 C73.4375,41.5709636 71.3388348,43.6696289 68.75,43.6696289 C67.9759353,43.6696289 67.2139178,43.4779362 66.5319913,43.111668 L55.5944913,37.2370487 C54.073751,36.4202469 53.125,34.8337239 53.125,33.1075096 L53.125,16.893806 C53.125,15.1675916 54.073751,13.5810686 55.5944913,12.7642668 Z" id="Rectangle-42-Copy"></path>
                            </g>
                            <circle id="Oval-14" cx="14.84375" cy="14.84375" r="3.90625"></circle>
                        </g>
                    </g>
                </g>
            </g>
        </g>
    </g>
</svg>