<?xml version="1.0" encoding="UTF-8"?>
<svg width="23px" height="19px" viewBox="0 0 23 19" version="1.1" xmlns="http://www.w3.org/2000/svg" xmlns:xlink="http://www.w3.org/1999/xlink">
    <!-- Generator: Sketch 53.2 (72643) - https://sketchapp.com -->
    <title>zuopin_icon_weixin copy</title>
    <desc>Created with Sketch.</desc>
    <g id="Page-1" stroke="none" stroke-width="1" fill="none" fill-rule="evenodd">
        <g id="02-作品详情-修改-5.29" transform="translate(-1415.000000, -501.000000)" fill="#BBBBBB" fill-rule="nonzero">
            <g id="分组-18-copy" transform="translate(1406.000000, 295.000000)">
                <g id="zuopin_icon_weixin" transform="translate(8.787512, 205.591895)">
                    <path d="M22.3158124,12.2652978 C22.3158124,9.31140177 19.3619163,6.90779214 16.0394322,6.90779214 C12.5196755,6.90779214 9.75786058,9.31140177 9.75786058,12.2652978 C9.75786058,15.2243853 12.5196755,17.6228035 16.0394322,17.6228035 C16.7766084,17.6228035 17.5189759,17.4359138 18.2561521,17.2542155 L20.2859823,18.3651711 L19.7305044,16.5170393 C21.2100482,15.411275 22.3158124,13.9317313 22.3158124,12.2652978 L22.3158124,12.2652978 Z M13.9992193,11.3412319 C13.6306312,11.3412319 13.2620431,10.9726439 13.2620431,10.6040558 C13.2620431,10.2354677 13.6306312,9.86687959 13.9992193,9.86687959 C14.5546971,9.86687959 14.9232852,10.2354677 14.9232852,10.6040558 C14.9232852,10.9778352 14.5546971,11.3412319 13.9992193,11.3412319 Z M18.0692624,11.3412319 C17.7006743,11.3412319 17.3320862,10.9726439 17.3320862,10.6040558 C17.3320862,10.2354677 17.7006743,9.86687959 18.0692624,9.86687959 C18.6247402,9.86687959 18.9933283,10.2354677 18.9933283,10.6040558 C18.9933283,10.9778352 18.6143574,11.3412319 18.0692624,11.3412319 Z" id="Shape"></path>
                    <path d="M8.54307731,1 C4.40035488,1 1,3.82411153 1,7.41654753 C1,9.48790875 2.12652978,11.1906819 4.01619265,12.5144842 L3.26344233,14.7883093 L5.90585551,13.4593156 C6.85068695,13.6410139 7.60862864,13.8330951 8.54826869,13.8330951 C8.78188086,13.8330951 9.01549303,13.8227123 9.2491052,13.8019468 C9.09855513,13.2983828 9.01549303,12.7688619 9.01549303,12.2237668 C9.01549303,8.93243093 11.8499873,6.25886946 15.4320406,6.25886946 C15.6760355,6.25886946 15.914839,6.2744436 16.158834,6.30040051 C15.5047199,3.25825095 12.2549151,1 8.54307731,1 L8.54307731,1 Z M6.08755387,6.09793663 C5.52169328,6.09793663 4.95064132,5.72415716 4.95064132,5.1531052 C4.95064132,4.58724461 5.5165019,4.20827376 6.08755387,4.20827376 C6.65860583,4.20827376 7.0323853,4.58205323 7.0323853,5.1531052 C7.0323853,5.7137744 6.65341445,6.09793663 6.08755387,6.09793663 Z M11.3671888,6.09793663 C10.7961369,6.09793663 10.2302763,5.72415716 10.2302763,5.1531052 C10.2406591,4.58205323 10.8065196,4.20827376 11.3671888,4.20827376 C11.9330494,4.20827376 12.3120203,4.58205323 12.3120203,5.1531052 C12.3120203,5.71896578 11.9330494,6.09793663 11.3671888,6.09793663 L11.3671888,6.09793663 Z" id="Shape"></path>
                </g>
            </g>
        </g>
    </g>
</svg>