<?xml version="1.0" encoding="UTF-8"?>
<svg width="14px" height="14px" viewBox="0 0 14 14" version="1.1" xmlns="http://www.w3.org/2000/svg" xmlns:xlink="http://www.w3.org/1999/xlink">
    <!-- Generator: Sketch 53.2 (72643) - https://sketchapp.com -->
    <title>xingshi</title>
    <desc>Created with Sketch.</desc>
    <g id="Page-1" stroke="none" stroke-width="1" fill="none" fill-rule="evenodd">
        <g id="02-作品详情-大屏" transform="translate(-1250.000000, -1074.000000)" fill="#BBBBBB" fill-rule="nonzero">
            <g id="分组-14" transform="translate(1250.000000, 1070.000000)">
                <g id="xingshi" transform="translate(0.000000, 4.000000)">
                    <path d="M7,0 C1.890625,0 0,4.47071014 0,6.97725486 C0,9.48379957 1.8171875,13.9999692 6.8515625,13.9999692 C6.8515625,13.9999692 8.103125,14.0219152 8.103125,12.8932647 C8.103125,11.7646142 7.540625,12.1251553 7.540625,11.313154 C7.540625,10.499585 8.103125,10.1390439 8.3734375,10.1390439 C8.64375,10.1390439 10.421875,10.2738549 11.4125,9.88980024 C12.4015625,9.50731312 14,8.28774352 14,6.21071304 C14,4.38135864 12.109375,1.33659072e-15 7,0 Z M2.7328125,7.00076841 C2.0609375,7.00076841 1.5171875,6.45525399 1.5171875,5.78119881 C1.5171875,5.10714364 2.0609375,4.56162921 2.7328125,4.56162921 C3.4046875,4.56162921 3.9484375,5.10714364 3.9484375,5.78119881 C3.946875,6.45525399 3.403125,7.00076841 2.7328125,7.00076841 Z M5.025,3.98319582 C4.353125,3.98319582 3.809375,3.4376814 3.809375,2.76362622 C3.809375,2.08957105 4.353125,1.54405662 5.025,1.54405662 C5.6953125,1.54405662 6.240625,2.08957105 6.240625,2.76362622 C6.240625,3.4376814 5.696875,3.98319582 5.025,3.98319582 Z M8.9234375,3.98319582 C8.253125,3.98319582 7.7078125,3.4376814 7.7078125,2.76362622 C7.7078125,2.08957105 8.2515625,1.54405662 8.9234375,1.54405662 C9.59375,1.54405662 10.1390625,2.08957105 10.1390625,2.76362622 C10.1390625,3.4376814 9.5953125,3.98319582 8.9234375,3.98319582 Z M11.2375,7.00076841 C10.5671875,7.00076841 10.021875,6.45525399 10.021875,5.78119881 C10.021875,5.10714364 10.565625,4.56162921 11.2375,4.56162921 C11.909375,4.56162921 12.453125,5.10714364 12.453125,5.78119881 C12.4546875,6.45525399 11.909375,7.00076841 11.2375,7.00076841 Z" id="形状"></path>
                </g>
            </g>
        </g>
    </g>
</svg>