<?xml version="1.0" encoding="UTF-8"?>
<svg width="18px" height="15px" viewBox="0 0 18 15" version="1.1" xmlns="http://www.w3.org/2000/svg" xmlns:xlink="http://www.w3.org/1999/xlink">
    <!-- Generator: Sketch 53.2 (72643) - https://sketchapp.com -->
    <title>fabuzhouqi</title>
    <desc>Created with Sketch.</desc>
    <g id="Page-1" stroke="none" stroke-width="1" fill="none" fill-rule="evenodd">
        <g id="02-作品详情-大屏" transform="translate(-1250.000000, -1115.000000)" fill="#BBBBBB" fill-rule="nonzero">
            <g id="分组-15" transform="translate(1250.000000, 1111.000000)">
                <g id="fabuzhouqi" transform="translate(0.000000, 4.000000)">
                    <path d="M2.70834762,2.4583417 L2.70834762,0.854161982 C2.70834762,0.47374711 3.01542683,0.166667895 3.3958417,0.166667895 C3.77625658,0.166667895 4.08333579,0.47374711 4.08333579,0.854161982 L4.08333579,2.4583417 C4.08333579,2.83875658 3.77625658,3.14583579 3.3958417,3.14583579 C3.01542683,3.14583579 2.70834762,2.83875658 2.70834762,2.4583417 Z M10.0416716,3.14583579 C10.4221066,3.14583579 10.7291858,2.83875658 10.7291858,2.4583417 L10.7291858,0.854161982 C10.7291858,0.47374711 10.4221066,0.166667895 10.0416716,0.166667895 C9.66123657,0.166667895 9.3541775,0.47374711 9.3541775,0.854161982 L9.3541775,2.4583417 C9.3541775,2.83875658 9.66125671,3.14583579 10.0416716,3.14583579 Z M14.1666764,10.7083513 L13.4791823,10.7083513 L13.4791823,9.10417158 C13.4791823,8.85119277 13.2738586,8.6458489 13.0208596,8.6458489 C12.7678607,8.6458489 12.5625168,8.85117263 12.5625168,9.10417158 L12.5625168,11.166674 C12.5625168,11.4196931 12.7678405,11.6250168 13.0208596,11.6250168 L14.1666764,11.6250168 C14.4196955,11.6250168 14.6250192,11.4196931 14.6250192,11.166674 C14.6250192,10.9136549 14.4196955,10.7083513 14.1666764,10.7083513 Z M16.916693,11.0521084 C16.916693,13.2039792 15.1727304,14.9479418 13.0208596,14.9479418 C11.4877194,14.9479418 10.1631457,14.0587696 9.52834213,12.7708336 L1.33331916,12.7708336 C0.700831855,12.7708336 0.1875024,12.2575242 0.1875024,11.6250168 L0.1875024,3.14583579 C0.1875024,2.51334848 0.700831855,1.99999889 1.3333393,1.99999889 L2.2500048,1.99999889 L2.2500048,2.4583417 C2.2500048,3.09084915 2.76333425,3.60417861 3.3958417,3.60417861 C4.02834915,3.60417861 4.54167861,3.09084915 4.54167861,2.45832156 L4.54167861,1.99999889 L8.89585482,1.99999889 L8.89585482,2.4583417 C8.89585482,3.09084915 9.40918427,3.60417861 10.0416716,3.60417861 C10.6741589,3.60417861 11.1875286,3.09084915 11.1875286,2.45832156 L11.1875286,1.99999889 L12.104174,1.99999889 C12.7366814,1.99999889 13.250031,2.51334848 13.250031,3.14585593 L13.250031,7.16773561 C15.2942045,7.28689347 16.916693,8.97814543 16.916693,11.0521084 Z M8.68501229,5.25418053 L4.96104738,5.25418053 L4.96104738,6.28313558 L7.54604368,6.28313558 C7.02814207,6.91105074 6.60875316,7.60313712 6.28791721,8.35480242 C5.96937741,9.10876387 5.77918005,9.89251478 5.71500883,10.7083513 L6.89979964,10.7083513 C6.90439193,10.3439893 6.94793812,9.95209371 7.02814207,9.53272494 C7.10834602,9.11106002 7.22291159,8.69626339 7.37187905,8.28605906 C7.5208465,7.87585472 7.70417558,7.48855142 7.9241624,7.12416928 C8.14646552,6.75980728 8.3985581,6.45500407 8.68501229,6.20522778 L8.68501229,5.25418053 Z M16.0000275,11.0521084 C16.0000275,9.40895465 14.6639731,8.07292038 13.0208596,8.07292038 C11.3777461,8.07292038 10.0416716,9.40897479 10.0416716,11.0521084 C10.0416716,12.6952219 11.377726,14.0312562 13.0208596,14.0312562 C14.6639932,14.0312562 16.0000074,12.6952219 16.0000074,11.0521084 L16.0000275,11.0521084 Z" id="形状"></path>
                </g>
            </g>
        </g>
    </g>
</svg>