<?xml version="1.0" encoding="UTF-8"?>
<svg width="15px" height="16px" viewBox="0 0 15 16" version="1.1" xmlns="http://www.w3.org/2000/svg" xmlns:xlink="http://www.w3.org/1999/xlink">
    <!-- Generator: Sketch 53.2 (72643) - https://sketchapp.com -->
    <title>chanpin</title>
    <desc>Created with Sketch.</desc>
    <g id="Page-1" stroke="none" stroke-width="1" fill="none" fill-rule="evenodd">
        <g id="02-作品详情-大屏" transform="translate(-1250.000000, -970.000000)" fill="#BBBBBB" fill-rule="nonzero">
            <g id="分组-5" transform="translate(1250.000000, 967.000000)">
                <g id="chanpin" transform="translate(0.000000, 3.000000)">
                    <path d="M6.90728695,7.13087022 C6.60179357,7.13870715 6.29625223,7.06820756 6.02217284,6.94291549 L1.09543019,4.475635 C0.71945359,4.3502606 0.523645368,4.09964242 0.523645368,3.77849161 C0.523645368,3.4573408 0.711600092,3.20672277 1.0327509,3.01876805 L6.02218403,0.496631392 C6.31979034,0.363518126 6.64094115,0.300839158 6.96986392,0.308676667 C7.27542285,0.300839734 7.58088265,0.371339327 7.85506117,0.496631392 L12.7817239,2.90123739 C13.0950212,3.08919211 13.2908294,3.33990926 13.2908294,3.66104249 C13.2908294,3.98212774 13.0950212,4.22497381 12.7817239,4.41293014 L7.79237069,6.94291709 C7.60435041,7.06819349 7.22058586,7.13085583 6.90728855,7.13085583 L6.90728695,7.13087022 Z M5.89684624,15.9739372 C5.7244834,15.9661003 5.55221808,15.9191114 5.38774071,15.8485954 L1.03274291,13.5771567 C0.523637373,13.3264571 0.084981485,12.7546723 0.084981485,12.316098 L0.084981485,6.05784215 C0.0693567183,5.65048514 0.390506841,5.31372646 0.797798303,5.29803705 L0.844787224,5.29803705 C1.00144403,5.30589034 1.15024703,5.35287915 1.28337756,5.42339515 L5.70888416,7.69483384 C6.2179897,7.94545186 6.65654646,8.51731823 6.65654646,8.95587499 L6.65654646,15.143702 C6.68009,15.5744388 6.34324915,15.9425779 5.91249632,15.9661208 C5.90465938,15.9739413 5.89683882,15.9739413 5.89683882,15.9739413 L5.89684624,15.9739372 Z M8.23095942,15.9739372 C7.82366796,15.989562 7.48690928,15.6684774 7.47121988,15.2611364 L7.47121988,9.02639946 C7.47121988,8.51730991 7.84719648,8.01597633 8.4189813,7.76534072 L12.844392,5.43122754 C12.9853586,5.36071154 13.1341624,5.32155965 13.2830638,5.30588575 C13.6903553,5.29017917 14.027114,5.61132957 14.0428034,6.01862103 L14.0428034,12.2534059 C14.0428034,12.7625114 13.6668268,13.2638466 13.095026,13.5144806 L8.66959932,15.8564281 C8.5364042,15.9269604 8.38760088,15.9739329 8.23096102,15.9739329 L8.23095942,15.9739372 Z" id="形状"></path>
                </g>
            </g>
        </g>
    </g>
</svg>