<?xml version="1.0" encoding="UTF-8"?>
<svg width="20px" height="20px" viewBox="0 0 20 20" version="1.1" xmlns="http://www.w3.org/2000/svg" xmlns:xlink="http://www.w3.org/1999/xlink">
    <!-- Generator: Sketch 53.2 (72643) - https://sketchapp.com -->
    <title>推荐</title>
    <desc>Created with Sketch.</desc>
    <g id="页面-1" stroke="none" stroke-width="1" fill="none" fill-rule="evenodd">
        <g id="梅花网创作者标识设计规范" transform="translate(-187.000000, -1141.000000)" fill-rule="nonzero">
            <g id="推荐" transform="translate(187.000000, 1141.000000)">
                <path d="M0,1 L0,18.7398044 C6.76353751e-17,19.2920892 0.44771525,19.7398044 1,19.7398044 C1.07649461,19.7398044 1.15273662,19.7310274 1.22723022,19.7136455 L9.77276978,17.7196807 C9.92224897,17.6848021 10.077751,17.6848021 10.2272302,17.7196807 L18.7727698,19.7136455 C19.3106074,19.8391413 19.8483453,19.5048722 19.9738411,18.9670346 C19.991223,18.892541 20,18.816299 20,18.7398044 L20,1 C20,0.44771525 19.5522847,-1.01453063e-16 19,0 L1,0 C0.44771525,1.01453063e-16 -6.76353751e-17,0.44771525 0,1 Z" id="Shape" fill="#FFA400"></path>
                <path d="M4.273,3.78 L7.094,3.78 L7.094,3 L8.472,3 L8.472,3.78 L11.488,3.78 L11.488,3 L12.866,3 L12.866,3.78 L15.687,3.78 L15.687,5.015 L12.866,5.015 L12.866,5.821 L11.488,5.821 L11.488,5.015 L8.472,5.015 L8.472,5.665 L9.785,5.912 C9.707,6.12 9.629,6.328 9.551,6.523 L15.622,6.523 L15.622,7.758 L8.94,7.758 C8.55,8.408 8.108,9.032 7.588,9.604 L7.588,15.051 L6.275,15.051 L6.275,10.878 C5.82,11.255 5.339,11.619 4.845,11.957 L4,10.839 C5.404,9.929 6.522,8.902 7.354,7.758 L4.494,7.758 L4.494,6.523 L8.095,6.523 C8.212,6.276 8.316,6.042 8.42,5.808 L7.094,5.808 L7.094,5.015 L4.273,5.015 L4.273,3.78 Z M11.644,10.436 C11.93,10.241 12.346,9.981 12.892,9.656 L9.148,9.656 L9.148,8.434 L14.855,8.434 L14.855,9.396 C14.322,9.799 13.711,10.254 13.009,10.774 L13.009,10.982 L15.674,10.982 L15.674,12.256 L13.009,12.256 L13.009,13.816 C13.009,14.622 12.606,15.025 11.813,15.025 L10.214,15.025 L9.824,13.712 C10.435,13.764 10.916,13.803 11.28,13.803 C11.514,13.803 11.644,13.673 11.644,13.439 L11.644,12.256 L8.251,12.256 L8.251,10.982 L11.644,10.982 L11.644,10.436 Z" id="荐" fill="#FFFFFF"></path>
            </g>
        </g>
    </g>
</svg>