<?xml version="1.0" encoding="UTF-8"?>
<svg width="57px" height="50px" viewBox="0 0 57 50" version="1.1" xmlns="http://www.w3.org/2000/svg" xmlns:xlink="http://www.w3.org/1999/xlink">
    <!-- Generator: Sketch 53.2 (72643) - https://sketchapp.com -->
    <title>fabuzuopin_icon_02 copy</title>
    <desc>Created with Sketch.</desc>
    <g id="Page-1" stroke="none" stroke-width="1" fill="none" fill-rule="evenodd">
        <g id="02-发布作品--空状态--" transform="translate(-972.000000, -395.000000)" fill="#BBBBBB">
            <g id="Group-14" transform="translate(721.000000, 292.000000)">
                <g id="Group-12" transform="translate(203.000000, 103.000000)">
                    <g id="Group-10">
                        <g id="fabuzuopin_icon_02" transform="translate(48.000000, 0.000000)">
                            <g id="Group-13" fill-rule="nonzero">
                                <path d="M4.6875,3.125 C3.82455508,3.125 3.125,3.82455508 3.125,4.6875 L3.125,45.3125 C3.125,46.1754449 3.82455508,46.875 4.6875,46.875 L51.5625,46.875 C52.4254449,46.875 53.125,46.1754449 53.125,45.3125 L53.125,4.6875 C53.125,3.82455508 52.4254449,3.125 51.5625,3.125 L4.6875,3.125 Z M4.6875,0 L51.5625,0 C54.1513348,0 56.25,2.09866524 56.25,4.6875 L56.25,45.3125 C56.25,47.9013348 54.1513348,50 51.5625,50 L4.6875,50 C2.09866524,50 0,47.9013348 0,45.3125 L0,4.6875 C0,2.09866524 2.09866524,0 4.6875,0 Z" id="Rectangle-40"></path>
                            </g>
                            <path d="M31.4662462,22.1279116 C31.7267087,21.7906961 32.2313549,21.7906961 32.4999569,22.1279116 L43.6103127,36.4390051 C43.9440303,36.866693 43.6428705,37.5 43.097527,37.5 L13.152473,37.5 C12.6071295,37.5 12.3059697,36.866693 12.6396873,36.4390051 L20.7628632,25.9771023 C21.0233257,25.6398868 21.5279719,25.6398868 21.7884345,25.9771023 L25.1337504,30.2868799 L31.4662462,22.1279116 L31.4662462,22.1279116 Z" id="Combined-Shape"></path>
                            <path d="M12.5,15.625 C12.5,13.8991102 13.8991102,12.5 15.625,12.5 C17.3508898,12.5 18.75,13.8991102 18.75,15.625 C18.75,17.3508898 17.3508898,18.75 15.625,18.75 C13.8991102,18.75 12.5,17.3508898 12.5,15.625 Z" id="Combined-Shape"></path>
                        </g>
                    </g>
                </g>
            </g>
        </g>
    </g>
</svg>