<?xml version="1.0" encoding="UTF-8"?>
<svg width="40px" height="40px" viewBox="0 0 40 40" version="1.1" xmlns="http://www.w3.org/2000/svg" xmlns:xlink="http://www.w3.org/1999/xlink">
    <!-- Generator: Sketch 53.2 (72643) - https://sketchapp.com -->
    <title>zuopin_icon_pinglun copy</title>
    <desc>Created with Sketch.</desc>
    <g id="Page-1" stroke="none" stroke-width="1" fill="none" fill-rule="evenodd">
        <g id="02-作品详情-修改-5.29" transform="translate(-1407.000000, -395.000000)">
            <g id="分组-18-copy" transform="translate(1406.000000, 295.000000)">
                <g id="zuopin_icon_pinglun" transform="translate(1.000000, 100.000000)">
                    <circle id="Oval-6-Copy-2" fill="#BBBBBB" cx="20" cy="20" r="20"></circle>
                    <path d="M27.4950281,12.0000108 L12.50272,12.0000108 L12.50272,12.0000108 C11.6759056,11.9969002 11.0031164,12.6646732 11.0000068,13.4915252 C11.000004,13.4922805 11.0000017,13.4930357 11,13.493791 L11,25.5070679 C11,26.3265643 11.6708774,27.0008478 12.4993434,27.0008478 L13.2422613,27.0008478 C13.666625,27.0008478 13.9998124,27.3374267 13.9998124,27.7528033 L13.9998124,29.0439604 C13.9998124,29.8814677 14.5930211,30.2315547 15.3246826,29.8398175 L19.9656681,27.3531862 L19.9656682,27.3531862 C20.4040144,27.1406346 20.8814552,27.0206932 21.3682072,27.0008477 L27.5029079,27.0008477 C28.327997,27.0008477 29,26.3321927 29,25.5070679 L29,13.4937909 C29,12.6742945 28.3257457,12.0000111 27.4950285,12.0000111 L27.4950281,12.0000108 Z M21.5387716,22.4988747 L16.2106948,22.4988747 L16.2106948,22.4988747 C15.8181887,22.4988747 15.5,22.1633404 15.5,21.7494374 C15.5,21.3355343 15.8181887,21 16.2106948,21 L21.5387716,21 L21.5387716,21 C21.9315729,21 22.25,21.3357857 22.25,21.75 C22.25,22.1642143 21.9315729,22.5 21.5387716,22.5 L21.5387716,22.4988747 Z M23.7495309,18 L16.2504692,18 L16.2504692,18 C15.8359958,18 15.5,17.6642143 15.5,17.25 C15.5,16.8357857 15.8359958,16.5 16.2504692,16.5 L23.7495309,16.5 L23.7495308,16.5 C24.1640042,16.5 24.5,16.8357857 24.5,17.25 C24.5,17.6642143 24.1640042,18 23.7495308,18 L23.7495309,18 Z" id="形状" fill="#FFFFFF" fill-rule="nonzero"></path>
                </g>
            </g>
        </g>
    </g>
</svg>