<?xml version="1.0" encoding="UTF-8"?>
<svg width="40px" height="40px" viewBox="0 0 40 40" version="1.1" xmlns="http://www.w3.org/2000/svg" xmlns:xlink="http://www.w3.org/1999/xlink">
    <!-- Generator: Sketch 53.2 (72643) - https://sketchapp.com -->
    <title>zuopin_icon_shoucang copy</title>
    <desc>Created with Sketch.</desc>
    <g id="Page-1" stroke="none" stroke-width="1" fill="none" fill-rule="evenodd">
        <g id="02-作品详情-修改-5.29" transform="translate(-1407.000000, -345.000000)">
            <g id="分组-18-copy" transform="translate(1406.000000, 295.000000)">
                <g id="zuopin_icon_shoucang" transform="translate(1.000000, 50.000000)">
                    <circle id="Oval-6" fill="#BBBBBB" cx="20" cy="20" r="20"></circle>
                    <path d="M20.3156133,26.0210654 L15.2021182,28.7093889 C14.9115886,28.8621293 14.5522472,28.7504291 14.3995068,28.4598996 C14.3386847,28.3442092 14.3176965,28.211695 14.3397914,28.0828718 L15.3163821,22.3889114 L11.1794777,18.3564262 C10.9444343,18.1273155 10.9396249,17.7510443 11.1687356,17.5160009 C11.2599686,17.4224054 11.3795114,17.3614954 11.5088572,17.3427003 L17.2259185,16.5119627 L19.782666,11.3314263 C19.9279308,11.0370877 20.2842998,10.9162395 20.5786384,11.0615043 C20.6958456,11.1193495 20.7907153,11.2142191 20.8485605,11.3314263 L23.405308,16.5119627 L29.1223694,17.3427003 C29.4471913,17.3898997 29.6722489,17.6914826 29.6250495,18.0163045 C29.6062544,18.1456504 29.5453444,18.2651931 29.4517489,18.3564262 L25.3148444,22.3889114 L26.2914351,28.0828718 C26.3469213,28.4063813 26.1296455,28.713618 25.8061361,28.7691042 C25.6773129,28.7911991 25.5447988,28.7702109 25.4291084,28.7093889 L20.3156133,26.0210654 Z" id="Star-Copy" fill="#FFFFFF" fill-rule="nonzero"></path>
                </g>
            </g>
        </g>
    </g>
</svg>