<?xml version="1.0" encoding="UTF-8"?>
<svg width="15px" height="19px" viewBox="0 0 15 19" version="1.1" xmlns="http://www.w3.org/2000/svg" xmlns:xlink="http://www.w3.org/1999/xlink">
    <!-- Generator: Sketch 59.1 (86144) - https://sketch.com -->
    <title>梅花创新奖logo</title>
    <desc>Created with Sketch.</desc>
    <g id="-----作品详情页" stroke="none" stroke-width="1" fill="none" fill-rule="evenodd">
        <g id="5-鼠标放作品上" transform="translate(-322.000000, -1596.000000)" fill="#90640F">
            <g id="编组-5" transform="translate(218.000000, 813.000000)">
                <g id="编组-5备份" transform="translate(93.000000, 0.000000)">
                    <g id="编组-39" transform="translate(0.000000, 60.000000)">
                        <g id="梅花创新奖logo" transform="translate(11.000000, 723.000000)">
                            <path d="M6.24178204,12.0718223 C6.24178204,12.0718223 7.05838204,14.3210767 7.29538204,14.9778879 C7.53388204,15.6350005 7.19128204,16.4072586 6.51808204,16.6535251 C5.84548204,16.8988874 2.54338204,18.1073115 2.54338204,18.1073115 L2.54338204,18.1073115 L1.04428204,13.9738318 Z M4.72789204,7.93858382 L6.22669204,12.0720635 L1.03009204,13.9746758 C1.03009204,13.9746758 0.403692042,12.2505087 0.0976920421,11.4053051 C-0.208607958,10.5598001 0.228192042,9.58528398 1.08859204,9.27059334 C1.94959204,8.95560127 4.72789204,7.93858382 4.72789204,7.93858382 L4.72789204,7.93858382 Z M9.92734204,6.03591116 C9.92734204,6.03591116 10.743342,8.28546695 10.981242,8.94227816 C11.219142,9.59878794 10.876242,10.3707446 10.203342,10.6173125 C9.53074204,10.8632776 6.22924204,12.0710989 6.22924204,12.0710989 L6.22924204,12.0710989 L4.72954204,7.93882496 Z M8.41957204,1.90297409 L9.91837204,6.0361523 L4.72117204,7.93876467 C4.72117204,7.93876467 4.09507204,6.214899 3.78937204,5.36939397 C3.48307204,4.5244918 3.91957204,3.54967425 4.78057204,3.23438075 C5.64067204,2.91999154 8.41957204,1.90297409 8.41957204,1.90297409 L8.41957204,1.90297409 Z M13.618752,7.71382958e-13 C13.618752,7.71382958e-13 14.435352,2.24925436 14.672952,2.90606557 C14.910552,3.56317821 14.567952,4.33513485 13.895052,4.58140137 C13.222752,4.82736647 9.92095204,6.03548916 9.92095204,6.03548916 L9.92095204,6.03548916 L8.42155204,1.90261237 Z" id="形状结合"></path>
                        </g>
                    </g>
                </g>
            </g>
        </g>
    </g>
</svg>