<?xml version="1.0" encoding="UTF-8"?>
<svg width="15px" height="19px" viewBox="0 0 15 19" version="1.1" xmlns="http://www.w3.org/2000/svg" xmlns:xlink="http://www.w3.org/1999/xlink">
    <!-- Generator: Sketch 53.2 (72643) - https://sketchapp.com -->
    <title>pinpai</title>
    <desc>Created with Sketch.</desc>
    <g id="Page-1" stroke="none" stroke-width="1" fill="none" fill-rule="evenodd">
        <g id="02-作品详情-大屏" transform="translate(-1250.000000, -925.000000)" fill="#BBBBBB" fill-rule="nonzero">
            <g id="pinpai" transform="translate(1250.000000, 925.000000)">
                <path d="M0.753410367,11.1321926 L4.42083975,13.6808484 L3.09206251,17.7175323 C3.03891146,17.8719287 3.10172635,18.0419884 3.24426796,18.140444 C3.28050745,18.1672956 3.32157867,18.1829589 3.36264989,18.1941471 C3.37472968,18.2008599 3.39164148,18.2008599 3.40372111,18.2030976 C3.4327127,18.2098105 3.45928813,18.2142857 3.48827972,18.2142857 L3.49069566,18.2142857 C3.51485532,18.2142857 3.54143075,18.2075728 3.56800637,18.2030976 C3.58008616,18.2008599 3.59699796,18.2030976 3.60907759,18.1963847 C3.65014881,18.1851966 3.6863883,18.1672954 3.72504355,18.1449193 L7.50360776,15.7327514 L11.289422,18.1471453 C11.3619008,18.1896602 11.4440435,18.2142742 11.5261859,18.2142742 C11.6131605,18.2142742 11.6977191,18.1874226 11.7726132,18.1404324 C11.9151548,18.0419768 11.9779693,17.8741551 11.9248187,17.7175207 L10.5912087,13.6830812 L14.2586381,11.1344255 C14.3987637,11.0337323 14.4567467,10.8636722 14.4035956,10.7092767 C14.3480286,10.550405 14.1934068,10.4452365 14.0146257,10.4429994 L11.659064,10.4004845 L10.9680994,10.3848211 L10.2771347,10.3713954 L9.68522411,10.3602072 L9.4098044,10.3534943 L9.26484685,9.9686222 L7.89982913,6.36827987 C7.84426212,6.21612106 7.68480956,6.11318985 7.50844386,6.11318985 C7.33449472,6.11318985 7.17745674,6.21612069 7.11705859,6.36827987 L5.75204087,9.9686222 L5.60708332,10.3534943 L5.33166361,10.3602072 L4.74217033,10.3713954 L4.05120569,10.3848211 L3.36024105,10.3960093 L1.00467933,10.4385241 C0.818650562,10.4429994 0.664028749,10.5526432 0.608461336,10.7070403 C0.552885799,10.8659155 0.61086878,11.0337371 0.753410367,11.1321926 Z M4.73248802,8.77597018 L5.80517446,5.94536102 C6.05884988,5.28078546 6.74015105,4.83326031 7.50359268,4.83326031 C8.26703629,4.83326031 8.94592011,5.27854838 9.2020109,5.94536102 L10.2746973,8.77597018 L10.3954952,9.09147616 L13.2770177,9.10266431 L13.9679823,9.11385245 L13.9679823,0.639962129 C13.9679823,0.469902423 13.8955035,0.306555807 13.767457,0.185723886 C13.6369952,0.064891966 13.4606295,0 13.2770177,0 L1.26788772,0 C0.886165909,0 0.576923077,0.28641654 0.576923077,0.639962129 L0.576923077,9.11609689 L4.04151503,9.10490875 L4.61168138,9.09148298 L4.73248802,8.77597018 Z" id="形状"></path>
            </g>
        </g>
    </g>
</svg>