<?xml version="1.0" encoding="UTF-8"?>
<svg width="20px" height="20px" viewBox="0 0 20 20" version="1.1" xmlns="http://www.w3.org/2000/svg" xmlns:xlink="http://www.w3.org/1999/xlink">
    <!-- Generator: Sketch 53.2 (72643) - https://sketchapp.com -->
    <title>认证</title>
    <desc>Created with Sketch.</desc>
    <g id="页面-1" stroke="none" stroke-width="1" fill="none" fill-rule="evenodd">
        <g id="梅花网创作者标识设计规范" transform="translate(-275.000000, -169.000000)">
            <g id="认证" transform="translate(275.000000, 169.000000)">
                <path d="M7.05060364,2.13494304 L8.58578644,0.599760247 C9.36683502,-0.181288336 10.633165,-0.181288336 11.4142136,0.599760247 L12.9493964,2.13494304 L15.865057,2.13494304 C16.9696265,2.13494304 17.865057,3.03037354 17.865057,4.13494304 L17.865057,7.05060364 L19.4002398,8.58578644 C20.1812883,9.36683502 20.1812883,10.633165 19.4002398,11.4142136 L17.865057,12.9493964 L17.865057,15.865057 C17.865057,16.9696265 16.9696265,17.865057 15.865057,17.865057 L12.9493964,17.865057 L11.4142136,19.4002398 C10.633165,20.1812883 9.36683502,20.1812883 8.58578644,19.4002398 L7.05060364,17.865057 L4.13494304,17.865057 C3.03037354,17.865057 2.13494304,16.9696265 2.13494304,15.865057 L2.13494304,12.9493964 L0.599760247,11.4142136 C-0.181288336,10.633165 -0.181288336,9.36683502 0.599760247,8.58578644 L2.13494304,7.05060364 L2.13494304,4.13494304 C2.13494304,3.03037354 3.03037354,2.13494304 4.13494304,2.13494304 L7.05060364,2.13494304 Z" id="合并形状" fill="#168DD7"></path>
                <polyline id="路径-2-copy-2" stroke="#FFFFFF" stroke-width="2" stroke-linecap="round" stroke-linejoin="round" points="5 9.1122509 8.75003208 12.8164442 14.220843 7"></polyline>
            </g>
        </g>
    </g>
</svg>