<?xml version="1.0" encoding="UTF-8"?>
<svg width="26px" height="15px" viewBox="0 0 26 15" version="1.1" xmlns="http://www.w3.org/2000/svg" xmlns:xlink="http://www.w3.org/1999/xlink">
    <!-- Generator: Sketch 53.2 (72643) - https://sketchapp.com -->
    <title>jiaobiao</title>
    <desc>Created with Sketch.</desc>
    <g id="Page-1" stroke="none" stroke-width="1" fill="none" fill-rule="evenodd">
        <g id="00-梅花网首页" transform="translate(-1758.000000, -379.000000)" fill="#FF7F00">
            <g id="jiaobiao" transform="translate(1758.000000, 378.061263)">
                <path d="M6.5,1 L19.5,1 C23.0898509,1 26,3.91014913 26,7.5 L26,8.5 C26,12.0898509 23.0898509,15 19.5,15 L0,15 L0,7.5 C-4.39629938e-16,3.91014913 2.91014913,1 6.5,1 Z M8,4 L6.50107929,4 L6.50107929,7.60274802 L5.49745808,4 L4,4 L4,12 L5.49745808,12 L5.49745808,8.36348461 L6.42846639,12 L8,12 L8,4 Z M9.12881046,4 L9.12881046,12 L13.1288105,12 L13.1288105,10.3989474 L11.4358952,10.3989474 L11.4358952,8.63935029 L12.8759555,8.63935029 L12.8759555,7.11767882 L11.4358952,7.11767882 L11.4358952,5.60101631 L12.9757152,5.60101631 L12.9757152,4 L9.12881046,4 Z M22,4 L20.0388717,4 C19.7803941,5.85196156 19.5906715,7.74618223 19.4761862,9.68249871 L19.2521038,6.63801007 C19.1342887,5.11323455 19.060734,4.2344664 19.0312802,4 L16.9393014,4 C16.6383169,6.26352067 16.453518,8.09363596 16.3798747,9.49018256 L16.1721575,6.78982715 L15.9611283,4 L14,4 L14.9045299,12 L17.4086843,12 C17.703151,9.87650233 17.8912265,8.47652637 17.9713875,7.8051708 C18.1463921,9.3721147 18.3508505,10.7703851 18.5814683,12 L21.1020587,12 L22,4 Z" id="Combined-Shape"></path>
            </g>
        </g>
    </g>
</svg>