<?xml version="1.0" encoding="UTF-8"?>
<svg width="22px" height="15px" viewBox="0 0 22 15" version="1.1" xmlns="http://www.w3.org/2000/svg" xmlns:xlink="http://www.w3.org/1999/xlink">
    <!-- Generator: Sketch 53.2 (72643) - https://sketchapp.com -->
    <title>形状</title>
    <desc>Created with Sketch.</desc>
    <g id="页面-1" stroke="none" stroke-width="1" fill="none" fill-rule="evenodd">
        <g id="返回顶部按钮" transform="translate(-106.000000, -141.000000)">
            <g id="分组-75" transform="translate(92.000000, 124.000000)">
                <rect id="矩形-copy-36" x="0" y="0" width="50" height="50" rx="3"></rect>
                <g id="返回顶部" transform="translate(14.000000, 18.000000)" fill="#FFFFFF" fill-rule="nonzero">
                    <path d="M0.623594925,11.9209641 C0.149906727,12.3722625 0.149906727,13.1038627 0.623637572,13.5551408 C1.09732577,14.0064188 1.86543249,14.0064188 2.33907804,13.5551814 L2.33912068,13.5551408 L10.0088862,6.24894981 C10.5102101,5.77136616 11.3230756,5.77136616 11.8244422,6.24894981 L19.4952952,13.556258 C19.9690474,14.0075564 20.7370901,14.0075564 21.2107996,13.5562986 C21.6845518,13.1050206 21.6845518,12.3733594 21.2107996,11.9220813 L21.2107996,11.9220813 C21.210383,11.9217344 21.2099777,11.9213753 21.2095842,11.9210047 L13.3372847,4.42183838 C12.000364,3.14828198 9.83275112,3.14828198 8.49578782,4.42183838 L0.623658896,11.9209641 L0.623594924,11.9209641 L0.623594925,11.9209641 Z M20.6215788,2.03132003e-05 L20.6215361,2.03132003e-05 L20.6215361,0 L1.21290108,0 L1.21290108,4.06264006e-05 C0.542969415,8.12528012e-05 0,0.517397525 0,1.15557734 C0,1.79369621 0.542969415,2.31107343 1.21290108,2.31111405 L20.6216001,2.31111405 C21.2915104,2.31111405 21.8345865,1.79373684 21.8345865,1.15557734 C21.8345651,0.517336585 21.2915104,4.06264006e-05 20.6215788,4.06264006e-05 L20.6215788,2.03132003e-05 Z" id="形状"></path>
                </g>
            </g>
        </g>
    </g>
</svg>