<?xml version="1.0" encoding="UTF-8"?>
<svg width="44px" height="45px" viewBox="0 0 44 45" version="1.1" xmlns="http://www.w3.org/2000/svg" xmlns:xlink="http://www.w3.org/1999/xlink">
    <!-- Generator: Sketch 57.1 (83088) - https://sketch.com -->
    <title>VIDEO</title>
    <desc>Created with Sketch.</desc>
    <g id="发布界面调整" stroke="none" stroke-width="1" fill="none" fill-rule="evenodd">
        <g id="发布作品--交互方式" transform="translate(-1358.000000, -432.000000)" fill-rule="nonzero">
            <g id="编组-3" transform="translate(1250.000000, 347.000000)">
                <g id="VIDEO" transform="translate(108.000000, 85.000000)">
                    <path d="M-9.9475983e-14,21.9391915 L-9.9475983e-14,21.9391885 C-9.9475983e-14,34.0558745 9.82250194,43.8783764 21.9391879,43.8783764 C34.0558739,43.8783764 43.8783758,34.0558745 43.8783758,21.9391885 C43.8783758,21.9391882 43.8783758,21.9391882 43.8783758,21.9391879 L43.8783758,21.9391879 C43.8783758,9.82250194 34.0558739,4.19220214e-13 21.9391879,4.19220214e-13 C9.82250194,4.19220214e-13 -9.9475983e-14,9.82250194 -9.9475983e-14,21.9391879 L-9.9475983e-14,21.9391915 Z" id="路径-copy-2" fill="#000000"></path>
                    <path d="M19.7620693,14.4603737 L30.9030075,20.8909615 C32.0453208,21.6032265 32.0453208,23.1755936 30.9030075,23.7467502 L19.7620693,30.1773381 C18.619756,30.889603 17.1884972,30.0362286 17.1884972,28.7460848 L17.1884972,15.8849643 C17.1884972,14.6015372 18.6197505,13.748164 19.7620693,14.4604289 L19.7620693,14.4603737 Z" id="路径-copy" fill="#FFFFFF"></path>
                </g>
            </g>
        </g>
    </g>
</svg>