<?xml version="1.0" encoding="UTF-8"?>
<svg width="30px" height="24px" viewBox="0 0 30 24" version="1.1" xmlns="http://www.w3.org/2000/svg" xmlns:xlink="http://www.w3.org/1999/xlink">
    <!-- Generator: Sketch 53.2 (72643) - https://sketchapp.com -->
    <title>VIDEO</title>
    <desc>Created with Sketch.</desc>
    <defs>
        <path d="M8,6 L22,6 C23.1045695,6 24,6.8954305 24,8 L24,16 C24,17.1045695 23.1045695,18 22,18 L8,18 C6.8954305,18 6,17.1045695 6,16 L6,8 C6,6.8954305 6.8954305,6 8,6 Z M18.4343806,10.6531756 L18.4343806,9.01148247 C18.4312543,8.94984955 18.4312543,8.88459784 18.4218754,8.82296493 C18.3593771,8.351663 18.0062574,8 17.5937518,8 L10.3375025,8 C10.1156251,8 9.92187755,8.09063997 9.75937915,8.26828492 C9.58125618,8.46404814 9.5,8.71057979 9.5,8.99698299 L9.5,14.9812718 C9.5,15.0755306 9.50312631,15.1661625 9.52500351,15.2567944 C9.62187729,15.706343 9.95000039,16 10.3562534,16 L17.5843799,16 C17.6343799,16 17.68438,15.9963731 17.73438,15.9854924 C18.140633,15.9057412 18.4312543,15.5069529 18.4312543,15.0247703 L18.4312543,13.4084574 C18.4312543,13.390331 18.4250087,13.3722046 18.4374999,13.3540782 C18.5343807,13.4157111 18.6312545,13.4809629 18.7250089,13.5425958 C19.1968795,13.8543791 19.6718765,14.1661625 20.1437541,14.4815727 C20.1937541,14.5141986 20.2437541,14.5395788 20.3031331,14.5286981 C20.4343824,14.5069448 20.5,14.4090672 20.5,14.2422949 L20.5,9.75770513 C20.5,9.72145238 20.4968807,9.68157273 20.4875087,9.64531998 C20.4437543,9.48580141 20.2968805,9.4205497 20.1656313,9.50755468 C19.7781292,9.76133202 19.3906341,10.0187363 19.003132,10.2761324 C18.8156301,10.3993982 18.6281282,10.522664 18.4343806,10.6531756 Z" id="path-1"></path>
        <filter x="-50.0%" y="-75.0%" width="200.0%" height="250.0%" filterUnits="objectBoundingBox" id="filter-2">
            <feOffset dx="0" dy="0" in="SourceAlpha" result="shadowOffsetOuter1"></feOffset>
            <feGaussianBlur stdDeviation="3" in="shadowOffsetOuter1" result="shadowBlurOuter1"></feGaussianBlur>
            <feColorMatrix values="0 0 0 0 0   0 0 0 0 0   0 0 0 0 0  0 0 0 0.5 0" type="matrix" in="shadowBlurOuter1"></feColorMatrix>
        </filter>
    </defs>
    <g id="Page-1" stroke="none" stroke-width="1" fill="none" fill-rule="evenodd" opacity="0.5">
        <g id="02--下拉框-" transform="translate(-1402.000000, -752.000000)">
            <g id="VIDEO" transform="translate(1402.000000, 752.000000)">
                <g id="合并形状">
                    <use fill="black" fill-opacity="1" filter="url(#filter-2)" xlink:href="#path-1"></use>
                    <use fill="#FFFFFF" fill-rule="evenodd" xlink:href="#path-1"></use>
                </g>
            </g>
        </g>
    </g>
</svg>