<?xml version="1.0" encoding="UTF-8"?>
<svg width="24px" height="22px" viewBox="0 0 24 22" version="1.1" xmlns="http://www.w3.org/2000/svg" xmlns:xlink="http://www.w3.org/1999/xlink">
    <!-- Generator: Sketch 53.2 (72643) - https://sketchapp.com -->
    <title>zuopin_icon_daxihuan copy</title>
    <desc>Created with Sketch.</desc>
    <g id="Page-1" stroke="none" stroke-width="1" fill="none" fill-rule="evenodd">
        <g id="02-作品详情-修改-5.29" transform="translate(-951.000000, -1393.000000)">
            <rect fill="#F9F9F9" x="0" y="0" width="1920" height="4630"></rect>
            <rect id="Rectangle-31" fill="#FFFFFF" x="0" y="141" width="1925" height="1263"></rect>
            <g id="分组-33" transform="translate(0.000000, 1290.000000)">
                <polygon id="Rectangle-22-Copy" fill="#000000" points="0 0 1920 0 1920 255 0 255"></polygon>
                <g id="分组-32" transform="translate(925.000000, 76.000000)">
                    <g id="分组-31">
                        <g id="Group-20-Copy-3">
                            <circle id="Oval-6" fill="#FF0050" cx="37.5" cy="37.5" r="37.5"></circle>
                            <path d="M49.2589684,31.5084472 C48.8892529,30.6243822 48.3595113,29.8341248 47.689057,29.1547308 C47.0186028,28.4781794 46.2405448,27.949446 45.3714374,27.5770585 C44.4747393,27.1933004 43.5256189,27 42.5461487,27 C41.1859267,27 39.8588136,27.3837581 38.7055219,28.1086346 C38.4296148,28.2820364 38.167503,28.4724941 37.9191867,28.6800078 C37.6708703,28.4724941 37.4087585,28.2820364 37.1328514,28.1086346 C35.9795598,27.3837581 34.6524466,27 33.2922246,27 C32.3127544,27 31.363634,27.1933004 30.4669359,27.5770585 C29.6005876,27.9466034 28.8197705,28.4781794 28.1493163,29.1547308 C27.476103,29.8341248 26.9491204,30.6243822 26.5794049,31.5084472 C26.195894,32.426624 26,33.4016539 26,34.4051103 C26,35.3517137 26.1876168,36.3381142 26.5600914,37.3415706 C26.8718664,38.1801531 27.3188359,39.0500048 27.8899636,39.9283845 C28.7949389,41.3184417 30.0392799,42.7681946 31.5843597,44.237846 C34.1447775,46.6739994 36.6803638,48.3568498 36.7879676,48.4250735 L37.4418674,48.8571567 C37.7315698,49.0476144 38.1040444,49.0476144 38.3937469,48.8571567 L39.0476467,48.4250735 C39.1552505,48.3540072 41.6880776,46.6739994 44.2512546,44.237846 C45.7963343,42.7681946 47.0406753,41.3184417 47.9456506,39.9283845 C48.5167783,39.0500048 48.9665069,38.1801531 49.2755228,37.3415706 C49.6479974,36.3381142 49.8356142,35.3517137 49.8356142,34.4051103 C49.8383733,33.4016539 49.6424793,32.426624 49.2589684,31.5084472 Z" id="zuopin_icon_daxihuan" fill="#FFFFFF" fill-rule="nonzero"></path>
                        </g>
                    </g>
                </g>
            </g>
        </g>
    </g>
</svg>