<?xml version="1.0" encoding="UTF-8"?>
<svg width="58px" height="16px" viewBox="0 0 58 16" version="1.1" xmlns="http://www.w3.org/2000/svg" xmlns:xlink="http://www.w3.org/1999/xlink">
    <!-- Generator: Sketch 59.1 (86144) - https://sketch.com -->
    <title>高级版</title>
    <desc>Created with Sketch.</desc>
    <g id="Page-1" stroke="none" stroke-width="1" fill="none" fill-rule="evenodd">
        <g id="标识" transform="translate(-171.000000, -87.000000)">
            <g id="高级版" transform="translate(171.000000, 87.000000)">
                <rect id="矩形" fill="#FF5600" opacity="0.5" x="0" y="0" width="57.1428571" height="16" rx="2.28571429"></rect>
                <path d="M24.8628571,2.02285714 L23.96,2.18285714 C24.0971429,2.44571429 24.2342857,2.73142857 24.3485714,3.05142857 L19.6628571,3.05142857 L19.6628571,3.80571429 L29.7542857,3.80571429 L29.7542857,3.05142857 L25.2285714,3.05142857 C25.1142857,2.67428571 24.9885714,2.33142857 24.8628571,2.02285714 Z M27.9257143,12.5371429 C28.76,12.5371429 29.1828571,12.1714286 29.1828571,11.4514286 L29.1828571,7.45142857 L20.2457143,7.45142857 L20.2457143,12.5714286 L21.0342857,12.5714286 L21.0342857,8.17142857 L28.3942857,8.17142857 L28.3942857,11.28 C28.3942857,11.6457143 28.1542857,11.8285714 27.6857143,11.8285714 L26.7714286,11.7942857 L26.9657143,12.5371429 L27.9257143,12.5371429 Z M21.5257143,4.54857143 L21.5257143,6.76571429 L27.9142857,6.76571429 L27.9142857,4.54857143 L21.5257143,4.54857143 Z M27.1142857,6.12571429 L22.3257143,6.12571429 L22.3257143,5.18857143 L27.1142857,5.18857143 L27.1142857,6.12571429 Z M22.4742857,8.90285714 L22.4742857,11.1885714 L26.9657143,11.1885714 L26.9657143,8.90285714 L22.4742857,8.90285714 Z M26.2342857,10.5714286 L23.2171429,10.5714286 L23.2171429,9.52 L26.2342857,9.52 L26.2342857,10.5714286 Z M34.4057143,10.16 C33.4,10.56 32.2228571,10.88 30.8857143,11.12 L30.9885714,11.92 C32.2685714,11.68 33.4,11.3485714 34.4057143,10.9371429 L34.4057143,10.16 Z M33.0114286,2.08 C32.5314286,3.38285714 31.96,4.54857143 31.3085714,5.56571429 C31.2057143,5.71428571 31.0914286,5.81714286 30.9657143,5.86285714 L31.1714286,6.61714286 C31.8342857,6.53714286 32.4971429,6.44571429 33.16,6.34285714 C32.52,7.37142857 31.9714286,8.09142857 31.5142857,8.52571429 C31.4114286,8.61714286 31.2857143,8.69714286 31.1371429,8.75428571 L31.3542857,9.49714286 C32.4628571,9.36 33.6285714,9.12 34.84,8.75428571 L34.84,8.01142857 C34.0171429,8.26285714 33.1828571,8.46857143 32.36,8.61714286 C33.0685714,7.82857143 33.9485714,6.50285714 35.0228571,4.65142857 L34.3028571,4.38857143 L33.6171429,5.6 L33.6171429,5.6 C33.0685714,5.69142857 32.52,5.76 31.9714286,5.81714286 C32.5885714,4.97142857 33.1942857,3.82857143 33.7885714,2.38857143 L33.0114286,2.08 Z M36.1314286,3.33714286 L36.1314286,3.95428571 C36.1085714,7.64571429 35.3542857,10.32 33.8685714,11.9885714 L34.4742857,12.5257143 C35.6285714,11.2228571 36.3828571,9.36 36.7257143,6.94857143 C37.08,8.11428571 37.6057143,9.16571429 38.2914286,10.0914286 C37.64,10.7771429 36.8285714,11.36 35.8685714,11.8285714 L36.3257143,12.5828571 C37.3085714,12.1028571 38.1542857,11.5085714 38.84,10.7771429 C39.4114286,11.44 40.1085714,12.0342857 40.9085714,12.56 L41.4228571,11.8742857 C40.6228571,11.3714286 39.9257143,10.8114286 39.3314286,10.1714286 C40.1542857,9.08571429 40.68,7.74857143 40.92,6.17142857 L40.92,5.71428571 L39.4685714,5.71428571 C39.6514286,4.98285714 39.8342857,4.10285714 40.0171429,3.07428571 L40.0171429,2.56 L35,2.56 L35,3.33714286 L36.1314286,3.33714286 Z M38.7714286,9.52 C37.8114286,8.29714286 37.1828571,6.84571429 36.8971429,5.17714286 C36.92,4.78857143 36.9314286,4.37714286 36.9314286,3.95428571 L36.9314286,3.33714286 L39.1714286,3.33714286 L39.0532804,3.98957672 C38.8593651,5.03111111 38.68,5.84380952 38.5085714,6.43428571 L40.0971429,6.43428571 C39.8685714,7.61142857 39.4342857,8.64 38.7714286,9.52 Z M45.1714286,2.21714286 L45.1714286,5.24571429 L43.9485714,5.24571429 L43.9485714,2.44571429 L43.1371429,2.44571429 L43.1371429,6.64 C43.1257143,9.01714286 42.8514286,10.7542857 42.3257143,11.84 L42.9428571,12.3885714 C43.4342857,11.4742857 43.7428571,10.1714286 43.88,8.45714286 L45.3085714,8.45714286 L45.3085714,12.5257143 L46.12,12.5257143 L46.12,7.66857143 L43.9257143,7.66857143 L43.9451852,6.99047619 C43.9473016,6.87492063 43.9485714,6.75809524 43.9485714,6.64 L43.9485714,6.05714286 L46.6457143,6.05714286 L46.6457143,5.24571429 L45.9714286,5.24571429 L45.9714286,2.21714286 L45.1714286,2.21714286 Z M48.0514286,6.18285714 L48.4285714,6.18285714 C48.6914286,7.71428571 49.1485714,9.01714286 49.8,10.08 C49.2057143,10.7885714 48.4857143,11.3828571 47.6285714,11.8514286 L48.0285714,12.5828571 C48.8971429,12.1142857 49.6514286,11.5085714 50.28,10.7771429 C50.8514286,11.5314286 51.5714286,12.1257143 52.4285714,12.5714286 L52.84,11.8514286 C52.0285714,11.44 51.3428571,10.8685714 50.7828571,10.1142857 C51.5142857,9.02857143 52.0171429,7.69142857 52.28,6.10285714 L52.28,5.40571429 L48.0514286,5.40571429 L48.0514286,3.61142857 C49.7085714,3.54285714 51.2171429,3.31428571 52.5657143,2.92571429 L52.1542857,2.18285714 C50.7142857,2.64 49.0914286,2.88 47.2971429,2.90285714 L47.2971429,7.44 C47.2514286,9.33714286 46.9428571,10.8342857 46.3714286,11.9085714 L46.9428571,12.5142857 C47.6285714,11.2571429 48.0057143,9.56571429 48.0514286,7.44 L48.0514286,6.18285714 Z M49.1714286,6.18285714 L51.48,6.18285714 C51.2742857,7.39428571 50.8742857,8.46857143 50.3028571,9.38285714 C49.8,8.49142857 49.4228571,7.42857143 49.1714286,6.18285714 Z" fill="#DC1B00" fill-rule="nonzero"></path>
                <path d="M2.28571429,0 L16,0 L16,0 L16,16 L2.28571429,16 C1.02334914,16 5.98684353e-16,14.9766509 0,13.7142857 L0,2.28571429 C-1.54595143e-16,1.02334914 1.02334914,6.75981925e-16 2.28571429,0 Z" id="矩形备份-2" fill="#FF5600"></path>
                <polygon id="路径" fill="#FFE14E" fill-rule="nonzero" points="10.8165645 4.79668777 7.29553432 8.51394204 7.29553432 4.79668777 4.94726392 4.79668777 4.94726392 6.16567164 6.12094065 6.16567164 6.12002372 11.2033122 6.75821044 11.2033122 13.163001 4.79668777"></polygon>
            </g>
        </g>
    </g>
</svg>