<?xml version="1.0" encoding="UTF-8"?>
<svg width="76px" height="17px" viewBox="0 0 76 17" version="1.1" xmlns="http://www.w3.org/2000/svg" xmlns:xlink="http://www.w3.org/1999/xlink">
    <!-- Generator: Sketch 59.1 (86144) - https://sketch.com -->
    <title>金牌个人</title>
    <desc>Created with Sketch.</desc>
    <g id="Page-1" stroke="none" stroke-width="1" fill="none" fill-rule="evenodd">
        <g id="标识" transform="translate(-556.000000, -41.000000)">
            <g id="金牌个人" transform="translate(556.000000, 41.820629)">
                <path d="M17.3355997,7.27595761e-12 L73.3355997,7.27595761e-12 C74.4401692,7.27575471e-12 75.3355997,0.8954305 75.3355997,2 L75.3355997,14 C75.3355997,15.1045695 74.4401692,16 73.3355997,16 L17.3355997,16 L17.3355997,16 L17.3355997,7.27595761e-12 Z" id="矩形" fill="#FFCF3F"></path>
                <text font-family="PingFangSC-Regular, PingFang SC" font-size="12" font-weight="normal" line-spacing="12" fill="#9D4800">
                    <tspan x="22.7355997" y="15">金牌个人</tspan>
                </text>
                <path d="M2,3.63797881e-12 L17.5196243,3.63797881e-12 L17.5196243,3.63797881e-12 L20,7.99892948 L17.5196243,15.997859 L2,15.997859 C0.8954305,15.997859 1.3527075e-16,15.1024285 0,13.997859 L0,2 C-1.3527075e-16,0.8954305 0.8954305,3.63729353e-12 2,3.63797881e-12 Z" id="矩形" fill="#FFE391"></path>
                <path d="M9.99982393,9.68716763 C10.0305381,9.68716763 10.0606654,9.68971084 10.0911839,9.69264531 C10.1209199,9.69557978 10.150069,9.69870989 10.1792181,9.70418757 C10.2093453,9.71005652 10.2386901,9.71846868 10.2684261,9.7272721 C10.2981621,9.73607552 10.3271156,9.7452702 10.3558734,9.7570081 C10.3824793,9.76796347 10.4084983,9.78107078 10.4345173,9.79456936 C10.4646446,9.81021989 10.4941849,9.82684857 10.5227471,9.84602046 C10.5335069,9.8530632 10.5450491,9.85756273 10.5554176,9.86499673 L10.5554176,9.86499673 L10.5920007,9.8976672 C10.6176284,9.91840415 10.642278,9.93992362 10.6659494,9.96359504 C10.6896209,9.98726646 10.7111403,10.011916 10.7318773,10.0375438 C10.7420501,10.0504555 10.7545705,10.0606283 10.7645478,10.0741269 L10.7645478,10.0741269 L12.4307419,12.3675158 C12.7374922,12.7896888 12.6437847,13.3804961 12.2216117,13.6874421 C11.7994388,13.9941924 11.2084358,13.9004848 10.9018811,13.4783119 L10.9018811,13.4783119 L9.99982393,12.2370296 L9.09815801,13.4783119 C8.7914077,13.9004848 8.20040471,13.9941924 7.77823178,13.6874421 C7.35605884,13.3804961 7.26254695,12.7896888 7.56929725,12.3675158 L7.56929725,12.3675158 L9.23549137,10.0741269 C9.24527295,10.0606283 9.25759774,10.0504555 9.26816184,10.0375438 C9.28889879,10.011916 9.31041826,9.98726646 9.33408968,9.96359504 C9.35776111,9.93992362 9.38241068,9.91840415 9.40803842,9.8976672 C9.42075447,9.88729873 9.43092731,9.87477831 9.44462152,9.86499673 C9.45479437,9.85756273 9.46653226,9.8530632 9.47709637,9.84602046 C9.50565858,9.82684857 9.53500331,9.81021989 9.56552184,9.79456936 C9.5913452,9.78107078 9.6173642,9.76796347 9.64416573,9.7570081 C9.67292357,9.7452702 9.70187704,9.73607552 9.73141741,9.7272721 C9.76134904,9.71846868 9.79049815,9.71005652 9.82062541,9.70418757 C9.84997015,9.69870989 9.87911925,9.69557978 9.90865962,9.69264531 C9.93917814,9.68971084 9.96930541,9.68716763 9.99982393,9.68716763 Z M14.8854095,7.05191251 C15.3817268,6.89071209 15.9146272,7.16244434 16.0762189,7.65856602 C16.2374193,8.15507895 15.965687,8.68817499 15.4693697,8.84937541 L15.4693697,8.84937541 L14.0101538,9.32358634 L14.9120154,10.5646731 C15.2187657,10.986846 15.1250582,11.577849 14.7028852,11.8845993 L14.7028852,11.8845993 L14.60267,11.9483119 C14.1914719,12.1749895 13.6661282,12.0651672 13.3831546,11.6754691 L13.3831546,11.6754691 L11.7167649,9.38208019 C11.7163736,9.38168892 11.716178,9.38110203 11.7157867,9.38051513 C11.6807687,9.3319985 11.6502501,9.27956924 11.6244268,9.22342298 L11.6244268,9.22342298 L11.6191447,9.21344577 C11.6056461,9.18273161 11.5931257,9.15123493 11.5825616,9.11876009 C11.5757145,9.09704498 11.5704325,9.07552551 11.5651504,9.0538104 C11.5633897,9.04735456 11.5612378,9.04089872 11.5598684,9.03444288 C11.5473479,8.97947041 11.5406965,8.9243023 11.5381533,8.86952546 C11.537762,8.86443904 11.5371751,8.85954825 11.5371751,8.85446183 C11.53561,8.79831557 11.539327,8.74256057 11.5473479,8.68797936 C11.5481305,8.68308857 11.5485217,8.67819778 11.5494999,8.67330699 C11.5583033,8.61931268 11.5721931,8.56649215 11.5901913,8.51523668 C11.5925388,8.50878084 11.5942995,8.50252063 11.5966471,8.49626042 C11.6156234,8.4459831 11.6389035,8.3976621 11.6659007,8.35129742 C11.6696177,8.34484158 11.673139,8.33819011 11.6770517,8.33153863 C11.7062008,8.28439142 11.7396538,8.23998306 11.7766281,8.19850916 C11.7803451,8.19420527 11.7834752,8.18990137 11.7873879,8.18579311 C11.8282749,8.14158037 11.8734658,8.10108464 11.9229606,8.0648928 C11.9241343,8.06411027 11.9249169,8.06293648 11.925895,8.06215395 L11.9267265,8.06168933 L12.0032673,8.01204782 L12.0032673,8.01204782 L12.0845522,7.96962022 C12.0880736,7.96805517 12.0910081,7.96629448 12.0945294,7.96472943 C12.125048,7.95103522 12.1565447,7.93871043 12.1892151,7.92795069 L12.1892151,7.92795069 Z M3.92378112,7.65858558 C4.08517717,7.16246391 4.61827321,6.89073165 5.11459051,7.05193207 L5.11459051,7.05193207 L7.81078487,7.92797026 C7.84345534,7.93853436 7.87495203,7.95105478 7.90547055,7.96474899 C7.90879629,7.96631405 7.91192639,7.96807473 7.91525213,7.96963978 C7.97139839,7.99546315 8.02382765,8.02617731 8.07253992,8.06139099 L8.07253992,8.06139099 C8.07508313,8.06295604 8.07586565,8.0639342 8.07684381,8.06471673 C8.1263386,8.1011042 8.17172512,8.14159994 8.21261212,8.18581267 C8.21632912,8.18992094 8.21965486,8.19422483 8.22337186,8.19833309 C8.26034623,8.24000262 8.29379923,8.28441099 8.32294833,8.3315582 C8.32686096,8.33801404 8.33038233,8.34486114 8.33409933,8.35151262 C8.36109649,8.3978773 8.38437664,8.44600267 8.40335291,8.49627998 C8.40570049,8.50254019 8.40746117,8.5088004 8.40961312,8.51506061 C8.42780685,8.56631608 8.44150106,8.61913661 8.45050012,8.67332656 C8.45128264,8.67821734 8.45186954,8.68310813 8.45265206,8.68799892 C8.46067296,8.74258013 8.46438996,8.7981395 8.46282491,8.85428576 C8.46262927,8.85937218 8.46204238,8.86465424 8.46184675,8.86974066 C8.45930354,8.92432187 8.45265206,8.97948997 8.43993601,9.03446244 C8.43876222,9.04091828 8.43641464,9.04717849 8.43484959,9.05382997 C8.42956754,9.07534944 8.42428549,9.09706455 8.41724275,9.11877965 C8.40667864,9.15125449 8.39435385,9.18275117 8.38065964,9.21346533 C8.37909459,9.21679107 8.37713828,9.22011681 8.37557322,9.22344254 C8.34974986,9.27939317 8.3190357,9.33201807 8.28401765,9.3805347 C8.28382202,9.38092596 8.28362638,9.38151285 8.28323512,9.38209975 L8.28323512,9.38209975 L6.61684537,11.6754887 C6.31009506,12.0976616 5.71909208,12.1913692 5.29691914,11.8846188 C4.8747462,11.5778685 4.78103868,10.9868656 5.08798462,10.5646926 L5.08798462,10.5646926 L5.98965054,9.32360591 L4.53063026,8.84939497 C4.03431296,8.68799892 3.7625807,8.15490288 3.92378112,7.65858558 Z M9.99990218,7.28686603 C10.4050552,7.28686603 10.7335206,7.61533144 10.7335206,8.02048443 C10.7335206,8.42563742 10.4050552,8.75410283 9.99990218,8.75410283 C9.59494483,8.75410283 9.26628378,8.42563742 9.26628378,8.02048443 C9.26628378,7.61533144 9.59494483,7.28686603 9.99990218,7.28686603 Z M11.5333603,2.12991991 C12.0553053,2.12991991 12.4784564,2.55307101 12.4784564,3.07501605 L12.4784564,3.07501605 L12.4784564,4.60915885 L13.9374767,4.13514355 C14.4339896,3.9737475 14.96689,4.24547976 15.1282861,4.74179706 C15.2896821,5.23811437 15.0179499,5.7712104 14.5216326,5.93241082 L14.5216326,5.93241082 L11.8256339,6.80844901 C11.7929634,6.81901312 11.7602929,6.82742527 11.7274268,6.83446801 L11.7274268,6.83446801 L11.7160802,6.83622869 C11.65563,6.84816222 11.5951799,6.85442243 11.5353166,6.85461806 L11.5353166,6.85461806 C11.4684106,6.85403117 11.4079604,6.84796659 11.3488797,6.83603306 L11.3488797,6.83603306 L11.3326423,6.83231606 C11.2782567,6.82038254 11.2250449,6.80414512 11.1737894,6.78301691 C11.1667467,6.78008243 11.1600952,6.7767567 11.1532481,6.77362659 C11.1041446,6.75210712 11.0568018,6.72667501 11.0120021,6.69693901 L11.0120021,6.69693901 L10.9957647,6.68559238 C10.9511607,6.65468259 10.9087087,6.62005581 10.869778,6.58151639 L10.869778,6.58151639 L10.8596051,6.57095228 C10.8208701,6.5314347 10.7850695,6.48878702 10.7533772,6.4422267 C10.7504427,6.43811844 10.7480951,6.43361892 10.7451607,6.42931502 C10.715229,6.38353723 10.6882319,6.3350206 10.6659299,6.28317823 C10.663191,6.27711366 10.6612347,6.27085345 10.6588871,6.26459324 C10.650475,6.24385629 10.6418672,6.22331497 10.6348245,6.2017955 C10.6242604,6.16912503 10.6158482,6.13645455 10.6088055,6.10358845 C10.6080229,6.09987145 10.6078273,6.09615445 10.6070448,6.09243745 C10.5949156,6.03179166 10.588851,5.97134151 10.5886554,5.91147824 L10.5886554,5.91147824 L10.5884598,3.07501605 C10.5884598,2.55307101 11.0116109,2.12991991 11.5333603,2.12991991 Z M8.46644409,2.1299786 C8.98838913,2.1299786 9.41134459,2.55293407 9.41134459,3.07487911 L9.41134459,3.07487911 L9.41134459,5.90977625 C9.41134459,5.91036314 9.41114896,5.91095004 9.41114896,5.91153693 C9.41114896,5.97140019 9.40488875,6.03185035 9.39295523,6.09230051 C9.3921727,6.09601751 9.39178144,6.09993014 9.39099891,6.10364714 C9.3841518,6.13631761 9.37573965,6.16918372 9.36497991,6.20165856 C9.35813281,6.22337366 9.34952502,6.24391498 9.34111286,6.26445629 C9.33876528,6.2707165 9.33661333,6.27717235 9.33387449,6.28323692 C9.31176812,6.33507929 9.28477096,6.38359592 9.25483933,6.42917808 C9.25190486,6.43348197 9.24955728,6.4379815 9.24642718,6.44228539 C9.21493049,6.48884571 9.17912991,6.53149339 9.14039486,6.57101097 C9.13687349,6.57433671 9.13374339,6.57805371 9.13022202,6.58157507 C9.09109571,6.62011449 9.04883929,6.65454565 9.00423529,6.68545544 L9.00423529,6.68545544 L8.98799787,6.6969977 C8.94319824,6.72653807 8.8958554,6.75197018 8.84675187,6.77368528 C8.83990477,6.77661975 8.83325329,6.77994549 8.82601492,6.7830756 C8.77495508,6.80400817 8.72174329,6.8202456 8.66735772,6.83217912 C8.66188003,6.83335291 8.65659798,6.83491796 8.6511203,6.83609175 C8.59203956,6.84802528 8.5315894,6.85408986 8.47016109,6.85428549 L8.47016109,6.85428549 C8.40462451,6.85428549 8.34436999,6.84822091 8.28391983,6.83628738 C8.2800072,6.83550486 8.2762902,6.83530923 8.2725732,6.83433107 C8.2397071,6.82748396 8.20703662,6.81907181 8.17436615,6.80831207 L8.17436615,6.80831207 L5.47836743,5.93246951 C4.98205012,5.77126909 4.71031787,5.23817305 4.87171391,4.74166012 C5.03291433,4.24534282 5.56601037,3.97380619 6.06252331,4.13500661 L6.06252331,4.13500661 L7.52154359,4.60921754 L7.52154359,3.07487911 C7.52154359,2.55293407 7.94469468,2.1299786 8.46644409,2.1299786 Z" id="形状结合" fill="#9D4800" fill-rule="nonzero"></path>
            </g>
        </g>
    </g>
</svg>