<?xml version="1.0" encoding="UTF-8"?>
<svg width="48px" height="16px" viewBox="0 0 48 16" version="1.1" xmlns="http://www.w3.org/2000/svg" xmlns:xlink="http://www.w3.org/1999/xlink">
    <!-- Generator: Sketch 59.1 (86144) - https://sketch.com -->
    <title>品牌主</title>
    <desc>Created with Sketch.</desc>
    <g id="页面-1" stroke="none" stroke-width="1" fill="none" fill-rule="evenodd">
        <g id="梅花网创作者标识设计规范" transform="translate(-289.000000, -250.000000)">
            <g id="品牌主" transform="translate(289.000000, 250.000000)">
                <rect id="Rectangle-Copy-2备份" fill="#FFD4CD" x="0" y="0" width="48" height="16" rx="2"></rect>
                <path d="M8.688,3.002 L8.688,6.926 L15.3,6.926 L15.3,3.002 L8.688,3.002 Z M14.436,6.11 L9.552,6.11 L9.552,3.818 L14.436,3.818 L14.436,6.11 Z M11.316,8.114 L7.092,8.114 L7.092,13.322 L7.944,13.322 L7.944,12.71 L10.476,12.71 L10.476,13.322 L11.316,13.322 L11.316,8.114 Z M7.944,11.894 L7.944,8.942 L10.476,8.942 L10.476,11.894 L7.944,11.894 Z M16.896,8.114 L12.552,8.114 L12.552,13.322 L13.404,13.322 L13.404,12.71 L16.032,12.71 L16.032,13.322 L16.896,13.322 L16.896,8.114 Z M13.404,11.894 L13.404,8.942 L16.032,8.942 L16.032,11.894 L13.404,11.894 Z M21.36,2.63 L21.36,5.834 L20.088,5.834 L20.088,2.87 L19.26,2.87 L19.26,7.238 C19.248,9.902 18.948,11.846 18.372,13.046 L19.008,13.598 C19.548,12.578 19.884,11.102 20.028,9.17 L21.48,9.17 L21.48,13.334 L22.32,13.334 L22.32,8.366 L20.064,8.366 L20.0844444,7.62644444 C20.0866667,7.49933333 20.088,7.37 20.088,7.238 L20.088,6.638 L22.86,6.638 L22.86,5.834 L22.188,5.834 L22.188,2.63 L21.36,2.63 Z M23.424,3.566 L23.424,8.642 L25.2,8.642 C24.888,9.122 24.396,9.506 23.712,9.818 L24.06,10.37 L22.872,10.37 L22.872,11.198 L26.544,11.198 L26.544,13.466 L27.384,13.466 L27.384,11.198 L29.46,11.198 L29.46,10.37 L27.384,10.37 L27.384,9.122 L26.544,9.122 L26.544,10.37 L24.204,10.37 C24.996,10.022 25.572,9.542 25.932,8.93 L26.076,8.642 L28.848,8.642 L28.848,3.566 L26.16,3.566 C26.316,3.23 26.436,2.882 26.532,2.51 L25.668,2.402 C25.584,2.798 25.452,3.182 25.284,3.566 L23.424,3.566 Z M28.056,7.886 L26.328,7.886 C26.424,7.466 26.496,6.986 26.52,6.458 L28.056,6.458 L28.056,7.886 Z M25.524,7.886 L24.204,7.886 L24.204,6.458 L25.74,6.458 C25.716,6.986 25.644,7.454 25.524,7.886 Z M24.204,5.726 L24.204,4.334 L25.752,4.334 L25.752,5.726 L24.204,5.726 Z M26.532,4.334 L28.056,4.334 L28.056,5.726 L26.532,5.726 L26.532,4.334 Z M35.568,5.39 L31.104,5.39 L31.104,4.538 L35.64,4.538 C35.436,3.902 35.184,3.29 34.896,2.702 L35.736,2.474 C36.036,3.158 36.264,3.782 36.432,4.358 L35.964,4.538 L40.908,4.538 L40.908,5.39 L36.444,5.39 L36.444,8.222 L40.332,8.222 L40.332,9.026 L36.444,9.026 L36.444,12.242 L41.328,12.242 L41.328,13.094 L30.684,13.094 L30.684,12.242 L35.568,12.242 L35.568,9.026 L31.68,9.026 L31.68,8.222 L35.568,8.222 L35.568,5.39 Z" fill="#E04025" fill-rule="nonzero"></path>
            </g>
        </g>
    </g>
</svg>