<?xml version="1.0" encoding="UTF-8"?>
<svg width="36px" height="16px" viewBox="0 0 36 16" version="1.1" xmlns="http://www.w3.org/2000/svg" xmlns:xlink="http://www.w3.org/1999/xlink">
    <!-- Generator: Sketch 59.1 (86144) - https://sketch.com -->
    <title>编辑</title>
    <desc>Created with Sketch.</desc>
    <g id="页面-1" stroke="none" stroke-width="1" fill="none" fill-rule="evenodd">
        <g id="梅花网创作者标识设计规范" transform="translate(-190.000000, -250.000000)">
            <g id="编辑" transform="translate(190.000000, 250.000000)">
                <rect id="Rectangle-Copy备份" fill="#D0E8F7" x="0" y="0" width="36" height="16" rx="2"></rect>
                <path d="M9.624,10.976 C8.772,11.408 7.776,11.744 6.648,11.996 L6.756,12.836 C7.824,12.572 8.784,12.212 9.624,11.768 L9.624,10.976 Z M8.4,2.492 C7.968,3.884 7.44,5.108 6.84,6.188 C6.744,6.344 6.624,6.452 6.492,6.5 L6.708,7.28 C7.344,7.184 7.98,7.076 8.616,6.944 L8.31794444,7.469 C7.83433333,8.299 7.416,8.904 7.056,9.284 C6.948,9.38 6.816,9.464 6.66,9.524 L6.9,10.304 C7.884,10.16 8.904,9.908 9.984,9.548 L9.984,8.78 C9.288,9.02 8.604,9.224 7.908,9.368 C8.556,8.552 9.396,7.172 10.404,5.228 L9.648,4.952 L9.024,6.176 L9.024,6.176 C8.52,6.284 8.004,6.368 7.488,6.44 C8.064,5.54 8.64,4.328 9.204,2.804 L8.4,2.492 Z M16.248,13.484 C16.788,13.484 17.064,13.196 17.064,12.644 L17.064,7.82 L11.58,7.82 L11.58,13.532 L12.288,13.532 L12.288,10.856 L13.236,10.856 L13.236,13.316 L13.872,13.316 L13.872,10.856 L14.748,10.856 L14.748,13.316 L15.384,13.316 L15.384,10.856 L16.344,10.856 L16.344,12.476 C16.344,12.716 16.236,12.836 16.02,12.836 L15.54,12.812 L15.732,13.484 L16.248,13.484 Z M12.288,10.136 L12.288,8.564 L13.236,8.564 L13.236,10.136 L12.288,10.136 Z M13.872,8.564 L14.748,8.564 L14.748,10.136 L13.872,10.136 L13.872,8.564 Z M15.384,8.564 L16.344,8.564 L16.344,10.136 L15.384,10.136 L15.384,8.564 Z M16.224,4.496 L16.224,6.032 L11.544,6.032 L11.544,4.496 L16.224,4.496 Z M11.544,6.776 L17.016,6.776 L17.016,3.728 L14.316,3.728 C14.172,3.248 14.016,2.828 13.86,2.456 L12.96,2.6 C13.152,2.936 13.32,3.32 13.476,3.728 L10.74,3.728 L10.74,6.644 C10.728,9.224 10.248,11.324 9.288,12.956 L9.912,13.508 C10.968,11.636 11.508,9.392 11.544,6.776 Z M20.88,5.84 L20.88,7.628 L19.632,7.628 C19.932,6.872 20.22,5.996 20.484,5.012 L23.208,5.012 L23.208,4.196 L20.688,4.196 C20.796,3.692 20.904,3.176 21.012,2.624 L20.196,2.504 L20.022,3.377 C19.965,3.659 19.908,3.932 19.848,4.196 L18.612,4.196 L18.612,5.012 L19.656,5.012 C19.368,6.08 19.068,6.968 18.756,7.664 L18.948,8.408 L20.88,8.408 L20.88,10.22 C20.148,10.34 19.368,10.46 18.54,10.556 L18.648,11.384 C19.416,11.288 20.16,11.168 20.88,11.048 L20.88,13.532 L21.72,13.532 L21.72,10.88 C22.248,10.772 22.752,10.652 23.232,10.532 L23.232,9.74 C22.764,9.848 22.26,9.956 21.72,10.064 L21.72,8.408 L23.052,8.408 L23.052,7.628 L21.72,7.628 L21.72,5.84 L20.88,5.84 Z M24,2.972 L24,5.48 L28.752,5.48 L28.752,2.972 L24,2.972 Z M27.924,4.82 L24.828,4.82 L24.828,3.668 L27.924,3.668 L27.924,4.82 Z M24.096,6.98 L24.096,11.792 L22.944,11.888 L23.052,12.656 C24.732,12.512 26.28,12.344 27.72,12.128 L27.72,13.544 L28.548,13.544 L28.548,12.008 L29.556,11.828 L29.556,11.084 C29.232,11.132 28.896,11.192 28.548,11.252 L28.548,6.98 L29.436,6.98 L29.436,6.212 L23.232,6.212 L23.232,6.98 L24.096,6.98 Z M27.72,6.98 L27.72,8.036 L24.912,8.036 L24.912,6.98 L27.72,6.98 Z M24.912,11.708 L24.912,10.496 L27.72,10.496 L27.72,11.372 L26.64,11.511008 C26.0856,11.5784 25.5096,11.6432 24.912,11.708 Z M24.912,9.788 L24.912,8.744 L27.72,8.744 L27.72,9.788 L24.912,9.788 Z" fill="#168DD7" fill-rule="nonzero"></path>
            </g>
        </g>
    </g>
</svg>