<?xml version="1.0" encoding="UTF-8"?>
<svg width="36px" height="16px" viewBox="0 0 36 16" version="1.1" xmlns="http://www.w3.org/2000/svg" xmlns:xlink="http://www.w3.org/1999/xlink">
    <!-- Generator: Sketch 59.1 (86144) - https://sketch.com -->
    <title>个人</title>
    <desc>Created with Sketch.</desc>
    <g id="页面-1" stroke="none" stroke-width="1" fill="none" fill-rule="evenodd">
        <g id="梅花网创作者标识设计规范" transform="translate(-238.000000, -250.000000)">
            <g id="个人" transform="translate(238.000000, 250.000000)">
                <rect id="Rectangle备份" fill="#FFEACC" x="0" y="0" width="36" height="16" rx="2"></rect>
                <path d="M11.556,6.05 L11.556,13.49 L12.444,13.49 L12.444,6.05 L11.556,6.05 Z M11.616,2.51 C10.404,4.31 8.676,5.786 6.432,6.926 L6.948,7.706 C8.988,6.674 10.668,5.21 12,3.314 C13.104,5.042 14.796,6.482 17.052,7.658 L17.568,6.878 C15.12,5.618 13.392,4.166 12.384,2.51 L11.616,2.51 Z M24.432,2.522 C24.432,3.554 24.396,4.442 24.348,5.186 C25.02,8.45 26.76,10.946 29.556,12.662 L28.992,13.418 C26.544,11.81 24.888,9.65 24.036,6.938 C23.316,9.554 21.612,11.714 18.948,13.43 L18.42,12.662 C21.72,10.634 23.424,7.886 23.532,4.43 L23.556,2.522 L23.556,2.522 L24.432,2.522 Z" fill="#FF9700" fill-rule="nonzero"></path>
            </g>
        </g>
    </g>
</svg>