<?xml version="1.0" encoding="UTF-8"?>
<svg width="48px" height="16px" viewBox="0 0 48 16" version="1.1" xmlns="http://www.w3.org/2000/svg" xmlns:xlink="http://www.w3.org/1999/xlink">
    <!-- Generator: Sketch 59.1 (86144) - https://sketch.com -->
    <title>服务商</title>
    <desc>Created with Sketch.</desc>
    <g id="页面-1" stroke="none" stroke-width="1" fill="none" fill-rule="evenodd">
        <g id="梅花网创作者标识设计规范" transform="translate(-349.000000, -250.000000)">
            <g id="服务商" transform="translate(349.000000, 250.000000)">
                <rect id="Rectangle-Copy-3备份" fill="#D4F0E8" x="0" y="0" width="48" height="16" rx="2"></rect>
                <path d="M8.184,6.65 L10.116,6.65 L10.116,8.654 L8.184,8.654 L8.184,6.65 Z M10.116,5.87 L8.184,5.87 L8.184,3.842 L10.116,3.842 L10.116,5.87 Z M8.172,9.434 L10.116,9.434 L10.116,12.146 C10.116,12.578 9.96,12.794 9.66,12.794 C9.372,12.794 9.072,12.77 8.736,12.746 L8.94,13.514 L9.9,13.514 C10.572,13.514 10.908,13.142 10.908,12.422 L10.908,3.062 L7.404,3.062 L7.404,8.822 C7.392,10.502 7.152,11.894 6.672,12.974 L7.32,13.574 C7.812,12.494 8.1,11.114 8.172,9.434 Z M12.732,8.246 L13.02,8.246 C13.284,9.422 13.8,10.478 14.568,11.414 C14.088,11.99 13.512,12.458 12.828,12.83 L13.284,13.526 C14.004,13.142 14.616,12.65 15.144,12.038 C15.696,12.578 16.344,13.07 17.112,13.514 L17.544,12.782 C16.812,12.362 16.176,11.894 15.636,11.366 C16.188,10.502 16.584,9.446 16.812,8.21 L16.812,7.478 L12.732,7.478 L12.732,3.842 L15.936,3.842 L15.9133125,4.46525 C15.88575,5.02775 15.843,5.408 15.78,5.606 C15.708,5.786 15.6,5.906 15.456,5.954 C15.312,5.99 15.108,6.014 14.82,6.014 L14.016,6.002 L14.016,6.002 L14.244,6.746 L15.216,6.746 C15.972,6.746 16.416,6.494 16.56,6.002 C16.704,5.522 16.776,4.538 16.776,3.05 L11.916,3.05 L11.916,13.562 L12.732,13.562 L12.732,8.246 Z M13.764,8.246 L16.044,8.246 C15.828,9.194 15.504,10.022 15.06,10.742 C14.448,9.998 14.016,9.17 13.764,8.246 Z M22.128,2.51 C21.624,3.71 20.64,4.718 19.2,5.546 L19.728,6.242 C20.28,5.906 20.772,5.534 21.228,5.126 C21.804,5.63 22.428,6.086 23.1,6.482 C21.78,7.01 20.256,7.394 18.516,7.634 L18.912,8.45 C20.856,8.15 22.572,7.658 24.036,6.986 C25.524,7.73 27.216,8.21 29.112,8.426 L29.508,7.622 C27.84,7.454 26.328,7.082 24.972,6.506 C26.076,5.882 27.012,5.126 27.78,4.238 L27.78,3.542 L22.548,3.542 C22.716,3.254 22.872,2.954 23.004,2.63 L22.128,2.51 Z M24.024,6.062 C23.22,5.642 22.476,5.138 21.804,4.55 L21.96,4.358 L26.544,4.358 C25.836,5.006 24.996,5.582 24.024,6.062 Z M23.292,7.85 C23.292,8.33 23.244,8.786 23.148,9.218 L19.332,9.218 L19.332,9.998 L22.908,9.998 C22.812,10.238 22.68,10.466 22.536,10.682 C21.912,11.558 20.604,12.29 18.636,12.866 L19.212,13.574 C21.42,12.878 22.824,11.978 23.436,10.898 C23.592,10.61 23.724,10.31 23.82,9.998 L27.372,9.998 C27.336,11.198 27.228,11.942 27.048,12.23 C26.856,12.518 26.412,12.674 25.692,12.686 L24.276,12.626 L24.492,13.406 L25.39488,13.444016 C25.57536,13.45016 25.7424,13.454 25.896,13.454 C26.748,13.454 27.348,13.25 27.696,12.854 C28.044,12.458 28.224,11.246 28.248,9.218 L24.024,9.218 C24.096,8.786 24.144,8.33 24.144,7.85 L23.292,7.85 Z M33.768,9.134 L33.768,12.086 L38.22,12.086 L38.22,9.134 L33.768,9.134 Z M37.392,11.318 L34.596,11.318 L34.596,9.914 L37.392,9.914 L37.392,11.318 Z M37.164,6.794 L36.576,7.346 C37.608,8.102 38.412,8.822 39,9.494 L39.648,8.858 C38.976,8.174 38.148,7.49 37.164,6.794 Z M36.072,2.426 L35.124,2.582 C35.28,2.87 35.424,3.182 35.568,3.53 L30.684,3.53 L30.684,4.37 L33.18,4.37 C33.42,4.826 33.636,5.306 33.816,5.822 L31.284,5.822 L31.284,13.466 L32.112,13.466 L32.112,6.59 L39.864,6.59 L39.864,12.11 C39.864,12.518 39.696,12.734 39.36,12.734 L38.196,12.698 L38.412,13.49 L39.636,13.49 C40.332,13.49 40.692,13.094 40.692,12.302 L40.692,5.822 L38.028,5.822 C38.268,5.39 38.508,4.91 38.724,4.37 L41.316,4.37 L41.316,3.53 L36.492,3.53 C36.36,3.122 36.216,2.762 36.072,2.426 Z M34.716,5.822 C34.536,5.294 34.344,4.802 34.14,4.37 L37.776,4.37 C37.572,4.862 37.344,5.342 37.092,5.822 L34.716,5.822 Z M34.752,6.806 L35.364,7.346 C34.68,8.174 33.828,8.894 32.82,9.506 L32.268,8.786 C33.252,8.234 34.08,7.574 34.752,6.806 Z" fill="#29B28B" fill-rule="nonzero"></path>
            </g>
        </g>
    </g>
</svg>