<?xml version="1.0" encoding="UTF-8"?>
<svg width="16px" height="16px" viewBox="0 0 16 16" version="1.1" xmlns="http://www.w3.org/2000/svg" xmlns:xlink="http://www.w3.org/1999/xlink">
    <!-- Generator: Sketch 59.1 (86144) - https://sketch.com -->
    <title>标准版简</title>
    <desc>Created with Sketch.</desc>
    <g id="Page-1" stroke="none" stroke-width="1" fill="none" fill-rule="evenodd">
        <g id="标识" transform="translate(-235.000000, -87.000000)" fill="#FBC027">
            <g id="标准版简" transform="translate(235.000000, 87.000000)">
                <path d="M14,0 C15.1045695,-2.02906125e-16 16,0.8954305 16,2 L16,14 C16,15.1045695 15.1045695,16 14,16 L2,16 C0.8954305,16 1.3527075e-16,15.1045695 0,14 L0,2 C-1.3527075e-16,0.8954305 0.8954305,2.02906125e-16 2,0 L14,0 Z M7.38325898,4.79668777 L5.03498859,4.79668777 L5.03498859,6.16567164 L6.20866532,6.16567164 L6.20774839,11.2033122 L6.84593511,11.2033122 L13.2507257,4.79668777 L10.9042892,4.79668777 L7.38325898,8.51394204 L7.38325898,4.79668777 Z" id="形状结合"></path>
            </g>
        </g>
    </g>
</svg>