<?xml version="1.0" encoding="UTF-8"?>
<svg width="76px" height="17px" viewBox="0 0 76 17" version="1.1" xmlns="http://www.w3.org/2000/svg" xmlns:xlink="http://www.w3.org/1999/xlink">
    <!-- Generator: Sketch 59.1 (86144) - https://sketch.com -->
    <title>银牌个人</title>
    <desc>Created with Sketch.</desc>
    <g id="Page-1" stroke="none" stroke-width="1" fill="none" fill-rule="evenodd">
        <g id="标识" transform="translate(-556.000000, -19.000000)">
            <g id="银牌个人" transform="translate(556.000000, 19.820629)">
                <g id="编组-18备份-2" transform="translate(0.000000, -0.000000)">
                    <path d="M17.4355997,1.40971679e-11 L73.4355997,1.40971679e-11 C74.5401692,1.4096965e-11 75.4355997,0.8954305 75.4355997,2 L75.4355997,14 C75.4355997,15.1045695 74.5401692,16 73.4355997,16 L17.4355997,16 L17.4355997,16 L17.4355997,1.40971679e-11 Z" id="矩形" fill="#8697D4"></path>
                    <text id="银牌个人" font-family="PingFangSC-Regular, PingFang SC" font-size="12" font-weight="normal" line-spacing="12" fill="#FFFFFF">
                        <tspan x="22.3355997" y="15">银牌个人</tspan>
                    </text>
                    <path d="M2,3.63797881e-12 L17.5196243,3.63797881e-12 L17.5196243,3.63797881e-12 L20,7.99892948 L17.5196243,15.997859 L2,15.997859 C0.8954305,15.997859 1.3527075e-16,15.1024285 0,13.997859 L0,2 C-1.3527075e-16,0.8954305 0.8954305,3.63729353e-12 2,3.63797881e-12 Z" id="矩形" fill="#B0BCE4"></path>
                </g>
                <path d="M9.02373785,9.68716763 C9.05445201,9.68716763 9.08457927,9.68971084 9.1150978,9.69264531 C9.1448338,9.69557978 9.1739829,9.69870989 9.203132,9.70418757 C9.23325927,9.71005652 9.262604,9.71846868 9.29234,9.7272721 C9.322076,9.73607552 9.35102947,9.7452702 9.37978732,9.7570081 C9.40639321,9.76796347 9.43241221,9.78107078 9.45843121,9.79456936 C9.48855847,9.81021989 9.51809884,9.82684857 9.54666105,9.84602046 C9.55742079,9.8530632 9.56896305,9.85756273 9.57933152,9.86499673 L9.57933152,9.86499673 L9.61591463,9.8976672 C9.64154236,9.91840415 9.66619194,9.93992362 9.68986336,9.96359504 C9.71353478,9.98726646 9.73505425,10.011916 9.7557912,10.0375438 C9.76596404,10.0504555 9.77848446,10.0606283 9.78846167,10.0741269 L9.78846167,10.0741269 L11.4546558,12.3675158 C11.7614061,12.7896888 11.6676986,13.3804961 11.2455256,13.6874421 C10.8233527,13.9941924 10.2323497,13.9004848 9.92579504,13.4783119 L9.92579504,13.4783119 L9.02373785,12.2370296 L8.12207193,13.4783119 C7.81532162,13.9004848 7.22431863,13.9941924 6.80214569,13.6874421 C6.37997276,13.3804961 6.28646087,12.7896888 6.59321117,12.3675158 L6.59321117,12.3675158 L8.25940529,10.0741269 C8.26918687,10.0606283 8.28151166,10.0504555 8.29207576,10.0375438 C8.31281271,10.011916 8.33433218,9.98726646 8.3580036,9.96359504 C8.38167502,9.93992362 8.4063246,9.91840415 8.43195234,9.8976672 C8.44466839,9.88729873 8.45484123,9.87477831 8.46853544,9.86499673 C8.47870829,9.85756273 8.49044618,9.8530632 8.50101028,9.84602046 C8.52957249,9.82684857 8.55891723,9.81021989 8.58943576,9.79456936 C8.61525912,9.78107078 8.64127812,9.76796347 8.66807965,9.7570081 C8.69683749,9.7452702 8.72579096,9.73607552 8.75533133,9.7272721 C8.78526296,9.71846868 8.81441207,9.71005652 8.84453933,9.70418757 C8.87388407,9.69870989 8.90303317,9.69557978 8.93257354,9.69264531 C8.96309206,9.68971084 8.99321933,9.68716763 9.02373785,9.68716763 Z M13.9093234,7.05191251 C14.4056407,6.89071209 14.9385411,7.16244434 15.1001328,7.65856602 C15.2613332,8.15507895 14.989601,8.68817499 14.4932837,8.84937541 L14.4932837,8.84937541 L13.0340677,9.32358634 L13.9359293,10.5646731 C14.2426796,10.986846 14.1489721,11.577849 13.7267991,11.8845993 L13.7267991,11.8845993 L13.626584,11.9483119 C13.2153858,12.1749895 12.6900421,12.0651672 12.4070685,11.6754691 L12.4070685,11.6754691 L10.7406788,9.38208019 C10.7402875,9.38168892 10.7400919,9.38110203 10.7397006,9.38051513 C10.7046826,9.3319985 10.6741641,9.27956924 10.6483407,9.22342298 L10.6483407,9.22342298 L10.6430586,9.21344577 C10.6295601,9.18273161 10.6170396,9.15123493 10.6064755,9.11876009 C10.5996284,9.09704498 10.5943464,9.07552551 10.5890643,9.0538104 C10.5873036,9.04735456 10.5851517,9.04089872 10.5837823,9.03444288 C10.5712619,8.97947041 10.5646104,8.9243023 10.5620672,8.86952546 C10.5616759,8.86443904 10.561089,8.85954825 10.561089,8.85446183 C10.559524,8.79831557 10.563241,8.74256057 10.5712619,8.68797936 C10.5720444,8.68308857 10.5724356,8.67819778 10.5734138,8.67330699 C10.5822172,8.61931268 10.5961071,8.56649215 10.6141052,8.51523668 C10.6164527,8.50878084 10.6182134,8.50252063 10.620561,8.49626042 C10.6395373,8.4459831 10.6628174,8.3976621 10.6898146,8.35129742 C10.6935316,8.34484158 10.697053,8.33819011 10.7009656,8.33153863 C10.7301147,8.28439142 10.7635677,8.23998306 10.8005421,8.19850916 C10.8042591,8.19420527 10.8073892,8.18990137 10.8113018,8.18579311 C10.8521888,8.14158037 10.8973797,8.10108464 10.9468745,8.0648928 C10.9480483,8.06411027 10.9488308,8.06293648 10.949809,8.06215395 L10.9506404,8.06168933 L11.0271812,8.01204782 L11.0271812,8.01204782 L11.1084662,7.96962022 C11.1119875,7.96805517 11.114922,7.96629448 11.1184434,7.96472943 C11.1489619,7.95103522 11.1804586,7.93871043 11.2131291,7.92795069 L11.2131291,7.92795069 Z M2.94769504,7.65858558 C3.10909109,7.16246391 3.64218713,6.89073165 4.13850443,7.05193207 L4.13850443,7.05193207 L6.83469879,7.92797026 C6.86736926,7.93853436 6.89886594,7.95105478 6.92938447,7.96474899 C6.93271021,7.96631405 6.93584031,7.96807473 6.93916605,7.96963978 C6.99531231,7.99546315 7.04774157,8.02617731 7.09645383,8.06139099 L7.09645383,8.06139099 C7.09899705,8.06295604 7.09977957,8.0639342 7.10075773,8.06471673 C7.15025252,8.1011042 7.19563904,8.14159994 7.23652604,8.18581267 C7.24024304,8.18992094 7.24356878,8.19422483 7.24728578,8.19833309 C7.28426015,8.24000262 7.31771315,8.28441099 7.34686225,8.3315582 C7.35077488,8.33801404 7.35429625,8.34486114 7.35801325,8.35151262 C7.38501041,8.3978773 7.40829056,8.44600267 7.42726683,8.49627998 C7.42961441,8.50254019 7.43137509,8.5088004 7.43352704,8.51506061 C7.45172077,8.56631608 7.46541498,8.61913661 7.47441404,8.67332656 C7.47519656,8.67821734 7.47578346,8.68310813 7.47656598,8.68799892 C7.48458688,8.74258013 7.48830388,8.7981395 7.48673883,8.85428576 C7.48654319,8.85937218 7.4859563,8.86465424 7.48576067,8.86974066 C7.48321746,8.92432187 7.47656598,8.97948997 7.46384993,9.03446244 C7.46267614,9.04091828 7.46032856,9.04717849 7.45876351,9.05382997 C7.45348146,9.07534944 7.44819941,9.09706455 7.44115667,9.11877965 C7.43059256,9.15125449 7.41826777,9.18275117 7.40457356,9.21346533 C7.40300851,9.21679107 7.4010522,9.22011681 7.39948714,9.22344254 C7.37366378,9.27939317 7.34294962,9.33201807 7.30793157,9.3805347 C7.30773593,9.38092596 7.3075403,9.38151285 7.30714904,9.38209975 L7.30714904,9.38209975 L5.64075929,11.6754887 C5.33400898,12.0976616 4.743006,12.1913692 4.32083306,11.8846188 C3.89866012,11.5778685 3.8049526,10.9868656 4.11189854,10.5646926 L4.11189854,10.5646926 L5.01356446,9.32360591 L3.55454418,8.84939497 C3.05822688,8.68799892 2.78649462,8.15490288 2.94769504,7.65858558 Z M9.0238161,7.28686603 C9.42896909,7.28686603 9.75743451,7.61533144 9.75743451,8.02048443 C9.75743451,8.42563742 9.42896909,8.75410283 9.0238161,8.75410283 C8.61885875,8.75410283 8.2901977,8.42563742 8.2901977,8.02048443 C8.2901977,7.61533144 8.61885875,7.28686603 9.0238161,7.28686603 Z M10.5572742,2.12991991 C11.0792192,2.12991991 11.5023703,2.55307101 11.5023703,3.07501605 L11.5023703,3.07501605 L11.5023703,4.60915885 L12.9613906,4.13514355 C13.4579035,3.9737475 13.990804,4.24547976 14.1522,4.74179706 C14.3135961,5.23811437 14.0418638,5.7712104 13.5455465,5.93241082 L13.5455465,5.93241082 L10.8495478,6.80844901 C10.8168773,6.81901312 10.7842068,6.82742527 10.7513407,6.83446801 L10.7513407,6.83446801 L10.7399941,6.83622869 C10.6795439,6.84816222 10.6190938,6.85442243 10.5592305,6.85461806 L10.5592305,6.85461806 C10.4923245,6.85403117 10.4318744,6.84796659 10.3727936,6.83603306 L10.3727936,6.83603306 L10.3565562,6.83231606 C10.3021706,6.82038254 10.2489588,6.80414512 10.1977034,6.78301691 C10.1906606,6.78008243 10.1840092,6.7767567 10.177162,6.77362659 C10.1280585,6.75210712 10.0807157,6.72667501 10.0359161,6.69693901 L10.0359161,6.69693901 L10.0196786,6.68559238 C9.97507463,6.65468259 9.93262258,6.62005581 9.8936919,6.58151639 L9.8936919,6.58151639 L9.88351906,6.57095228 C9.844784,6.5314347 9.80898343,6.48878702 9.77729111,6.4422267 C9.77435664,6.43811844 9.77200906,6.43361892 9.76907459,6.42931502 C9.73914295,6.38353723 9.7121458,6.3350206 9.6898438,6.28317823 C9.68710496,6.27711366 9.68514864,6.27085345 9.68280106,6.26459324 C9.6743889,6.24385629 9.66578111,6.22331497 9.65873838,6.2017955 C9.64817427,6.16912503 9.63976212,6.13645455 9.63271938,6.10358845 C9.63193685,6.09987145 9.63174122,6.09615445 9.63095869,6.09243745 C9.61882954,6.03179166 9.61276496,5.97134151 9.61256933,5.91147824 L9.61256933,5.91147824 L9.61237369,3.07501605 C9.61237369,2.55307101 10.0355248,2.12991991 10.5572742,2.12991991 Z M7.49035801,2.1299786 C8.01230305,2.1299786 8.43525851,2.55293407 8.43525851,3.07487911 L8.43525851,3.07487911 L8.43525851,5.90977625 C8.43525851,5.91036314 8.43506288,5.91095004 8.43506288,5.91153693 C8.43506288,5.97140019 8.42880267,6.03185035 8.41686914,6.09230051 C8.41608662,6.09601751 8.41569536,6.09993014 8.41491283,6.10364714 C8.40806572,6.13631761 8.39965357,6.16918372 8.38889383,6.20165856 C8.38204672,6.22337366 8.37343894,6.24391498 8.36502678,6.26445629 C8.3626792,6.2707165 8.36052725,6.27717235 8.35778841,6.28323692 C8.33568204,6.33507929 8.30868488,6.38359592 8.27875325,6.42917808 C8.27581878,6.43348197 8.2734712,6.4379815 8.2703411,6.44228539 C8.23884441,6.48884571 8.20304383,6.53149339 8.16430878,6.57101097 C8.16078741,6.57433671 8.15765731,6.57805371 8.15413594,6.58157507 C8.11500963,6.62011449 8.07275321,6.65454565 8.02814921,6.68545544 L8.02814921,6.68545544 L8.01191179,6.6969977 C7.96711216,6.72653807 7.91976931,6.75197018 7.87066579,6.77368528 C7.86381868,6.77661975 7.85716721,6.77994549 7.84992884,6.7830756 C7.798869,6.80400817 7.74565721,6.8202456 7.69127164,6.83217912 C7.68579395,6.83335291 7.6805119,6.83491796 7.67503422,6.83609175 C7.61595348,6.84802528 7.55550332,6.85408986 7.49407501,6.85428549 L7.49407501,6.85428549 C7.42853843,6.85428549 7.36828391,6.84822091 7.30783375,6.83628738 C7.30392112,6.83550486 7.30020412,6.83530923 7.29648712,6.83433107 C7.26362102,6.82748396 7.23095054,6.81907181 7.19828007,6.80831207 L7.19828007,6.80831207 L4.50228135,5.93246951 C4.00596404,5.77126909 3.73423179,5.23817305 3.89562783,4.74166012 C4.05682825,4.24534282 4.58992429,3.97380619 5.08643723,4.13500661 L5.08643723,4.13500661 L6.54545751,4.60921754 L6.54545751,3.07487911 C6.54545751,2.55293407 6.9686086,2.1299786 7.49035801,2.1299786 Z" id="形状结合" fill="#FFFFFF" fill-rule="nonzero"></path>
            </g>
        </g>
    </g>
</svg>