<?xml version="1.0" encoding="UTF-8"?>
<svg width="58px" height="16px" viewBox="0 0 58 16" version="1.1" xmlns="http://www.w3.org/2000/svg" xmlns:xlink="http://www.w3.org/1999/xlink">
    <!-- Generator: Sketch 59.1 (86144) - https://sketch.com -->
    <title>标准版</title>
    <desc>Created with Sketch.</desc>
    <g id="Page-1" stroke="none" stroke-width="1" fill="none" fill-rule="evenodd">
        <g id="标识" transform="translate(-106.000000, -87.000000)">
            <g id="标准版" transform="translate(106.000000, 87.000000)">
                <path d="M2.28571429,0 L54.8571429,0 C56.119508,0 57.1428571,1.02334914 57.1428571,2.28571429 L57.1428571,13.7142857 C57.1428571,14.9766509 56.119508,16 54.8571429,16 L2.28571429,16 C1.02334914,16 7.81597009e-13,14.9766509 7.81597009e-13,13.7142857 L7.81597009e-13,2.28571429 C7.81597009e-13,1.02334914 1.02334914,0 2.28571429,0 Z" id="矩形" fill="#FBC027" opacity="0.5"></path>
                <path d="M20.7798824,2.41142857 L20.7798824,4.57142857 L19.3855967,4.57142857 L19.3855967,5.36 L20.7798824,5.36 C20.4255967,6.8 19.8427396,8.09142857 19.0198824,9.21142857 L19.3741681,10.1028571 C19.9455967,9.21142857 20.4141681,8.22857143 20.7798824,7.15428571 L20.7798824,12.8457143 L21.591311,12.8457143 L21.591311,7.12 C21.9341681,7.55428571 22.3341681,8.12571429 22.8027396,8.84571429 L23.271311,8.14857143 C22.711311,7.45142857 22.151311,6.81142857 21.591311,6.24 L21.591311,5.36 L22.9170253,5.36 L22.9170253,4.57142857 L21.591311,4.57142857 L21.591311,2.41142857 L20.7798824,2.41142857 Z M24.151311,7.57714286 C23.831311,8.99428571 23.3170253,10.2742857 22.6084539,11.4285714 L23.3170253,11.8857143 C24.0027396,10.72 24.5398824,9.34857143 24.9055967,7.74857143 L24.151311,7.57714286 Z M28.2884539,7.52 L27.5455967,7.76 C27.991311,8.99428571 28.4027396,10.4 28.7798824,11.9885714 L29.5227396,11.6571429 C29.1798824,10.1942857 28.7684539,8.81142857 28.2884539,7.52 Z M25.7284539,12.7314286 C26.391311,12.7314286 26.7341681,12.3885714 26.7341681,11.7142857 L26.7341681,6.62857143 L29.5341681,6.62857143 L29.5341681,5.84 L23.1227396,5.84 L23.1227396,6.62857143 L25.911311,6.62857143 L25.911311,11.5085714 C25.911311,11.84 25.751311,12.0114286 25.4427396,12.0114286 C25.111311,12.0114286 24.7684539,11.9885714 24.4027396,11.9657143 L24.5627396,12.7314286 L25.7284539,12.7314286 Z M23.7284539,3.06285714 L23.7284539,3.84 L28.9398824,3.84 L28.9398824,3.06285714 L23.7284539,3.06285714 Z M31.2941681,2.75428571 L30.5970253,3.18857143 C31.3627396,4.16 31.9684539,5.04 32.4027396,5.82857143 L33.0884539,5.36 C32.6770253,4.61714286 32.071311,3.74857143 31.2941681,2.75428571 Z M32.4027396,7.72571429 C31.8998824,9.32571429 31.2941681,10.9028571 30.6084539,12.4457143 L31.3855967,12.7771429 C32.0255967,11.2914286 32.6198824,9.71428571 33.1455967,8.02285714 L32.4027396,7.72571429 Z M35.111311,7.44 L37.4770253,7.44 L37.4770253,9.00571429 L35.111311,9.00571429 L35.111311,7.44 Z M35.111311,9.77142857 L37.4770253,9.77142857 L37.4770253,11.4742857 L35.111311,11.4742857 L35.111311,9.77142857 Z M35.111311,12.24 L40.9170253,12.24 L40.9170253,11.4742857 L38.2655967,11.4742857 L38.2655967,9.77142857 L40.4598824,9.77142857 L40.4598824,9.00571429 L38.2655967,9.00571429 L38.2655967,7.44 L40.4370253,7.44 L40.4370253,6.67428571 L38.2655967,6.67428571 L38.2655967,5.10857143 L40.6770253,5.10857143 L40.6770253,4.33142857 L38.1055967,4.33142857 L38.4141681,4.21714286 C38.2655967,3.63428571 38.0598824,2.98285714 37.7855967,2.27428571 L36.9970253,2.50285714 C37.2598824,3.08571429 37.4770253,3.69142857 37.6598824,4.33142857 L35.2255967,4.33142857 C35.4655967,3.74857143 35.671311,3.14285714 35.8427396,2.51428571 L35.0541681,2.35428571 C34.6427396,3.96571429 33.9455967,5.45142857 32.951311,6.8 L33.2255967,7.66857143 C33.6141681,7.17714286 33.9798824,6.66285714 34.311311,6.12571429 L34.311311,12.8685714 L35.111311,12.8685714 L35.111311,12.24 Z M37.4770253,5.10857143 L37.4770253,6.67428571 L35.111311,6.67428571 L35.111311,5.10857143 L37.4770253,5.10857143 Z M44.7684539,2.50285714 L44.7684539,5.53142857 L43.5455967,5.53142857 L43.5455967,2.73142857 L42.7341681,2.73142857 L42.7341681,6.92571429 C42.7227396,9.30285714 42.4484539,11.04 41.9227396,12.1257143 L42.5398824,12.6742857 C43.031311,11.76 43.3398824,10.4571429 43.4770253,8.74285714 L44.9055967,8.74285714 L44.9055967,12.8114286 L45.7170253,12.8114286 L45.7170253,7.95428571 L43.5227396,7.95428571 C43.5341681,7.62285714 43.5455967,7.28 43.5455967,6.92571429 L43.5455967,6.34285714 L46.2427396,6.34285714 L46.2427396,5.53142857 L45.5684539,5.53142857 L45.5684539,2.50285714 L44.7684539,2.50285714 Z M47.6484539,6.46857143 L48.0255967,6.46857143 C48.2884539,8 48.7455967,9.30285714 49.3970253,10.3657143 C48.8027396,11.0742857 48.0827396,11.6685714 47.2255967,12.1371429 L47.6255967,12.8685714 C48.4941681,12.4 49.2484539,11.7942857 49.8770253,11.0628571 C50.4484539,11.8171429 51.1684539,12.4114286 52.0255967,12.8571429 L52.4370253,12.1371429 C51.6255967,11.7257143 50.9398824,11.1542857 50.3798824,10.4 C51.111311,9.31428571 51.6141681,7.97714286 51.8770253,6.38857143 L51.8770253,5.69142857 L47.6484539,5.69142857 L47.6484539,3.89714286 C49.3055967,3.82857143 50.8141681,3.6 52.1627396,3.21142857 L51.751311,2.46857143 C50.311311,2.92571429 48.6884539,3.16571429 46.8941681,3.18857143 L46.8941681,7.72571429 C46.8484539,9.62285714 46.5398824,11.12 45.9684539,12.1942857 L46.5398824,12.8 C47.2255967,11.5428571 47.6027396,9.85142857 47.6484539,7.72571429 L47.6484539,6.46857143 Z M48.7684539,6.46857143 L51.0770253,6.46857143 C50.871311,7.68 50.471311,8.75428571 49.8998824,9.66857143 C49.3970253,8.77714286 49.0198824,7.71428571 48.7684539,6.46857143 Z" fill="#CC7200" fill-rule="nonzero"></path>
                <path d="M2.28571429,0 L16,0 L16,16 L2.28571429,16 C1.02334914,16 0,14.9766509 0,13.7142857 L0,2.28571429 C0,1.02334914 1.02334914,0 2.28571429,0 Z" id="矩形备份-2" fill="#FBC027"></path>
                <polygon id="路径" fill="#FFFFFF" fill-rule="nonzero" points="10.8165645 4.79668777 7.29553432 8.51394204 7.29553432 4.79668777 4.94726392 4.79668777 4.94726392 6.16567164 6.12094065 6.16567164 6.12002372 11.2033122 6.75821044 11.2033122 13.163001 4.79668777"></polygon>
            </g>
        </g>
    </g>
</svg>