<?xml version="1.0" encoding="UTF-8"?>
<svg width="162px" height="50px" viewBox="0 0 162 50" version="1.1" xmlns="http://www.w3.org/2000/svg" xmlns:xlink="http://www.w3.org/1999/xlink">
    <!-- Generator: Sketch 53.2 (72643) - https://sketchapp.com -->
    <title>Group 2 Copy</title>
    <desc>Created with Sketch.</desc>
    <g id="Page-1" stroke="none" stroke-width="1" fill="none" fill-rule="evenodd">
        <g id="登录注册-" transform="translate(-1220.000000, -198.000000)" fill="#008CD6">
            <g id="Group-2-Copy" transform="translate(1220.000000, 198.000000)">
                <path d="M154.911347,2.34375 L131.25,2.34375 L131.25,32.03125 L134.36659,32.03125 L134.36659,5.29760732 C134.36659,5.29760732 152.820448,5.33420077 154.19405,5.33420077 C156.673235,5.33420077 157.74016,6.48561792 157.74016,8.88121238 C157.745314,14.0604621 157.754764,25.6776059 157.754764,26.8834877 C157.754764,28.4833874 157.102754,29.0918599 155.812478,29.0918599 L153.858166,29.0918599 L153.858166,32.03125 L156.612243,32.03125 C159.607709,32.03125 160.9375,30.7640954 160.9375,27.5489779 L160.9375,7.78425989 C160.9375,4.27554375 159.063938,2.34375 154.911347,2.34375" id="Fill-1"></path>
                <path d="M145.980809,7.8125 L143.012722,7.8125 C142.757927,11.0372101 142.363989,13.5987776 141.540876,15.8704836 C140.701499,13.6240563 140.202752,11.0565904 139.799778,7.8125 L136.833498,7.8125 C137.319596,12.3575971 138.366784,16.1148436 139.898263,19.1819836 C139.076956,20.4518133 138.040611,21.6845677 136.71875,22.966194 L136.71875,26.5625 C138.575499,25.084543 140.155768,23.5467598 141.460462,21.8387673 C142.775094,23.7447758 144.328258,25.3086801 146.09375,26.5625 L146.09375,22.8271616 C144.907419,21.6112597 143.954197,20.4273773 143.177164,19.1920951 C144.832426,16.1409649 145.773901,12.5050557 145.980809,7.8125" id="Fill-3"></path>
                <path d="M156.249085,22.966194 C155.053659,21.7578757 154.106098,20.5697802 153.339634,19.3269144 C155.06189,16.2479777 156.03872,12.5741506 156.25,7.8125 L153.247256,7.8125 C152.986585,11.0759707 152.579573,13.6594463 151.725305,15.9513752 C150.905793,13.6678726 150.431098,11.0650166 150.021341,7.8125 L147.017683,7.8125 C147.5125,12.3752921 148.543293,16.1460206 150.067988,19.2199016 C149.241159,20.4754067 148.19939,21.697207 146.875,22.966194 L146.875,26.5625 C148.734451,25.0988675 150.321341,23.5779368 151.634756,21.8901672 C152.934451,23.7725822 154.477439,25.3196342 156.249085,26.5625 L156.249085,22.966194 Z" id="Fill-5"></path>
                <polygon id="Fill-7" points="103.080472 10.15625 106.199336 10.15625 106.199336 7.97462991 118.807422 7.97462991 118.807422 10.15625 121.925441 10.15625 121.925441 7.97462991 127.34375 7.97462991 127.34375 4.84790053 121.925441 4.84790053 121.925441 2.34375 118.807422 2.34375 118.807422 4.84790053 106.199336 4.84790053 106.199336 2.34375 103.080472 2.34375 103.080472 4.84790053 97.65625 4.84790053 97.65625 7.97462991 103.080472 7.97462991"></polygon>
                <path d="M98.4375,18.790883 L98.4375,21.5402068 C99.6147838,21.2802396 100.714507,20.8654894 101.719526,20.3207555 L101.719526,32.03125 L104.829286,32.03125 L104.829286,17.8861289 C106.352733,16.2125903 107.399389,14.1003571 107.8125,11.71875 L104.577011,11.71875 C104.019393,14.9452503 101.646047,17.5825488 98.4375,18.790883" id="Fill-9"></path>
                <path d="M119.819825,29.0081824 C117.709998,29.0081824 116.854989,28.2074268 116.854989,26.2899186 C116.854989,26.0884381 116.85672,25.490024 116.858451,24.645356 C123.096202,22.0123339 126.818257,17.8036314 128.028076,12.6124966 L124.656506,12.6081914 C123.536687,16.2494768 120.956951,19.2122724 116.865374,21.3725904 C116.875759,17.1285858 116.887874,11.71875 116.887874,11.71875 L113.517169,11.71875 L113.517169,22.8371982 C111.806288,23.455416 109.905885,23.9694494 107.8125,24.3741323 L107.8125,27.0657043 C109.869539,26.7634837 111.768211,26.3467464 113.517169,25.8309909 L113.517169,26.9468826 C113.517169,30.5158416 115.366514,32.03125 119.441649,32.03125 L128.125,32.03125 L128.125,28.9995721 L119.819825,29.0081824 Z" id="Fill-11"></path>
                <path d="M80.3956279,8.59375 L93.75,8.59375 L93.75,5.27833441 L82.3262443,5.27833441 C81.5903482,5.27833441 81.3439725,4.88420738 81.5960028,4.04276991 C81.9376976,2.94396273 82.1436839,2.34375 82.1436839,2.34375 L79.080547,2.34375 C79.080547,2.34375 78.9682643,2.87748348 78.309916,4.8899056 C77.738809,6.74467691 78.5062088,8.59375 80.3956279,8.59375" id="Fill-13"></path>
                <path d="M90.8978973,18.9293324 L87.6208932,18.9293324 L87.6208932,14.651621 L84.8032981,14.651621 L84.8032981,18.9293324 L81.5296908,18.9293324 L81.5432777,12.685962 L89.0186514,12.6793324 C90.3739503,12.6793324 90.9046908,13.3364857 90.9046908,14.5124006 L90.8978973,18.9293324 Z M87.63375,29.075503 L87.63375,24.1735349 L84.8184499,24.1735349 L84.8184499,29.0822226 L83.459164,29.0855824 C82.2576978,29.0855824 81.5296908,28.5303732 81.5296908,27.1797282 L81.5407212,22.0543324 L90.9038423,22.0543324 L90.9046908,29.0780229 L87.63375,29.075503 Z M93.6799233,19.4465927 L93.6799233,14.2197632 C93.6799233,11.7488526 92.3382342,10.3355824 89.5771967,10.3355824 L78.8412054,10.3423083 L78.8412054,19.4465927 L77.6234408,19.4465927 L77.6234408,22.3740207 L78.8412054,22.3740207 L78.8412054,28.0640933 C78.8412054,30.7485499 80.3935661,32.1845198 83.0744658,32.1845198 L93.6799233,32.2105824 L93.6799233,22.3740207 L94.8109408,22.3740207 L94.8109408,19.4465927 L93.6799233,19.4465927 Z" id="Fill-15"></path>
                <polygon id="Fill-17" points="76.5625 4.93545504 72.6120504 4.93545504 72.6120504 2.34375 69.8000187 2.34375 69.8000187 4.93545504 65.625 4.93545504 65.625 7.9112741 69.8000187 7.9112741 69.8000187 32.03125 72.6120504 32.03125 72.6120504 7.9112741 76.5625 7.9112741"></polygon>
                <path d="M64.84375,29.6840871 L67.0945848,29.6875 C67.7552257,24.3864725 67.96875,19.1118946 67.96875,9.375 L65.6970444,9.375 C65.6970444,15.4669582 65.7925684,22.3711776 64.84375,29.6840871" id="Fill-19"></path>
                <path d="M75.7092435,9.375 L73.4375,9.375 C73.4375,19.1118946 73.650606,24.3864725 74.3124001,29.6875 L76.5625,29.6840871 C75.6143447,22.3711776 75.7092435,15.4669582 75.7092435,9.375" id="Fill-21"></path>
                <path d="M97.7610404,39.9571829 L94.8886602,39.9571829 L94.8886602,36.71875 L92.96875,36.71875 L92.96875,47.6535795 L94.8989521,47.65625 L94.8970808,41.6333701 L97.2239895,41.6333701 C98.3476796,41.6333701 98.848241,42.208419 98.848241,43.1947256 L98.848241,47.65625 L100.78125,47.65625 L100.78125,42.9250046 C100.78125,40.9336977 99.8315868,39.9571829 97.7610404,39.9571829" id="Fill-23"></path>
                <polygon id="Fill-25" points="89.0625 39.0625 90.625 39.0625 90.625 37.5 89.0625 37.5"></polygon>
                <polygon id="Fill-27" points="89.0625 47.65625 90.625 47.65625 90.625 39.84375 89.0625 39.84375"></polygon>
                <path d="M73.1890266,39.8572899 C72.5803892,39.8572899 64.84375,39.84375 64.84375,39.84375 L64.84375,47.65625 L66.5299615,47.65625 C66.5340463,43.0969274 66.5324124,41.5452592 66.5324124,41.5452592 C66.5324124,41.5452592 68.128758,41.5470646 68.3885522,41.5470646 C69.1328055,41.5470646 69.4791978,41.9812428 69.4791978,42.8035637 C69.4791978,44.5863121 69.4890013,47.65625 69.4890013,47.65625 L71.1466192,47.65625 C71.1466192,43.1501841 71.1482531,41.5497725 71.1482531,41.5497725 L72.7535853,41.5470646 C73.6261017,41.5470646 74.082784,42.1708008 74.082784,43.0599184 L74.082784,47.65625 L75.78125,47.65625 L75.78125,42.5481116 C75.78125,40.8574343 74.9373273,39.8572899 73.1890266,39.8572899" id="Fill-28"></path>
                <path d="M82.6509608,41.5855824 L83.6107497,41.5855824 C84.3484074,41.5855824 84.6546908,41.9530494 84.6546908,42.6420499 L84.6546908,43.1465513 L81.5296908,43.1480824 L81.5296908,42.6267387 C81.5296908,41.9377382 81.9261912,41.5855824 82.6509608,41.5855824 M79.9739801,42.6191727 C79.9679451,43.8262982 79.9671908,44.5035544 79.9671908,44.6663129 C79.9671908,46.7839817 80.8120912,47.833774 82.4988745,47.833774 C82.6195746,47.833774 86.0436844,47.8355824 86.0436844,47.8355824 L86.0474563,46.2929936 C86.0474563,46.2929936 82.9854466,46.2957062 82.9545173,46.294802 C82.0756699,46.294802 81.5378003,45.8544499 81.5378003,44.8290714 L86.2021033,44.8227419 L86.2171908,42.6842761 C86.2171908,41.1082313 85.4884641,40.0276958 83.966889,40.0276958 C83.966889,40.0276958 84.097396,40.0186536 82.2672813,40.0258873 C80.8264243,40.0258873 79.9739801,41.1398788 79.9739801,42.6191727" id="Fill-29"></path>
                <path d="M106.151884,47.6382447 C106.81445,47.6382447 110.921613,47.65625 110.921613,47.65625 C110.921613,47.65625 110.930024,43.811218 110.9375,39.8644561 L109.011479,39.8554534 L108.994657,45.9556493 C108.994657,45.9556493 106.529425,45.9439459 106.527556,45.9439459 C105.558471,45.9439459 105.054771,45.4974144 105.054771,44.5485351 C105.055705,43.8562313 105.057574,43.298067 105.065985,39.8473511 L103.136226,39.84375 C103.136226,39.84375 103.132488,41.7379076 103.125012,44.7934072 C103.121274,46.6704598 104.024008,47.6382447 106.151884,47.6382447" id="Fill-30"></path>
                <polygon id="Fill-31" points="125 46.875 126.5625 46.875 126.5625 45.3125 125 45.3125"></polygon>
                <polygon id="Fill-32" points="131.25 39.0625 132.8125 39.0625 132.8125 37.5 131.25 37.5"></polygon>
                <polygon id="Fill-33" points="131.25 47.65625 132.8125 47.65625 132.8125 39.84375 131.25 39.84375"></polygon>
                <path d="M158.873441,44.9127532 C158.873441,45.8362032 158.312297,46.2686199 157.530866,46.2686199 C157.447465,46.2686199 156.433054,46.2763073 156.355093,46.2715027 C155.518363,46.2715027 154.967191,45.7958443 154.967191,44.811856 L154.967191,42.9880183 C154.967191,42.1145365 155.458532,41.5898709 156.34784,41.5898709 C156.637024,41.5783398 157.607921,41.5937146 157.454717,41.5937146 C158.427427,41.5937146 158.873441,42.2298476 158.873441,43.147532 L158.873441,44.9127532 Z M158.135011,40.0230824 C158.024771,40.0230824 156.5962,40.0239861 156.491425,40.0276009 C154.489786,40.0276009 153.408335,41.0984873 153.408335,42.8896238 C153.408335,44.603042 153.404691,42.4992247 153.404691,44.5741235 C153.404691,46.8288589 154.406877,47.8301602 156.532424,47.8301602 C156.633554,47.833775 157.929108,47.8355824 158.034793,47.8355824 C160.035522,47.8355824 161.208991,47.0367103 161.208991,44.8714413 C161.208991,44.8714413 161.217191,43.0739789 161.217191,42.9230608 C161.217191,41.2141611 160.194049,40.0230824 158.135011,40.0230824 L158.135011,40.0230824 Z" id="Fill-34"></path>
                <path d="M139.894642,39.8518711 C139.230425,39.8518711 135.15625,39.84375 135.15625,39.84375 L135.15625,47.653543 L137.087156,47.65625 L137.089028,41.5437673 L139.537275,41.5437673 C140.556052,41.5437673 141.036908,42.1239749 141.036908,42.9956399 L141.036908,47.65625 L142.96875,47.65625 L142.96875,42.6960614 C142.96875,40.8588877 142.021072,39.8518711 139.894642,39.8518711" id="Fill-35"></path>
                <path d="M147.183552,39.2802087 C147.184353,39.3967355 147.184353,39.7053978 147.184353,40.1394821 L145.592191,40.1394821 L145.592191,41.8082158 L147.185155,41.8082158 C147.185957,43.8372039 147.186758,46.5297716 147.189164,47.8320244 L148.865504,47.8355824 C148.865504,47.8355824 148.863099,44.155651 148.861496,41.8082158 L151.790882,41.8082158 L151.790882,40.1394821 L148.859892,40.1394821 L148.859892,39.9010915 C148.859892,38.9831101 149.211034,38.5623686 150.126567,38.5623686 L151.838984,38.5703742 L151.842191,36.8980824 C151.786072,36.8998615 151.416492,36.9043091 149.425888,36.9105357 C147.847354,36.9105357 147.183552,37.7831518 147.183552,39.2802087 M151.842191,36.8980824 L151.842191,36.8988637 C151.862503,36.8980824 151.842191,36.8980824 151.842191,36.8980824" id="Fill-36"></path>
                <path d="M116.25566,46.2730824 C115.455948,46.2730824 115.123441,45.9247589 115.123441,45.1017384 C115.123441,44.3158866 115.430515,43.9293324 116.245298,43.9293324 C116.282976,43.9293324 119.029691,43.9346423 119.029691,43.9346423 L119.019329,46.2667107 C119.019329,46.2667107 116.393184,46.2730824 116.25566,46.2730824 M118.201575,40.0230824 C118.051605,40.0230824 114.095209,40.0239872 114.095209,40.0239872 L114.09146,41.5674875 C114.09146,41.5674875 118.097533,41.5629637 118.135963,41.5629637 C119.081712,41.5629637 119.436953,41.9664814 119.436953,42.9427046 L116.00264,42.9372761 C114.442015,42.9372761 113.560941,43.6791696 113.560941,45.0326728 L113.560941,45.5782359 C113.560941,47.086451 114.459823,47.8355824 116.181667,47.8355824 L121.35282,47.8337729 C121.35282,47.8337729 121.373441,43.3806027 121.373441,43.0720836 C121.373441,40.9432113 120.608594,40.0230824 118.201575,40.0230824" id="Fill-37"></path>
                <path d="M22.7851038,48.3982103 L26.5618232,43.2951951 L30.3401814,48.3982103 C31.6242168,50.1337984 34.0996928,50.5190379 35.8680071,49.2579618 C37.6363213,47.9960814 38.0288248,45.5672231 36.74397,43.831635 L29.7649466,34.4033218 C29.7231561,34.347828 29.670713,34.3060066 29.628103,34.2529256 C29.5412442,34.1475678 29.4511077,34.0462313 29.3519576,33.9489162 C29.2528074,33.851601 29.1495601,33.7631326 29.0422158,33.6778813 C28.9881339,33.6352556 28.9455239,33.5837832 28.8889837,33.5435703 C28.8455543,33.5130085 28.7972084,33.4945105 28.7521401,33.4655573 C28.6325044,33.38674 28.5087716,33.3183781 28.3825805,33.2540375 C28.2735972,33.1985437 28.164614,33.1446584 28.0531725,33.09962 C27.9327174,33.0513645 27.8114428,33.0135644 27.6868906,32.9773728 C27.5623383,32.9411812 27.4394249,32.9065982 27.3132338,32.8824704 C27.1911398,32.8599512 27.0690458,32.8470831 26.9444936,32.8350192 C26.8166636,32.8229554 26.6904725,32.8125 26.5618232,32.8125 C26.4339932,32.8125 26.3078021,32.8229554 26.1799722,32.8350192 C26.0562393,32.8470831 25.9341454,32.8599512 25.811232,32.8824704 C25.6850409,32.9065982 25.5629469,32.9411812 25.4375752,32.9773728 C25.3138424,33.0135644 25.1925678,33.0513645 25.0721127,33.09962 C24.9598517,33.1446584 24.8508685,33.1985437 24.7427047,33.2540375 C24.6148748,33.3183781 24.4919614,33.38674 24.3723256,33.4655573 C24.3280768,33.4945105 24.2789115,33.5130085 24.2363015,33.5435703 C24.1789419,33.5837832 24.1363319,33.6352556 24.0830694,33.6778813 C23.975725,33.7631326 23.8724778,33.851601 23.7733276,33.9489162 C23.6741775,34.0462313 23.584041,34.1475678 23.4971822,34.2529256 C23.4529333,34.3060066 23.4013097,34.347828 23.3603386,34.4033218 L16.3813152,43.831635 C15.0964604,45.5672231 15.4881444,47.9960814 17.2564587,49.2579618 C19.0247729,50.5190379 21.500249,50.1337984 22.7851038,48.3982103" id="Fill-38"></path>
                <path d="M46.836191,41.4071347 L46.836191,41.4071347 C48.7061557,40.0809227 49.1212221,37.5257655 47.7625081,35.7005323 L43.7678197,30.3347867 L50.2312429,28.2845712 C52.4296213,27.5876332 53.6332269,25.2828323 52.9192089,23.1361958 C52.2034578,20.9912508 49.8430389,19.8164367 47.6446605,20.5133747 L35.7021886,24.3008603 C35.5574786,24.3473792 35.4179678,24.4006645 35.2827896,24.4598704 C35.2671921,24.4666368 35.2541942,24.474249 35.2385968,24.4810154 C34.9907701,24.5935066 34.7585409,24.7254511 34.5419092,24.8776949 C34.5410427,24.8785407 34.5384431,24.8793865 34.5358436,24.8810781 C34.5315109,24.8844613 34.5280448,24.8895361 34.5228457,24.8929192 C34.3036144,25.049392 34.1034467,25.2244723 33.9223426,25.4156227 C33.9050121,25.4333845 33.8911476,25.451992 33.8746836,25.4705996 C33.7109101,25.6499089 33.562734,25.8419051 33.4336215,26.0457426 C33.416291,26.0744997 33.4006935,26.1032569 33.3842295,26.1311682 C33.2646488,26.3316225 33.1615321,26.5405347 33.077479,26.7579049 C33.0670807,26.7849705 33.059282,26.812036 33.0488836,26.8399474 C32.9691632,27.0615466 32.9076398,27.2899122 32.8686461,27.5233525 C32.8643134,27.5444975 32.8625804,27.5656425 32.8591143,27.5867874 C32.8235867,27.8227652 32.8071227,28.0638178 32.8140549,28.3065619 C32.8140549,28.3285527 32.8166545,28.3496977 32.8183875,28.3716884 C32.8296524,28.608512 32.8591143,28.8470272 32.914572,29.0846965 C32.9206377,29.1126079 32.9301695,29.1405192 32.9379682,29.1684306 C32.9613644,29.2623142 32.9847607,29.3553521 33.0150891,29.4492357 C33.0618815,29.5896382 33.1173392,29.7258118 33.1771296,29.8586022 C33.1840618,29.8729807 33.1935936,29.8873593 33.2005258,29.9017379 C33.3149073,30.1444821 33.4500855,30.371156 33.6051938,30.5809141 C33.6069269,30.5834515 33.6077934,30.5859889 33.6095264,30.5876805 L40.9906014,40.5029761 C42.3484489,42.3282093 44.9662262,42.7333467 46.836191,41.4071347" id="Fill-39"></path>
                <path d="M31.4076263,19.9634735 C31.4379512,19.97693 31.4674098,19.9912274 31.4986012,20.0038428 C31.7256052,20.0946738 31.9612735,20.1644791 32.2021403,20.2157818 C32.2264003,20.220828 32.2497938,20.2267152 32.2740538,20.2317613 C32.5357149,20.283064 32.803441,20.3091359 33.0746328,20.3108179 C33.0806978,20.3108179 33.0858964,20.3125 33.091095,20.3125 C33.0945607,20.3125 33.09716,20.311659 33.0997592,20.311659 C33.3648861,20.3108179 33.6326122,20.2839051 33.9003383,20.2326024 C33.9168004,20.2292383 33.934129,20.2283972 33.9505911,20.2250331 C34.0961509,20.1947561 34.2408443,20.1585919 34.3855377,20.1131764 L46.3257755,16.3470546 C48.5239021,15.6540478 49.72737,13.3622474 49.0125673,11.2285603 C48.2977646,9.0948731 45.937616,7.92668568 43.7386229,8.6205335 L37.2768064,10.6583435 L37.2768064,4.06300462 C37.2768064,1.81914282 35.4027236,0 33.091095,0 C30.7803327,0 28.90625,1.81914282 28.90625,4.06300462 L28.90625,16.2494954 C28.90625,16.2520185 28.9071164,16.2545415 28.9071164,16.2570646 C28.9079829,16.5144191 28.9348421,16.7742966 28.9885606,17.0350152 C28.9920263,17.0509947 28.9928928,17.0669743 28.9963585,17.0829538 C29.0275499,17.2242464 29.0648062,17.3646981 29.1115933,17.5051497 C29.1427847,17.5976627 29.1809075,17.6859706 29.2181639,17.7751196 C29.228561,17.8020324 29.2372253,17.8289453 29.2493553,17.8550172 C29.348128,18.0778895 29.467695,18.2864644 29.6002585,18.4832648 C29.6132549,18.5017675 29.623652,18.5211111 29.6366484,18.5387727 C29.7770097,18.7389373 29.9355659,18.9222813 30.1071186,19.0921689 C30.1227143,19.1073074 30.1365771,19.1224459 30.1521728,19.1375844 C30.3245919,19.3032668 30.5126066,19.4521287 30.7101521,19.5850111 C30.7352785,19.6009906 30.7578056,19.6178112 30.7820656,19.6337907 C30.9804775,19.7616269 31.190153,19.8709605 31.4076263,19.9634735" id="Fill-40"></path>
                <path d="M19.2253151,20.2334401 C19.4930527,20.2847449 19.7599237,20.3108179 20.0259283,20.3116589 C20.0285277,20.3116589 20.0311271,20.3125 20.0337265,20.3125 C20.0389253,20.3125 20.0441241,20.3108179 20.0501893,20.3108179 C20.3222592,20.3099768 20.5899967,20.2839039 20.851669,20.2325991 C20.87593,20.2275527 20.8993245,20.2208242 20.9235855,20.2157778 C21.1644627,20.164473 21.400141,20.0946648 21.6262882,20.0046711 C21.6583474,19.9912141 21.6878072,19.9769161 21.7181335,19.9643001 C21.9356161,19.8709422 22.1453005,19.7616041 22.3437208,19.6346036 C22.3679819,19.6186235 22.3905099,19.6018022 22.4156374,19.584981 C22.6131913,19.4520931 22.8003476,19.3040661 22.9736405,19.1383768 C22.9892369,19.1232377 23.0031003,19.1072575 23.0186967,19.0929594 C23.1902567,18.9230648 23.3488197,18.7397132 23.4883204,18.5395403 C23.5021839,18.5210369 23.5125814,18.5016925 23.5255784,18.4831891 C23.6581475,18.2872215 23.7777196,18.078638 23.8756301,17.8557565 C23.8877606,17.8296836 23.8972917,17.8019285 23.9076892,17.7750145 C23.9449472,17.6867029 23.9830717,17.5983914 24.0133979,17.5050334 C24.0610535,17.3654171 24.0983114,17.2241186 24.1286377,17.0836611 C24.1321036,17.0676809 24.1338365,17.0508597 24.1373023,17.0348795 C24.1901567,16.7749912 24.2178835,16.5151029 24.2178835,16.2577378 C24.2178835,16.2552146 24.21875,16.2526914 24.21875,16.2501682 L24.21875,4.06233179 C24.21875,1.81837709 22.3454538,0 20.0337265,0 C17.7228657,0 15.848703,1.81837709 15.848703,4.06233179 L15.848703,10.6587848 L9.38661087,8.62004938 C7.187524,7.92701389 4.82640827,9.09440862 4.11244153,11.2281841 C3.39760833,13.3628007 4.6011275,15.654696 6.79934791,16.3477315 L18.740095,20.1131682 C18.8847946,20.1594266 19.0294942,20.1955923 19.1750602,20.2250295 C19.191523,20.2292348 19.2079859,20.2300759 19.2253151,20.2334401" id="Fill-41"></path>
                <path d="M12.1343986,40.5029761 L19.5154736,30.5876805 C19.5172066,30.5851431 19.5180731,30.5826057 19.5189397,30.5809141 C19.6740479,30.371156 19.8100927,30.1436363 19.9244742,29.9017379 C19.9314064,29.8873593 19.9400717,29.8729807 19.9470039,29.8586022 C20.0076608,29.7258118 20.0622519,29.5896382 20.1090444,29.4492357 C20.1402393,29.3553521 20.1636356,29.2614684 20.1870318,29.1684306 C20.193964,29.1396735 20.2043623,29.1126079 20.2095615,29.0846965 C20.2658857,28.8470272 20.2953476,28.608512 20.3066125,28.3725342 C20.307479,28.3505435 20.3100786,28.3277069 20.3109451,28.3057161 C20.3178773,28.062972 20.3014133,27.8227652 20.2658857,27.5867874 C20.2624196,27.5656425 20.25982,27.5444975 20.2563539,27.5233525 C20.2164937,27.2890664 20.1558368,27.0607008 20.0752498,26.8391016 C20.065718,26.812036 20.0579193,26.7849705 20.047521,26.7579049 C19.9634679,26.5405347 19.8603512,26.3324683 19.7407705,26.132014 C19.7243065,26.1032569 19.708709,26.0736539 19.6913785,26.0457426 C19.562266,25.8419051 19.4140899,25.6499089 19.2503164,25.4697538 C19.2338524,25.451992 19.2191214,25.4333845 19.2026574,25.4156227 C19.0215533,25.2244723 18.8205191,25.049392 18.6012878,24.8920734 C18.5969552,24.8886903 18.5934891,24.8844613 18.5891564,24.8810781 C18.5865569,24.8793865 18.5839573,24.8785407 18.5822242,24.8776949 C18.3664591,24.7254511 18.1342299,24.5926608 17.8855367,24.4810154 C17.8708058,24.474249 17.8569413,24.4666368 17.8422104,24.4598704 C17.7070322,24.4006645 17.5675214,24.3465334 17.4228114,24.3008603 L5.48033954,20.5133747 C3.28196114,19.8164367 0.9206757,20.9912508 0.205791119,23.1361958 C-0.508226935,25.2819865 0.695378741,27.5867874 2.89375714,28.2845712 L9.35631376,30.3347867 L5.3624919,35.7005323 C4.0029114,37.5257655 4.41797772,40.0809227 6.28794248,41.4071347 C8.15790724,42.7333467 10.7756846,42.3282093 12.1343986,40.5029761" id="Fill-42"></path>
                <path d="M26.5625,28.125 C24.8375,28.125 23.4375,26.7258333 23.4375,25 C23.4375,23.2741667 24.8375,21.875 26.5625,21.875 C28.2883333,21.875 29.6875,23.2741667 29.6875,25 C29.6875,26.7258333 28.2883333,28.125 26.5625,28.125" id="Fill-43"></path>
            </g>
        </g>
    </g>
</svg>