<?xml version="1.0" encoding="UTF-8"?>
<svg width="18px" height="18px" viewBox="0 0 18 18" version="1.1" xmlns="http://www.w3.org/2000/svg" xmlns:xlink="http://www.w3.org/1999/xlink">
    <!-- Generator: Sketch 53.2 (72643) - https://sketchapp.com -->
    <title>nav_xiaoxi</title>
    <desc>Created with Sketch.</desc>
    <g id="Page-1" stroke="none" stroke-width="1" fill="none" fill-rule="evenodd">
        <g id="00-梅花网首页" transform="translate(-1749.000000, -20.000000)" fill="#A4A4A4">
            <g id="Group-6-Copy-6">
                <g id="Group" transform="translate(1749.000000, 20.000000)">
                    <g id="nav_xiaoxi" transform="translate(9.000000, 9.000000) scale(-1, 1) translate(-9.000000, -9.000000) ">
                        <path d="M8.64867353,17.9932686 C3.84094679,17.8087249 0,13.852913 0,9 C0,4.02943725 4.02943725,0 9,0 C13.8528541,0 17.8086288,3.84085348 17.9932619,8.64849834 L18,8.64 L18,18 L8.64,18 L8.64867353,17.9932686 Z M12.24,10.8 C13.03529,10.8 13.68,10.15529 13.68,9.36 C13.68,8.56470996 13.03529,7.92 12.24,7.92 C11.44471,7.92 10.8,8.56470996 10.8,9.36 C10.8,10.15529 11.44471,10.8 12.24,10.8 Z M5.76,10.8 C6.55529004,10.8 7.2,10.15529 7.2,9.36 C7.2,8.56470996 6.55529004,7.92 5.76,7.92 C4.96470996,7.92 4.32,8.56470996 4.32,9.36 C4.32,10.15529 4.96470996,10.8 5.76,10.8 Z" id="合并形状"></path>
                    </g>
                </g>
            </g>
        </g>
    </g>
</svg>