<?xml version="1.0" encoding="UTF-8"?>
<svg width="45px" height="44px" viewBox="0 0 45 44" version="1.1" xmlns="http://www.w3.org/2000/svg" xmlns:xlink="http://www.w3.org/1999/xlink">
    <!-- Generator: Sketch 53.2 (72643) - https://sketchapp.com -->
    <title>mingdao</title>
    <desc>Created with Sketch.</desc>
    <defs>
        <rect id="path-1" x="680" y="0" width="1240" height="1007" rx="3"></rect>
        <filter x="-3.6%" y="-4.5%" width="107.3%" height="108.9%" filterUnits="objectBoundingBox" id="filter-2">
            <feOffset dx="0" dy="0" in="SourceAlpha" result="shadowOffsetOuter1"></feOffset>
            <feGaussianBlur stdDeviation="15" in="shadowOffsetOuter1" result="shadowBlurOuter1"></feGaussianBlur>
            <feColorMatrix values="0 0 0 0 0.246311078   0 0 0 0 0.489810861   0 0 0 0 0.618517889  0 0 0 0.2 0" type="matrix" in="shadowBlurOuter1"></feColorMatrix>
        </filter>
    </defs>
    <g id="Page-1" stroke="none" stroke-width="1" fill="none" fill-rule="evenodd">
        <g id="登录注册-" transform="translate(-1436.000000, -756.000000)">
            <rect fill="#F0F1F4" x="0" y="0" width="1920" height="1007"></rect>
            <g id="Rectangle">
                <use fill="black" fill-opacity="1" filter="url(#filter-2)" xlink:href="#path-1"></use>
                <use fill="#FFFFFF" fill-rule="evenodd" xlink:href="#path-1"></use>
            </g>
            <g id="Group-30" transform="translate(1000.000000, 129.000000)">
                <g id="Group-2">
                    <rect id="Rectangle-Copy" fill="#FFFFFF" x="0" y="0" width="600" height="750"></rect>
                    <g id="Group-7-Copy-2" transform="translate(119.000000, 627.000000)" fill="#2096F3" fill-rule="nonzero">
                        <g id="分组-8-copy-8">
                            <g id="Group-28">
                                <path d="M339.872988,3.55271368e-15 C327.722979,2.55351225e-15 317.872988,9.84999137 317.872988,22 C317.872988,34.1500086 327.722979,44 339.872988,44 C352.022997,44 361.872988,34.1500086 361.872988,22 C361.872988,9.84999137 352.022997,3.55271368e-15 339.872988,3.55271368e-15 Z M336.972769,22.2559583 C336.959844,22.1312795 336.73528,22.0179353 336.597957,22.012268 C335.874181,21.9782647 335.147176,22.0221856 334.425017,22.056189 C334.279616,22.063273 334.032434,22.2885446 334.027588,22.4075551 C333.995276,23.3029736 333.987198,24.2125613 334.025972,25.1079831 C334.042128,25.4848517 334.211763,25.8858081 334.717434,25.9523967 C335.182717,26.0133194 335.665771,26.0062351 336.139134,25.9835664 C336.736896,25.9552304 336.964691,25.4182619 336.984077,24.943634 C337.001849,24.5030093 336.987309,24.8614593 336.987309,23.4446573 C336.988924,23.4446573 336.988924,23.4446573 336.99054,23.4446573 C336.992155,23.4446573 337.01962,22.7093364 336.972768,22.2559605 L336.972769,22.2559583 Z M345.985262,17.112333 C345.981226,16.5293799 345.764629,16.1422044 345.238606,16.0852241 C344.461008,15.9990231 343.667264,15.9698021 342.889666,16.0370099 C342.266779,16.0910683 342.028656,16.4811658 342.007133,17.1722343 C341.992334,17.6426889 342.01386,18.1131399 342.000406,18.5835945 C341.992334,18.8874899 342.103996,19.0014517 342.382478,18.9941442 C342.923299,18.9795339 343.465467,18.9897611 344.006288,18.9897611 C344.501367,18.9897611 344.997793,18.9663846 345.491529,18.9970663 C345.864185,19.0204429 346.028314,18.9094042 345.996026,18.4725558 C345.962393,18.0210958 345.989299,17.5652528 345.985263,17.1123307 L345.985262,17.112333 Z M342.270964,21.0146941 C342.180436,21.0161507 342.018297,21.2069655 342.015595,21.3132975 C341.993976,22.0998623 341.993976,22.8878849 342.020999,23.6744497 C342.025053,23.7866079 342.215567,23.980336 342.322308,23.9832491 C343.455931,24.0065547 344.590906,24.0036415 345.724542,23.9861623 C345.81642,23.9847057 345.985316,23.8317624 345.986667,23.745823 C346.005583,22.8471011 345.998827,21.9483757 345.998827,21.0001281 C344.717927,21.0015847 343.493775,20.9943017 342.270985,21.0146941 L342.270964,21.0146941 Z M334.350366,19.9809752 C335.206771,20.0107749 336.0648,19.9966593 336.997437,19.9966593 C336.997437,18.7231177 337.010413,17.5327002 336.977973,16.3438487 C336.974729,16.227787 336.708724,16.0285998 336.55626,16.0207579 C335.866919,15.986253 335.174333,16.0191895 334.483369,16.0003686 C334.105448,15.9909582 333.998399,16.1619142 334.000018,16.4912798 C334.008128,17.5389715 333.991908,18.5882327 334.01786,19.635928 C334.021104,19.7582634 334.230339,19.9778397 334.350366,19.9809767 L334.350366,19.9809752 Z M337.205844,27.7863168 C336.166897,28.0420634 335.102777,28.0782013 334.05404,27.8405239 C332.431995,27.4735834 332.065635,26.4825669 332.025085,25.0467719 C331.976144,23.3010254 332.013899,21.552497 332.013899,19.8039587 C332.013899,18.0554302 332.026484,16.308283 332.004111,14.5611455 C331.999916,14.1511162 332.097798,13.9315089 332.534073,14.0190742 C332.920008,14.09691 333.297554,14.2150539 333.679294,14.3095687 C333.83171,14.3484868 333.986923,14.4013039 334.140738,14.4040836 C334.834303,14.4138131 335.527866,14.4110332 336.221431,14.4082534 C336.716435,14.4068635 337.198854,14.4374419 337.664493,14.1483371 C337.898012,14.0037848 338.254581,14.0538222 338.555221,14.0176839 C338.893613,13.9759861 339.004081,14.1274882 338.999886,14.4610715 C338.984504,15.6633589 338.992894,16.865643 338.992894,18.0679304 C338.992894,20.264013 339.004081,22.4614769 338.985902,24.6575823 C338.981707,25.1635166 338.9048,25.6750084 338.808316,26.1739909 C338.637722,27.0538143 338.046235,27.5792065 337.205847,27.7863044 L337.205844,27.7863168 Z M345.727542,30.9901678 C345.264242,31.0114255 344.798257,30.9859163 344.334957,30.9972537 C344.082492,31.0029225 343.965661,30.9122229 343.976403,30.6287878 C343.991175,30.2376459 343.987146,29.8450858 343.976403,29.4525289 C343.969689,29.2002706 344.063691,29.0911478 344.304072,29.1067357 C344.458505,29.1180731 344.614281,29.1180731 344.768716,29.1053185 C345.467024,29.0472142 345.908837,28.7155949 345.845722,27.9078018 C345.804092,27.3721075 345.833636,26.8307433 345.828264,26.2922158 C345.828264,26.2468661 345.804092,26.2015161 345.771862,26.0867244 C344.561909,26.0867244 343.372103,26.090976 342.18094,26.0838901 C341.894902,26.0824729 341.872073,26.246866 341.854615,26.4892049 C341.811643,27.1184332 341.8197,27.7703374 341.663924,28.3712198 C341.187193,30.1922983 339.841609,30.8130234 338.439613,30.9930032 C338.120002,31.0341013 337.976313,30.8952177 338.019284,30.5480095 C338.035399,30.419046 338.032713,30.2858312 338.019284,30.1568676 C337.949453,29.517718 338.044799,29.0642212 338.716249,28.7425223 C339.465586,28.3825595 339.691194,27.5520905 339.695222,26.7145366 C339.707308,23.4479338 339.685822,20.1799161 339.705965,16.9133033 C339.720737,14.5366912 340.735968,14.12004 342.364905,14.0265061 C343.547998,13.9584814 344.741837,14.033592 345.927627,14.1143712 C347.134892,14.1965678 347.984947,15.1772568 347.988976,16.4442164 C348.001062,20.4959362 348.003748,24.5462278 347.994347,28.5979476 C347.991662,29.9612744 347.058346,30.9292111 345.727535,30.9901477 L345.727542,30.9901678 Z" id="mingdao"></path>
                            </g>
                        </g>
                    </g>
                </g>
            </g>
        </g>
    </g>
</svg>