<?xml version="1.0" encoding="UTF-8"?>
<svg width="15px" height="18px" viewBox="0 0 15 18" version="1.1" xmlns="http://www.w3.org/2000/svg" xmlns:xlink="http://www.w3.org/1999/xlink">
    <!-- Generator: Sketch 53.2 (72643) - https://sketchapp.com -->
    <title>nav_button_fabu</title>
    <desc>Created with Sketch.</desc>
    <g id="Page-1" stroke="none" stroke-width="1" fill="none" fill-rule="evenodd">
        <g id="00-梅花网首页" transform="translate(-1612.000000, -21.000000)" fill="#E7F1F7" fill-rule="nonzero">
            <g id="Group-6-Copy-6">
                <g id="分组-3-copy-4" transform="translate(1599.000000, 16.000000)">
                    <g id="分组-7" transform="translate(13.000000, 2.500000)">
                        <g id="合并形状-2" transform="translate(0.163093, 2.779878)">
                            <path d="M12.0216982,3.91770355 L11.2846033,4.65479843 L9.58011018,2.95030532 L10.2718557,2.25855979 C10.2848882,2.24355734 10.2986256,2.22881554 10.3130706,2.2143705 C10.5784248,1.94901635 10.9911979,1.91953255 11.2565521,2.18488671 L12.051182,2.97422211 C12.3165361,3.23957627 12.2870523,3.6523494 12.0216982,3.91770355 Z M9.32919283,3.20061248 L11.0285652,4.89998488 L5.60354696,10.3250032 L3.90417455,8.62563076 L9.32919283,3.20061248 Z M3.66903388,8.8917146 L5.35362173,10.5763024 L2.27192043,11.9572573 L3.66903388,8.8917146 Z M2.25881905,11.9814442 L6.12252235,13.0167204 L5.86370331,13.9826462 L2,12.9473701 L2.25881905,11.9814442 Z M7.08844818,13.2755395 L9.98622566,14.0519966 L9.72740661,15.0179224 L6.82962913,14.2414653 L7.08844818,13.2755395 Z" id="合并形状" transform="translate(7.118034, 8.508961) rotate(-375.000000) translate(-7.118034, -8.508961) "></path>
                        </g>
                    </g>
                </g>
            </g>
        </g>
    </g>
</svg>