<?xml version="1.0" encoding="UTF-8"?>
<svg width="44px" height="44px" viewBox="0 0 44 44" version="1.1" xmlns="http://www.w3.org/2000/svg" xmlns:xlink="http://www.w3.org/1999/xlink">
    <!-- Generator: Sketch 53.2 (72643) - https://sketchapp.com -->
    <title>qq</title>
    <desc>Created with Sketch.</desc>
    <g id="Page-1" stroke="none" stroke-width="1" fill="none" fill-rule="evenodd">
        <g id="登录注册-" transform="translate(-1331.000000, -756.000000)">
            <g id="Group-30" transform="translate(1000.000000, 129.000000)">
                <g id="Group-2">
                    <g id="Group-7-Copy-2" transform="translate(119.000000, 627.000000)">
                        <g id="分组-8-copy-8">
                            <g id="Group-28">
                                <g id="qq" transform="translate(212.000000, 0.000000)">
                                    <circle id="椭圆形" fill="#518EF1" cx="22" cy="22" r="22"></circle>
                                    <path d="M21.7769888,30.2047704 L21.8802289,30.2047704 C23.4394204,31.8063163 26.9125289,31.4595357 27.8178536,30.5409635 C28.45053,29.8976973 27.9660959,29.3100223 27.3916578,28.9658885 C26.9072242,28.6773458 26.3566098,28.5794004 26.3566098,28.5794004 C27.3095958,27.8964267 27.9819798,26.1095817 27.9819798,26.1095817 L28.0587481,26.1095817 C28.6331866,27.4596456 29.1493871,27.4437622 29.2288045,27.3881711 C29.6179395,27.1181588 29.9223657,25.6357356 29.6152926,24.391549 C29.2605692,22.9753065 28.3737639,21.70466 28.1646364,21.3525856 C27.7755013,20.6907892 27.6881434,20.1507645 27.7410875,19.3910225 C27.7940312,18.6312806 27.5901981,17.6041732 27.5901981,17.6041732 C26.4095542,12.6063002 21.7769811,12.7915816 21.7769811,12.7915816 C21.7769811,12.7915816 17.1444169,12.6062788 15.9637642,17.6015131 C15.9637642,17.6015131 15.7572837,18.6312674 15.8128747,19.3883625 C15.8658184,20.1481044 15.7811085,20.6881291 15.3893259,21.3499255 C15.1801983,21.704649 14.2933908,22.9752956 13.9413165,24.391549 C13.6315966,25.6357246 13.9360221,27.1155031 14.3278047,27.3881711 C14.4072202,27.4437619 14.9234204,27.4596452 15.4978611,26.1095817 L15.5746293,26.1095817 C15.5746293,26.1095817 16.2470133,27.8964311 17.1999993,28.5794004 C17.1999993,28.5794004 16.6493849,28.6773463 16.1649513,28.9658885 C15.5905128,29.3100223 15.1060769,29.8950505 15.7387556,30.5409635 C16.6414443,31.4595357 20.1172063,31.8063185 21.6763802,30.2047704 L21.7769732,30.2047703 L21.7769732,30.2047703 L21.7769888,30.2047704 Z" id="路径" fill="#FFFEFF" fill-rule="nonzero"></path>
                                </g>
                            </g>
                        </g>
                    </g>
                </g>
            </g>
        </g>
    </g>
</svg>