<?xml version="1.0" encoding="UTF-8"?>
<svg width="19px" height="19px" viewBox="0 0 19 19" version="1.1" xmlns="http://www.w3.org/2000/svg" xmlns:xlink="http://www.w3.org/1999/xlink">
    <!-- Generator: Sketch 53.2 (72643) - https://sketchapp.com -->
    <title>nav_sousuo</title>
    <desc>Created with Sketch.</desc>
    <g id="Page-1" stroke="none" stroke-width="1" fill="none" fill-rule="evenodd">
        <g id="00-梅花网首页" transform="translate(-1701.000000, -20.000000)" fill="#BBBBBB" fill-rule="nonzero">
            <g id="Group-6-Copy-6">
                <g id="nav_sousuo" transform="translate(1701.000000, 20.000000)">
                    <path d="M7.51881739,12.5313623 C10.2871695,12.5313623 12.5313623,10.2871695 12.5313623,7.51881739 C12.5313623,4.75046527 10.2871695,2.50627246 7.51881739,2.50627246 C4.75046527,2.50627246 2.50627246,4.75046527 2.50627246,7.51881739 C2.50627246,10.2871695 4.75046527,12.5313623 7.51881739,12.5313623 Z M13.9966186,11.3383152 L17.8119592,15.1536559 C18.2024835,15.5441802 18.2024835,16.1773451 17.8119592,16.5678694 L16.5678694,17.8119592 C16.1773451,18.2024835 15.5441802,18.2024835 15.1536559,17.8119592 L11.3383152,13.9966186 C10.2189264,14.6580672 8.91319827,15.0376348 7.51881739,15.0376348 C3.36628921,15.0376348 0,11.6713456 0,7.51881739 C0,3.36628921 3.36628921,0 7.51881739,0 C11.6713456,0 15.0376348,3.36628921 15.0376348,7.51881739 C15.0376348,8.91319827 14.6580672,10.2189264 13.9966186,11.3383152 Z" id="Combined-Shape"></path>
                </g>
            </g>
        </g>
    </g>
</svg>