<?xml version="1.0" encoding="UTF-8"?>
<svg width="52px" height="50px" viewBox="0 0 52 50" version="1.1" xmlns="http://www.w3.org/2000/svg" xmlns:xlink="http://www.w3.org/1999/xlink">
    <!-- Generator: Sketch 53.2 (72643) - https://sketchapp.com -->
    <title>Group 2 Copy 2</title>
    <desc>Created with Sketch.</desc>
    <g id="Page-1" stroke="none" stroke-width="1" fill="none" fill-rule="evenodd">
        <g id="登录注册-" transform="translate(-1274.000000, -175.000000)" fill="#008CD6">
            <g id="Group-30" transform="translate(1000.000000, 129.000000)">
                <g id="Group-2">
                    <g id="Group" transform="translate(100.000000, 46.000000)">
                        <g id="Group-2-Copy-2" transform="translate(174.000000, 0.000000)">
                            <path d="M21.9936589,47.5480328 L25.7921343,42.3472131 L29.592258,47.5480328 C30.8836902,49.3168852 33.3734264,49.7095082 35.1519271,48.4242623 C36.9304279,47.1381967 37.3251924,44.6627869 36.0329361,42.8939344 L29.0137095,33.284918 C28.9716782,33.2283607 28.9189331,33.1857377 28.8760776,33.1316393 C28.7887185,33.0242623 28.6980627,32.9209836 28.5983414,32.8218033 C28.4986201,32.722623 28.3947781,32.632459 28.2868154,32.5455738 C28.2324219,32.5021311 28.1895665,32.4496721 28.1327006,32.4086885 C28.089021,32.377541 28.0403966,32.3586885 27.9950687,32.3291803 C27.8747438,32.2488525 27.7502982,32.1791803 27.6233802,32.1136066 C27.5137692,32.0570492 27.4041581,32.0021311 27.2920747,31.9562295 C27.1709256,31.9070492 27.0489525,31.8685246 26.9236827,31.8316393 C26.798413,31.7947541 26.6747915,31.7595082 26.5478735,31.734918 C26.4250762,31.7119672 26.3022788,31.6988525 26.1770091,31.6865574 C26.0484428,31.6742623 25.9215247,31.6636066 25.7921343,31.6636066 C25.663568,31.6636066 25.5366499,31.6742623 25.4080836,31.6865574 C25.283638,31.6988525 25.1608407,31.7119672 25.0372192,31.734918 C24.9103012,31.7595082 24.7875039,31.7947541 24.66141,31.8316393 C24.5369644,31.8685246 24.4149912,31.9070492 24.2938422,31.9562295 C24.1809346,32.0021311 24.0713235,32.0570492 23.9625367,32.1136066 C23.8339703,32.1791803 23.7103489,32.2488525 23.590024,32.3291803 C23.5455203,32.3586885 23.4960717,32.377541 23.4532162,32.4086885 C23.3955262,32.4496721 23.3526708,32.5021311 23.2991015,32.5455738 C23.1911387,32.632459 23.0872967,32.722623 22.9875754,32.8218033 C22.8878541,32.9209836 22.7971984,33.0242623 22.7098392,33.1316393 C22.6653355,33.1857377 22.6134145,33.2283607 22.5722073,33.284918 L15.5529808,42.8939344 C14.2607244,44.6627869 14.6546648,47.1381967 16.4331656,48.4242623 C18.2116663,49.7095082 20.7014025,49.3168852 21.9936589,47.5480328" id="Fill-38"></path>
                            <path d="M45.6048633,40.8705738 L45.6048633,40.8705738 C47.3833641,39.5853279 47.7781286,37.1090984 46.4858723,35.3402459 L42.6865727,30.1402459 L48.8338559,28.1533607 C50.9247069,27.4779508 52.0694416,25.2443443 51.3903477,23.1640164 C50.7096055,21.0853279 48.4646398,19.9468033 46.3737888,20.6222131 L35.015449,24.2927049 C34.8778171,24.3377869 34.7451301,24.3894262 34.6165638,24.4468033 C34.6017292,24.4533607 34.5893671,24.4607377 34.5745325,24.4672951 C34.3388276,24.5763115 34.1179572,24.7041803 33.9119215,24.8517213 C33.9110973,24.852541 33.9086249,24.8533607 33.9061525,24.855 C33.9020317,24.8582787 33.8987352,24.8631967 33.8937903,24.8664754 C33.6852821,25.0181148 33.4949051,25.1877869 33.3226592,25.3730328 C33.3061763,25.3902459 33.29299,25.4082787 33.2773313,25.4263115 C33.1215683,25.600082 32.9806398,25.7861475 32.8578425,25.9836885 C32.8413596,26.0115574 32.826525,26.0394262 32.8108663,26.0664754 C32.6971346,26.2607377 32.5990615,26.4631967 32.5191197,26.6738525 C32.50923,26.700082 32.5018127,26.7263115 32.491923,26.7533607 C32.4161018,26.9681148 32.3575876,27.1894262 32.3205012,27.4156557 C32.3163805,27.4361475 32.3147322,27.4566393 32.3114356,27.4771311 C32.2776458,27.7058197 32.261987,27.9394262 32.2685802,28.1746721 C32.2685802,28.1959836 32.2710526,28.2164754 32.2727009,28.2377869 C32.2834148,28.4672951 32.3114356,28.6984426 32.3641808,28.9287705 C32.3699498,28.9558197 32.3790154,28.9828689 32.3864326,29.009918 C32.4086845,29.1009016 32.4309364,29.1910656 32.4597814,29.2820492 C32.5042851,29.4181148 32.5570303,29.550082 32.6138961,29.6787705 C32.6204893,29.6927049 32.6295548,29.7066393 32.636148,29.7205738 C32.7449349,29.9558197 32.8735012,30.1754918 33.0210228,30.3787705 C33.0226711,30.3812295 33.0234952,30.3836885 33.0251435,30.3853279 L40.0451942,39.9943443 C41.3366264,41.7631967 43.8263626,42.1558197 45.6048633,40.8705738" id="Fill-39"></path>
                            <path d="M30.6511994,19.4562295 C30.6800444,19.4693443 30.7080653,19.4832787 30.7377344,19.4955738 C30.9536599,19.5840984 31.1778268,19.6521311 31.4069386,19.7021311 C31.4300146,19.7070492 31.4522665,19.7127869 31.4753425,19.7177049 C31.7242337,19.7677049 31.9788939,19.7931148 32.2368507,19.7947541 C32.2426197,19.7947541 32.2475645,19.7963934 32.2525094,19.7963934 C32.255806,19.7963934 32.2582784,19.7955738 32.2607508,19.7955738 C32.5129386,19.7947541 32.7675988,19.7685246 33.022259,19.7185246 C33.0379177,19.7152459 33.0544006,19.7144262 33.0700593,19.7111475 C33.2085154,19.6816393 33.3461472,19.6463934 33.4837791,19.6021311 L44.8412948,15.9316393 C46.9321458,15.2562295 48.0768805,13.022623 47.3969624,10.9431148 C46.7170444,8.86360656 44.4720787,7.72508197 42.3804036,8.40131148 L36.2339446,10.387377 L36.2339446,3.9595082 C36.2339446,1.77262295 34.4513231,-0.000327868852 32.2525094,-0.000327868852 C30.0545198,-0.000327868852 28.2718984,1.77262295 28.2718984,3.9595082 L28.2718984,15.8365574 C28.2718984,15.8390164 28.2727225,15.8414754 28.2727225,15.8439344 C28.2735466,16.0947541 28.2990951,16.3480328 28.350192,16.6021311 C28.3534885,16.6177049 28.3543127,16.6332787 28.3576092,16.6488525 C28.3872784,16.7865574 28.4227165,16.9234426 28.4672203,17.0603279 C28.4968894,17.1504918 28.5331517,17.2365574 28.5685899,17.3234426 C28.5784796,17.3496721 28.586721,17.3759016 28.598259,17.4013115 C28.6922113,17.6185246 28.8059431,17.8218033 28.932037,18.0136066 C28.9443991,18.0316393 28.9542888,18.0504918 28.966651,18.0677049 C29.1001621,18.2627869 29.2509803,18.4414754 29.4141607,18.6070492 C29.4289952,18.6218033 29.4421815,18.6365574 29.4570161,18.6513115 C29.6210206,18.8127869 29.7998596,18.9578689 29.9877642,19.087377 C30.0116644,19.1029508 30.0330921,19.1193443 30.0561681,19.134918 C30.2448969,19.2595082 30.4443395,19.3660656 30.6511994,19.4562295" id="Fill-40"></path>
                            <path d="M18.563493,19.7187705 C18.8181532,19.7687705 19.0719893,19.7941803 19.3250012,19.795 C19.3274736,19.795 19.3299461,19.7958197 19.3324185,19.7958197 C19.3373633,19.7958197 19.3423082,19.7941803 19.3480772,19.7941803 C19.6068581,19.7933607 19.8615183,19.7679508 20.1104095,19.7179508 C20.1334855,19.7130328 20.1557374,19.7064754 20.1788134,19.7015574 C20.4079252,19.6515574 20.6320921,19.5835246 20.8471934,19.4958197 C20.8776867,19.4827049 20.9057076,19.4687705 20.9345526,19.4564754 C21.1414125,19.3654918 21.3408551,19.2589344 21.5295839,19.1351639 C21.5526599,19.1195902 21.5740876,19.1031967 21.5979878,19.0868033 C21.7858924,18.9572951 21.9639073,18.8130328 22.1287359,18.6515574 C22.1435705,18.6368033 22.1567568,18.6212295 22.1715914,18.6072951 C22.3347717,18.4417213 22.4855899,18.2630328 22.6182769,18.0679508 C22.6314632,18.049918 22.6413529,18.0310656 22.6537151,18.0130328 C22.7798089,17.8220492 22.8935407,17.6187705 22.9866689,17.4015574 C22.9982069,17.3761475 23.0072724,17.3490984 23.0171621,17.3228689 C23.0526003,17.2368033 23.0888626,17.1507377 23.1177076,17.0597541 C23.1630355,16.9236885 23.1984736,16.7859836 23.2273186,16.6490984 C23.2306152,16.6335246 23.2322635,16.6171311 23.2355601,16.6015574 C23.2858328,16.3482787 23.3122054,16.095 23.3122054,15.8441803 C23.3122054,15.8417213 23.3130295,15.8392623 23.3130295,15.8368033 L23.3130295,3.95893443 C23.3130295,1.77204918 21.5312322,-8.19672131e-05 19.3324185,-8.19672131e-05 C17.1344289,-8.19672131e-05 15.3518075,1.77204918 15.3518075,3.95893443 L15.3518075,10.387623 L9.20534844,8.4007377 C7.11367332,7.72532787 4.86788346,8.86303279 4.18878957,10.942541 C3.50887154,13.0228689 4.65360626,15.2564754 6.74445723,15.9318852 L18.1019729,19.6015574 C18.2396048,19.6466393 18.3772367,19.6818852 18.5156927,19.7105738 C18.5313514,19.7146721 18.5470101,19.7154918 18.563493,19.7187705" id="Fill-41"></path>
                            <path d="M11.5405578,39.9944262 L18.5606085,30.3854098 C18.5622568,30.3829508 18.5630809,30.3804918 18.5639051,30.3788525 C18.7114267,30.1755738 18.8408171,29.955082 18.949604,29.7206557 C18.9561972,29.7067213 18.9644386,29.6927869 18.9710317,29.6788525 C19.0287218,29.5501639 19.0806428,29.4181967 19.1251465,29.2821311 C19.1548156,29.1911475 19.1770675,29.1001639 19.1993194,29.01 C19.2059125,28.9821311 19.2158022,28.9559016 19.2207471,28.9288525 C19.2743164,28.6985246 19.3023373,28.467377 19.3130511,28.2386885 C19.3138753,28.217377 19.3163477,28.1952459 19.3171718,28.1739344 C19.323765,27.9386885 19.3081063,27.7059016 19.2743164,27.4772131 C19.2710198,27.4567213 19.2685474,27.4362295 19.2652508,27.4157377 C19.2273402,27.1886885 19.1696502,26.967377 19.0930049,26.752623 C19.0839393,26.7263934 19.0765221,26.7001639 19.0666323,26.6739344 C18.9866905,26.4632787 18.8886174,26.2616393 18.7748857,26.067377 C18.759227,26.0395082 18.7443924,26.0108197 18.7279095,25.9837705 C18.6051122,25.7862295 18.4641838,25.6001639 18.3084207,25.4255738 C18.292762,25.4083607 18.2787516,25.3903279 18.2630928,25.3731148 C18.0908469,25.1878689 17.8996458,25.0181967 17.6911376,24.8657377 C17.6870168,24.862459 17.6837203,24.8583607 17.6795996,24.855082 C17.6771271,24.8534426 17.6746547,24.852623 17.6730064,24.8518033 C17.4677948,24.7042623 17.2469244,24.5755738 17.0103954,24.467377 C16.9963849,24.4608197 16.9831987,24.4534426 16.9691882,24.4468852 C16.8406219,24.3895082 16.7079349,24.3370492 16.570303,24.2927869 L5.21196319,20.6222951 C3.12111222,19.9468852 0.875322355,21.0854098 0.195404322,23.1640984 C-0.483689568,25.2436066 0.661045156,27.4772131 2.75189613,28.1534426 L8.89835514,30.1403279 L5.09987973,35.3403279 C3.80679925,37.1091803 4.20156379,39.5854098 5.98006453,40.8706557 C7.75856528,42.1559016 10.2483015,41.7632787 11.5405578,39.9944262" id="Fill-42"></path>
                            <path d="M25.7924639,27.7541803 C24.0864878,27.7541803 22.7019274,26.3779508 22.7019274,24.6804098 C22.7019274,22.9828689 24.0864878,21.6066393 25.7924639,21.6066393 C27.4992642,21.6066393 28.8830004,22.9828689 28.8830004,24.6804098 C28.8830004,26.3779508 27.4992642,27.7541803 25.7924639,27.7541803" id="Fill-43"></path>
                        </g>
                    </g>
                </g>
            </g>
        </g>
    </g>
</svg>