<?xml version="1.0" encoding="UTF-8"?>
<svg width="44px" height="44px" viewBox="0 0 44 44" version="1.1" xmlns="http://www.w3.org/2000/svg" xmlns:xlink="http://www.w3.org/1999/xlink">
    <!-- Generator: Sketch 53.2 (72643) - https://sketchapp.com -->
    <title>weibo</title>
    <desc>Created with Sketch.</desc>
    <g id="Page-1" stroke="none" stroke-width="1" fill="none" fill-rule="evenodd">
        <g id="登录注册-" transform="translate(-1119.000000, -756.000000)">
            <g id="Group-30" transform="translate(1000.000000, 129.000000)">
                <g id="Group-2">
                    <g id="Group-7-Copy-2" transform="translate(119.000000, 627.000000)">
                        <g id="分组-8-copy-8">
                            <g id="Group-28">
                                <g id="weibo">
                                    <circle id="椭圆形" fill="#FF7960" cx="22" cy="22" r="22"></circle>
                                    <path d="M27.270976,22.2633091 C26.4417806,22.1034958 26.8439338,21.6581144 26.8439338,21.6581144 C26.8439338,21.6581144 27.6560999,20.3206601 26.6841205,19.3486807 C25.4802807,18.1448408 22.5551828,19.5019443 22.5551828,19.5019443 C21.4391094,19.8503897 21.735157,19.3447508 21.8936604,18.4854266 C21.8936604,17.4728389 21.5465249,15.7607402 18.5703392,16.7720181 C15.5967632,17.7898456 13.0449793,21.3542173 13.0449793,21.3542173 C11.2700033,23.7225985 11.5044835,25.5538971 11.5044835,25.5538971 C11.948555,29.5950786 16.2425458,30.7032873 19.5829065,30.9679116 C23.0975002,31.2430001 27.8395025,29.7562121 29.2765024,26.7014297 C30.7148224,23.6400976 28.1027913,22.4310077 27.270976,22.2633245 L27.270976,22.2633091 Z M19.8435856,29.8282438 C16.353886,29.990677 13.5335889,28.2418999 13.5335889,25.9141167 C13.5335889,23.5824139 16.3539116,21.7131321 19.8422808,21.5519986 C23.3332853,21.3921852 26.1588273,22.8305053 26.1588273,25.1543484 C26.1588273,27.4834313 23.3332853,29.6684151 19.8422808,29.8282438 L19.8435856,29.8282438 Z" id="形状" fill="#FFFEFF" fill-rule="nonzero"></path>
                                    <path d="M19.1466793,23.0872699 C15.6373305,23.4985928 16.0434136,26.785256 16.0434136,26.785256 C16.0434136,26.785256 16.0080451,27.8253526 16.9839544,28.3558805 C19.0379488,29.4667142 21.1508856,28.7947122 22.2184911,27.4153397 C23.2874065,26.0359672 22.6599426,22.6798871 19.1466691,23.087275 L19.1466793,23.0872699 Z M18.2611563,27.7008873 C17.6061836,27.7768642 17.0782756,27.3995999 17.0782756,26.8507328 C17.0782756,26.3057955 17.547236,25.7346593 18.2035187,25.6665422 C18.9554273,25.5944952 19.4453469,26.0280871 19.4453469,26.5756443 C19.4453469,27.1218915 18.9135091,27.6262205 18.2611563,27.7008873 L18.2611563,27.7008873 Z M20.33087,25.9390108 C20.1081793,26.1053739 19.8344007,26.0817948 19.7178155,25.8826831 L19.7178156,25.8826832 C19.5906066,25.6546759 19.6542256,25.3675446 19.8658394,25.214611 C20.1265185,25.0207391 20.3963673,25.0757568 20.5129524,25.2709387 C20.6308475,25.4687404 20.547011,25.767408 20.32956,25.9390108 L20.33087,25.9390108 Z" id="形状" fill="#FFFEFF" fill-rule="nonzero"></path>
                                    <path d="M26.1732315,15.8039736 L26.1732316,15.8039736 C25.7738799,15.8039735 25.4501417,16.1277117 25.4501417,16.5270634 C25.4501417,16.9264151 25.7738799,17.2501533 26.1732316,17.2501533 C26.1732316,17.2501533 26.1732316,17.2501533 26.1732316,17.2501533 L26.1732316,17.2501533 C27.2960467,17.2511068 28.2054942,18.1621004 28.2045399,19.2849155 C28.2044667,19.3710618 28.1989182,19.4571165 28.1879278,19.5425577 L28.2049571,19.5425577 C28.2010273,19.5726864 28.1879278,19.5975754 28.1879278,19.6290141 C28.1879278,20.0272375 28.5114843,20.3521039 28.9123276,20.3521039 C29.2778024,20.3521039 29.5673003,20.0770154 29.6157683,19.7233302 L29.623628,19.7246401 C29.6249379,19.7063009 29.623628,19.6879616 29.6275578,19.6696224 C29.6275578,19.6565229 29.6354175,19.6434235 29.6354175,19.6290141 C29.6354175,19.6211544 29.6301777,19.6132947 29.6301777,19.606745 C29.6406573,19.4980195 29.6511368,19.390604 29.6511368,19.2792587 L29.6511368,19.2792561 C29.6482482,17.3598714 28.0926139,15.8048307 26.1732318,15.802656 L26.1732315,15.8039736 Z" id="路径" fill="#FFFEFF" fill-rule="nonzero"></path>
                                    <path d="M26.1732264,13.0006904 L26.1732264,13.0006904 C25.6939322,12.9820657 25.2902899,13.3555116 25.2716641,13.8348058 C25.2530394,14.3141 25.6264854,14.7177423 26.1057795,14.7363681 C26.1282527,14.7372413 26.1507513,14.7372414 26.1732246,14.7363681 L26.1732247,14.7363681 C28.685086,14.7393917 30.7188888,16.7781099 30.7158697,19.2899634 C30.7155382,19.5653948 30.6901877,19.8402249 30.6401309,20.1110689 L30.6506104,20.1136888 C30.6479905,20.1464374 30.6414408,20.1791861 30.6414408,20.2119347 L30.6414408,20.2119358 C30.6444764,20.690859 31.0351817,21.0766404 31.5141024,21.0736061 C31.9056251,21.0711245 32.2469222,20.8065998 32.3469897,20.4280742 L32.3482996,20.4280742 L32.3482996,20.4228344 C32.3653289,20.3573371 32.3758085,20.2918399 32.3771184,20.2211028 C32.4229665,19.9106458 32.4530953,19.5962589 32.4530953,19.280562 L32.4530953,19.2805893 C32.44878,15.8140952 29.6397317,13.0050299 26.1732376,13.0006804 L26.1732264,13.0006904 Z" id="路径" fill="#FFFEFF"></path>
                                </g>
                            </g>
                        </g>
                    </g>
                </g>
            </g>
        </g>
    </g>
</svg>