<?xml version="1.0" encoding="UTF-8"?>
<svg width="44px" height="44px" viewBox="0 0 44 44" version="1.1" xmlns="http://www.w3.org/2000/svg" xmlns:xlink="http://www.w3.org/1999/xlink">
    <!-- Generator: Sketch 53.2 (72643) - https://sketchapp.com -->
    <title>weixin</title>
    <desc>Created with Sketch.</desc>
    <g id="Page-1" stroke="none" stroke-width="1" fill="none" fill-rule="evenodd">
        <g id="登录注册-" transform="translate(-1225.000000, -756.000000)">
            <g id="Group-30" transform="translate(1000.000000, 129.000000)">
                <g id="Group-2">
                    <g id="Group-7-Copy-2" transform="translate(119.000000, 627.000000)">
                        <g id="分组-8-copy-8">
                            <g id="Group-28">
                                <g id="weixin" transform="translate(106.000000, 0.000000)">
                                    <g>
                                        <circle id="椭圆形" fill="#47B233" cx="22" cy="22" r="22"></circle>
                                        <path d="M25.985288,18.3558355 L25.9852878,18.3558355 C26.2410537,18.3571081 26.4965653,18.3721381 26.7507159,18.4008604 C26.0528263,15.172544 22.6308883,12.7906977 18.7136835,12.7906977 C14.3462279,12.7906977 10.744186,15.7758811 10.744186,19.5670243 C10.744186,21.7552563 11.9373586,23.5517641 13.9319922,24.9700692 L13.1350424,27.3609238 L15.9221163,25.9651375 L15.9221156,25.9651374 C16.8363265,26.193943 17.7719207,26.3267367 18.7136846,26.3613602 C18.9613234,26.3613602 19.208964,26.3613602 19.4566029,26.3298424 L19.4566026,26.3298417 C19.2937464,25.7879254 19.2103321,25.2252562 19.2089638,24.6593991 C19.2089638,21.1744285 22.1986424,18.3558527 25.9852905,18.3558527 L25.985288,18.3558355 Z M21.7033659,16.1946104 L21.7033659,16.1946104 C22.2195165,16.1612036 22.6650196,16.5525437 22.6984271,17.0686943 C22.7010343,17.1089778 22.7010343,17.1493877 22.6984271,17.1896712 L22.6984271,17.1896717 C22.7318337,17.7058222 22.340492,18.1513253 21.8243432,18.1847328 C21.7840597,18.1873401 21.7436498,18.18734 21.7033663,18.1847327 L21.7033663,18.1847327 C21.100579,18.2320119 20.5696678,17.7909151 20.5056914,17.1896716 L20.5056914,17.1896722 C20.5582047,16.5799846 21.0934136,16.1272713 21.7033662,16.1765999 L21.7033659,16.1946104 Z M16.1472347,18.1667162 L16.1472347,18.1667162 C15.5435395,18.2141246 15.0112923,17.7735755 14.9450575,17.1716551 L14.9450575,17.171655 C15.0112933,16.5697345 15.5435395,16.1291851 16.1472348,16.1765939 L16.1472348,16.1765939 C16.6633854,16.1431871 17.1088885,16.5345272 17.1422959,17.0506778 C17.1449032,17.0909613 17.1449032,17.1313712 17.1422959,17.1716547 L17.142296,17.1716551 C17.1757026,17.6878057 16.7843609,18.1333087 16.2682121,18.1667162 C16.2279286,18.1693235 16.1875187,18.1693235 16.1472352,18.1667162 L16.1472347,18.1667162 Z M33.2568887,24.5468057 C33.2568887,21.3635127 30.0690825,18.7655402 26.5030737,18.7655402 C22.7119304,18.7655402 19.7492586,21.3635127 19.7492586,24.5468057 C19.7492586,27.7300988 22.7344421,30.3280713 26.5030737,30.3280713 L26.5030739,30.3280713 C27.3130471,30.2925295 28.115785,30.1594958 28.8939285,29.9318484 L31.0776652,31.125021 L30.483331,29.1348987 C32.0637217,27.9372238 33.2569014,26.3433297 33.2569014,24.5468039 L33.2568887,24.5468057 Z M24.2923301,23.5517446 L24.2923301,23.5517446 C23.8521872,23.5517446 23.4953803,23.1949378 23.4953803,22.7547949 C23.4953803,22.3146519 23.8521872,21.9578451 24.2923301,21.9578451 L24.29233,21.9578451 C24.7865976,21.9026708 25.2320057,22.2586254 25.2871816,22.7528929 C25.2872524,22.7535268 25.2873225,22.7541608 25.2873919,22.7547949 L25.2873919,22.7547949 C25.2332682,23.249177 24.7886167,23.6060788 24.2942327,23.5519541 C24.2935986,23.5518847 24.2929646,23.5518146 24.2923307,23.5517439 L24.2923301,23.5517446 Z M28.673307,23.5517446 L28.673307,23.5517446 C28.2331641,23.5517446 27.8763572,23.1949378 27.8763572,22.7547949 C27.8763572,22.3146519 28.2331641,21.9578451 28.673307,21.9578451 L28.6733069,21.9578451 C29.16333,21.9105302 29.6005251,22.2655006 29.6548611,22.7547949 L29.6548611,22.7547945 C29.6005255,23.2440888 29.1633301,23.5990581 28.6733088,23.5517443 L28.673307,23.5517446 Z" id="形状" fill="#FFFEFF" fill-rule="nonzero"></path>
                                    </g>
                                </g>
                            </g>
                        </g>
                    </g>
                </g>
            </g>
        </g>
    </g>
</svg>